<?xml version="1.0" encoding="UTF-8" standalone="no"?>
<svg
   xmlns:dc="http://purl.org/dc/elements/1.1/"
   xmlns:cc="http://creativecommons.org/ns#"
   xmlns:rdf="http://www.w3.org/1999/02/22-rdf-syntax-ns#"
   xmlns:svg="http://www.w3.org/2000/svg"
   xmlns="http://www.w3.org/2000/svg"
   xmlns:sodipodi="http://sodipodi.sourceforge.net/DTD/sodipodi-0.dtd"
   xmlns:inkscape="http://www.inkscape.org/namespaces/inkscape"
   viewBox="0 0 102 21.705"
   class="gamut-1gm52i-LogoSvg ektf5w70"
   version="1.1"
   id="svg8"
   sodipodi:docname="Codecademy.svg"
   inkscape:version="1.0.2-2 (e86c870879, 2021-01-15)">
  <sodipodi:namedview
     pagecolor="#ffffff"
     bordercolor="#666666"
     borderopacity="1"
     objecttolerance="10"
     gridtolerance="10"
     guidetolerance="10"
     inkscape:pageopacity="0"
     inkscape:pageshadow="2"
     inkscape:window-width="1920"
     inkscape:window-height="986"
     id="namedview8"
     showgrid="false"
     inkscape:zoom="11.930694"
     inkscape:cx="65.19157"
     inkscape:cy="17.449547"
     inkscape:window-x="-11"
     inkscape:window-y="-11"
     inkscape:window-maximized="1"
     inkscape:current-layer="svg8" />
  <metadata
     id="metadata14">
    <rdf:RDF>
      <cc:Work
         rdf:about="">
        <dc:format>image/svg+xml</dc:format>
        <dc:type
           rdf:resource="http://purl.org/dc/dcmitype/StillImage" />
        <dc:title>Codecademy Logo</dc:title>
      </cc:Work>
    </rdf:RDF>
  </metadata>
  <defs
     id="defs12" />
  <title
     id="title2">Codecademy Logo</title>
  <g
     fill="none"
     fill-rule="nonzero"
     id="g6"
     transform="scale(1.0038037)">
    <path
       fill="currentColor"
       d="M 4.213,14.896 C 4.021,14.334 3.935,13.621 3.935,12.67 c 0,-0.95 0.086,-1.664 0.278,-2.226 0.513,-1.599 1.86,-2.485 3.637,-2.485 1.326,0 2.353,0.54 3.06,1.404 a 0.18,0.18 0 0 1 -0.022,0.26 L 9.732,10.66 C 9.646,10.726 9.54,10.726 9.476,10.617 9.026,10.12 8.576,9.839 7.85,9.839 c -0.792,0 -1.39,0.39 -1.648,1.167 -0.128,0.454 -0.17,0.973 -0.17,1.664 0,0.692 0.042,1.232 0.192,1.686 0.257,0.756 0.856,1.167 1.647,1.167 0.727,0 1.198,-0.28 1.626,-0.778 0.064,-0.086 0.171,-0.086 0.257,-0.022 l 1.155,1.038 c 0.086,0.065 0.064,0.173 0.022,0.26 -0.707,0.842 -1.734,1.382 -3.06,1.382 C 6.096,17.382 4.726,16.517 4.213,14.896 Z m 39.704,0 c -0.192,-0.562 -0.278,-1.275 -0.278,-2.226 0,-0.95 0.086,-1.664 0.278,-2.226 0.514,-1.599 1.862,-2.485 3.637,-2.485 1.326,0 2.375,0.54 3.06,1.404 a 0.18,0.18 0 0 1 -0.022,0.26 l -1.155,1.037 c -0.086,0.066 -0.193,0.066 -0.257,-0.043 -0.45,-0.497 -0.899,-0.778 -1.626,-0.778 -0.791,0 -1.39,0.39 -1.647,1.167 -0.15,0.454 -0.193,0.973 -0.193,1.664 0,0.692 0.043,1.232 0.193,1.686 0.257,0.756 0.856,1.167 1.647,1.167 0.727,0 1.198,-0.28 1.626,-0.778 0.064,-0.086 0.171,-0.086 0.257,-0.022 l 1.155,1.038 c 0.086,0.065 0.064,0.173 0.022,0.26 -0.707,0.842 -1.734,1.382 -3.06,1.382 -1.775,-0.021 -3.123,-0.886 -3.637,-2.507 z m 46.552,2.27 c -0.107,0 -0.192,-0.066 -0.192,-0.195 v -5.187 c 0,-1.167 -0.578,-1.967 -1.67,-1.967 -1.069,0 -1.69,0.8 -1.69,1.967 v 5.187 c 0,0.108 -0.064,0.195 -0.192,0.195 h -1.69 c -0.107,0 -0.192,-0.066 -0.192,-0.195 v -5.187 c 0,-1.167 -0.578,-1.967 -1.67,-1.967 -1.069,0 -1.69,0.8 -1.69,1.967 v 5.187 c 0,0.108 -0.063,0.195 -0.192,0.195 h -1.69 c -0.107,0 -0.192,-0.066 -0.192,-0.195 V 8.348 c 0,-0.108 0.064,-0.195 0.192,-0.195 h 1.69 c 0.107,0 0.193,0.065 0.193,0.195 v 0.648 h 0.021 c 0.385,-0.562 1.155,-1.037 2.332,-1.037 1.048,0 1.883,0.432 2.418,1.189 h 0.021 c 0.684,-0.757 1.562,-1.19 2.824,-1.19 2.054,0 3.209,1.427 3.209,3.35 v 5.685 c 0,0.108 -0.064,0.194 -0.193,0.194 z m 4.228,3.177 c -0.108,0 -0.193,-0.066 -0.193,-0.195 v -1.491 c 0,-0.108 0.064,-0.194 0.193,-0.194 h 0.32 c 0.707,0 1.048,-0.325 1.327,-1.06 L 96.601,16.647 93.37,8.153 C 93.327,8.045 93.413,7.959 93.52,7.959 h 1.818 c 0.107,0 0.193,0.065 0.214,0.194 l 1.99,5.879 h 0.043 l 1.904,-5.879 c 0.043,-0.108 0.107,-0.194 0.213,-0.194 h 1.733 c 0.108,0 0.193,0.065 0.15,0.194 l -3.337,9.401 c -0.77,2.14 -1.498,2.81 -2.974,2.81 z m -76.93,-6.009 c 0.15,-0.475 0.192,-0.908 0.192,-1.664 0,-0.756 -0.043,-1.167 -0.192,-1.664 -0.257,-0.757 -0.835,-1.167 -1.647,-1.167 -0.813,0 -1.412,0.432 -1.669,1.167 -0.15,0.475 -0.193,0.886 -0.193,1.664 0,0.756 0.043,1.189 0.193,1.664 0.257,0.757 0.835,1.167 1.669,1.167 0.812,0.022 1.39,-0.41 1.647,-1.167 z m -5.306,0.562 c -0.192,-0.627 -0.3,-1.232 -0.3,-2.226 0,-0.994 0.087,-1.578 0.3,-2.226 0.492,-1.578 1.84,-2.485 3.637,-2.485 1.776,0 3.124,0.907 3.615,2.485 0.193,0.627 0.3,1.232 0.3,2.226 0,0.994 -0.086,1.578 -0.3,2.226 -0.491,1.578 -1.84,2.485 -3.615,2.485 -1.775,0 -3.123,-0.907 -3.637,-2.485 z M 55.546,7.959 c 2.695,0 3.68,0.95 3.722,3.155 v 5.857 c 0,0.13 -0.085,0.195 -0.192,0.195 h -1.54 c -0.13,0 -0.193,-0.087 -0.193,-0.195 v -0.648 h -0.022 c -0.406,0.605 -1.24,1.037 -2.481,1.037 -1.626,0 -2.974,-0.865 -2.974,-2.745 0,-1.945 1.348,-2.853 3.53,-2.853 h 0.728 c 0.128,0 0.192,0.087 0.192,0.195 v 1.189 c 0,0.13 -0.086,0.194 -0.192,0.194 h -0.407 c -1.327,0 -1.904,0.368 -1.904,1.21 0,0.757 0.535,1.124 1.519,1.124 1.262,0 1.968,-0.497 1.968,-1.534 v -3.004 c -0.043,-0.973 -0.535,-1.405 -1.968,-1.405 -0.984,0 -1.583,0.281 -2.011,0.627 -0.086,0.064 -0.193,0.043 -0.257,-0.043 L 52.379,9.082 C 52.337,8.996 52.358,8.91 52.422,8.845 c 0.706,-0.54 1.67,-0.886 3.124,-0.886 z m -21.66,3.803 h 2.502 c 0.065,0 0.108,-0.043 0.108,-0.108 0,-0.302 -0.043,-0.54 -0.108,-0.756 -0.235,-0.735 -0.877,-1.167 -1.711,-1.167 -0.834,0 -1.498,0.432 -1.733,1.167 -0.021,0.087 -0.043,0.173 -0.064,0.28 v 0.044 c -0.064,0.41 -0.086,0.735 -0.107,1.254 -0.003,0.434 0.033,0.868 0.107,1.296 0.021,0.13 0.064,0.26 0.107,0.39 0.278,0.885 0.984,1.361 1.968,1.361 1.006,0 1.626,-0.367 2.075,-0.864 0.086,-0.109 0.193,-0.109 0.278,-0.044 l 1.07,0.973 c 0.086,0.065 0.086,0.173 0.021,0.26 -0.77,0.907 -2.01,1.534 -3.636,1.534 -1.862,0 -3.188,-0.93 -3.68,-2.507 -0.193,-0.584 -0.321,-1.276 -0.321,-2.205 0,-0.93 0.107,-1.642 0.3,-2.226 0.492,-1.577 1.86,-2.485 3.615,-2.485 1.818,0 3.145,0.95 3.637,2.485 0.214,0.627 0.3,1.254 0.3,2.702 0,0.13 -0.065,0.194 -0.193,0.194 h -4.536 c -0.064,0 -0.085,-0.043 -0.085,-0.086 v -1.405 c 0,-0.065 0.043,-0.087 0.085,-0.087 z m -4.83,-7.42 c 0.107,0 0.193,0.064 0.214,0.107 v 12.319 c 0,0.13 -0.085,0.195 -0.192,0.195 h -1.69 c -0.128,0 -0.193,-0.087 -0.193,-0.195 v -0.67 h -0.021 c -0.407,0.605 -1.134,1.06 -2.332,1.06 -1.498,0 -2.61,-0.714 -3.06,-2.162 -0.234,-0.692 -0.32,-1.319 -0.32,-2.529 0,-1.21 0.107,-1.837 0.32,-2.528 0.45,-1.427 1.52,-2.14 2.996,-2.161 h 1.262 c 0.043,0.02 0.064,0.043 0.064,0.086 v 1.707 c 0,0.044 -0.021,0.087 -0.064,0.087 h -0.727 c -0.792,0.021 -1.348,0.432 -1.583,1.167 -0.129,0.41 -0.193,0.864 -0.193,1.685 0,0.822 0.064,1.276 0.193,1.686 0.235,0.735 0.812,1.146 1.625,1.146 0.835,0 1.412,-0.39 1.648,-1.146 a 4.85,4.85 0 0 0 0.171,-1.167 V 4.536 c 0,-0.13 0.085,-0.195 0.192,-0.195 h 1.69 z m 44.176,7.42 h 2.503 c 0.064,0 0.107,-0.043 0.107,-0.108 0,-0.302 -0.043,-0.54 -0.107,-0.756 -0.235,-0.735 -0.877,-1.167 -1.712,-1.167 -0.834,0 -1.497,0.432 -1.732,1.167 a 5.779,5.779 0 0 0 -0.064,0.28 v 0.044 c -0.064,0.41 -0.086,0.735 -0.107,1.254 -0.003,0.434 0.033,0.868 0.106,1.296 0.022,0.13 0.065,0.26 0.108,0.39 0.278,0.885 0.984,1.361 1.968,1.361 1.006,0 1.626,-0.367 2.075,-0.864 0.086,-0.109 0.193,-0.109 0.278,-0.044 l 1.07,0.973 c 0.085,0.065 0.085,0.173 0.021,0.26 -0.77,0.907 -2.011,1.534 -3.637,1.534 -1.86,0 -3.187,-0.93 -3.68,-2.507 -0.192,-0.584 -0.32,-1.276 -0.32,-2.205 0,-0.93 0.107,-1.642 0.3,-2.226 0.491,-1.577 1.86,-2.485 3.614,-2.485 1.819,0 3.145,0.95 3.638,2.485 0.213,0.627 0.3,1.254 0.3,2.702 0,0.13 -0.065,0.194 -0.193,0.194 h -4.536 c -0.064,0 -0.086,-0.043 -0.086,-0.086 v -1.405 c 0,-0.065 0.043,-0.087 0.086,-0.087 z m -4.829,-7.42 c 0.107,0 0.193,0.064 0.236,0.172 v 12.319 c 0,0.13 -0.086,0.194 -0.193,0.194 h -1.69 c -0.128,0 -0.192,-0.086 -0.192,-0.194 v -0.67 h -0.022 c -0.428,0.605 -1.155,1.059 -2.353,1.059 -1.498,0 -2.61,-0.713 -3.06,-2.161 -0.235,-0.692 -0.32,-1.34 -0.32,-2.55 0,-1.232 0.107,-1.86 0.32,-2.551 0.45,-1.426 1.54,-2.14 3.017,-2.161 h 1.24 c 0.129,0 0.193,0.086 0.193,0.194 v 1.492 c 0,0.13 -0.085,0.194 -0.192,0.194 H 64.66 c -0.792,0.022 -1.349,0.433 -1.584,1.167 -0.128,0.41 -0.192,0.865 -0.192,1.686 0,0.821 0.064,1.275 0.192,1.686 0.235,0.756 0.792,1.167 1.626,1.167 0.835,0 1.412,-0.41 1.648,-1.167 0.085,-0.302 0.15,-0.649 0.17,-1.167 V 4.536 c 0,-0.13 0.086,-0.195 0.193,-0.195 h 1.69 z M 50.078,19.534 c 0.295,0 0.357,0.09 0.357,0.362 v 1.447 c 0,0.294 -0.083,0.362 -0.357,0.362 h -5.723 c -0.296,0 -0.358,-0.09 -0.358,-0.362 v -1.447 c 0,-0.295 0.052,-0.362 0.358,-0.362 z M 0,0.362 C 0,0.109 0.043,0.043 0,0 h 42.208 c 0.23,0 0.272,0.022 0.358,0 v 21.344 c 0,0.231 -0.021,0.275 0,0.362 -0.086,-0.022 -0.129,0 -0.358,0 H 0 V 21.704 L 0.007,21.676 C 0.013,21.639 0.005,21.623 0.001,21.664 L 0,21.69 V 0.361 Z M 2.146,19.535 H 40.42 c -0.043,-0.043 0,-0.107 0,-0.362 V 2.171 H 2.146 Z"
       id="path4" />
  </g>
</svg>
