<?xml version="1.0" encoding="UTF-8" standalone="no"?>
<svg
   xmlns:dc="http://purl.org/dc/elements/1.1/"
   xmlns:cc="http://creativecommons.org/ns#"
   xmlns:rdf="http://www.w3.org/1999/02/22-rdf-syntax-ns#"
   xmlns:svg="http://www.w3.org/2000/svg"
   xmlns="http://www.w3.org/2000/svg"
   id="Layer_1"
   data-name="Layer 1"
   viewBox="0 0 474.15 58.26"
   version="1.1">
  <metadata
     id="metadata11">
    <rdf:RDF>
      <cc:Work
         rdf:about="">
        <dc:format>image/svg+xml</dc:format>
        <dc:type
           rdf:resource="http://purl.org/dc/dcmitype/StillImage" />
        <dc:title></dc:title>
      </cc:Work>
    </rdf:RDF>
  </metadata>
  <defs
     id="defs4">
    <style
       id="style2">.cls-1{fill:#222;}</style>
  </defs>
  <path
     class="cls-1"
     d="m 117.50841,37.531718 a 2.8101646,2.8101646 0 0 0 -1.87762,0.707235 c -2.56607,2.165516 -5.08208,3.373449 -8.81227,3.373449 -6.74064,0 -11.628703,-5.589036 -11.628703,-12.517437 v -0.100139 c 0,-6.884591 4.938133,-12.436074 11.628703,-12.436074 a 12.780303,12.780303 0 0 1 8.41171,3.17317 3.1293592,3.1293592 0 0 0 4.93187,-2.422124 3.0918069,3.0918069 0 0 0 -1.20793,-2.465935 c -3.06677,-2.365795 -6.64676,-3.974286 -12.08558,-3.974286 -10.639826,0 -18.150288,8.20518 -18.150288,18.225388 v 0.10014 c 0,10.126606 7.654413,18.150283 17.924968,18.150283 5.68918,0 9.46944,-1.808769 12.79282,-4.731591 a 2.9916674,2.9916674 0 0 0 1.00766,-2.215586 2.9478564,2.9478564 0 0 0 -2.93534,-2.866493 z m 23.06337,-11.228141 c -6.80322,-1.61475 -8.41171,-2.822682 -8.41171,-5.538966 v -0.10014 c 0,-2.321984 2.11544,-4.180824 5.73924,-4.180824 2.77261,0 5.38876,0.901256 8.13634,2.666214 a 3.0292197,3.0292197 0 0 0 1.61475,0.456887 2.8852692,2.8852692 0 0 0 2.91656,-2.872752 2.7851297,2.7851297 0 0 0 -1.35814,-2.465935 19.402027,19.402027 0 0 0 -11.17807,-3.27331 c -6.99725,0 -12.02926,4.174565 -12.02926,10.220488 v 0.100139 c 0,6.49655 4.22463,8.712136 11.72884,10.527165 6.54662,1.508351 7.95483,2.866493 7.95483,5.388756 v 0.10014 c 0,2.616144 -2.41587,4.431172 -6.25872,4.431172 a 15.271273,15.271273 0 0 1 -9.87,-3.623798 2.9916674,2.9916674 0 0 0 -4.73159,2.315726 2.8915279,2.8915279 0 0 0 1.20793,2.365796 21.905515,21.905515 0 0 0 13.23719,4.431172 c 7.40407,0 12.59254,-3.930475 12.59254,-10.527164 v -0.10014 c 0.0188,-5.839384 -3.84285,-8.511857 -11.29073,-10.320626 z m 31.21223,0 c -6.79696,-1.61475 -8.40546,-2.822682 -8.40546,-5.538966 v -0.10014 c 0,-2.321984 2.11545,-4.180824 5.73925,-4.180824 2.76635,0 5.38876,0.901256 8.13633,2.666214 a 3.0292197,3.0292197 0 0 0 1.61475,0.456887 2.8852692,2.8852692 0 0 0 2.91657,-2.872752 2.7851297,2.7851297 0 0 0 -1.35815,-2.465935 19.402027,19.402027 0 0 0 -11.20936,-3.27331 c -6.99725,0 -12.03552,4.174565 -12.03552,10.220488 v 0.100139 c 0,6.49655 4.2309,8.712136 11.7351,10.527165 6.54662,1.508351 7.95483,2.866493 7.95483,5.388756 v 0.10014 c 0,2.616144 -2.41586,4.431172 -6.25872,4.431172 a 15.271273,15.271273 0 0 1 -9.86374,-3.623798 2.9979262,2.9979262 0 0 0 -4.73785,2.315726 2.9103041,2.9103041 0 0 0 1.20794,2.365796 21.943067,21.943067 0 0 0 13.24344,4.431172 c 7.40407,0 12.58629,-3.930475 12.58629,-10.527164 v -0.10014 c 0.0125,-5.839384 -3.81156,-8.511857 -11.2657,-10.320626 z m 28.55228,2.015307 h -9.46944 a 2.9979262,2.9979262 0 0 0 0,5.989594 h 9.46944 a 2.9979262,2.9979262 0 0 0 0,-5.989594 z m 28.52724,-16.823435 h -23.39509 a 2.8727518,2.8727518 0 1 0 0,5.739245 h 8.55566 v 26.693434 a 3.12936,3.12936 0 0 0 6.25872,0 V 17.234694 h 8.58071 a 2.8727518,2.8727518 0 0 0 0,-5.739245 z m 24.31512,0 h -12.56751 a 3.0792895,3.0792895 0 0 0 -3.12936,3.129359 v 29.309579 a 3.1293592,3.1293592 0 0 0 6.19613,0 v -9.4757 h 7.80463 l 8.55566,10.927722 a 3.5486934,3.5486934 0 0 0 3.02296,1.61475 2.9228215,2.9228215 0 0 0 2.9729,-2.872752 3.6112806,3.6112806 0 0 0 -1.00766,-2.365796 l -6.7469,-8.511857 c 4.73159,-1.458281 8.0049,-4.8818 8.0049,-10.527164 v -0.10014 a 10.639821,10.639821 0 0 0 -2.92282,-7.604343 c -2.25939,-2.215586 -5.70795,-3.523658 -10.16416,-3.523658 z m 6.81574,11.578629 c 0,3.573728 -2.81642,5.889454 -7.24759,5.889454 h -9.06263 V 17.134554 h 9.01256 c 4.58138,0 7.29766,2.065377 7.29766,5.845643 z M 276.86164,11.2451 a 3.0605133,3.0605133 0 0 0 -3.12936,3.073031 v 29.609997 a 3.0980657,3.0980657 0 0 0 6.18987,0 V 14.311872 A 3.0479959,3.0479959 0 0 0 276.86164,11.2451 Z m 39.22339,26.286618 a 2.7913884,2.7913884 0 0 0 -1.87762,0.707235 c -2.57233,2.165516 -5.08834,3.373449 -8.81227,3.373449 -6.7469,0 -11.63496,-5.589036 -11.63496,-12.517437 v -0.100139 c 0,-6.884591 4.93813,-12.436074 11.63496,-12.436074 a 12.767786,12.767786 0 0 1 8.40546,3.17317 3.0479959,3.0479959 0 0 0 1.87761,0.625872 3.0104436,3.0104436 0 0 0 3.07303,-3.022961 3.1293592,3.1293592 0 0 0 -1.20793,-2.465935 c -3.07303,-2.365796 -6.64676,-3.974286 -12.08559,-3.974286 -10.67737,0 -18.15028,8.20518 -18.15028,18.225388 v 0.100139 c 0,10.126607 7.64815,18.150284 17.92497,18.150284 5.68917,0 9.46318,-1.80877 12.78656,-4.731591 a 2.9916674,2.9916674 0 0 0 1.00765,-2.215586 2.9478564,2.9478564 0 0 0 -2.94159,-2.891528 z m 25.66074,-10.527165 10.9778,-10.570975 a 3.0354785,3.0354785 0 0 0 1.10779,-2.321985 2.8351995,2.8351995 0 0 0 -2.87275,-2.866493 3.2482749,3.2482749 0 0 0 -2.55356,1.189157 L 331.69427,29.220139 V 14.311872 a 3.0980657,3.0980657 0 0 0 -6.18987,0 v 29.609997 a 3.0980657,3.0980657 0 0 0 6.18987,0 v -7.297666 l 5.73925,-5.538965 11.32828,14.457639 a 3.1293592,3.1293592 0 0 0 2.6224,1.458282 3.0167023,3.0167023 0 0 0 3.12936,-3.022961 3.3671905,3.3671905 0 0 0 -0.85119,-2.215587 z m 32.42016,-0.700976 c -6.79696,-1.61475 -8.40545,-2.822682 -8.40545,-5.538966 v -0.10014 c 0,-2.321984 2.11544,-4.180824 5.73924,-4.180824 2.77261,0 5.38876,0.901256 8.13633,2.666214 a 3.0292197,3.0292197 0 0 0 1.61475,0.456887 2.8852692,2.8852692 0 0 0 2.91657,-2.872752 2.7851297,2.7851297 0 0 0 -1.33937,-2.465935 19.402027,19.402027 0 0 0 -11.17807,-3.27331 c -6.99725,0 -12.03552,4.174565 -12.03552,10.220488 v 0.100139 c 0,6.49655 4.2309,8.712136 11.7351,10.527165 6.54662,1.508351 7.95483,2.866493 7.95483,5.388756 v 0.10014 c 0,2.616144 -2.41586,4.431172 -6.25872,4.431172 a 15.271273,15.271273 0 0 1 -9.86374,-3.623798 2.9979262,2.9979262 0 0 0 -4.73785,2.315726 2.8977867,2.8977867 0 0 0 1.2142,2.365796 21.905515,21.905515 0 0 0 13.23718,4.431172 c 7.40407,0 12.58629,-3.930475 12.58629,-10.527164 v -0.10014 c -0.0188,-5.839384 -3.84286,-8.511857 -11.29699,-10.320626 z"
     id="path6"
     style="stroke-width:0.625872" />
</svg>
