<?xml version="1.0" encoding="UTF-8" standalone="no"?>
<!-- Creator: CorelDRAW X7 -->

<svg
   xmlns:dc="http://purl.org/dc/elements/1.1/"
   xmlns:cc="http://creativecommons.org/ns#"
   xmlns:rdf="http://www.w3.org/1999/02/22-rdf-syntax-ns#"
   xmlns:svg="http://www.w3.org/2000/svg"
   xmlns="http://www.w3.org/2000/svg"
   xmlns:sodipodi="http://sodipodi.sourceforge.net/DTD/sodipodi-0.dtd"
   xmlns:inkscape="http://www.inkscape.org/namespaces/inkscape"
   xml:space="preserve"
   width="200mm"
   height="200mm"
   version="1.1"
   style="clip-rule:evenodd;fill-rule:evenodd;image-rendering:optimizeQuality;shape-rendering:geometricPrecision;text-rendering:geometricPrecision"
   viewBox="0 0 7874.2823 7874.083"
   id="svg2"
   inkscape:version="0.91 r13725"
   sodipodi:docname="letni-it_logo.svg"><metadata
     id="metadata20"><rdf:RDF><cc:Work
         rdf:about=""><dc:format>image/svg+xml</dc:format><dc:type
           rdf:resource="http://purl.org/dc/dcmitype/StillImage" /><dc:title></dc:title></cc:Work></rdf:RDF></metadata><sodipodi:namedview
     pagecolor="#ffffff"
     bordercolor="#666666"
     borderopacity="1"
     objecttolerance="10"
     gridtolerance="10"
     guidetolerance="10"
     inkscape:pageopacity="0"
     inkscape:pageshadow="2"
     inkscape:window-width="1680"
     inkscape:window-height="987"
     id="namedview18"
     showgrid="false"
     units="mm"
     inkscape:snap-bbox="true"
     inkscape:bbox-paths="true"
     inkscape:bbox-nodes="true"
     inkscape:snap-bbox-edge-midpoints="true"
     inkscape:snap-bbox-midpoints="true"
     inkscape:snap-page="true"
     inkscape:zoom="0.63429642"
     inkscape:cx="493.96937"
     inkscape:cy="448.83206"
     inkscape:window-x="-8"
     inkscape:window-y="-8"
     inkscape:window-maximized="1"
     inkscape:current-layer="svg2" /><defs
     id="defs4"><style
       type="text/css"
       id="style6"><![CDATA[
    .fil1 {fill:#2B2E83}
    .fil0 {fill:#E5007E}
   ]]></style></defs><g
     id="g4150"
     transform="matrix(0.8957984,0,0,0.8957984,391.02768,2999.6623)"><g
       transform="translate(0,-3819.0143)"
       id="Vrstva_x0020_1"><metadata
         id="CorelCorpID_0Corel-Layer" /><path
         style="fill:#e5007e"
         inkscape:connector-curvature="0"
         id="path10"
         d="m 4799,2177 c -450,-78 -830,-393 -1092,-712 -67,-82 -62,-86 -43,-205 16,-96 18,-174 21,-272 475,125 1012,686 1114,1189 z m -3495,463 c 0,-1082 1054,-1993 2210,-1704 7,350 -96,683 -249,966 -111,204 -303,497 -454,656 -311,327 -839,808 -1300,950 -93,-300 -207,-379 -207,-868 z m 2289,1057 1,683 c -461,81 -731,123 -1212,-77 -266,-111 -650,-405 -770,-650 378,-113 911,-561 1177,-825 270,-269 450,-519 636,-864 55,-102 109,-277 162,-357 l 68,63 c 107,137 324,315 468,407 241,153 390,207 714,283 62,117 38,431 16,575 -83,548 -354,890 -752,1201 35,43 77,91 126,118 78,-43 200,-159 256,-218 636,-668 746,-1593 289,-2372 C 4278,823 3144,443 2238,902 821,1621 756,3529 2097,4352 c 182,112 430,206 672,245 347,56 503,7 825,-38 l -1,-862 z"
         class="fil0" /><path
         style="fill:#2b2e83"
         inkscape:connector-curvature="0"
         id="path12"
         d="m 5452,7018 715,1400 -587,314 c -63,-102 -288,-587 -363,-736 -55,-110 -323,-686 -365,-727 -206,152 -947,818 -1094,911 l 0,-4117 2587,2347 c 44,37 338,290 371,347 L 5452,7018 Z M 3593,8528 c 55,-19 258,-201 313,-250 l 903,-750 c 71,183 573,1185 696,1429 l 665,-359 c 62,-35 167,-80 213,-125 L 5707,7140 c 128,-69 1089,-208 1361,-297 -26,-20 -58,-57 -88,-82 L 5650,5549 c -34,-31 -65,-50 -98,-82 L 4227,4254 c -49,-27 -91,-75 -126,-118 -59,-31 -73,-60 -124,-108 -46,-43 -80,-63 -126,-111 -38,-40 -214,-202 -258,-220 l 0,4831 z"
         class="fil1" /><path
         style="fill:#e5007e"
         inkscape:connector-curvature="0"
         id="path14"
         d="m 5393,2468 c 433,76 775,436 777,926 -354,-46 -786,-316 -785,-671 l 8,-255 z m 48,748 c 202,217 495,371 896,355 l 9,-139 c 20,-651 -494,-1169 -1154,-1156 18,190 4,412 24,579 20,170 145,274 225,361 z"
         class="fil0" /><path
         style="fill:#e5007e"
         inkscape:connector-curvature="0"
         id="path16"
         d="m 1245,5218 c -115,-146 -219,-341 -225,-591 -4,-231 93,-492 220,-610 172,170 293,218 277,596 -12,281 -123,434 -272,605 z m -5,240 c 89,-51 246,-238 305,-346 79,-144 137,-306 144,-500 10,-268 -2,-361 -138,-519 -53,-62 -98,-109 -147,-173 l -136,-179 c -94,53 -220,218 -290,345 -76,137 -126,313 -130,498 -4,193 42,374 117,525 60,121 197,306 275,349 z"
         class="fil0" /></g></g></svg>