<svg xmlns="http://www.w3.org/2000/svg" viewBox="0 0 428.74 380.74"><defs><style>.a{fill:#fff;}.b{fill:none;stroke:#ef0000;stroke-miterlimit:10;stroke-width:3px;}.c{fill:#05549b;}.d{fill:#ef0000;}</style></defs><path class="a" d="M61.44,62.54c-10,15-5.77,335.68,6.23,352.35S422.33,439.56,443,431.56s-4-254,2.67-271.31c1.06-2.78,36-68.69,36-68.69s-41.75,16.58-43.79,11.92S437,69.56,429,63.56,69.44,50.54,61.44,62.54Z" transform="translate(-55.85 -54.94)"/><path class="b" d="M76.85,59.52C66.52,73.54,56.15,383.34,67,400s341.3,39.79,361.61,33,7.62-245.36,14.79-261.8c1.15-2.64,37.85-64.7,37.85-64.7S440.18,120.6,438.42,116s.68-32.79-6.77-38.94S85.11,48.3,76.85,59.52Z" transform="translate(-55.85 -54.94)"/><path class="c" d="M226.48,105.29c-1.3,0-2.66.1-4,0a2.14,2.14,0,0,1-1.87-3,9.47,9.47,0,0,1,6.29-5.94,11,11,0,0,1,5.55-.06,4.58,4.58,0,0,1,3.63,3.39,18.67,18.67,0,0,1,.68,3.29c.37,3.71.63,7.44,1,11.15.25,2.6.57,5.19.91,7.78a21.21,21.21,0,0,0,.7,2.47,23.26,23.26,0,0,0,1.81-2.08c3.47-5.18,7.15-10.23,10.27-15.6,2.14-3.67,5.21-4.59,9.16-3.91a7.63,7.63,0,0,1,5.32,3.76,35.11,35.11,0,0,1,3.83,8.9c.44,1.54.84,3.1,1.28,4.7.46,0,.9.13,1.15,0q6.3-4,12.57-8.07c.16-.11.24-.36.44-.68-.5-.34-1-.66-1.5-1a29.62,29.62,0,0,1-2.88-2.36c-3.44-3.49-3.69-7.65-.45-11.36a20.26,20.26,0,0,1,13.94-7.09c7.13-.62,12.56,2.32,16.94,7.66a29.46,29.46,0,0,1,5.24,9.42l1,3a8.79,8.79,0,0,0,2.15.11c3.06-.55,6.12-1.14,9.15-1.83a35.75,35.75,0,0,0,3.5-1.26c2.36-.79,4.62-.82,6.77.94a14,14,0,0,1,.26,2.15c-.12,5.1-.47,10.21-.39,15.31a59.65,59.65,0,0,0,1.26,13,17.51,17.51,0,0,0,1.11,2.58,22.79,22.79,0,0,0,2.26-2.29,51.73,51.73,0,0,0,7.12-13.08c.38-1,.45-2.18.76-3.26.5-1.77.57-3.71,1.85-5.09a6.58,6.58,0,0,1,4.48-.51,2.73,2.73,0,0,1,2.49,2.82c.14,1.73.11,3.48.09,5.23a26.82,26.82,0,0,0,.69,7.41,18.2,18.2,0,0,0,2.48,5.41c1.93,2.82,4.1,3.25,7.05,1.45a11.84,11.84,0,0,0,4.51-4.88,20.41,20.41,0,0,1,3.91-5,2.29,2.29,0,0,1,3.49-.11,9,9,0,0,1-1.45,5.48c-.72,1-1.43,2-2.14,3.06-5.28,7.46-15.37,7.14-20.52,4.31a13.32,13.32,0,0,1-5-4.94c-.51-.84-.94-1.74-1.4-2.6-1.07,0-1.14.83-1.46,1.41-.9,1.63-1.65,3.36-2.65,4.93-1.85,2.92-4.44,4.64-8.07,4.49a7.14,7.14,0,0,1-6-3.19,24.3,24.3,0,0,1-3.92-8.82,59.22,59.22,0,0,1-.59-17.48,17.53,17.53,0,0,0,.2-4.56l-10.79,2.59c-.06.79-.16,1.49-.15,2.2,0,2.86.09,5.73.06,8.59a42.34,42.34,0,0,1-2.46,12.79,20.52,20.52,0,0,1-2.14,4.33,8.9,8.9,0,0,1-7.49,4.24c-7.54.4-13.31-2.58-16.85-11.45a27.13,27.13,0,0,1-1.77-9.5,28.08,28.08,0,0,1,.45-7.43,7.89,7.89,0,0,0,0-1.89c-4.4,2.11-12.15,7.9-15.9,11.81.2,3.86.44,7.7.57,11.54a81,81,0,0,1-2.46,22.2,21.33,21.33,0,0,1-3.78,8.06c-3.13,4-7.43,5.31-12.28,4.8-3.26-.34-5.39-2.37-6.42-5.5a21.39,21.39,0,0,1-.44-10A43,43,0,0,1,251.83,145a68.94,68.94,0,0,1,9.51-14.71c.32-.37.59-.79,1-1.39-1.19-6.34-2.42-12.78-4.84-18.83-1-.31-1.31.3-1.61.81q-4.2,7.06-8.36,14.15c-.89,1.5-1.65,3.08-2.64,4.51a9.23,9.23,0,0,1-11.58,3.18,5.76,5.76,0,0,1-2.46-2.17,22.2,22.2,0,0,1-2.17-5.12c-1.4-5.08-1.56-10.31-1.63-15.55C227,108.43,227.29,106.92,226.48,105.29Zm86.64,9.16c-4.77.16-9.1.3-13.44.47-.21,0-.4.26-.86.59-.21,2.14-.57,4.48-.63,6.83a33.55,33.55,0,0,0,2.17,13.55,13.09,13.09,0,0,0,2.95,4.7c1.75,1.69,3.16,1.64,4.81-.1a16.77,16.77,0,0,0,3.48-6.13,40.78,40.78,0,0,0,2.12-17.29A20.15,20.15,0,0,0,313.12,114.45Zm-22.67-5.86c.69-.84,1.35-1.72,2.1-2.52a9.74,9.74,0,0,1,6.82-3.4,2.57,2.57,0,0,1,2.62,1c.74,2.78-1.49,4.85-1.9,7.33a21.37,21.37,0,0,0,12.17-.28,1.35,1.35,0,0,0,.11-.34,2.31,2.31,0,0,0,0-.74c-1.74-6.6-5.17-12.07-11-15.86A12.31,12.31,0,0,0,298,92.34c-5.33-1.48-11.85,3.6-13,7.2a5.8,5.8,0,0,0,.87,5.65A9.56,9.56,0,0,0,290.45,108.59ZM256,170.9c1.77-.08,2.92-1.2,4-2.42,2.42-2.73,3.32-6.07,3.77-9.56a94,94,0,0,0-.07-21.21c0-.19-.22-.37-.46-.74a6,6,0,0,0-1.08.89c-4.66,6-8.1,12.52-9.22,20.1a22.24,22.24,0,0,0,.22,9.26C253.6,168.81,254.22,170.28,256,170.9Z" transform="translate(-55.85 -54.94)"/><path class="c" d="M110.16,99.79c-.8,0-1,.68-1.26,1.22-1,2-1.89,4.06-2.82,6.1-.41.9-.74,1.86-1.21,2.73a3.84,3.84,0,0,1-4.76,1.91c-1.45-.48-2.33-1.91-2.18-3.92a17.81,17.81,0,0,1,2.58-8.11,37.82,37.82,0,0,1,8.15-9.19l2.2-1.81c.37-2.37.71-4.58,1.07-6.78a12.36,12.36,0,0,1,.43-1.82c1-3.25,2.58-3.84,6-2.3,1.37,1.8.87,4,1.26,6.25a9,9,0,0,0,3.62-.83A28,28,0,0,1,134.65,82a18.19,18.19,0,0,1,14.67,9.65,50.14,50.14,0,0,1,5.39,17,47.7,47.7,0,0,1,.16,14.51,21.69,21.69,0,0,0,0,3.14c1.21.49,2.41-.07,3.59-.12a32.79,32.79,0,0,0,3.38-.49,6.49,6.49,0,0,0,.41-1.49,16,16,0,0,1,2.81-8c2.16-3.52,5.44-5.29,11-3.74a11.26,11.26,0,0,1,4.46,2.64,19.73,19.73,0,0,1,6,10.14c.23.94.41,1.9.6,2.82,1.07.11,1.41-.65,1.85-1.2,1.39-1.76,2.74-3.55,4.11-5.32a3.31,3.31,0,0,1,4-1.08,4.77,4.77,0,0,1,.93.65c-1.81,5.78-5,10.14-10.51,12.73-.24,1.76-.49,3.47-.69,5.19a37.31,37.31,0,0,1-3.06,11.5,16.39,16.39,0,0,1-1.65,2.92,8.38,8.38,0,0,1-6.68,3.49,11.87,11.87,0,0,1-9.89-4.3,20.81,20.81,0,0,1-4.82-11.16c-.49-3.19-1-6.39-.26-9.64a10.81,10.81,0,0,0,0-2.37l-6.46,1.32c-.31.95-.59,1.76-.83,2.58-.81,2.75-1.51,5.53-2.42,8.24a52.9,52.9,0,0,1-14.39,22,26.82,26.82,0,0,1-8.81,5.5,21.1,21.1,0,0,1-10.3,1.14c-6.57-.76-14.51-8-10.23-17.81a23.69,23.69,0,0,1,4.62-6.75c.94-1,1.91-2,2.82-2.88-1.07-7.24-2.38-14.34-3.11-21.49S110.55,107,110.16,99.79ZM145,128.73a6.15,6.15,0,0,0,.48-1.29,136.54,136.54,0,0,0,1-19,49.82,49.82,0,0,0-1.65-10.66,26.5,26.5,0,0,0-2.94-7.22,12.5,12.5,0,0,0-5.78-5.1,10,10,0,0,0-6.87-.7,44.67,44.67,0,0,0-8.07,2.84,15.86,15.86,0,0,0-2,1.34c-1,13.84,0,41.43,3.15,48.48C129.51,133.38,137.27,130.83,145,128.73Zm-29.41,19.39A16.82,16.82,0,0,0,112,153.6a11.44,11.44,0,0,0-.85,5.48A9,9,0,0,0,123,166.83a17.36,17.36,0,0,0,6.32-3.88,49.54,49.54,0,0,0,14.95-28.22c.1-.57.44-1.21-.49-1.92-7.27,1.9-14.44,4.49-21,8.95.29,1.49.52,2.83.81,4.15.4,1.82.85,3.64,1.26,5.46a5.71,5.71,0,0,1-.6,4.32,4.39,4.39,0,0,1-5.63-1.5,14.55,14.55,0,0,1-2.1-3.92C116.34,149.6,116,149,115.63,148.12ZM181.82,132a5.91,5.91,0,0,0,.31-1.4,23.77,23.77,0,0,0-2.41-9.29,14.19,14.19,0,0,0-5.44-6,2.4,2.4,0,0,0-3.58.72c-1.5,2-2.79,4.08-2.84,6.67l2.53,1.63V130C173.82,132.94,177.61,133,181.82,132ZM170,134.76a11,11,0,0,0-.15,2.39c.34,2.45.79,4.88,1.22,7.32a18,18,0,0,0,2.92,7.17c.41.59.82,1.26,1.69,1.25,3.71-3.36,6.09-10,6.22-17.48Z" transform="translate(-55.85 -54.94)"/><path class="c" d="M344.48,231.75c13.56-10,13.82-29.25,12.28-44.79-.72-7.26-4.76-9.78-11.85-10-5.51-.21-11.49,1.14-14.71,5.69-9.13-6.56-21.84-11.14-30.43-2.08a17.69,17.69,0,0,0-7.58-3.14c-4.27-.64-8.3.78-12.54,1-8,.37-12,6.52-18.08,10.92-4.27,3.11-9.6-1-14-2.44a81.16,81.16,0,0,0-13.68-3c-5.38-.7-11-.37-14.85,3.35a29.17,29.17,0,0,0-18-10c-5.39-.65-10.75,1.45-12.81,6.11a30.34,30.34,0,0,0-30.93-3.79c-10.92-7.26-24.49.88-29.9,11.17a29.33,29.33,0,0,0,5.09,34.12c-14.66,10.64-12,34.95,6.48,40.23a24.31,24.31,0,0,0,13.45,0c2.27-.68,4-2,6.07-2.93,3.91-1.8,6.61,1.12,10,2.93,8,4.27,18.26,5.5,24.72-1.53,8.18,4.06,18.47,7.94,26.53,1.63,3-2.35,4.28-4.19,8.56-3.73a10,10,0,0,0,5.23-.36c2.44-1,3.73-3.35,6.2-4.31,3.22-1.26,7.26-.48,10.72-.58,5.54-.17,13.56-2.89,18.5-.49,4.16,2,8.46,3.06,13.1,2.25,3.24-.57,4.47-1.65,7.6-.07a26.3,26.3,0,0,0,6.68,2.73,21.31,21.31,0,0,0,12-.92c5.76,8.65,27.25,14.61,28.65,1.77,1.52.53,3.14,2,4.58,2.28a6.91,6.91,0,0,0,4.66-.82C350,260.77,351,256,351.38,252,352.07,244.62,350.39,236.34,344.48,231.75Z" transform="translate(-55.85 -54.94)"/><path class="a" d="M185.17,193.41c1.81-.46,3.35-.92,4.93-1.24a17.59,17.59,0,0,1,9.57.39,15,15,0,0,1,8.61,7.3,26,26,0,0,1,3.28,10.24c.5,6.71-1.14,12.84-6.05,17.77a26,26,0,0,1-10.4,6.39c-2,.66-4.07,1.12-6.12,1.64-1.19.3-2.4.55-3.75.85a16.5,16.5,0,0,0,0,2.24c.49,3.44,1.27,6.85,1.22,10.36,0,1-.12,2-.17,2.72a3.69,3.69,0,0,1-3.7.9,3.75,3.75,0,0,1-2.46-2.11,32.38,32.38,0,0,1-4.06-10,125.63,125.63,0,0,1-2.63-17.3,107.11,107.11,0,0,1-.36-13c.33-6.19.29-12.45,2-18.5.14-.48.18-1,.34-1.45a3.54,3.54,0,0,1,2.95-2.53,11.87,11.87,0,0,1,2.23-.12c3,.08,3.78.85,4.25,4C184.89,192.28,185,192.63,185.17,193.41Zm-.27,39.31a28.57,28.57,0,0,0,9-2.75,15.22,15.22,0,0,0,7.29-8.18,17,17,0,0,0,1.33-7.3A26.09,26.09,0,0,0,196.8,199a6.58,6.58,0,0,0-3.71-2.64,15.47,15.47,0,0,0-8.62,5.11,8.19,8.19,0,0,0-.2,1.21c0,8.71,0,17.43,0,26.15A29,29,0,0,0,184.9,232.72Z" transform="translate(-55.85 -54.94)"/><path class="a" d="M344.09,188.51a5.6,5.6,0,0,1,.09,4.25c-2.32,8.89-5.83,17.17-12.12,24.1a110.25,110.25,0,0,1-12.48,11.78c-1.44,1.17-3.07,2.1-4.6,3.17-.38.26-.7.6-1.21,1,8,3.42,14.84,8.53,22.26,12.59a11.34,11.34,0,0,1,2.61,2.07,1.53,1.53,0,0,1-.85,2.6,11,11,0,0,1-5.9-.15,32.89,32.89,0,0,1-4.5-1.78,106.53,106.53,0,0,1-13.88-8c-.79-.54-1.66-1-2.69-1.58l-2.07,6.72a5.5,5.5,0,0,1-4.95.22,17.24,17.24,0,0,1-2.78-8.78,238.18,238.18,0,0,1,.46-24.63c.3-3.72.49-7.45.68-11.17,0-.87-.22-1.74-.18-2.6.08-1.86.24-3.72.44-5.56a2.64,2.64,0,0,1,2.41-2.48,10,10,0,0,1,2.94,0,2.5,2.5,0,0,1,2.23,2.19,25.88,25.88,0,0,1,.55,3.69q.15,6.15.11,12.32c0,5.6-.11,11.2-.15,16.81a11.84,11.84,0,0,0,.22,1.67,7.75,7.75,0,0,0,1.38-.74,93.9,93.9,0,0,0,13-13.37c3.3-4.08,5.69-8.76,8-13.43,1.4-2.78,2.71-5.61,4.13-8.37C338.94,187.84,340.26,187.37,344.09,188.51Z" transform="translate(-55.85 -54.94)"/><path class="a" d="M288.72,246.59c-1.76,1.18-3.05,1.18-4.36.44-2.85-3.09-2.12-7.22-2.94-10.8-3.63-.65-10.46,0-17.26,1.67-.33,1.72-.71,3.53-1,5.34s-.32,3.49-1.59,5.07a4,4,0,0,1-3.73,0c-1.24-1.32-.91-2.89-.71-4.32.58-4.3,1.22-8.6,2-12.87.78-4,1.8-8,2.75-12a121.74,121.74,0,0,1,10.32-26.72,11.85,11.85,0,0,1,1.16-1.91,7.09,7.09,0,0,1,1.56-1.58c3-2,8.08-.89,9.8,2.29a21.37,21.37,0,0,1,1.89,5.23,102.37,102.37,0,0,1,2.56,17.69c.25,4.34.72,8.67.82,13,.11,5.08,0,10.18-.17,15.27A18.15,18.15,0,0,1,288.72,246.59Zm-8.13-15.47c.43-3.78,0-11.16-1.39-21.23a91.79,91.79,0,0,0-2.41-13.58c-5.27,10.27-8.13,20.77-10.64,31.38-.38,1.6-1.1,3.23-.74,5.09Z" transform="translate(-55.85 -54.94)"/><path class="a" d="M155.82,202.46c-.3-1.55-.59-3-.87-4.45a7.83,7.83,0,0,0-4.89-6.14,4,4,0,0,0-3.26,0,11.32,11.32,0,0,0-6.1,5.24,22.32,22.32,0,0,0-1.76,4.51,11.66,11.66,0,0,0,1.66,9.63,27.15,27.15,0,0,0,6.68,6.46c2.9,2.15,5.8,4.3,8.55,6.63a23.79,23.79,0,0,1,6,8,16.29,16.29,0,0,1,1.35,12,9.11,9.11,0,0,1-5.09,6.09,19.54,19.54,0,0,1-12.06,1.23c-2.32-.44-3.94-2.08-5.25-4-1.48-2.12-1.74-3.47-1.36-6.41a3.28,3.28,0,0,1,4.62.53,18.77,18.77,0,0,1,2,2.69c.42.62.68,1.34,1.12,1.94,1.87,2.53,5,2.48,6.88-.09a7.15,7.15,0,0,0,1.29-5,11.79,11.79,0,0,0-1.3-4.63,39.55,39.55,0,0,0-11.22-12.84c-2.08-1.58-4.21-3.1-6.27-4.72a20.12,20.12,0,0,1-4.77-5.22,14.12,14.12,0,0,1-1.11-13.57,21.44,21.44,0,0,1,5.86-8.11,17.72,17.72,0,0,1,15.39-3.93c4.37.81,7.85,3.18,9.29,7.7a9.48,9.48,0,0,1,.41,3.3C161.43,202.61,159.75,203.59,155.82,202.46Z" transform="translate(-55.85 -54.94)"/><path class="a" d="M234.23,244.71c6.59-.21,6.59-.21,8.86,1a1.36,1.36,0,0,1-.78,1.61,12.84,12.84,0,0,1-2.39,1.09c-2.16.63-4.34,1.17-6.52,1.73a8.08,8.08,0,0,1-1.47.26c-3.9.33-6.1-1-7.65-4.92a55.25,55.25,0,0,1-3.47-13.11,117.54,117.54,0,0,1,0-31.24,29.19,29.19,0,0,1,1.57-6.18,9.88,9.88,0,0,1,9.21-6.95,14.77,14.77,0,0,1,4.45.3c4.36,1.05,8.7,2.25,13,3.44a7.35,7.35,0,0,1,2,1c.62.41.56,1.8-.13,2a9.82,9.82,0,0,1-3.56.86,51.76,51.76,0,0,1-6.64-.94c-1.94-.35-3.86-.83-5.66-1.23a6.7,6.7,0,0,0-1.47,3.91,149.23,149.23,0,0,0-1.7,27.62,6.91,6.91,0,0,0,.27,1.25c1.08.78,2.38.51,3.56.72,1.35.24,2.74.26,4.06.58,5.72,1.4-6.65,4.72-6.77,4.81A31,31,0,0,0,234.23,244.71Z" transform="translate(-55.85 -54.94)"/><path class="d" d="M422.46,271.83c-1.07-.26-2,1.25-2.68,2a29.2,29.2,0,0,0-5.95,13.5c-.16.86-.35,1.71-.5,2.56-.37,2-1.77,2.92-3.64,3.18a9.43,9.43,0,0,1-2.6,0c-2.35-.36-3.48-1.56-3.75-4a18.53,18.53,0,0,1,1.34-8.77,23.08,23.08,0,0,1,9.59-11.57,14.61,14.61,0,0,1,12.56-1.54c4.42,1.38,6.46,4.9,7.13,9.21a18.27,18.27,0,0,1-.4,7.78c-1.12,3.94-2.23,7.9-3.6,11.75a129.36,129.36,0,0,0-5.84,21.19,45.24,45.24,0,0,1-2.91,8.43,2.64,2.64,0,0,1-1.65,1.31c-1.57.36-3.2.51-4.59-.54a33.18,33.18,0,0,1-.11-11.88,148.81,148.81,0,0,1,5.76-19.28,82.3,82.3,0,0,0,4-13.58c.55-2.82.78-7.18-1.53-9.4A1.39,1.39,0,0,0,422.46,271.83Z" transform="translate(-55.85 -54.94)"/><path class="d" d="M420.57,346.53a6.27,6.27,0,0,1-4.29,1.06c-1.8-.16-3.37-.73-4.26-2.53-.43-.88-1.14-1.62-1.61-2.49a2.82,2.82,0,0,1,1.06-3.88c2.48-1.57,7.26-1.51,9.62.12a2.73,2.73,0,0,1,1.12,3.25C421.74,343.46,421.19,344.83,420.57,346.53Z" transform="translate(-55.85 -54.94)"/><path class="d" d="M402.86,344.89c-.63-2.73-3.46-6.65-6.83-4.47-6,3.9-1.5,14.17-4.44,19.83a13.31,13.31,0,0,1-1.55,2c-2.28-1.65-3-3.92-3.56-6.21a49.86,49.86,0,0,1-1.65-13.31c.14-5.86-.36-11.69-.6-17.54A13.7,13.7,0,0,0,384,323a5.17,5.17,0,0,0-4.07-4.37c-3.66-.9-7-.37-9.59,2.52-2.26,2.48-4.4,5.08-6.61,7.61-.46.54-.66,1.39-1.58,1.42-.69-3.25-.66-11.64.08-16L364,313a59.2,59.2,0,0,0,14.49-14.45,128.91,128.91,0,0,0,15.4-28.95,60.82,60.82,0,0,0,3.64-23.1,22.33,22.33,0,0,0-2.09-9.41,7.11,7.11,0,0,0-6.54-4.22,13.86,13.86,0,0,0-3.68.41c-3.42.79-6,2.92-8.36,5.38a38.17,38.17,0,0,0-6.49,9.11c-1.94,3.89-3.89,7.81-5.46,11.86-2,5.1-3.62,10.34-5.35,15.54a145.42,145.42,0,0,0-7.64,47.71,18.06,18.06,0,0,1-.26,2.29c-2.82,1.9-5.63,3.73-8.38,5.66s-5.35,3.91-8.1,5.92c-2.13-2.06-4.16-3.9-6-5.88s-3.69-4.05-5.4-6.18c-3.79-4.7-4.43-10.2-3.67-15.92.43-3.19,3.11-6.85,6.71-5.68s2.49,4.9,2.29,8.41c-.34,6.17,2.47,8.55,4.87,9.51s4.69-1.08,5.18-3.29a14.92,14.92,0,0,0,.68-4.77c-.88-7.45-6.77-14.36-15.86-13.52-6.44.6-11.37,4.17-12.62,11.23a25,25,0,0,0-.06,7.81c.66,4.74,3.13,8.6,6,12.26.6.76,1.23,1.51,2,2.4-2.87,4.36-5.07,9-8.11,13.09a25.42,25.42,0,0,1-3,3.33,20.45,20.45,0,0,1-3,2.24,5.62,5.62,0,0,1-6,.12,15.55,15.55,0,0,1-5.08-4.32c-4-5-2.89-10.15-2.65-16.38.17-4.45,1.78-10.6,2.91-15a37.83,37.83,0,0,0,.88-6.28,2.7,2.7,0,0,0-2.47-3.17c-2.44-.37-8.84.62-10.28,4.08-.19.46-.42.9-.61,1.36a53.67,53.67,0,0,0-4.25,23.14c-3.63,4.85-7.33,9.85-11.1,14.8a16.65,16.65,0,0,1-4.78,4.13,6.09,6.09,0,0,1-7-.13,14.91,14.91,0,0,1-3.33-2.95,22.78,22.78,0,0,1-2.95-4.74,37.71,37.71,0,0,1-3.26-18.89,11.37,11.37,0,0,0,1-.75,39.47,39.47,0,0,0,10.6-14.29,66.36,66.36,0,0,0,5.58-31.33,19.06,19.06,0,0,0-.81-4,4,4,0,0,0-3.21-2.81c-3.13-.68-6-.16-8.23,2.24a28.38,28.38,0,0,0-2.6,3.18,55.18,55.18,0,0,0-5.78,10.86,96.75,96.75,0,0,0-7.7,39.29c0,.74,0,1.49,0,2.18-3.78,3.62-7.46,7.15-11.18,10.64a4.07,4.07,0,0,1-1.29.54,10.06,10.06,0,0,1-.23-1.33c-.33-8-.61-15.92-1-23.88a63.59,63.59,0,0,0-.88-7.79c-.43-2.44-1.71-3.28-4.15-3.47a5.46,5.46,0,0,0-4.77,2.26,16.53,16.53,0,0,1-1.48-.81c-5.47-3.79-14.48-2.51-19.07,2.87-.72.85-1.54,1.64-2.19,2.54-4.88,6.7-7,14-4.62,22.19.5,1.77,1.28,3.46,2,5.43.88,2.34-5.72,5.4-7.42,5.13-3.07-.49-5-2.78-6.13-5.51-2.22-5.27-1.7-11.11-2-16.67-.45-8.68,7.77-30.16,2.29-34.05-5.71-4-13.23.1-17,4.81-6,7.41-11.29,15.19-14.79,24.12a97.59,97.59,0,0,0-4.16,13.16c-.17.7-.15,1.53-1.17,1.77a47.37,47.37,0,0,1-1.88-8.33,39.58,39.58,0,0,0-1.32-5,3.06,3.06,0,0,0-2.88-2c-3.54-.34-5.16.94-5.37,4.5a28,28,0,0,0,.21,4.84c.2,1.73.6,3.43,1,5.34-1,1.92-1.94,3.88-3,5.8-2.25,4.14-7,7.61-11.75,7.95-6,.43-9.29-4.84-10.56-10s0-10.06,2.47-14.54c1.32-2.44,4.54-5.56,4.8-8.41.34-3.68-4.62-5.23-15.24-19.62-10.16-13.76-3.25-31.42-1.12-33.7a7.1,7.1,0,0,1,3-.86c2.6,0,5.84,2.06,5.49,11.77-.52,14.05,1.37,18,3.94,20.56,3,3.05,7.45.06,9.71-2.46,5.53-6.16,3-17.29,0-24a13.26,13.26,0,0,0-3.71-4.63c-5.55-4.61-12.63-6-19.66-5.1a13.84,13.84,0,0,0-9.52,5.36,27.49,27.49,0,0,0-5.78,18.15c.27,9.55,3.93,17.91,10.22,25.1a35.94,35.94,0,0,0,11.1,8.71c.74.37,1.44.82,2.4,1.37-1.06,1.19-2,2.18-2.86,3.2-5.52,6.33-8.66,13.59-8.71,22.08a13.76,13.76,0,0,0,3.53,9.22,20.15,20.15,0,0,0,7.5,5.42c3.06,1.32,6.25,1.46,9.52,1.47a19.74,19.74,0,0,0,14.16-5.71,36.5,36.5,0,0,0,5.55-7c.32-.5.58-1.12,1.33-1,1.16,2.36,2.24,4.74,3.5,7a4.7,4.7,0,0,0,2.05,2,7,7,0,0,0,7.57-1c.83-9.18,2.07-18.42,5.25-27.27,3.26-9.07,10.44-20.94,14.74-24.2,0,.89,0,1.6,0,2.3a213.18,213.18,0,0,0-1.17,24.23,59.73,59.73,0,0,0,1.64,12.57,24.1,24.1,0,0,0,3.53,8.2,12.18,12.18,0,0,0,8.88,5.56,15.33,15.33,0,0,0,13.81-5c1.18-1.26,2.27-2.61,3.32-3.83,1.23-.07,2.23-.15,3.22-.17a9.74,9.74,0,0,0,7.5-3.61,29.17,29.17,0,0,0,2.76-3.53c1.7-2.75,3.28-5.57,4.88-8.38.55-.95,1-1.92,1.91-3.58,1.23,10.56.31,20.39,1.18,30.28-.7.83-1.41,1.68-2.13,2.52-2,2.27-4,4.49-5.86,6.79a123.32,123.32,0,0,0-11.63,16,47.1,47.1,0,0,0-5.84,14.89A25.37,25.37,0,0,0,187.84,409c2.13,5.21,6.06,7.37,11.6,6.6a18.11,18.11,0,0,0,9.41-4.23,24.25,24.25,0,0,0,6-7.55,54.47,54.47,0,0,0,5.55-18.12,162.87,162.87,0,0,0,1.38-23.47c-.05-3-.05-6,0-9,0-1,.12-2,.2-3.25,1.38-1.27,2.88-2.59,4.29-4s2.71-2.92,4.11-4.35a27.81,27.81,0,0,1,4.47-4.28l1.89,5.42a28.32,28.32,0,0,0,7,10.9c5.78,5.75,18,8.24,26.62.68a30.17,30.17,0,0,0,5.28-5.78c.9-1.35,1.77-2.72,2.67-4.06.34-.5.63-1.1,1.55-.9.4.67.82,1.43,1.3,2.15a23.46,23.46,0,0,0,24.42,10.86,16,16,0,0,0,8.7-4.8,36.48,36.48,0,0,0,7.82-12.18c.3-.76.72-1.47,1.2-2.43,2.1,2,4,3.75,4.94,6.27-.66.79-1.24,1.43-1.76,2.12-2.67,3.59-5.49,7.1-7.94,10.84a41.61,41.61,0,0,0-6.5,16.17,17.89,17.89,0,0,0,1,9.53,9.79,9.79,0,0,0,6.68,6,15,15,0,0,0,6.66.49c7.57-1.17,12.63-5.68,15.78-12.35,2.91-6.16,3.24-12.79,2.16-19.41a44.61,44.61,0,0,0-4.87-14.06c-.4-.74-.7-1.53-1-2.2a92.69,92.69,0,0,1,13.41-10.31c.77,1.07.72,2.34.91,3.56.75,4.66,1.56,9.32,2.33,14a2.37,2.37,0,0,0,1.42,2.06c2.43.86,4.84,1.06,7-.87.11-.74.23-1.47.32-2.21a33.34,33.34,0,0,1,8.9-19.34c.4-.42.76-1,1.65-.6v2.91c0,4,0,8,0,12a52.27,52.27,0,0,0,1.56,12.57,20.53,20.53,0,0,0,3.07,6.77c3.13,4.56,7.23,7,13,6.36,2.82-.31,5.08-1.33,6.56-3.69a24.06,24.06,0,0,0,2.64-5.33C402.36,354.72,403.87,349.28,402.86,344.89Zm-40.2-40a228.07,228.07,0,0,1,7.65-35.72,138.33,138.33,0,0,1,5.63-15.82,62,62,0,0,1,5.94-10.77,28,28,0,0,1,6.27-6.55,6.32,6.32,0,0,1,2.76,3.88A27.29,27.29,0,0,1,392,253.51c-1.85,12.55-6.82,23.87-13.55,34.49A95.21,95.21,0,0,1,366,304.23c-.86.86-1.59,1.93-3.12,2.37A7.89,7.89,0,0,1,362.66,304.87ZM256.21,281.09c.7,0,.7.62.74,1.07a43.16,43.16,0,0,1-.62,14.11c-1.81,7.68-4.37,15-9,21.57a20.89,20.89,0,0,1-1.45,1.69c-.06.07-.23.06-.58.15C245.19,309.45,251.86,287.9,256.21,281.09Zm-62.4,56.74a3.21,3.21,0,0,1-1.76-2.26c-2-8.75,0-16.48,5.79-23.29a6.16,6.16,0,0,1,4-2.4c3.83,1.3,4.65,1.87,6.88,4.75C205.55,323.49,198.55,334.38,193.81,337.83Zm16.87,55.42A40.39,40.39,0,0,1,206,405.8a15.7,15.7,0,0,1-6.44,6.07c-1.76,1-3,.69-4.3-.84-2-2.37-2.78-5.26-3.3-8.22a26.24,26.24,0,0,1,1.32-13.22A52.77,52.77,0,0,1,199,377.86,141.48,141.48,0,0,1,210.24,363c.38-.45.86-.82,2-1.87,0,5.62,0,10.35,0,15.07A95.85,95.85,0,0,1,210.68,393.25ZM334.4,376.39a15.86,15.86,0,0,1-7,8c-3.47,2.11-6.89.92-8.6-2.85a14.27,14.27,0,0,1-1.32-6.15,27.26,27.26,0,0,1,2-9.84,55.85,55.85,0,0,1,9.33-15.65,18.32,18.32,0,0,1,1.29-1.35,4.1,4.1,0,0,1,.76-.47,16.22,16.22,0,0,1,1,1.51,39.41,39.41,0,0,1,4.23,15.76A28,28,0,0,1,334.4,376.39Z" transform="translate(-55.85 -54.94)"/><path class="d" d="M291.44,300.85a3,3,0,0,0,.63-.39,10,10,0,0,0,1.4-8.91c-2.07-1.76-4.39-1.48-6.7-.88a2.47,2.47,0,0,0-1.87,2.14,14.3,14.3,0,0,0-.18,4.07C285.34,300.79,287.55,302,291.44,300.85Z" transform="translate(-55.85 -54.94)"/></svg>