<?xml version="1.0" encoding="UTF-8" standalone="no"?>
<svg
   xmlns:dc="http://purl.org/dc/elements/1.1/"
   xmlns:cc="http://creativecommons.org/ns#"
   xmlns:rdf="http://www.w3.org/1999/02/22-rdf-syntax-ns#"
   xmlns:svg="http://www.w3.org/2000/svg"
   xmlns="http://www.w3.org/2000/svg"
   xmlns:xlink="http://www.w3.org/1999/xlink"
   width="1760.59"
   height="201.953"
   preserveAspectRatio="xMidYMid meet"
   version="1.1"
   viewBox="0 0 1760.59 201.953"
   id="svg145">
  <metadata
     id="metadata149">
    <rdf:RDF>
      <cc:Work
         rdf:about="">
        <dc:format>image/svg+xml</dc:format>
        <dc:type
           rdf:resource="http://purl.org/dc/dcmitype/StillImage" />
        <dc:title></dc:title>
      </cc:Work>
    </rdf:RDF>
  </metadata>
  <defs
     id="defs17">
    <path
       id="amILGE7Y"
       d="m 354.16,55.58 4.37,0.51 4.15,0.78 3.93,0.96 3.72,1.16 3.52,1.41 3.26,1.58 3.08,1.83 2.83,2.05 2.67,2.21 2.43,2.45 2.21,2.63 1.99,2.88 1.78,3.1 1.58,3.25 1.36,3.53 1.14,3.65 0.96,3.95 0.74,4.08 0.51,4.37 0.31,4.51 0.11,4.77 v 1.16 l -0.04,1.09 -0.11,1.05 -0.31,2.01 -0.21,0.89 -0.26,0.89 -0.27,0.78 -0.74,1.47 -0.35,0.63 -0.49,0.62 -0.47,0.58 -0.52,0.47 -0.58,0.49 -0.57,0.36 -0.63,0.38 -0.69,0.24 -0.74,0.27 -0.73,0.22 -0.78,0.09 -0.85,0.11 h -88.93 v -0.73 h -0.2 v 18.37 l 0.04,2.46 0.27,2.4 0.36,2.28 0.58,2.14 0.69,2.05 0.89,1.94 0.98,1.79 1.23,1.71 1.29,1.59 1.54,1.51 1.67,1.36 1.79,1.27 1.98,1.16 2.16,1.05 2.26,0.94 2.47,0.85 2.61,0.66 2.79,0.65 2.94,0.47 3.08,0.36 3.25,0.31 3.42,0.15 3.56,0.07 h 1.32 l 1.32,-0.07 h 1.24 l 1.28,-0.04 1.2,-0.04 1.2,-0.12 1.21,-0.04 2.32,-0.22 1.09,-0.09 1.12,-0.18 2.09,-0.31 0.98,-0.16 1.05,-0.2 2.85,-0.62 0.94,-0.27 0.89,-0.23 0.85,-0.24 0.83,-0.31 0.84,-0.27 0.47,-0.16 0.47,-0.22 0.54,-0.16 0.51,-0.24 0.58,-0.22 0.58,-0.27 0.62,-0.31 0.63,-0.27 2.05,-1.09 0.8,-0.43 0.71,-0.42 1.7,-0.94 0.82,-0.51 0.9,-0.54 0.89,-0.58 1.89,-1.24 1.01,-0.65 1.05,-0.67 1.04,-0.74 1.25,-1.16 1.27,-1.04 0.58,-0.47 0.52,-0.43 0.58,-0.42 0.53,-0.42 0.94,-0.74 0.93,-0.62 0.43,-0.27 0.42,-0.2 0.38,-0.27 0.71,-0.31 0.34,-0.16 0.31,-0.11 0.25,-0.09 0.53,-0.11 h 0.85 l 1.05,0.11 0.51,0.09 0.47,0.11 0.49,0.16 0.4,0.15 0.74,0.43 0.37,0.27 0.63,0.62 0.27,0.31 0.26,0.38 0.41,0.83 0.15,0.46 0.11,0.54 0.16,0.54 0.07,0.51 0.09,0.58 v 0.62 l 0.06,0.69 -0.06,0.63 -0.05,0.69 -0.11,0.67 -0.09,0.62 -0.65,2.05 -0.31,0.63 -0.31,0.69 -0.36,0.69 -0.42,0.67 -0.47,0.69 -0.49,0.63 -1.05,1.36 -1.25,1.36 -1.36,1.38 -1.58,1.36 -0.85,0.67 -0.82,0.73 -1.47,1.05 -1.52,1.05 -1.58,1 -1.63,1.01 -1.67,0.89 -1.79,0.89 -1.83,0.78 -1.89,0.78 -1.94,0.74 -2.05,0.69 -2.1,0.62 -2.16,0.58 -2.19,0.58 -2.27,0.47 -4.71,0.85 -2.47,0.31 -2.52,0.31 -2.57,0.2 -2.67,0.23 -2.68,0.11 -2.74,0.09 h -2.84 l -4.86,-0.05 -4.68,-0.26 -4.46,-0.43 -4.24,-0.62 -4.05,-0.74 -3.82,-0.93 -3.57,-1.12 -3.41,-1.29 -3.14,-1.43 -2.95,-1.63 -2.74,-1.78 -2.56,-1.99 -2.26,-2.12 -2.09,-2.29 -1.9,-2.52 -1.62,-2.63 -1.41,-2.84 -1.27,-2.98 -0.94,-3.19 -0.78,-3.33 -0.58,-3.5 -0.31,-3.72 -0.11,-3.88 V 95.72 l 0.11,-1.38 0.09,-1.25 0.16,-1.32 0.22,-1.31 0.2,-1.25 0.31,-1.27 0.31,-1.21 0.43,-1.25 0.42,-1.2 0.47,-1.2 0.53,-1.16 1.14,-2.32 0.69,-1.14 0.69,-1.12 0.74,-1.09 0.78,-1.05 0.85,-1.04 0.89,-1.05 1.87,-2.01 1.01,-1 1.36,-1.3 2.94,-2.43 1.56,-1.09 1.63,-1.05 1.69,-1 1.79,-0.94 1.78,-0.89 1.88,-0.78 1.94,-0.8 2,-0.67 2.05,-0.65 2.14,-0.62 2.17,-0.52 2.25,-0.49 2.25,-0.4 2.37,-0.31 2.4,-0.33 2.41,-0.25 2.52,-0.16 2.59,-0.15 2.61,-0.07 2.67,-0.04 4.78,0.11 z m -20.4,16.06 -4.04,0.66 -3.94,1.01 -3.82,1.25 -3.63,1.54 -3.5,1.78 -3.22,2.52 -2.72,2.61 -2.31,2.83 -1.83,2.94 -1.32,3.1 -0.85,3.26 -0.24,3.41 v 9.66 h 81.84 l -0.89,-9.81 -2.52,-8.34 -4.24,-6.83 -6,-5.31 -7.65,-3.83 -9.45,-2.25 -11.11,-0.78 -4.37,0.15 z" />
    <path
       id="d129e72Ef9"
       d="m 2035.67,1.73 c -1.17,1.15 -2.33,2.82 -2.33,4.5 -0.01,2.9 3.39,6.83 9.69,13.29 26.23,25.26 39.43,56.2 39.34,93.5 -0.1,41.28 -13.98,74.43 -40.96,100.12 -5.67,5.08 -8,9.06 -8.01,12.47 0,1.68 1.15,3.42 2.31,5.09 1.09,1.17 3.41,2.33 5.08,2.33 6.24,0.02 14.98,-7.36 26.38,-21.72 22.21,-27.22 32.25,-57.28 32.81,-98.24 C 2100.5,72.08 2087.66,44.29 2062.5,15.59 2053.45,5.34 2045.91,0.01 2040.75,0 c -1.67,0 -3.41,0.57 -5.08,1.73 z" />
    <path
       id="aMmpTPA7v"
       d="m 142.09,65.75 c 0,-5.67 3.42,-7.92 10.24,-7.92 3.3,0 29.79,0 33.16,0 5.66,0 8.49,5.09 8.49,14.39 10.24,-10.82 21.19,-17.29 32.58,-17.29 9.66,0 17.22,2.9 22.35,8.57 5.68,5.66 7.98,13.8 7.98,22.92 0,6.24 -2.88,9.66 -7.98,9.66 -3.41,0 -5.67,-2.3 -6.8,-6.25 -2.28,-7.98 -3.41,-11.95 -3.99,-12.53 -2.26,-3.95 -6.83,-6.24 -12.49,-6.24 -6.25,0 -12.49,2.29 -17.8,6.82 -3.41,2.3 -7.98,7.38 -13.85,14.94 0,5.15 0,30.71 0,76.71 18.51,0 28.82,0 30.84,0 6.83,0 10.24,2.9 10.24,7.99 0,5.66 -3.41,8.54 -10.24,8.54 -7.29,0 -65.94,0 -73.29,0 -6.81,0 -10.22,-2.88 -10.22,-7.96 0,-5.67 3.41,-7.99 10.22,-7.99 1.69,0 10.08,0 25.19,0 0,-0.04 0,-0.29 0,-0.73 0.02,0 0.08,0 0.21,0 0,-57.39 0,-89.27 0,-95.65 -15.32,0 -23.53,0 -24.6,0 -6.82,0 -10.24,-2.83 -10.24,-7.98 z" />
    <path
       id="f2d1RX7Y7I"
       d="m 1956.6,120.44 c -9.85,-2.52 30.6,-50.31 -41.3,-107.53 0,0 9.44,29.97 -38.13,96.85 -47.59,66.86 21.16,106.68 21.16,106.68 0,0 -32.26,-17.19 5.24,-78.4 6.72,-11.11 15.5,-21.17 26.41,-43.8 0,0 9.65,13.62 4.61,43.17 -7.54,44.65 32.69,31.87 33.32,32.49 14.05,16.55 -11.64,45.63 -13.2,46.54 -1.56,0.89 73.36,-45.07 20.13,-114.24 -3.65,3.65 -8.38,20.76 -18.24,18.24 z" />
    <path
       id="j1tNdHf66h"
       d="m 9.66,57.99 c 1.27,0 7.33,0 18.42,0 0,-9.66 0,-15.01 0,-16.1 0,-28.03 14.38,-41.88 42.39,-41.88 11.39,0 21.25,2.3 28.58,6.29 9.66,5.66 15.01,14.96 15.01,25.78 0,7.33 -2.87,10.21 -7.96,10.21 -3.41,0 -6.82,-2.3 -8.56,-6.29 -2.25,-7.34 -4.51,-11.33 -5.67,-13.22 -3.41,-3.99 -10.23,-6.25 -20.09,-6.25 -17.21,0 -25.71,8.5 -25.71,25.76 0,1 0,6.2 0,15.54 19.89,0 30.91,0 33.12,0 7.38,0 10.79,2.83 10.79,7.92 0,5.66 -3.41,7.98 -10.79,7.98 -2.21,0 -13.23,0 -33.12,0 0,62.87 0,97.74 0,104.72 0,6.25 -2.88,9.66 -7.98,9.66 -5.67,0 -7.96,-3.41 -7.96,-9.66 0,-6.98 0,-41.67 0,-104.54 C 30.1,73.91 10.67,73.89 9.66,73.89 3.41,73.89 0,71.06 0,65.97 0,60.24 3.41,57.99 9.66,57.99 Z" />
    <path
       id="i6IAfq4yz"
       d="m 1818.81,1.76 c 1.16,1.15 2.32,2.82 2.32,4.5 0.01,2.9 -3.39,6.83 -9.69,13.29 -26.23,25.26 -39.42,56.2 -39.34,93.5 0.1,41.28 13.98,74.43 40.96,100.12 5.67,5.08 8,9.06 8.01,12.47 0,1.68 -1.15,3.42 -2.31,5.09 -1.09,1.17 -3.4,2.33 -5.08,2.33 -6.24,0.02 -14.98,-7.36 -26.38,-21.72 -22.21,-27.22 -32.25,-57.28 -32.81,-98.24 -0.52,-40.99 12.32,-68.78 37.48,-97.48 9.05,-10.25 16.6,-15.58 21.75,-15.59 1.67,0 3.41,0.57 5.09,1.73 z" />
    <path
       id="b38jkxnlNJ"
       d="m 497.93,55.58 4.37,0.51 4.15,0.78 3.92,0.96 3.73,1.16 3.52,1.41 3.25,1.58 3.08,1.83 2.83,2.05 2.68,2.21 2.43,2.45 2.21,2.63 1.98,2.88 1.79,3.1 1.58,3.25 1.36,3.53 1.14,3.65 0.96,3.95 0.73,4.08 0.52,4.37 0.31,4.51 0.11,4.77 v 1.16 l -0.05,1.09 -0.11,1.05 -0.31,2.01 -0.2,0.89 -0.27,0.89 -0.27,0.78 -0.73,1.47 -0.36,0.63 -0.49,0.62 -0.47,0.58 -0.51,0.47 -0.58,0.49 -0.58,0.36 -0.62,0.38 -0.69,0.24 -0.74,0.27 -0.74,0.22 -0.78,0.09 -0.84,0.11 H 446.3 v -0.73 h -0.2 v 18.37 l 0.09,2.46 0.23,2.4 0.42,2.28 0.51,2.14 0.69,2.05 0.9,1.94 0.98,1.79 1.22,1.71 1.36,1.59 1.48,1.51 1.67,1.36 1.78,1.27 1.99,1.16 2.16,1.05 2.25,0.94 2.48,0.85 2.61,0.66 2.78,0.65 2.95,0.47 3.07,0.36 3.26,0.31 3.41,0.15 3.57,0.07 h 1.32 l 1.31,-0.07 h 1.25 l 1.27,-0.04 1.21,-0.04 1.2,-0.12 1.2,-0.04 2.32,-0.22 1.1,-0.09 1.11,-0.18 3.15,-0.47 0.98,-0.2 0.96,-0.22 1,-0.2 0.89,-0.2 0.94,-0.27 0.89,-0.23 0.85,-0.24 0.82,-0.31 0.85,-0.27 0.47,-0.16 0.47,-0.22 0.53,-0.16 0.51,-0.24 0.58,-0.22 0.58,-0.27 0.63,-0.31 0.62,-0.27 1.38,-0.71 0.74,-0.38 0.74,-0.43 0.78,-0.42 0.78,-0.47 0.84,-0.47 0.83,-0.51 0.89,-0.54 0.89,-0.58 1.9,-1.24 1,-0.65 1.05,-0.67 1.05,-0.74 1.25,-1.16 1.27,-1.04 0.58,-0.47 0.51,-0.43 0.58,-0.42 0.54,-0.42 0.93,-0.74 0.94,-0.62 0.42,-0.27 0.43,-0.2 0.38,-0.27 0.71,-0.31 0.33,-0.16 0.32,-0.11 0.24,-0.09 0.54,-0.11 h 0.84 l 1.05,0.11 0.52,0.09 0.46,0.11 0.49,0.16 0.41,0.15 0.73,0.43 0.38,0.27 0.62,0.62 0.27,0.31 0.27,0.38 0.4,0.83 0.16,0.46 0.11,0.54 0.16,0.54 0.06,0.51 0.09,0.58 v 0.62 l 0.07,0.69 -0.07,0.63 -0.04,0.69 -0.11,0.67 -0.09,0.62 -0.65,2.05 -0.31,0.63 -0.32,0.69 -0.35,0.69 -0.85,1.36 -0.53,0.63 -1.05,1.36 -1.25,1.36 -1.36,1.38 -1.58,1.36 -0.85,0.67 -0.83,0.73 -1.47,1.05 -1.52,1.05 -1.58,1 -1.63,1.01 -1.67,0.89 -1.78,0.89 -1.83,0.78 -1.9,0.78 -1.94,0.74 -2.05,0.69 -2.09,0.62 -2.17,0.58 -2.18,0.58 -2.28,0.47 -4.7,0.85 -2.48,0.31 -2.52,0.31 -2.56,0.2 -2.63,0.23 -5.47,0.2 h -2.83 l -4.86,-0.05 -4.68,-0.26 -4.46,-0.43 -4.24,-0.62 -4.06,-0.74 -3.77,-0.93 -3.61,-1.12 -3.41,-1.29 -3.15,-1.43 -2.94,-1.63 -2.74,-1.78 -2.52,-1.99 -2.3,-2.12 -2.1,-2.29 -1.89,-2.52 -1.63,-2.63 -1.4,-2.84 -1.21,-2.98 -1,-3.19 -0.78,-3.33 -0.58,-3.5 -0.31,-3.72 -0.12,-3.88 V 95.72 l 0.12,-1.38 0.09,-1.25 0.15,-1.32 0.22,-1.31 0.2,-1.25 0.32,-1.27 0.31,-1.21 0.42,-1.25 0.43,-1.2 0.47,-1.2 0.53,-1.16 1.14,-2.32 0.69,-1.14 0.69,-1.12 0.74,-1.09 0.78,-1.05 0.84,-1.04 0.9,-1.05 1.87,-2.01 1,-1 1.36,-1.3 2.95,-2.43 1.56,-1.09 1.63,-1.05 1.69,-1 1.78,-0.94 1.79,-0.89 1.87,-0.78 1.94,-0.8 2.01,-0.67 2.05,-0.65 2.14,-0.62 2.16,-0.52 2.26,-0.49 2.25,-0.4 2.36,-0.31 2.41,-0.33 2.41,-0.25 2.52,-0.16 2.59,-0.15 2.6,-0.07 2.68,-0.04 4.77,0.11 z m -20.41,16.06 -4.03,0.66 -3.95,1.01 -3.81,1.25 -3.64,1.54 -3.5,1.78 -3.37,2.52 -2.83,2.61 -2.32,2.83 -1.71,2.94 -1.27,3.1 -0.74,3.26 -0.25,3.41 v 9.66 h 81.84 l -0.89,-9.81 -2.52,-8.34 -4.24,-6.83 -5.99,-5.31 -7.65,-3.83 -9.46,-2.25 -11.1,-0.78 -4.37,0.15 z" />
    <path
       id="g3rdOrRZso"
       d="m 1587.89,54.31 0.31,0.07 0.63,0.2 0.31,0.15 0.27,0.16 0.31,0.15 0.31,0.23 0.27,0.2 0.31,0.27 0.27,0.24 0.31,0.27 0.51,0.62 0.54,0.74 0.27,0.42 0.24,0.38 0.22,0.47 0.27,0.42 0.05,0.43 0.2,0.82 0.15,0.47 0.11,0.42 0.16,0.43 0.11,0.42 0.16,0.43 0.15,0.46 0.47,1.25 0.16,0.47 0.31,0.85 0.11,0.42 0.16,0.43 0.2,0.82 0.18,0.38 0.04,0.42 0.11,0.36 2.52,-1.2 4.93,-2.3 2.36,-1.07 2.35,-0.98 2.27,-0.96 2.25,-0.89 2.21,-0.83 2.14,-0.73 2.1,-0.74 2.05,-0.62 1.98,-0.65 2.01,-0.51 3.77,-0.94 1.85,-0.38 1.72,-0.31 1.74,-0.27 1.67,-0.16 1.63,-0.15 1.63,-0.11 h 1.51 l 4.68,0.11 4.4,0.27 4.21,0.46 3.97,0.63 3.79,0.85 3.57,1 3.3,1.2 3.14,1.36 2.9,1.52 2.68,1.74 2.45,1.94 2.25,2.05 2.06,2.25 1.83,2.46 1.62,2.63 1.39,2.79 1.2,2.92 0.94,3.16 0.73,3.3 0.58,3.46 0.31,3.64 0.12,3.81 v 47.54 l -0.07,1.9 -0.09,1.78 -0.16,1.79 -0.22,1.71 -0.27,1.74 -0.35,1.63 -0.43,1.63 -0.47,1.58 -0.53,1.52 -0.56,1.47 -0.65,1.47 -0.73,1.41 -0.78,1.42 -0.85,1.36 -0.89,1.32 -0.94,1.25 -1,1.27 -1.09,1.2 -1.16,1.21 -1.16,1.16 -1.25,1.09 -1.32,1.09 -1.2,0.96 -1.21,0.83 -1.31,0.84 -1.32,0.78 -1.36,0.74 -1.36,0.69 -1.47,0.67 -1.47,0.58 -1.52,0.58 -3.14,1.05 -3.37,0.85 -1.67,0.35 -1.79,0.34 -1.78,0.24 -3.68,0.43 -1.89,0.15 -1.94,0.11 -1.94,0.05 h -4.4 l -2.43,-0.09 -2.34,-0.18 -2.32,-0.16 -2.3,-0.24 -2.27,-0.31 -2.19,-0.38 -4.41,-0.94 -2.16,-0.58 -2.1,-0.58 -2.1,-0.69 -2.05,-0.74 -2.03,-0.82 -2,-0.85 -1.99,-0.93 -1.94,-1.01 -1.94,-1.05 -1.89,-1.09 -1.9,-1.16 -1.83,-1.27 -1.83,-1.32 v 54.84 l -0.06,1.05 -0.09,1 -0.11,0.89 -0.16,0.9 -0.22,0.84 -0.2,0.78 -0.27,0.78 -0.27,0.7 -0.36,0.69 -0.31,0.55 -0.42,0.58 -0.36,0.47 -0.49,0.49 -0.47,0.4 -0.51,0.38 -0.54,0.27 -0.58,0.25 -0.58,0.22 -0.62,0.11 -0.67,0.09 h -1.38 l -0.63,-0.04 -0.62,-0.16 -0.58,-0.16 -0.58,-0.22 -1.05,-0.62 -0.47,-0.36 -0.46,-0.42 -0.43,-0.54 -0.38,-0.51 -0.35,-0.58 -0.32,-0.63 -0.26,-0.69 -0.27,-0.78 -0.2,-0.78 -0.23,-0.85 -0.15,-0.93 -0.09,-0.96 -0.11,-1.05 -0.05,-1.05 V 65.64 l 0.05,-1.05 0.04,-0.94 0.11,-0.93 0.12,-0.9 0.15,-0.84 0.2,-0.78 0.23,-0.74 0.24,-0.74 0.54,-1.27 0.31,-0.51 0.38,-0.53 0.35,-0.47 0.43,-0.36 0.47,-0.38 0.42,-0.31 0.51,-0.27 1.05,-0.31 0.58,-0.11 h 0.96 l 0.31,0.06 z m 44.96,17.42 -2.37,0.15 -2.3,0.22 -2.2,0.32 -2.1,0.31 -2.05,0.42 -1.94,0.52 -1.9,0.57 -1.82,0.65 -1.74,0.72 -1.52,0.69 -1.58,0.84 -1.56,0.94 -1.63,1.09 -1.63,1.27 -1.67,1.36 -1.74,1.52 -1.79,1.63 -1.83,1.74 -1.96,1.89 -2.03,1.99 v 65.38 h 0.58 v -0.22 l 4.71,2.79 4.57,2.52 4.42,2.32 4.23,1.98 4.11,1.74 3.99,1.4 3.81,1.21 3.63,0.96 3.51,0.67 3.36,0.38 3.21,0.15 2.77,-0.07 2.68,-0.08 2.58,-0.27 2.5,-0.31 2.43,-0.38 2.3,-0.52 2.2,-0.58 2.1,-0.73 2.01,-0.78 1.87,-0.96 1.74,-0.98 2.1,-1.32 1.83,-1.43 1.62,-1.51 1.43,-1.63 1.2,-1.74 1.01,-1.83 0.78,-1.94 0.62,-1.98 0.47,-2.17 0.22,-2.25 0.12,-2.32 V 98.55 l -0.12,-2.74 -0.26,-2.57 -0.52,-2.36 -0.69,-2.25 -0.93,-2.1 -1.12,-2 -1.36,-1.83 -1.52,-1.68 -1.78,-1.51 -2.01,-1.47 -2.18,-1.28 -1.79,-0.89 -1.89,-0.82 -2.01,-0.69 -2.09,-0.63 -2.26,-0.58 -2.36,-0.47 -2.45,-0.38 -2.59,-0.31 -2.68,-0.2 -2.76,-0.11 -2.9,-0.04 -2.57,0.04 z" />
    <path
       id="eW3yQgODP"
       d="m 673.4,17.63 c 11.38,8.56 17.26,20.69 17.26,35.43 0,6.82 -2.83,10.24 -8.56,10.24 -3.99,0 -6.82,-3.42 -8.5,-10.24 -1.15,-5.66 -3.41,-10.77 -6.24,-16.12 -5.15,-9.08 -16.1,-13.23 -33.16,-13.23 -14.96,0 -25.2,3.42 -31.44,10.77 -5.71,6.83 -9.12,17.26 -9.12,32.58 0,5.98 0,53.57 0,59.5 0,15.54 3.41,26.34 9.65,33.16 6.83,7.4 17.26,11.33 32.07,11.33 22.35,0 35.41,-7.92 38.24,-23.44 1.1,-5.73 1.68,-8.56 1.68,-9.14 1.16,-3.41 3.41,-5.09 6.82,-5.09 5.73,0 8.56,3.42 8.56,10.24 0,14.38 -5.73,25.18 -17.84,33.74 -9.65,6.24 -21.78,9.66 -37.68,9.66 -18.35,0 -32.58,-4 -43.02,-12.56 -12.13,-7.92 -17.21,-21.56 -17.21,-39.4 0,0 0,0 0,0 0,0 0,0 0,0 0,-42.91 0,-66.79 0,-71.56 0,-37.74 19.31,-56.09 59.49,-56.09 16.06,0 28.61,3.41 39,10.22 z" />
    <path
       id="a4OAfWYDLw"
       d="m 1495.86,69.36 c 4.55,-5.71 8.54,-9.12 12.53,-10.79 3.93,-2.25 9.66,-3.41 16.06,-3.41 19.51,0 29.74,9.65 29.74,28.58 0,9.3 0,83.54 0,92.84 0,7.96 -2.83,11.37 -8.49,11.37 -5.73,0 -7.99,-3.41 -7.99,-11.37 0,-8.72 0,-78.25 0,-86.95 0,-11.91 -5.08,-18.37 -14.94,-18.37 -7.4,0 -14.96,4.52 -21.2,13.27 0,9.25 0,83.53 0,92.83 0,7.92 -2.88,11.33 -7.99,11.33 -5.12,0 -7.96,-3.41 -7.96,-11.33 0,-8.61 0,-77.25 0,-85.85 0,-13.27 -5.66,-19.52 -16.12,-19.52 -6.76,0 -13.22,4.57 -20.02,13.27 0,9.26 0,83.02 0,92.26 0,7.98 -2.86,11.39 -8.57,11.39 -5.66,0 -7.91,-3.41 -7.91,-11.39 0,-11.4 0,-102.47 0,-113.87 0,-5.66 2.25,-7.91 6.82,-7.91 2.25,0 4.5,1.67 5.66,5.08 1.14,1.52 1.68,4.35 1.68,7.76 0,0 0,0 0,0 0,0 0,0 0,0 5.35,-5.66 8.76,-9.08 10.23,-10.23 3.41,-2.26 7.96,-3.42 14.43,-3.42 9.08,0 17.21,4.57 24.04,14.43 z" />
    <path
       id="b9yb5LeAex"
       d="m 788.05,55.47 6.02,0.85 5.66,1.13 5.15,1.54 4.77,1.83 4.31,2.21 3.83,2.52 3.42,2.87 2.92,3.15 2.52,3.57 2.05,3.83 1.58,4.19 1.16,4.58 0.67,4.81 0.22,5.2 v 47.03 l -0.22,5.2 -0.67,4.81 -1.11,4.57 -1.56,4.2 -2.01,3.83 -2.41,3.5 -2.9,3.21 -3.3,2.88 -3.77,2.52 -4.19,2.21 -4.68,1.85 -5.09,1.52 -5.51,1.15 -5.97,0.83 -6.4,0.54 -6.83,0.15 -7.24,-0.07 -6.78,-0.4 -6.29,-0.8 -5.78,-1.09 -5.28,-1.47 -4.84,-1.83 -4.35,-2.17 -3.88,-2.52 -3.41,-2.87 -2.99,-3.21 -2.47,-3.57 -2.06,-3.88 -1.56,-4.24 -1.11,-4.64 -0.67,-4.93 -0.22,-5.28 V 97.75 l 0.22,-5.2 0.67,-4.81 1.16,-4.58 1.58,-4.19 2.03,-3.83 2.52,-3.57 2.94,-3.15 3.42,-2.87 3.83,-2.52 4.31,-2.21 4.72,-1.83 5.2,-1.54 5.66,-1.13 6.02,-0.85 6.52,-0.54 6.98,-0.15 6.97,0.15 z m -26.76,16.17 -5.27,0.93 -4.7,1.32 -4.22,1.67 -3.65,2.1 -3.1,2.41 -2.52,2.85 -2.01,3.14 -1.4,3.5 -0.9,3.95 -0.26,4.24 v 47.03 l 0.26,4.24 0.9,3.88 1.4,3.56 2.05,3.17 2.59,2.77 3.14,2.4 3.73,2.01 4.3,1.67 4.88,1.21 5.45,0.89 6.04,0.42 6.56,0.05 6.44,-0.05 5.89,-0.42 5.39,-0.78 4.78,-1.2 4.25,-1.59 3.68,-1.98 3.15,-2.37 2.56,-2.78 2.01,-3.19 1.4,-3.57 0.9,-3.99 0.26,-4.35 V 97.75 l -0.26,-4.24 -0.9,-3.95 -1.4,-3.5 -2.05,-3.14 -2.63,-2.85 -3.15,-2.41 -3.77,-2.1 -4.37,-1.67 -4.97,-1.32 -5.51,-0.93 -6.15,-0.58 -6.71,-0.16 -6.29,0.16 z" />
    <path
       id="f3a6nyxy58"
       d="m 1352.56,53.73 1.94,0.11 1.83,0.16 1.78,0.11 1.74,0.2 1.72,0.15 1.7,0.27 1.62,0.2 1.56,0.34 1.52,0.24 1.47,0.38 1.47,0.31 1.36,0.36 1.43,0.42 1.32,0.43 1.25,0.42 1.27,0.47 1.2,0.54 1.21,0.46 1.15,0.58 1.1,0.52 1.05,0.58 1.04,0.62 1.16,0.85 1.1,0.89 1.04,0.89 1.01,1.01 0.96,0.98 0.93,1.11 0.89,1.09 0.85,1.16 0.78,1.21 0.74,1.25 0.67,1.27 0.69,1.31 1.16,2.84 0.51,1.47 0.47,1.47 0.42,1.56 0.38,1.58 0.31,1.63 0.27,1.67 0.2,1.74 0.2,1.79 0.12,1.78 0.11,1.83 v 61.01 l 0.04,0.81 v 0.78 l 0.11,1.47 0.11,1.36 0.09,0.69 0.11,0.62 0.12,0.58 0.15,0.63 0.09,0.58 0.34,1.05 0.2,0.53 0.62,1.41 0.22,0.42 0.25,0.42 0.27,0.36 0.62,0.74 0.69,0.69 0.11,0.04 0.16,0.11 0.09,0.09 0.22,0.07 0.16,0.11 0.42,0.2 0.25,0.16 0.53,0.2 0.32,0.15 0.31,0.12 1.11,0.46 1.25,0.5 0.47,0.15 0.47,0.2 0.49,0.16 0.47,0.2 0.51,0.22 0.58,0.2 0.31,0.11 0.65,0.32 0.24,0.22 0.27,0.16 0.54,0.4 0.2,0.26 0.2,0.23 0.22,0.24 0.16,0.31 0.15,0.27 0.31,0.63 0.12,0.38 0.11,0.31 0.09,0.42 0.11,0.36 0.04,0.42 0.11,0.43 0.05,0.46 v 0.47 l 0.07,0.49 v 2.1 l -0.12,0.51 -0.04,0.43 -0.11,0.46 -0.11,0.43 -0.16,0.42 -0.16,0.36 -0.2,0.38 -0.22,0.31 -0.51,0.62 -0.27,0.27 -0.31,0.27 -1.12,0.62 -0.82,0.32 -0.47,0.11 -0.53,0.09 -1.05,0.11 -0.58,0.06 h -1.05 l -0.2,-0.06 h -0.16 l -0.22,-0.05 h -0.2 l -0.22,-0.06 -1.05,-0.2 -0.25,-0.12 -0.33,-0.04 -0.31,-0.11 -0.32,-0.05 -1.09,-0.31 -0.42,-0.11 -0.36,-0.11 -0.42,-0.09 -0.47,-0.11 -0.43,-0.16 -0.46,-0.11 -1.48,-0.51 -0.69,-0.27 -0.67,-0.2 -0.64,-0.27 -1.25,-0.42 -0.58,-0.2 -0.58,-0.18 -0.51,-0.2 -0.49,-0.16 -0.52,-0.15 -0.42,-0.16 -0.47,-0.16 -0.42,-0.11 -0.36,-0.15 -0.38,-0.12 -0.62,-0.2 -0.78,-0.31 -0.23,-0.07 -0.15,-0.08 -0.16,-0.07 -0.36,-0.05 -0.33,-0.04 -0.36,-0.11 -0.31,-0.11 -0.31,-0.16 -0.27,-0.2 -0.31,-0.22 -0.27,-0.2 -0.27,-0.27 -0.24,-0.31 -0.27,-0.27 -0.22,-0.36 -0.2,-0.31 -0.27,-0.42 -0.2,-0.38 -0.16,-0.4 -0.22,-0.43 -0.2,-0.47 -0.31,-0.96 -0.63,-2.09 -0.18,-0.58 -2.29,1.58 -2.21,1.47 -1.05,0.74 -1.98,1.25 -0.96,0.62 -1.79,1.16 -1.67,1.05 -0.78,0.47 -0.74,0.42 -1.36,0.85 -0.69,0.36 -0.58,0.38 -1.67,0.82 -0.47,0.22 -0.84,0.43 -0.43,0.09 -0.67,0.33 -0.69,0.2 -1.47,0.51 -2.36,0.65 -0.78,0.16 -0.85,0.2 -0.83,0.15 -1.78,0.32 -0.89,0.11 -0.89,0.15 -2.84,0.32 -1,0.06 -1,0.09 -1.01,0.07 -1.05,0.04 -0.98,0.05 h -4.88 l -1.63,-0.05 -1.58,-0.04 -3.15,-0.22 -3.03,-0.32 -1.47,-0.2 -1.47,-0.26 -2.83,-0.54 -2.72,-0.62 -1.32,-0.36 -1.32,-0.42 -1.27,-0.43 -1.25,-0.47 -2.4,-0.93 -1.16,-0.58 -1.16,-0.54 -1.1,-0.58 -1.11,-0.62 -1.05,-0.63 -1.05,-0.69 -1.2,-0.82 -1.16,-0.85 -2.19,-1.9 -1,-0.93 -0.96,-1.01 -0.94,-1.04 -0.84,-1.05 -0.83,-1.09 -0.78,-1.16 -0.69,-1.16 -0.69,-1.21 -0.63,-1.2 -0.57,-1.27 -0.52,-1.25 -0.47,-1.32 -0.84,-2.72 -0.32,-1.38 -0.26,-1.41 -0.43,-2.94 -0.2,-3.03 v -3.15 l 0.09,-1.54 0.11,-1.56 0.23,-1.47 0.51,-2.94 0.73,-2.83 0.47,-1.36 1.05,-2.64 0.65,-1.31 0.62,-1.25 1.47,-2.41 0.78,-1.16 0.85,-1.11 0.89,-1.1 0.99,-1.04 0.95,-1.01 1.05,-0.98 1.09,-0.96 2.32,-1.78 1.25,-0.83 2.21,-1.58 1.16,-0.74 2.41,-1.36 2.52,-1.27 1.31,-0.55 2.61,-1.07 1.39,-0.47 2.83,-0.83 1.4,-0.38 1.47,-0.35 1.48,-0.32 1.47,-0.26 1.51,-0.27 1.52,-0.2 1.58,-0.16 1.52,-0.15 1.63,-0.12 1.58,-0.11 1.63,-0.04 h 2.99 l 1.36,0.04 1.4,0.05 2.83,0.22 1.43,0.16 1.47,0.15 1.48,0.2 1.51,0.27 1.47,0.22 1.52,0.32 1.52,0.24 1.58,0.34 3.14,0.73 4.89,1.25 1.63,0.47 1.71,0.47 1.7,0.53 1.71,0.51 1.74,0.58 1.79,0.58 1.78,0.63 V 95.5 l -0.04,-1.16 -0.07,-1.1 -0.09,-1.09 -0.16,-1.11 -0.22,-0.98 -0.2,-1.07 -0.31,-0.99 -0.31,-0.95 -0.38,-0.94 -0.43,-0.89 -0.46,-0.9 -1.05,-1.67 -0.63,-0.85 -0.62,-0.73 -0.69,-0.78 -1.47,-1.36 -0.85,-0.69 -1.79,-1.25 -0.93,-0.58 -1.01,-0.54 -1.04,-0.51 -1.1,-0.54 -0.73,-0.31 -1.59,-0.62 -3.34,-1.05 -2.68,-0.62 -0.96,-0.18 -0.89,-0.16 -0.98,-0.15 -0.96,-0.16 -0.93,-0.09 -1.99,-0.22 -1.05,-0.11 -1,-0.05 -1.05,-0.11 -1.05,-0.05 h -1.04 l -1.05,-0.04 h -4.73 l -2.48,0.09 -2.4,0.11 -2.26,0.22 -2.16,0.25 -2.1,0.31 -1.94,0.34 -1.89,0.4 -1.79,0.49 -1.67,0.56 -1.56,0.57 -1.54,0.65 -1.4,0.72 -1.32,0.73 -1.2,0.85 -1.12,0.85 -1.04,0.93 -0.94,1.01 -0.85,1.09 -0.78,1.11 -0.62,1.14 -0.63,1.27 -0.49,1.32 -0.4,1.36 -0.31,1.4 -0.11,0.69 -0.16,0.63 -0.22,1.16 -0.2,1.05 -0.2,0.93 -0.12,0.43 -0.06,0.42 -0.09,0.36 -0.07,0.38 -0.09,0.31 -0.06,0.31 -0.09,0.54 -0.12,0.42 v 0.2 l -0.04,0.16 v 0.15 l -0.07,0.11 v 0.27 l -0.15,0.36 -0.32,0.62 -0.15,0.27 -0.43,0.54 -0.15,0.24 -0.27,0.22 -0.2,0.2 -0.27,0.23 -0.2,0.15 -0.27,0.16 -0.31,0.16 -0.27,0.15 -0.31,0.09 -0.27,0.11 -0.31,0.11 -0.35,0.12 -0.32,0.04 -0.38,0.11 -0.35,0.05 h -0.38 l -0.36,0.04 h -1.47 l -0.62,-0.04 -1.28,-0.2 -0.58,-0.12 -1.56,-0.62 -0.49,-0.31 -0.46,-0.27 -0.43,-0.38 -0.4,-0.31 -0.74,-0.83 -0.31,-0.49 -0.53,-0.93 -0.27,-0.58 -0.16,-0.58 -0.2,-0.58 -0.15,-0.63 -0.12,-0.62 -0.04,-0.69 -0.07,-0.74 v -1.72 l 0.07,-1.04 0.04,-1.01 0.16,-1 0.11,-0.98 0.43,-2.01 0.51,-1.98 0.31,-1.01 0.31,-0.93 0.38,-1.01 0.43,-0.93 0.46,-1.01 0.94,-1.89 1.74,-2.84 0.62,-0.89 0.7,-0.93 2.18,-2.68 0.85,-0.89 0.94,-1.12 2.2,-1.98 1.21,-0.94 2.63,-1.78 1.43,-0.8 1.45,-0.79 1.58,-0.73 1.58,-0.69 1.67,-0.63 1.79,-0.62 1.78,-0.54 1.9,-0.51 1.94,-0.47 1.98,-0.42 2.05,-0.38 2.1,-0.36 4.42,-0.53 2.29,-0.2 2.37,-0.16 2.4,-0.11 2.48,-0.05 2.52,-0.04 h 1.98 l 2.01,0.04 z m -24.08,73.1 -6.83,2.41 -5.3,3.45 -3.84,4.42 -2.3,5.39 -0.73,6.43 0.2,3.34 0.65,3.15 1.09,2.98 1.51,2.75 1.94,2.41 2.48,2.05 2.94,1.67 2.52,1.36 2.77,1.16 2.99,0.94 3.21,0.73 3.41,0.54 3.61,0.31 3.84,0.11 3.37,-0.11 3.23,-0.2 3.17,-0.42 3.07,-0.65 3.01,-0.78 2.99,-1.09 2.92,-1.32 2.01,-1.16 2.21,-1.47 2.45,-1.63 2.63,-1.83 2.83,-2.05 2.95,-2.21 3.1,-2.34 v -24.04 l -5.36,-1.63 -5.35,-1.36 -5.3,-1.16 -5.2,-0.89 -5.08,-0.69 -4.93,-0.4 -4.73,-0.11 -9.81,0.47 z" />
    <path
       id="bfq0GCmmK"
       d="m 966.8,0.38 0.62,0.2 0.58,0.31 0.54,0.31 0.51,0.38 0.47,0.43 0.85,0.93 0.38,0.58 0.31,0.63 0.31,0.69 0.27,0.67 0.4,1.58 0.31,1.79 0.11,1.98 0.07,1.05 v 168.38 l -0.07,0.79 -0.04,0.73 -0.07,0.69 -0.31,1.25 -0.16,0.58 -0.24,0.54 -0.22,0.51 -0.63,0.96 -0.73,0.73 -0.43,0.36 -0.42,0.27 -0.51,0.27 -0.47,0.24 -0.54,0.22 -0.58,0.16 -1.25,0.2 -0.64,0.07 h -1.14 l -1.27,-0.16 -0.43,-0.11 -0.35,-0.16 -0.38,-0.11 -0.36,-0.2 -0.31,-0.15 -0.31,-0.23 -0.31,-0.26 -0.54,-0.52 -0.27,-0.31 -0.62,-1.11 -0.16,-0.41 -0.15,-0.49 -0.12,-0.47 -0.15,-0.46 -0.05,-0.52 v -0.8 l -0.04,-0.42 v -0.36 l -0.07,-0.42 v -0.36 l -0.04,-0.42 v -0.43 l -0.07,-0.42 -0.04,-0.47 -0.05,-0.42 v -0.47 l -0.11,-0.94 v -0.53 l -0.04,-0.47 -0.07,-0.58 v -1.09 l -0.05,-0.58 v -1.28 l -1.36,0.85 -1.27,0.85 -1.29,0.82 -2.43,1.48 -1.09,0.73 -1.16,0.69 -2.1,1.25 -1,0.58 -0.94,0.58 -0.94,0.52 -2.52,1.42 -0.73,0.36 -0.74,0.42 -1.36,0.63 -1.16,0.53 -0.58,0.2 -0.85,0.34 -0.89,0.31 -0.89,0.25 -1.87,0.53 -3.01,0.62 -1.05,0.23 -2.1,0.31 -2.2,0.31 -1.1,0.11 -2.29,0.2 -1.16,0.05 -1.21,0.07 -1.16,0.04 -1.2,0.04 h -4.57 l -2.1,-0.04 -1.98,-0.11 -2.01,-0.16 -1.94,-0.15 -1.94,-0.27 -1.83,-0.25 -3.68,-0.64 -3.46,-0.83 -1.73,-0.47 -1.63,-0.49 -1.63,-0.55 -3.14,-1.16 -1.52,-0.7 -1.47,-0.66 -1.43,-0.74 -1.4,-0.8 -1.37,-0.78 -1.38,-0.85 -1.4,-0.98 -2.72,-2.21 -1.23,-1.16 -1.2,-1.2 -1.14,-1.27 -1.07,-1.3 -0.98,-1.38 -0.96,-1.36 -1.67,-2.92 -0.74,-1.54 -0.62,-1.56 -0.63,-1.63 -0.53,-1.63 -0.47,-1.74 -0.36,-1.78 -0.33,-1.79 -0.25,-1.82 -0.22,-1.9 -0.09,-1.94 V 95.24 l 0.09,-1.94 0.22,-1.83 0.2,-1.78 0.31,-1.78 0.43,-1.74 0.42,-1.68 0.51,-1.62 0.58,-1.59 0.63,-1.51 0.73,-1.52 0.74,-1.47 0.85,-1.43 0.93,-1.36 0.96,-1.31 1.05,-1.32 1.05,-1.2 1.16,-1.21 1.2,-1.16 2.61,-2.18 1.43,-1.01 1.25,-0.84 1.27,-0.79 1.36,-0.78 1.43,-0.73 1.4,-0.69 1.47,-0.69 3.04,-1.14 1.58,-0.58 3.26,-0.96 3.34,-0.83 1.74,-0.31 1.78,-0.31 1.79,-0.27 1.83,-0.26 3.68,-0.32 1.89,-0.11 1.94,-0.04 h 4.51 l 2.52,0.11 1.2,0.04 1.27,0.05 1.16,0.11 1.2,0.11 1.1,0.09 1.16,0.16 2.2,0.33 1.05,0.16 2.1,0.4 1,0.22 0.94,0.2 2.83,0.8 0.85,0.32 0.89,0.31 0.82,0.31 0.9,0.31 0.84,0.38 0.9,0.36 0.89,0.42 0.93,0.43 1.79,0.93 2.83,1.59 0.96,0.55 2.83,1.9 1.99,1.36 0.96,0.74 0.98,0.73 1,0.8 1.98,1.68 V 11.91 l 0.07,-1.05 0.09,-1.98 0.34,-1.79 0.15,-0.78 0.25,-0.8 0.22,-0.67 0.31,-0.69 0.31,-0.63 0.36,-0.58 0.38,-0.46 0.42,-0.47 0.43,-0.43 0.51,-0.38 0.47,-0.31 0.53,-0.31 0.58,-0.2 1.25,-0.31 0.63,-0.07 h 1.47 l 0.69,0.07 z m -56.98,71.94 -2.63,0.24 -2.56,0.27 -2.52,0.43 -2.36,0.53 -2.32,0.56 -2.14,0.73 -2.06,0.81 -1.94,0.93 -1.78,1.01 -2.05,1.47 -1.94,1.56 -1.72,1.69 -1.54,1.79 -1.36,1.83 -1.14,1.98 -1,2.1 -0.73,2.21 -0.54,2.31 -0.36,2.37 -0.11,2.52 v 45.22 l 0.11,2.61 0.32,2.48 0.46,2.36 0.74,2.25 0.89,2.1 1.12,2.01 1.36,1.87 1.56,1.74 1.74,1.63 1.98,1.4 2.21,1.38 1.94,0.9 2.01,0.82 2.09,0.74 2.21,0.73 2.25,0.63 2.41,0.53 2.48,0.47 2.61,0.38 2.67,0.25 2.79,0.15 2.88,0.07 4.61,-0.11 2.28,-0.16 2.18,-0.2 4.31,-0.65 2.05,-0.4 2,-0.53 1.94,-0.58 1.83,-0.63 1.74,-0.73 1.45,-1.01 1.54,-1.05 1.56,-1.09 1.58,-1.2 1.63,-1.21 1.67,-1.31 1.74,-1.36 1.72,-1.43 1.78,-1.52 1.86,-1.58 1.82,-1.63 V 88.06 l -2.14,-1.54 -2.09,-1.4 -2.01,-1.43 -1.98,-1.31 -1.9,-1.21 -1.78,-1.09 -1.74,-1.05 -1.63,-0.89 -1.52,-0.78 -1.4,-0.69 -1.32,-0.54 -1.89,-0.71 -1.9,-0.65 -1.94,-0.58 -1.98,-0.51 -1.99,-0.42 -2.05,-0.32 -2.1,-0.31 -2.05,-0.22 -2.16,-0.16 -4.3,-0.09 -2.72,0.05 z" />
    <path
       id="bmWqC8zkw"
       d="m 1247.51,17.63 c 11.39,8.56 17.26,20.69 17.26,35.43 0,6.82 -2.83,10.24 -8.54,10.24 -3.95,0 -6.78,-3.42 -8.5,-10.24 -1.16,-5.66 -3.41,-10.77 -6.24,-16.12 -5.15,-9.08 -16.13,-13.23 -33.16,-13.23 -14.97,0 -25.2,3.42 -31.45,10.77 -5.66,6.83 -9.07,17.26 -9.07,32.58 0,5.98 0,53.57 0,59.5 0,15.54 3.41,26.34 9.65,33.16 6.83,7.4 17.22,11.33 32,11.33 22.37,0 35.44,-7.92 38.27,-23.44 1.14,-5.73 1.72,-8.56 1.72,-9.14 1.11,-3.41 3.41,-5.09 6.78,-5.09 5.71,0 8.54,3.42 8.54,10.24 0,14.38 -5.67,25.18 -17.78,33.74 -9.72,6.24 -21.83,9.66 -37.73,9.66 -18.37,0 -32.58,-4 -42.97,-12.56 -11.59,-7.92 -17.26,-21.56 -17.26,-39.4 0,0 0,0 0,0 0,0 0,0 0,0 0,-42.91 0,-66.79 0,-71.56 0,-37.74 19.51,-56.09 59.5,-56.09 16.1,0 28.59,3.41 38.98,10.22 z" />
    <path
       id="f2Te2jfvz"
       d="m 1072.05,55.58 4.35,0.51 4.15,0.78 3.95,0.96 3.72,1.16 3.5,1.41 3.33,1.58 3.03,1.83 2.87,2.05 2.64,2.21 2.4,2.45 2.21,2.63 2.05,2.88 1.79,3.1 1.58,3.25 1.36,3.53 1.14,3.65 0.96,3.95 0.73,4.08 0.52,4.37 0.31,4.51 0.11,4.77 -0.04,1.16 -0.07,1.09 -0.09,1.05 -0.11,1 -0.2,1.01 -0.23,0.89 -0.26,0.89 -0.25,0.78 -0.31,0.74 -0.38,0.73 -0.42,0.63 -0.47,0.62 -0.47,0.58 -1.05,0.96 -1.27,0.74 -1.36,0.51 -0.78,0.22 -0.78,0.09 -0.85,0.11 -89.14,0.01 -0.01,17.63 0.11,2.46 0.2,2.4 0.42,2.28 0.54,2.14 0.73,2.05 0.83,1.94 1.05,1.79 1.16,1.71 1.36,1.59 1.47,1.51 1.69,1.36 1.83,1.27 1.94,1.16 2.14,1.05 2.32,0.94 2.41,0.85 2.63,0.66 2.79,0.65 2.92,0.47 3.1,0.36 3.26,0.31 3.41,0.15 3.57,0.07 h 1.31 l 1.32,-0.07 h 1.25 l 2.52,-0.08 1.2,-0.12 1.16,-0.04 2.3,-0.22 1.11,-0.09 1.09,-0.18 3.15,-0.47 2.01,-0.42 1.89,-0.4 0.89,-0.27 0.9,-0.23 0.89,-0.24 0.82,-0.31 1.27,-0.43 0.47,-0.22 0.51,-0.16 0.54,-0.24 0.58,-0.22 0.58,-0.27 0.62,-0.31 0.63,-0.27 1.36,-0.71 0.73,-0.38 0.74,-0.43 0.78,-0.42 0.8,-0.47 0.83,-0.47 0.85,-0.51 0.89,-0.54 0.89,-0.58 0.94,-0.62 2,-1.27 1.01,-0.67 1.05,-0.74 0.62,-0.58 0.67,-0.58 0.58,-0.51 0.64,-0.53 0.56,-0.47 0.58,-0.43 1.05,-0.84 0.49,-0.36 0.51,-0.38 0.47,-0.31 0.43,-0.31 0.42,-0.27 0.42,-0.2 0.36,-0.27 0.74,-0.31 0.31,-0.16 0.62,-0.2 0.27,-0.07 0.22,-0.04 h 0.83 l 0.58,0.04 0.53,0.07 0.94,0.2 0.47,0.16 0.42,0.15 0.43,0.23 0.35,0.2 0.31,0.27 0.65,0.62 0.25,0.31 0.26,0.38 0.43,0.83 0.15,0.46 0.16,0.54 0.22,1.05 0.05,0.58 0.04,0.62 v 1.32 l -0.09,0.69 -0.06,0.67 -0.16,0.62 -0.16,0.69 -0.2,0.7 -0.26,0.66 -0.32,0.63 -0.31,0.69 -0.38,0.69 -0.82,1.36 -0.49,0.63 -0.52,0.69 -1.16,1.36 -2.05,2.05 -2.36,2.03 -0.89,0.73 -2.92,2.1 -1.59,1 -1.67,1.01 -1.67,0.89 -1.79,0.89 -1.85,0.78 -1.89,0.78 -1.94,0.74 -2.03,0.69 -2.1,0.62 -2.16,0.58 -2.21,0.58 -2.25,0.47 -2.3,0.43 -2.43,0.42 -2.45,0.31 -2.52,0.31 -2.59,0.2 -2.61,0.23 -5.46,0.2 h -2.83 l -4.89,-0.05 -4.66,-0.26 -4.46,-0.43 -4.26,-0.62 -3.99,-0.74 -3.81,-0.93 -3.64,-1.12 -3.34,-1.29 -3.21,-1.43 -2.95,-1.63 -2.72,-1.78 -2.52,-1.99 -2.29,-2.12 -2.12,-2.29 -1.83,-2.52 -1.67,-2.63 -1.43,-2.84 -1.2,-2.98 -1.01,-3.19 -0.78,-3.33 -0.51,-3.5 -0.38,-3.72 -0.11,-3.88 V 97.01 l 0.07,-1.29 0.04,-1.38 0.11,-1.25 0.16,-1.32 0.2,-1.31 0.53,-2.52 0.36,-1.21 0.38,-1.25 0.42,-1.2 0.47,-1.2 0.51,-1.16 1.16,-2.32 0.69,-1.14 0.67,-1.12 0.74,-1.09 0.85,-1.05 0.78,-1.04 0.89,-1.05 1.9,-2.01 1.04,-1 1.36,-1.3 1.43,-1.22 1.52,-1.21 1.51,-1.09 1.63,-1.05 1.74,-1 1.72,-0.94 1.85,-0.89 1.83,-0.78 1.94,-0.8 2,-0.67 4.2,-1.27 2.14,-0.52 2.25,-0.49 2.27,-0.4 2.35,-0.31 2.43,-0.33 2.45,-0.25 2.47,-0.16 2.57,-0.15 2.63,-0.07 2.68,-0.04 4.81,0.11 z m -20.36,16.06 -4.08,0.66 -3.94,1.01 -3.77,1.25 -3.68,1.54 -3.46,1.78 -3.41,2.52 -2.83,2.61 -2.28,2.83 -1.78,2.94 -1.25,3.1 -0.73,3.26 -0.27,3.41 v 9.66 h 81.86 l -0.85,-9.81 -2.56,-8.34 -4.26,-6.83 -5.98,-5.31 -7.65,-3.83 -9.45,-2.25 -11.13,-0.78 -4.3,0.15 z" />
  </defs>
  <g
     id="g143"
     transform="matrix(0.83797898,0,0,0.83797898,0.41898949,0.41898949)">
    <g
       id="g141">
      <g
         id="g139">
        <g
           id="g25">
          <use
             fill="#0a0a23"
             fill-opacity="1"
             opacity="1"
             xlink:href="#amILGE7Y"
             id="use19"
             x="0"
             y="0"
             width="100%"
             height="100%" />
          <g
             id="g23">
            <use
               fill-opacity="0"
               stroke="#000000"
               stroke-opacity="0"
               stroke-width="1"
               opacity="1"
               xlink:href="#amILGE7Y"
               id="use21"
               x="0"
               y="0"
               width="100%"
               height="100%" />
          </g>
        </g>
        <g
           id="g33">
          <use
             fill="#0a0a23"
             fill-opacity="1"
             opacity="1"
             xlink:href="#d129e72Ef9"
             id="use27"
             x="0"
             y="0"
             width="100%"
             height="100%" />
          <g
             id="g31">
            <use
               fill-opacity="0"
               stroke="#000000"
               stroke-opacity="0"
               stroke-width="1"
               opacity="1"
               xlink:href="#d129e72Ef9"
               id="use29"
               x="0"
               y="0"
               width="100%"
               height="100%" />
          </g>
        </g>
        <g
           id="g41">
          <use
             fill="#0a0a23"
             fill-opacity="1"
             opacity="1"
             xlink:href="#aMmpTPA7v"
             id="use35"
             x="0"
             y="0"
             width="100%"
             height="100%" />
          <g
             id="g39">
            <use
               fill-opacity="0"
               stroke="#000000"
               stroke-opacity="0"
               stroke-width="1"
               opacity="1"
               xlink:href="#aMmpTPA7v"
               id="use37"
               x="0"
               y="0"
               width="100%"
               height="100%" />
          </g>
        </g>
        <g
           id="g49">
          <use
             fill="#0a0a23"
             fill-opacity="1"
             opacity="1"
             xlink:href="#f2d1RX7Y7I"
             id="use43"
             x="0"
             y="0"
             width="100%"
             height="100%" />
          <g
             id="g47">
            <use
               fill-opacity="0"
               stroke="#000000"
               stroke-opacity="0"
               stroke-width="1"
               opacity="1"
               xlink:href="#f2d1RX7Y7I"
               id="use45"
               x="0"
               y="0"
               width="100%"
               height="100%" />
          </g>
        </g>
        <g
           id="g57">
          <use
             fill="#0a0a23"
             fill-opacity="1"
             opacity="1"
             xlink:href="#j1tNdHf66h"
             id="use51"
             x="0"
             y="0"
             width="100%"
             height="100%" />
          <g
             id="g55">
            <use
               fill-opacity="0"
               stroke="#000000"
               stroke-opacity="0"
               stroke-width="1"
               opacity="1"
               xlink:href="#j1tNdHf66h"
               id="use53"
               x="0"
               y="0"
               width="100%"
               height="100%" />
          </g>
        </g>
        <g
           id="g65">
          <use
             fill="#0a0a23"
             fill-opacity="1"
             opacity="1"
             xlink:href="#i6IAfq4yz"
             id="use59"
             x="0"
             y="0"
             width="100%"
             height="100%" />
          <g
             id="g63">
            <use
               fill-opacity="0"
               stroke="#000000"
               stroke-opacity="0"
               stroke-width="1"
               opacity="1"
               xlink:href="#i6IAfq4yz"
               id="use61"
               x="0"
               y="0"
               width="100%"
               height="100%" />
          </g>
        </g>
        <g
           id="g73">
          <use
             fill="#0a0a23"
             fill-opacity="1"
             opacity="1"
             xlink:href="#b38jkxnlNJ"
             id="use67"
             x="0"
             y="0"
             width="100%"
             height="100%" />
          <g
             id="g71">
            <use
               fill-opacity="0"
               stroke="#000000"
               stroke-opacity="0"
               stroke-width="1"
               opacity="1"
               xlink:href="#b38jkxnlNJ"
               id="use69"
               x="0"
               y="0"
               width="100%"
               height="100%" />
          </g>
        </g>
        <g
           id="g81">
          <use
             fill="#0a0a23"
             fill-opacity="1"
             opacity="1"
             xlink:href="#g3rdOrRZso"
             id="use75"
             x="0"
             y="0"
             width="100%"
             height="100%" />
          <g
             id="g79">
            <use
               fill-opacity="0"
               stroke="#000000"
               stroke-opacity="0"
               stroke-width="1"
               opacity="1"
               xlink:href="#g3rdOrRZso"
               id="use77"
               x="0"
               y="0"
               width="100%"
               height="100%" />
          </g>
        </g>
        <g
           id="g89">
          <use
             fill="#0a0a23"
             fill-opacity="1"
             opacity="1"
             xlink:href="#eW3yQgODP"
             id="use83"
             x="0"
             y="0"
             width="100%"
             height="100%" />
          <g
             id="g87">
            <use
               fill-opacity="0"
               stroke="#000000"
               stroke-opacity="0"
               stroke-width="1"
               opacity="1"
               xlink:href="#eW3yQgODP"
               id="use85"
               x="0"
               y="0"
               width="100%"
               height="100%" />
          </g>
        </g>
        <g
           id="g97">
          <use
             fill="#0a0a23"
             fill-opacity="1"
             opacity="1"
             xlink:href="#a4OAfWYDLw"
             id="use91"
             x="0"
             y="0"
             width="100%"
             height="100%" />
          <g
             id="g95">
            <use
               fill-opacity="0"
               stroke="#000000"
               stroke-opacity="0"
               stroke-width="1"
               opacity="1"
               xlink:href="#a4OAfWYDLw"
               id="use93"
               x="0"
               y="0"
               width="100%"
               height="100%" />
          </g>
        </g>
        <g
           id="g105">
          <use
             fill="#0a0a23"
             fill-opacity="1"
             opacity="1"
             xlink:href="#b9yb5LeAex"
             id="use99"
             x="0"
             y="0"
             width="100%"
             height="100%" />
          <g
             id="g103">
            <use
               fill-opacity="0"
               stroke="#000000"
               stroke-opacity="0"
               stroke-width="1"
               opacity="1"
               xlink:href="#b9yb5LeAex"
               id="use101"
               x="0"
               y="0"
               width="100%"
               height="100%" />
          </g>
        </g>
        <g
           id="g113">
          <use
             fill="#0a0a23"
             fill-opacity="1"
             opacity="1"
             xlink:href="#f3a6nyxy58"
             id="use107"
             x="0"
             y="0"
             width="100%"
             height="100%" />
          <g
             id="g111">
            <use
               fill-opacity="0"
               stroke="#000000"
               stroke-opacity="0"
               stroke-width="1"
               opacity="1"
               xlink:href="#f3a6nyxy58"
               id="use109"
               x="0"
               y="0"
               width="100%"
               height="100%" />
          </g>
        </g>
        <g
           id="g121">
          <use
             fill="#0a0a23"
             fill-opacity="1"
             opacity="1"
             xlink:href="#bfq0GCmmK"
             id="use115"
             x="0"
             y="0"
             width="100%"
             height="100%" />
          <g
             id="g119">
            <use
               fill-opacity="0"
               stroke="#000000"
               stroke-opacity="0"
               stroke-width="1"
               opacity="1"
               xlink:href="#bfq0GCmmK"
               id="use117"
               x="0"
               y="0"
               width="100%"
               height="100%" />
          </g>
        </g>
        <g
           id="g129">
          <use
             fill="#0a0a23"
             fill-opacity="1"
             opacity="1"
             xlink:href="#bmWqC8zkw"
             id="use123"
             x="0"
             y="0"
             width="100%"
             height="100%" />
          <g
             id="g127">
            <use
               fill-opacity="0"
               stroke="#000000"
               stroke-opacity="0"
               stroke-width="1"
               opacity="1"
               xlink:href="#bmWqC8zkw"
               id="use125"
               x="0"
               y="0"
               width="100%"
               height="100%" />
          </g>
        </g>
        <g
           id="g137">
          <use
             fill="#0a0a23"
             fill-opacity="1"
             opacity="1"
             xlink:href="#f2Te2jfvz"
             id="use131"
             x="0"
             y="0"
             width="100%"
             height="100%" />
          <g
             id="g135">
            <use
               fill-opacity="0"
               stroke="#000000"
               stroke-opacity="0"
               stroke-width="1"
               opacity="1"
               xlink:href="#f2Te2jfvz"
               id="use133"
               x="0"
               y="0"
               width="100%"
               height="100%" />
          </g>
        </g>
      </g>
    </g>
  </g>
</svg>
