<svg xmlns="http://www.w3.org/2000/svg" viewBox="0 0 372.37 343.92"><defs><style>.a{fill:#009dc0;}.b{fill:#000664;}.c{fill:#f4167d;}.d{fill:#007401;}.e{fill:#040001;}.f{fill:#fe0a00;}.g{fill:#ffb701;}.h,.i,.j,.k,.l,.m,.n,.o,.p{fill:none;}.h{stroke:#fff;}.h,.m{stroke-linecap:round;}.h,.n{stroke-linejoin:round;}.h,.i,.j,.k{stroke-width:6px;}.i,.o{stroke:#f4167d;}.i,.j,.k,.l,.m,.o,.p{stroke-miterlimit:10;}.j,.n,.p{stroke:#ffb701;}.k,.l,.m{stroke:#009dc0;}.l,.m,.n,.o,.p{stroke-width:4px;}</style></defs><path class="a" d="M336.12,207.19q0,1.08,0,2.16a86,86,0,0,0-85.91,10.8,86,86,0,0,0-85.9-10.8q0-1.08,0-2.16a85.94,85.94,0,1,1,171.87,0Z" transform="translate(-63.82 -78.14)"/><path class="b" d="M336.09,209.35a85.94,85.94,0,0,1-52.2,76.9,85.78,85.78,0,0,0-33.71-66.1,86,86,0,0,1,85.91-10.8Z" transform="translate(-63.82 -78.14)"/><path class="c" d="M388.32,288.42a85.94,85.94,0,0,1-138.14,68.26,85.78,85.78,0,0,0,33.74-68.26c0-.72,0-1.45,0-2.17a85.94,85.94,0,0,0,52.2-76.9A86,86,0,0,1,388.32,288.42Z" transform="translate(-63.82 -78.14)"/><path class="d" d="M250.18,220.15a85.77,85.77,0,0,0-33.7,66.1,85.93,85.93,0,0,1-52.2-76.9,86,86,0,0,1,85.9,10.8Z" transform="translate(-63.82 -78.14)"/><path class="e" d="M283.89,286.25a86.12,86.12,0,0,1-67.41,0,85.77,85.77,0,0,1,33.7-66.1A85.78,85.78,0,0,1,283.89,286.25Z" transform="translate(-63.82 -78.14)"/><path class="f" d="M283.92,288.42a85.78,85.78,0,0,1-33.74,68.26,85.77,85.77,0,0,1-33.73-68.26c0-.72,0-1.45,0-2.17a86.12,86.12,0,0,0,67.41,0C283.91,287,283.92,287.7,283.92,288.42Z" transform="translate(-63.82 -78.14)"/><path class="g" d="M250.18,356.68a85.94,85.94,0,1,1-85.9-147.33,85.93,85.93,0,0,0,52.2,76.9c0,.72,0,1.45,0,2.17A85.77,85.77,0,0,0,250.18,356.68Z" transform="translate(-63.82 -78.14)"/><polygon class="h" points="186.4 169.27 150.41 212.46 164.81 266.83 208 266.83 222.4 212.46 186.4 169.27"/><line class="h" x1="186.4" y1="169.27" x2="186.4" y2="210.92"/><circle class="h" cx="186.4" cy="220.64" r="9.72"/><line class="i" x1="186.37" y1="282.91" x2="186.37" y2="319.34"/><rect class="h" x="164.81" y="274.16" width="43.12" height="8.76"/><path class="j" d="M78.74,247.8a171.26,171.26,0,1,0,342.52,0" transform="translate(-63.82 -78.14)"/><rect class="k" x="3" y="145.82" width="23.84" height="23.84"/><rect class="k" x="345.53" y="145.82" width="23.84" height="23.84"/><path class="l" d="M402.06,188.2l-29.83,20.4c-3.51,2.4-5.91-1.11-9.42,1.29s-5.91-1.11-5.91-1.11-2.4-3.51,1.11-5.91,1.11-5.91,4.62-8.31l29.83-20.4" transform="translate(-63.82 -78.14)"/><path class="l" d="M392.46,174.16l7-4.8a8.5,8.5,0,1,1,9.6,14l-7,4.8" transform="translate(-63.82 -78.14)"/><line class="m" x1="325.05" y1="90.76" x2="341.85" y2="115.32"/><rect class="n" x="84.67" y="178.26" width="17.98" height="0.01" transform="translate(-170.76 117.66) rotate(-67.28)"/><rect class="n" x="84.67" y="178.26" width="17.98" height="0.01" transform="translate(-170.76 117.66) rotate(-67.28)"/><line class="n" x1="79.69" y1="125.44" x2="79.69" y2="125.44"/><line class="n" x1="82.71" y1="118.16" x2="82.71" y2="118.15"/><polyline class="n" points="76.18 109.93 71.77 112.91 72.69 118.2 72.68 118.21 68.27 121.19 69.19 126.48"/><polygon class="n" points="69.18 126.49 87.84 124.62 76.18 109.93 33.34 91.84 26.34 108.4 69.18 126.49"/><path class="n" d="M88.51,185.85a9,9,0,0,1,7-16.56l1.65.7-7,16.56Z" transform="translate(-63.82 -78.14)"/><line class="n" x1="39.87" y1="94.6" x2="32.88" y2="111.16"/><line class="n" x1="82.71" y1="118.15" x2="79.69" y2="125.44"/><rect class="o" x="98.99" y="2.21" width="24.94" height="24.94"/><rect class="o" x="111.46" y="14.68" width="24.94" height="24.94"/><circle class="p" cx="258.43" cy="20.92" r="18.92"/><circle class="p" cx="258.43" cy="20.92" r="8.33"/><line class="p" x1="258.43" y1="12.59" x2="258.43" y2="2"/><line class="p" x1="250.1" y1="20.92" x2="239.51" y2="20.92"/><line class="p" x1="258.43" y1="29.25" x2="258.43" y2="39.84"/><line class="p" x1="266.77" y1="20.92" x2="277.35" y2="20.92"/></svg>