<svg xmlns="http://www.w3.org/2000/svg" xmlns:xlink="http://www.w3.org/1999/xlink" viewBox="0 0 2218.12 1366.22"><defs><style>.a{fill:#91b3fa;}.b{fill:url(#a);}.ah,.c,.w,.x{fill:#fff;}.c{opacity:0.76;}.d{fill:url(#b);}.e{fill:#7d97f4;}.f{fill:url(#c);}.g{fill:url(#d);}.h{fill:url(#e);}.i{fill:url(#f);}.j{fill:url(#g);}.k{fill:url(#h);}.l{fill:url(#i);}.m{fill:url(#j);}.n{fill:url(#k);}.o{fill:url(#l);}.p{fill:url(#m);}.q{fill:url(#n);}.r{fill:url(#o);}.s{fill:url(#p);}.t{fill:url(#q);}.u{fill:url(#r);}.v{fill:url(#s);}.x{opacity:0.37;}.y{fill:url(#t);}.z{fill:url(#u);}.aa{fill:url(#v);}.ab{fill:url(#w);}.ac{fill:url(#x);}.ad{fill:url(#y);}.ae{opacity:0.64;}.af{fill:url(#z);}.ag{fill:url(#aa);}.ah{opacity:0.56;}.ai{fill:url(#ab);}.aj{fill:url(#ac);}.ak{fill:url(#ad);}.al{fill:url(#ae);}.am{fill:url(#af);}.an{fill:url(#ag);}.ao{fill:url(#ah);}.ap{fill:url(#ai);}.aq{fill:url(#aj);}.ar{fill:url(#ak);}.as{fill:url(#al);}.at{fill:url(#am);}.au{fill:url(#an);}.av{fill:url(#ao);}.aw{fill:url(#ap);}.ax{fill:url(#aq);}.ay{fill:url(#ar);}.az{fill:url(#as);}.ba{fill:url(#at);}.bb{fill:url(#au);}.bc{fill:url(#av);}.bd{fill:url(#aw);}.be{fill:url(#ax);}.bf{fill:url(#ay);}.bg{fill:url(#az);}.bh{fill:url(#ba);}.bi{fill:url(#bb);}.bj{fill:url(#bc);}.bk{fill:url(#bd);}.bl{fill:url(#be);}.bm{fill:url(#bf);}.bn{fill:url(#bg);}.bo{fill:url(#bh);}.bp{fill:url(#bi);}.bq{fill:url(#bj);}.br{fill:url(#bk);}.bs{fill:url(#bl);}</style><linearGradient id="a" x1="2128.5" y1="465.26" x2="2132.72" y2="683.4" gradientUnits="userSpaceOnUse"><stop offset="0" stop-color="#ff928e"/><stop offset="1" stop-color="#fe7062"/></linearGradient><linearGradient id="b" x1="1990.77" y1="1145.42" x2="1978.62" y2="897.77" gradientUnits="userSpaceOnUse"><stop offset="0" stop-color="#4f52ff"/><stop offset="1" stop-color="#4042e2"/></linearGradient><linearGradient id="c" x1="2222.82" y1="-352.99" x2="2174.75" y2="-253.9" gradientTransform="translate(-46.67 443.23) rotate(9.25)" gradientUnits="userSpaceOnUse"><stop offset="0" stop-color="#09005d"/><stop offset="1" stop-color="#1a0f91"/></linearGradient><linearGradient id="d" x1="2276.42" y1="346.24" x2="2158.23" y2="636.1" xlink:href="#a"/><linearGradient id="e" x1="2046.46" y1="650.53" x2="2150.47" y2="901.77" gradientUnits="userSpaceOnUse"><stop offset="0" stop-color="#febbba"/><stop offset="1" stop-color="#ff928e"/></linearGradient><linearGradient id="f" x1="-7625.68" y1="650.03" x2="-7521.67" y2="901.28" gradientTransform="matrix(-1, 0, 0, 1, -5403.07, 0)" xlink:href="#e"/><linearGradient id="g" x1="1999.91" y1="537.09" x2="1994.48" y2="756.88" gradientTransform="matrix(1, 0, 0, 1, 0, 0)" xlink:href="#c"/><linearGradient id="h" x1="2197.63" y1="777.27" x2="2250.91" y2="777.27" gradientTransform="translate(1.59 21.57) rotate(0.44)" xlink:href="#c"/><linearGradient id="i" x1="2230.59" y1="713.33" x2="2170.7" y2="875.55" xlink:href="#e"/><linearGradient id="j" x1="-8150.33" y1="715.96" x2="-8097.01" y2="715.96" gradientTransform="matrix(-1, -0.02, -0.02, 1, -6070.47, -63.41)" xlink:href="#c"/><linearGradient id="k" x1="2119.12" y1="664.54" x2="2059.19" y2="826.88" xlink:href="#e"/><linearGradient id="l" x1="2254.34" y1="713.49" x2="2105.31" y2="825.44" xlink:href="#b"/><linearGradient id="m" x1="2120.44" y1="814.12" x2="2080.41" y2="712.04" xlink:href="#b"/><linearGradient id="n" x1="2133.73" y1="670.97" x2="2132.34" y2="549.44" xlink:href="#e"/><linearGradient id="o" x1="2173.46" y1="-191.79" x2="2177.79" y2="-297.07" gradientTransform="translate(-46.67 443.23) rotate(9.25)" xlink:href="#e"/><linearGradient id="p" x1="2223.61" y1="-368.95" x2="2169.01" y2="-256.39" xlink:href="#c"/><linearGradient id="q" x1="1871.09" y1="1184.03" x2="1877.9" y2="1018.42" gradientTransform="translate(105.36 -307.56) rotate(-7.64)" xlink:href="#e"/><linearGradient id="r" x1="1150.95" y1="1100.65" x2="1481.61" y2="108.67" gradientUnits="userSpaceOnUse"><stop offset="0" stop-color="#2b3582"/><stop offset="1" stop-color="#150e42"/></linearGradient><linearGradient id="s" x1="1873.51" y1="60.12" x2="93.18" y2="2093.56" gradientUnits="userSpaceOnUse"><stop offset="0" stop-color="#fdf53f"/><stop offset="1" stop-color="#d93c65"/></linearGradient><linearGradient id="t" x1="1744.82" y1="920.55" x2="364.36" y2="1256.34" xlink:href="#r"/><linearGradient id="u" x1="1751.33" y1="188.76" x2="1777.53" y2="106.89" gradientTransform="matrix(1.17, 0.07, -0.07, 1.18, -224.24, 154.83)" gradientUnits="userSpaceOnUse"><stop offset="0" stop-color="#53d8ff"/><stop offset="1" stop-color="#3840f7"/></linearGradient><linearGradient id="v" x1="1754.69" y1="133.64" x2="1882.85" y2="-150.06" xlink:href="#u"/><linearGradient id="w" x1="1920.41" y1="271.01" x2="1894.09" y2="104.31" xlink:href="#u"/><linearGradient id="x" x1="1360.88" y1="567.31" x2="1176.44" y2="987.28" gradientUnits="userSpaceOnUse"><stop offset="0" stop-color="#cb236d"/><stop offset="1" stop-color="#4c246d"/></linearGradient><linearGradient id="y" x1="1455.37" y1="609.79" x2="1271.08" y2="1029.41" xlink:href="#x"/><linearGradient id="z" x1="4959.77" y1="1373.32" x2="5505.54" y2="2336.19" gradientTransform="translate(4804.14 -2871) rotate(119.58)" xlink:href="#x"/><linearGradient id="aa" x1="1258.62" y1="405.24" x2="1268.71" y2="766.74" xlink:href="#x"/><linearGradient id="ab" x1="1578.91" y1="522.78" x2="1739.06" y2="372.23" xlink:href="#x"/><linearGradient id="ac" x1="1015.56" y1="665.93" x2="1083.87" y2="503.55" gradientUnits="userSpaceOnUse"><stop offset="0" stop-color="#cb236d"/><stop offset="0.07" stop-color="#c2236d"/><stop offset="1" stop-color="#4c246d"/></linearGradient><linearGradient id="ad" x1="2142.94" y1="465.22" x2="1715.1" y2="1068.85" gradientTransform="matrix(-0.98, -0.17, -0.17, 0.98, 3621.75, 546.62)" xlink:href="#r"/><linearGradient id="ae" x1="1611.54" y1="1366.11" x2="1659.96" y2="1366.11" gradientTransform="matrix(-1, 0, 0, 1, 3398.5, 0)" xlink:href="#x"/><linearGradient id="af" x1="1732.83" y1="1309.16" x2="1556.55" y2="1447.57" gradientTransform="matrix(-1, 0, 0, 1, 3398.5, 0)" xlink:href="#u"/><linearGradient id="ag" x1="1546.6" y1="1029.96" x2="1611.18" y2="1029.96" gradientTransform="matrix(-1, 0, 0, 1, 3398.5, 0)" gradientUnits="userSpaceOnUse"><stop offset="0" stop-color="#f9b776"/><stop offset="1" stop-color="#f47960"/></linearGradient><linearGradient id="ah" x1="1625.04" y1="1310.35" x2="1615.69" y2="1391.99" xlink:href="#ag"/><linearGradient id="ai" x1="1764.09" y1="1349.03" x2="1587.82" y2="1487.43" gradientTransform="matrix(-1, 0, 0, 1, 3398.5, 0)" xlink:href="#u"/><linearGradient id="aj" x1="1685.28" y1="1367.41" x2="1754.99" y2="1367.41" gradientTransform="matrix(-1, 0, 0, 1, 3398.5, 0)" xlink:href="#x"/><linearGradient id="ak" x1="1700.38" y1="1319.08" x2="1691.03" y2="1400.71" xlink:href="#ag"/><linearGradient id="al" x1="1811.87" y1="945.87" x2="1512.97" y2="1409.68" gradientTransform="matrix(-1, 0, 0, 1, 3398.5, 0)" xlink:href="#x"/><linearGradient id="am" x1="1689.21" y1="777.18" x2="1831.13" y2="1050.38" gradientTransform="matrix(1, 0, 0, 1, 0, 0)" xlink:href="#u"/><linearGradient id="an" x1="1645.67" y1="781.16" x2="1607.33" y2="946.87" xlink:href="#ag"/><linearGradient id="ao" x1="-333.91" y1="-52.36" x2="-397.3" y2="31.5" gradientTransform="matrix(-0.69, -0.73, -0.73, 0.69, 1491.98, 544.78)" xlink:href="#ag"/><linearGradient id="ap" x1="-382.02" y1="-32.19" x2="-306.66" y2="-32.19" gradientTransform="matrix(-0.69, -0.73, -0.73, 0.69, 1491.98, 544.78)" xlink:href="#r"/><linearGradient id="aq" x1="-426.57" y1="14.24" x2="-375.73" y2="-37.92" gradientTransform="matrix(-0.69, -0.73, -0.73, 0.69, 1491.98, 544.78)" xlink:href="#ag"/><linearGradient id="ar" x1="1746.14" y1="661.34" x2="1864.7" y2="1011.09" gradientUnits="userSpaceOnUse"><stop offset="0" stop-color="#53d8ff"/><stop offset="0.67" stop-color="#4173fa"/><stop offset="1" stop-color="#3840f7"/></linearGradient><linearGradient id="as" x1="1765.36" y1="959.83" x2="1773.66" y2="1099.79" xlink:href="#x"/><linearGradient id="at" x1="1613.6" y1="817.07" x2="1754.93" y2="1089.13" gradientTransform="matrix(1, 0, 0, 1, 0, 0)" xlink:href="#u"/><linearGradient id="au" x1="1874.32" y1="722.07" x2="1835.71" y2="848.25" xlink:href="#ag"/><linearGradient id="av" x1="1888.93" y1="726.59" x2="1850.35" y2="852.67" xlink:href="#ag"/><linearGradient id="aw" x1="1429.33" y1="1458.27" x2="1471.8" y2="1191.09" gradientTransform="matrix(1, 0, 0, -1, -1001.27, 2723.54)" gradientUnits="userSpaceOnUse"><stop offset="0" stop-color="#4042e2"/><stop offset="0.33" stop-color="#4547ec"/><stop offset="1" stop-color="#4f52ff"/></linearGradient><linearGradient id="ax" x1="1445.82" y1="1459.97" x2="1489.86" y2="1182.93" gradientTransform="matrix(1, 0, 0, -1, -1001.27, 2931.47)" xlink:href="#aw"/><linearGradient id="ay" x1="1395.72" y1="1567.87" x2="1438.2" y2="1300.68" gradientTransform="matrix(-1, 0, 0, 1, 1753.19, -146)" xlink:href="#c"/><linearGradient id="az" x1="1323.66" y1="1327.48" x2="1485.53" y2="1514.53" gradientTransform="matrix(-1, 0, 0, 1, 1888.07, 0)" gradientUnits="userSpaceOnUse"><stop offset="0" stop-color="#ff928e"/><stop offset="1" stop-color="#feb3b1"/></linearGradient><linearGradient id="ba" x1="1315.7" y1="1379.21" x2="1295.15" y2="1694.34" gradientTransform="matrix(-1, 0, 0, 1, 1888.07, 0)" xlink:href="#aw"/><linearGradient id="bb" x1="1155.28" y1="998.29" x2="1202.04" y2="1269.86" xlink:href="#az"/><linearGradient id="bc" x1="1350.75" y1="1383.65" x2="1403.73" y2="1188.31" gradientTransform="matrix(-1, 0, 0, 1, 1888.07, 0)" gradientUnits="userSpaceOnUse"><stop offset="0" stop-color="#4042e2"/><stop offset="1" stop-color="#4f52ff"/></linearGradient><linearGradient id="bd" x1="1117.37" y1="1366.27" x2="1096.82" y2="1681.41" gradientTransform="matrix(-1, 0, 0, 1, 1888.07, 0)" xlink:href="#aw"/><linearGradient id="be" x1="1440.99" y1="973.6" x2="1597.67" y2="1314.61" xlink:href="#bc"/><linearGradient id="bf" x1="1363.55" y1="763.67" x2="1423.49" y2="911.14" xlink:href="#az"/><linearGradient id="bg" x1="1528.75" y1="819.94" x2="1455.61" y2="1042.95" xlink:href="#az"/><linearGradient id="bh" x1="1421.67" y1="1186.8" x2="1247.3" y2="1234.59" gradientTransform="matrix(-1, -0.05, -0.05, 1, 1879.4, -86.8)" xlink:href="#c"/><linearGradient id="bi" x1="1251.26" y1="915.7" x2="1127.54" y2="1046.47" gradientTransform="matrix(-1, 0, 0, 1, 1888.07, 0)" xlink:href="#c"/><linearGradient id="bj" x1="1316.33" y1="741.68" x2="1415.71" y2="741.68" xlink:href="#az"/><linearGradient id="bk" x1="4693.76" y1="557.02" x2="4479.85" y2="779.57" gradientTransform="matrix(-1, 0, 0, 1, 5032.42, 0)" xlink:href="#c"/><linearGradient id="bl" x1="4478.83" y1="708.51" x2="4606.37" y2="795.14" gradientTransform="matrix(-1, 0, 0, 1, 5032.42, 0)" xlink:href="#az"/></defs><path class="a" d="M1944.89,899.24h364.49V835.53H1944.89C1952.69,835.53,1952.69,899.24,1944.89,899.24Z" transform="translate(-134.88 -146)"/><path class="b" d="M2309.38,883.3V854.14c0-10.27-7.21-18.61-16.09-18.61H1946.43c-7,0-12.66-4.94-12.66-11a3.62,3.62,0,0,1,3.85-3.35h379.09c8.69,0,22.5,11.93,22.5,26.66v40.72c0,13.89-13.4,25.14-21.6,25.14h-378c-3.22,0-5.84-2.28-5.84-5.1,0-5.14,4.78-9.31,10.66-9.31h351.16C2303.2,899.24,2309.38,892.11,2309.38,883.3Z" transform="translate(-134.88 -146)"/><path class="c" d="M2299.27,850H1957.51a1.42,1.42,0,0,1,0-2.83h341.76a1.42,1.42,0,0,1,0,2.83Z" transform="translate(-134.88 -146)"/><path class="c" d="M2299.27,859.48H1957.51a1.42,1.42,0,0,1,0-2.83h341.76a1.42,1.42,0,0,1,0,2.83Z" transform="translate(-134.88 -146)"/><path class="c" d="M2299.27,868.93H1957.51a1.42,1.42,0,0,1,0-2.83h341.76a1.42,1.42,0,0,1,0,2.83Z" transform="translate(-134.88 -146)"/><path class="c" d="M2299.27,878.39H1957.51a1.42,1.42,0,0,1,0-2.83h341.76a1.42,1.42,0,0,1,0,2.83Z" transform="translate(-134.88 -146)"/><path class="c" d="M2299.27,887.85H1957.51a1.42,1.42,0,0,1,0-2.83h341.76a1.42,1.42,0,0,1,0,2.83Z" transform="translate(-134.88 -146)"/><rect class="d" x="1731.67" y="768.54" width="486.45" height="106.46" rx="14.68"/><path class="e" d="M1969.15,1008.76h-38.1c-5.26,0-9.53-4.58-9.53-10.24V937c0-5.66,4.27-10.25,9.53-10.25h38.1c5.26,0,9.52,4.59,9.52,10.25v61.49C1978.67,1004.18,1974.41,1008.76,1969.15,1008.76Z" transform="translate(-134.88 -146)"/><path class="e" d="M2000.77,1008.76h-6c-4.28,0-7.74-3.73-7.74-8.33V935.11c0-4.6,3.46-8.33,7.74-8.33h6c4.28,0,7.75,3.73,7.75,8.33v65.32C2008.52,1005,2005.05,1008.76,2000.77,1008.76Z" transform="translate(-134.88 -146)"/><path class="f" d="M2112.63,534.64c-.24.48-15.11,12.26-15.11,12.26s3.29,25.28,16.62,35.27c14.66,11,35.37-9,35.37-9s16.48,4.21,25.24-32.7c2-8.47-9.59-9.19-23.6-7.63A379,379,0,0,1,2112.63,534.64Z" transform="translate(-134.88 -146)"/><path class="g" d="M2084.84,620.91a60.43,60.43,0,0,1,19.06-9.55c2.56-.75,16.39,3.57,24.94,3.36,11.74-.29,23.68-6,33.35-3.44s17.48,5.94,22,9.42c13.59,10.4,21.57,29.8,26.43,49a61.74,61.74,0,0,1-20.79,14.69l-2.15,93.4-51.31,28.26-58.58-31.65,2.1-91.27s-18.6-9.33-20-12.72S2068.43,633.05,2084.84,620.91Z" transform="translate(-134.88 -146)"/><path class="h" d="M2060.81,670S2035.89,744.4,2092.73,775c11.8-1.69,7.26-22.78,7.26-22.78s-24.7-5.88-17.28-67.92C2075.88,678.21,2060.81,670,2060.81,670Z" transform="translate(-134.88 -146)"/><path class="i" d="M2209.44,670s17.15,77.64-31.91,104.94c-11.8-1.69-7.26-22.78-7.26-22.78s19.9-10.55,17.28-67.92C2194.38,678.21,2209.44,670,2209.44,670Z" transform="translate(-134.88 -146)"/><rect class="j" x="1942.26" y="552.39" width="112.53" height="81.79" rx="8.33"/><path class="k" d="M2239,804.43c-12.88-3.18-42.64-1.47-42.64-1.47l-1.21,3.53-2,17.54s28.35,5.5,42.32,5.49a12.48,12.48,0,0,0,3.92-.63c.43-.42.84-.84,1.24-1.3C2246.57,820.62,2244.86,810.38,2239,804.43Z" transform="translate(-134.88 -146)"/><path class="l" d="M2187.83,802l5,.23a9.47,9.47,0,0,1,7.08,3.94,13.45,13.45,0,0,1,2.6,8.79,10.49,10.49,0,0,1-2.72,6.69,7.34,7.34,0,0,1-5.9,2.41l-7.71-.59Z" transform="translate(-134.88 -146)"/><path class="m" d="M2018.36,802.75c12.94-2.76,42.66-.07,42.66-.07l1.13,3.57,1.59,17.6s-28.46,4.56-42.43,4.09a12.63,12.63,0,0,1-3.9-.76c-.42-.43-.82-.87-1.21-1.34C2010.44,818.67,2012.39,808.5,2018.36,802.75Z" transform="translate(-134.88 -146)"/><path class="n" d="M2069.59,802l-5,.06a9.42,9.42,0,0,0-7.17,3.71,13.35,13.35,0,0,0-2.8,8.71,10.55,10.55,0,0,0,2.57,6.77,7.44,7.44,0,0,0,5.84,2.61l7.72-.34Z" transform="translate(-134.88 -146)"/><path class="o" d="M2242.63,749.45c-5.84-14.47-20.12-16.82-32.28-10.05-.21.3-77.21,42.77-145.11,61.38a85.33,85.33,0,0,1,3.16,20.86c0,1.57,0,3.11-.07,4.63,52.07-2.88,108.58-21.57,157.14-38C2240.53,783.05,2249.1,765.48,2242.63,749.45Z" transform="translate(-134.88 -146)"/><path class="p" d="M2188.2,822.74a51.32,51.32,0,0,1,4.39-22.58c.09-.32.19-.63.29-.94-3.88-1.29-8.89-3-15.47-5.45-48.22-17.76-85-35.69-120.11-56.33-13.64-8-29.14-2.65-33.51,14.72-3.9,15.51,4.66,28.74,17.65,33.4,38.86,13.91,18.63,10.05,31.32,14.44,34.09,11.35,76.5,21.68,115.52,24.5C2188.26,823.92,2188.22,823.33,2188.2,822.74Z" transform="translate(-134.88 -146)"/><path class="q" d="M2103.9,611.36s5.19,24.18,30.37,23.68c25.64-.5,27.92-23.76,27.92-23.76l-16.75-3.86-1.4-20.09-25.19,2-.47,19.08Z" transform="translate(-134.88 -146)"/><path class="r" d="M2122.38,530.42s-28.87,60.2,5.38,74.8c24.16,10.3,39.31-40,34.79-53.59-7-21.06-11.58-18.56-11.58-18.56Z" transform="translate(-134.88 -146)"/><path class="s" d="M2169.5,524.94c14.27,4.22,2.07,37.52-19.4,29.64s-29.92-7.76-33.27-1.41-4.06,28.89-11.32,17.75c-8-12.22-12.4-36.73-2.64-44.64,8.72-7.06,10.76-18,21.22-17.63,13.89.5,24.63-6.12,30.9-1.35C2162.19,512.79,2159,521.83,2169.5,524.94Z" transform="translate(-134.88 -146)"/><path class="t" d="M2115.51,558.35s-6.15-7.13-7.14,1.46,2.18,19.67,5.89,13.6S2115.51,558.35,2115.51,558.35Z" transform="translate(-134.88 -146)"/><path class="a" d="M2140,732.87c.6,4.34-1.56,8.28-5.59,8.92a7.48,7.48,0,0,1-8.38-6.7c-.6-4.34,1.25-8.65,5.28-9.29S2139.45,728.53,2140,732.87Z" transform="translate(-134.88 -146)"/><path class="u" d="M1958.65,1150.43c0,14.69-10.92,26.71-24.26,26.71H622.12c-13.35,0-24.27-12-24.27-26.71L586.93,319.62c0-14.69,15.71-43.37,44.5-41.21l1282.5-36.56c16.74-.48,32.94,6.62,44.79,19.64s18.35,30.83,18,49.26Z" transform="translate(-134.88 -146)"/><path class="v" d="M1934.7,1124.81c0,13.91-10.33,25.29-23,25.29h-1258c-12.63,0-23-11.38-23-25.29L620.5,370.59c1.22-45.39,37.34-61.7,59.23-60.74l1229.15-36.33a41,41,0,0,1,31.48,13.81A49.94,49.94,0,0,1,1953,322Z" transform="translate(-134.88 -146)"/><path class="w" d="M644.4,764.54a1.74,1.74,0,0,1-1.73-1.72l-.81-61.17a1.73,1.73,0,1,1,3.46,0l.81,61.17a1.73,1.73,0,0,1-1.7,1.77Z" transform="translate(-134.88 -146)"/><path class="w" d="M642.4,614.66a1.73,1.73,0,0,1-1.72-1.73l-3.13-234.27c.07-16.32,4.86-29.18,14.24-38.25,15.57-15,38.67-14.24,39.64-14.21L1084,314.6a1.7,1.7,0,0,1,1.78,1.69,1.74,1.74,0,0,1-1.68,1.8L691.42,329.7c-1.06,0-22.73-.79-37.24,13.24-8.68,8.39-13.11,20.4-13.17,35.71l3.12,234.23a1.74,1.74,0,0,1-1.7,1.78Z" transform="translate(-134.88 -146)"/><path class="x" d="M686.23,1083c1.32-62.34.83-614.35-2.42-662S748,364.33,851.43,359s976.51-26.61,999-28.62c50.53-4.51,61,78.69,55.93,259.32-3.79,135.7-10.09,359.25-13,462.06-.87,30.61-23.58,54.9-51.37,55-210.09.64-1015.3,3.18-1068.91,4.94C711.41,1113.67,685.71,1107.69,686.23,1083Z" transform="translate(-134.88 -146)"/><path class="y" d="M390.62,1027.11h1532.1a7.5,7.5,0,0,1,7.5,7.5v58a7.51,7.51,0,0,1-7.51,7.51H390.62a7.51,7.51,0,0,1-7.51-7.51v-58a7.51,7.51,0,0,1,7.51-7.51Z"/><path class="z" d="M1735.83,236.78l-29.51,65.37s16.35,109.22,130.09,151.78,164.34-12.74,164.34-12.74l36.2-96.35Z" transform="translate(-134.88 -146)"/><path class="aa" d="M1921.77,146.28l-237.92,45.91c-12.25,2.36-17,17.8-8.31,26.95,42.49,44.6,138.83,148.24,173.66,206.53a15.34,15.34,0,0,0,17.91,6.84l243.56-78.75c11-3.57,14.6-17.76,6.64-26.34-42-45.23-149-158.64-185.12-179.42A15.1,15.1,0,0,0,1921.77,146.28Z" transform="translate(-134.88 -146)"/><path class="ab" d="M1906,269.08s116.74,91.39,124.57,110.57-18.42,100.8-18.42,100.8c13.33,72.29,9.54,149.13-26.86,186.23,0,0-32.48-96.4-11-133.86S2004.26,480,2004.26,480s23.6-87.4,19.7-100.55C2024,379.42,1895.06,273.22,1906,269.08Z" transform="translate(-134.88 -146)"/><path class="w" d="M1713,217.35l108.09,130.82,27,32.7,6.76,8.18,3.38,4.09a25.52,25.52,0,0,0,3.54,3.51,22.06,22.06,0,0,0,18.72,4.17l81.85-20.24a1.07,1.07,0,0,1,1.29.79,1.09,1.09,0,0,1-.78,1.31l-81.73,20.79a24.78,24.78,0,0,1-21.09-4.55,27.92,27.92,0,0,1-4-3.91L1852.6,391l-6.81-8.13-27.24-32.52-109-130.08a2.25,2.25,0,0,1,.26-3.14,2.18,2.18,0,0,1,3.1.26Z" transform="translate(-134.88 -146)"/><path class="w" d="M1999.21,522.24l-.27.25-.31.32-.62.64-1.22,1.4c-.79.95-1.52,2-2.28,3l-2.07,3.2c-.64,1.1-1.23,2.24-1.85,3.36a35.7,35.7,0,0,0-1.69,3.46c-.52,1.18-1.09,2.33-1.57,3.53L1986,545a38.65,38.65,0,0,0-1.25,3.67l-1.06,3.75c-.35,1.25-.75,2.49-1,3.77-.51,2.55-1.08,5.1-1.55,7.66l-1,7.77c-.08.65-.19,1.29-.24,2l-.12,1.95-.25,3.93c-.49,5.22-.24,10.47-.28,15.72,0,1.32.07,2.63.16,3.94l.26,3.93c.19,2.63.32,5.25.55,7.87.69,5.22,1.27,10.46,2,15.67l2.86,15.55v0a.77.77,0,0,1-.61.9.76.76,0,0,1-.89-.6l-3.23-15.57c-.9-5.22-1.6-10.49-2.41-15.73-.29-2.64-.49-5.29-.74-7.94l-.35-4c-.12-1.33-.25-2.65-.25-4-.08-5.33-.46-10.65-.08-16l.16-4,.08-2c0-.67.14-1.33.2-2l.88-8c.44-2.64,1-5.27,1.43-7.91.2-1.33.58-2.62.91-3.92l1-3.91c.3-1.31.78-2.57,1.21-3.85l1.3-3.82c.48-1.27,1-2.5,1.57-3.74a38.38,38.38,0,0,1,1.69-3.69c.63-1.2,1.23-2.42,1.9-3.61l2.13-3.49c.81-1.11,1.57-2.26,2.43-3.34l1.33-1.61.74-.79.37-.4.45-.42a2.18,2.18,0,0,1,3.1.09,2.24,2.24,0,0,1-.09,3.15l0,0Z" transform="translate(-134.88 -146)"/><path class="w" d="M2000,555.55l-.45,5.05-.44,5.6-.82,11.23-1.55,22.48-3,45a1.2,1.2,0,1,1-2.39-.13l2-45,1-22.52.57-11.26.32-5.64.18-2.84.1-1.42c.06-.6.16-1.28.26-1.91a2.15,2.15,0,0,1,2.48-1.76,2.18,2.18,0,0,1,1.77,2.32Z" transform="translate(-134.88 -146)"/><path class="ac" d="M1223.74,962.63V688.51h47.44V962.63Z" transform="translate(-134.88 -146)"/><path class="ad" d="M1411.66,962.63h-50.22V733.32h-51.9V688.51h154v44.81h-51.9Z" transform="translate(-134.88 -146)"/><g class="ae"><path class="w" d="M736.89,835.82a4.14,4.14,0,0,1-4-3c-.64-2.18-1.24-4.38-1.82-6.59a4.2,4.2,0,0,1,3-5.13,4.14,4.14,0,0,1,5.07,3c.55,2.13,1.14,4.25,1.75,6.35a4.2,4.2,0,0,1-2.82,5.22A4,4,0,0,1,736.89,835.82Z" transform="translate(-134.88 -146)"/><path class="w" d="M730.55,807.53a4.17,4.17,0,0,1-4.1-3.53c-.74-4.58-1.34-9.25-1.81-13.86a4.21,4.21,0,0,1,3.72-4.61,4.16,4.16,0,0,1,4.55,3.76c.45,4.45,1,8.94,1.74,13.36a4.2,4.2,0,0,1-3.43,4.83A5.16,5.16,0,0,1,730.55,807.53Zm-3-35.88a4.18,4.18,0,0,1-4.15-4.18V766c0-4.11.11-8.3.32-12.45a4.13,4.13,0,0,1,4.36-4,4.19,4.19,0,0,1,3.94,4.41c-.21,4-.31,8.05-.31,12v1.47a4.19,4.19,0,0,1-4.13,4.23Zm2.48-35.92a4.26,4.26,0,0,1-.61,0,4.2,4.2,0,0,1-3.51-4.77c.67-4.6,1.48-9.23,2.4-13.76a4.16,4.16,0,1,1,8.14,1.71c-.89,4.37-1.67,8.83-2.31,13.27A4.18,4.18,0,0,1,730.07,735.73Zm7.84-35.11a4.29,4.29,0,0,1-1.22-.18,4.22,4.22,0,0,1-2.75-5.26c1.35-4.42,2.86-8.87,4.47-13.22a4.14,4.14,0,0,1,5.35-2.47,4.24,4.24,0,0,1,2.43,5.42c-1.56,4.19-3,8.49-4.31,12.75A4.15,4.15,0,0,1,737.91,700.62ZM751,667.16a4.13,4.13,0,0,1-1.83-.43,4.23,4.23,0,0,1-1.9-5.63c2-4.17,4.18-8.33,6.43-12.38a4.13,4.13,0,0,1,5.67-1.59,4.23,4.23,0,0,1,1.57,5.72c-2.18,3.91-4.26,7.93-6.21,11.95A4.15,4.15,0,0,1,751,667.16Zm18.06-31a4.1,4.1,0,0,1-2.37-.76,4.24,4.24,0,0,1-1-5.85c2.63-3.82,5.4-7.59,8.24-11.23a4.12,4.12,0,0,1,5.83-.69,4.23,4.23,0,0,1,.69,5.9c-2.74,3.51-5.41,7.15-8,10.83A4.13,4.13,0,0,1,769.08,636.12Zm22.56-27.86a4.13,4.13,0,0,1-2.87-1.17,4.23,4.23,0,0,1-.13-5.94c3.17-3.36,6.48-6.66,9.84-9.82a4.12,4.12,0,0,1,5.87.22,4.24,4.24,0,0,1-.22,5.94c-3.23,3-6.42,6.23-9.49,9.47A4.11,4.11,0,0,1,791.64,608.26Zm26.5-24a4.12,4.12,0,0,1-3.3-1.64,4.23,4.23,0,0,1,.77-5.89c3.63-2.83,7.4-5.58,11.19-8.18a4.12,4.12,0,0,1,5.77,1.11,4.23,4.23,0,0,1-1.11,5.84c-3.65,2.51-7.28,5.17-10.79,7.9A4.16,4.16,0,0,1,818.14,584.21Zm29.8-19.67a4.16,4.16,0,0,1-3.65-2.18,4.24,4.24,0,0,1,1.65-5.71c4-2.22,8.15-4.36,12.29-6.34a4.13,4.13,0,0,1,5.53,2,4.22,4.22,0,0,1-2,5.6c-4,1.92-8,4-11.86,6.13A4.07,4.07,0,0,1,847.94,564.54Zm218.24-2a4,4,0,0,1-1.92-.48c-3.92-2.07-8-4.06-12-5.9a4.22,4.22,0,0,1-2.09-5.56,4.15,4.15,0,0,1,5.5-2.1c4.18,1.91,8.36,4,12.42,6.12a4.22,4.22,0,0,1,1.76,5.67A4.16,4.16,0,0,1,1066.18,562.49ZM880.35,549.73a4.15,4.15,0,0,1-3.9-2.77,4.21,4.21,0,0,1,2.49-5.38c4.31-1.58,8.72-3.05,13.1-4.36a4.16,4.16,0,0,1,5.17,2.84,4.21,4.21,0,0,1-2.81,5.22c-4.23,1.27-8.48,2.68-12.63,4.2A4.17,4.17,0,0,1,880.35,549.73Zm153.12-1.42a4.22,4.22,0,0,1-1.34-.22c-4.19-1.44-8.47-2.78-12.74-4a4.21,4.21,0,0,1-2.9-5.17,4.15,4.15,0,0,1,5.11-2.94c4.42,1.23,8.86,2.61,13.2,4.1a4.22,4.22,0,0,1,2.6,5.34A4.15,4.15,0,0,1,1033.47,548.31Zm-118.85-8.16a4.21,4.21,0,0,1-.78-8.33c4.5-.88,9.09-1.64,13.63-2.26a4.21,4.21,0,0,1,1.1,8.34c-4.38.59-8.8,1.32-13.15,2.18A4.33,4.33,0,0,1,914.62,540.15ZM999,539.4a4.37,4.37,0,0,1-.72-.06c-4.36-.77-8.8-1.42-13.2-1.93a4.21,4.21,0,0,1,1-8.36c4.55.53,9.15,1.21,13.66,2a4.21,4.21,0,0,1-.7,8.35ZM950,536a4.21,4.21,0,0,1-.16-8.41c4.57-.17,9.2-.21,13.81-.11a4.2,4.2,0,0,1-.17,8.4c-4.46-.09-8.92,0-13.33.11Z" transform="translate(-134.88 -146)"/><path class="w" d="M1090.84,577.63a4.18,4.18,0,0,1-2.37-.75q-2.67-1.89-5.4-3.69a4.24,4.24,0,0,1-1.21-5.82,4.12,4.12,0,0,1,5.75-1.22q2.84,1.88,5.61,3.82a4.25,4.25,0,0,1,1,5.86A4.15,4.15,0,0,1,1090.84,577.63Z" transform="translate(-134.88 -146)"/></g><g class="ae"><path class="w" d="M1186.88,729.83a4.17,4.17,0,0,1-4.09-3.49c-.37-2.17-.77-4.34-1.2-6.49a4.15,4.15,0,1,1,8.14-1.67c.45,2.23.86,4.47,1.25,6.73a4.16,4.16,0,0,1-4.1,4.92Z" transform="translate(-134.88 -146)"/><path class="w" d="M954.85,1003.91h-.07c-4-.07-8.1-.25-12.11-.53l-1.47-.11a4.2,4.2,0,0,1,.62-8.38l1.42.1c3.88.27,7.81.44,11.69.52a4.2,4.2,0,0,1-.08,8.4Zm21.68-.61a4.21,4.21,0,0,1-.31-8.4c4.35-.33,8.74-.79,13-1.38a4.21,4.21,0,0,1,1.11,8.34c-4.47.6-9,1.08-13.52,1.42ZM920,1000.62a4.14,4.14,0,0,1-.7-.06c-4.47-.76-8.95-1.67-13.34-2.69a4.21,4.21,0,0,1-3.12-5,4.15,4.15,0,0,1,5-3.15c4.23,1,8.56,1.85,12.87,2.59a4.21,4.21,0,0,1-.69,8.35Zm91.17-2.65a4.21,4.21,0,0,1-.93-8.3c4.24-1,8.51-2.13,12.68-3.37a4.14,4.14,0,0,1,5.15,2.85,4.21,4.21,0,0,1-2.81,5.22c-4.33,1.28-8.75,2.46-13.15,3.49A4.31,4.31,0,0,1,1011.15,998ZM886,992.06a4,4,0,0,1-1.31-.21c-4.29-1.44-8.58-3-12.78-4.71a4.21,4.21,0,0,1-2.32-5.46,4.13,4.13,0,0,1,5.39-2.35c4,1.63,8.19,3.15,12.32,4.54a4.21,4.21,0,0,1,2.64,5.31A4.15,4.15,0,0,1,886,992.06Zm158.59-4.69a4.16,4.16,0,0,1-3.86-2.64,4.23,4.23,0,0,1,2.32-5.47c4-1.63,8.08-3.4,12-5.26a4.12,4.12,0,0,1,5.52,2,4.23,4.23,0,0,1-2,5.59c-4.09,1.93-8.28,3.77-12.46,5.46A4,4,0,0,1,1044.57,987.37Zm-190.91-9a4.18,4.18,0,0,1-1.89-.46c-4-2.08-8-4.31-11.92-6.62a4.24,4.24,0,0,1-1.48-5.75,4.14,4.14,0,0,1,5.69-1.5c3.75,2.23,7.62,4.38,11.5,6.39a4.22,4.22,0,0,1,1.81,5.65A4.14,4.14,0,0,1,853.66,978.38Zm222.34-6.6a4.14,4.14,0,0,1-3.58-2.07,4.23,4.23,0,0,1,1.47-5.75c3.76-2.24,7.49-4.61,11.11-7.05a4.12,4.12,0,0,1,5.76,1.16,4.24,4.24,0,0,1-1.15,5.83c-3.74,2.53-7.61,5-11.5,7.3A4.07,4.07,0,0,1,1076,971.78Zm28.76-20.2a4.11,4.11,0,0,1-3.22-1.55,4.24,4.24,0,0,1,.6-5.92c3.38-2.78,6.72-5.69,9.94-8.66a4.12,4.12,0,0,1,5.87.28,4.24,4.24,0,0,1-.27,5.93c-3.33,3.08-6.8,6.1-10.3,9A4.13,4.13,0,0,1,1104.76,951.58Zm25.44-24.35a4.11,4.11,0,0,1-2.79-1.09,4.24,4.24,0,0,1-.28-5.94c2.93-3.26,5.8-6.65,8.54-10.07a4.11,4.11,0,0,1,5.84-.63,4.22,4.22,0,0,1,.62,5.91c-2.84,3.56-5.82,7.07-8.85,10.44A4.11,4.11,0,0,1,1130.2,927.23Zm21.54-28a4.08,4.08,0,0,1-2.3-.7,4.24,4.24,0,0,1-1.16-5.83c2.41-3.66,4.75-7.45,6.94-11.26a4.13,4.13,0,0,1,5.69-1.51,4.23,4.23,0,0,1,1.49,5.75c-2.28,3.95-4.7,7.88-7.2,11.68A4.15,4.15,0,0,1,1151.74,899.28Zm17.12-30.92a4.18,4.18,0,0,1-3.77-6c1.83-4,3.57-8.11,5.17-12.21a4.15,4.15,0,0,1,5.39-2.37,4.2,4.2,0,0,1,2.34,5.45c-1.66,4.26-3.46,8.52-5.36,12.66A4.16,4.16,0,0,1,1168.86,868.36Zm12.27-33.2A4.29,4.29,0,0,1,1180,835a4.21,4.21,0,0,1-2.83-5.21c1.21-4.23,2.31-8.55,3.27-12.84a4.16,4.16,0,0,1,5-3.16,4.21,4.21,0,0,1,3.13,5c-1,4.44-2.15,8.92-3.4,13.31A4.17,4.17,0,0,1,1181.13,835.16Zm7.15-34.68a3.27,3.27,0,0,1-.54,0,4.19,4.19,0,0,1-3.58-4.71c.56-4.37,1-8.81,1.33-13.2a4.14,4.14,0,0,1,4.44-3.88,4.18,4.18,0,0,1,3.84,4.5c-.33,4.55-.79,9.15-1.37,13.67A4.18,4.18,0,0,1,1188.28,800.48Zm1.93-35.38a4.18,4.18,0,0,1-4.15-4.12c-.08-4.4-.3-8.86-.63-13.25a4.15,4.15,0,1,1,8.28-.65c.35,4.55.57,9.17.66,13.74a4.19,4.19,0,0,1-4.08,4.28Z" transform="translate(-134.88 -146)"/><path class="w" d="M823.67,959.81a4.12,4.12,0,0,1-2.43-.79q-2.75-2-5.43-4.09A4.23,4.23,0,0,1,815,949a4.13,4.13,0,0,1,5.83-.78c1.72,1.34,3.47,2.65,5.23,3.94a4.24,4.24,0,0,1,.94,5.87A4.15,4.15,0,0,1,823.67,959.81Z" transform="translate(-134.88 -146)"/></g><path class="af" d="M834,893.59a2.78,2.78,0,0,0,3.11.86l31.72-11.8a146.63,146.63,0,0,0,42,22.87l7.73,33.26a2.8,2.8,0,0,0,2.43,2.15l40.32,4.13a2.76,2.76,0,0,0,2.8-1.61l14.17-31a146,146,0,0,0,45.68-13.9l28.73,18a2.75,2.75,0,0,0,3.22-.22l31.4-25.92a2.83,2.83,0,0,0,.85-3.15l-11.66-32.08a149.61,149.61,0,0,0,22.61-42.48l32.87-7.83a2.79,2.79,0,0,0,2.13-2.45l4.08-40.8a2.81,2.81,0,0,0-1.59-2.83l-30.66-14.34a150,150,0,0,0-13.73-46.2L1110,669.17a2.83,2.83,0,0,0-.21-3.25l-25.63-31.78a2.78,2.78,0,0,0-3.11-.86l-31.72,11.8a146.63,146.63,0,0,0-42-22.87L999.6,589a2.77,2.77,0,0,0-2.42-2.15l-40.33-4.13a2.75,2.75,0,0,0-2.8,1.61l-14.17,31a146,146,0,0,0-45.67,13.9l-28.73-18a2.77,2.77,0,0,0-3.22.21l-31.41,25.93a2.86,2.86,0,0,0-.85,3.15l11.67,32.08A149.63,149.63,0,0,0,819.05,715l-32.87,7.83a2.78,2.78,0,0,0-2.12,2.45L780,766.12a2.8,2.8,0,0,0,1.6,2.83l30.65,14.34A150.29,150.29,0,0,0,826,829.49l-17.78,29.07a2.81,2.81,0,0,0,.21,3.25Z" transform="translate(-134.88 -146)"/><path class="w" d="M959,803.65a38.72,38.72,0,0,1-23.36-7.86,40.08,40.08,0,0,1-8.11-55.65,39,39,0,0,1,25.82-15.63A39.43,39.43,0,0,1,998,758.07c3.16,21.69-11.71,41.95-33.16,45.14A39.42,39.42,0,0,1,959,803.65Zm.11-72.84a32.58,32.58,0,0,0-26.24,13.34,33.31,33.31,0,0,0,6.73,46.24,32.22,32.22,0,0,0,24.25,6.17,33.08,33.08,0,0,0-4.74-65.75Z" transform="translate(-134.88 -146)"/><path class="w" d="M959.77,863.9a98.47,98.47,0,0,1-10.1-.52,101.22,101.22,0,0,1-14.89-2.68l-.12,0-.63-.17-.09,0h0l-.08,0-.31-.09h0l-.12,0h0l-.93-.26-.33-.1c-.67-.19-1.33-.39-2-.6L929,859a1.67,1.67,0,0,1-1.15-1.6,1.61,1.61,0,0,1,.08-.52,1.66,1.66,0,0,1,2.09-1.08A95.84,95.84,0,0,0,950,860a94.75,94.75,0,0,0,70.47-21.41,97,97,0,0,0,34.87-65.56q.5-5,.5-9.89c0-49.26-37-91.61-86.46-96.68a94.75,94.75,0,0,0-70.48,21.41A97,97,0,0,0,864,753.46q-.49,4.93-.49,9.87a98.18,98.18,0,0,0,9.07,41.21,1.63,1.63,0,0,1,.16.71,1.66,1.66,0,0,1-3.17.72,101.41,101.41,0,0,1-9.38-42.64c0-3.4.17-6.81.51-10.21a100.28,100.28,0,0,1,36.07-67.83,98.06,98.06,0,0,1,72.91-22.15c51.17,5.25,89.44,49.07,89.45,100q0,5.07-.51,10.23C1053.47,825.17,1010.15,863.9,959.77,863.9Z" transform="translate(-134.88 -146)"/><path class="ag" d="M1198.38,560.67l17.2-8A81.84,81.84,0,0,0,1240,563.54l5.78,18.23a1.54,1.54,0,0,0,1.44,1.09l22.71.5a1.56,1.56,0,0,0,1.49-1l6.55-18a81.7,81.7,0,0,0,24.9-9.81l16.84,8.76a1.55,1.55,0,0,0,1.79-.26l16.4-15.89a1.59,1.59,0,0,0,.34-1.8l-7.92-17.4a84,84,0,0,0,10.76-24.74l18-5.85a1.57,1.57,0,0,0,1.08-1.46l.49-23a1.58,1.58,0,0,0-1-1.51l-17.75-6.63a83.84,83.84,0,0,0-9.7-25.19l8.66-17a1.58,1.58,0,0,0-.26-1.8l-15.71-16.6a1.55,1.55,0,0,0-1.77-.34l-17.2,8A81.89,81.89,0,0,0,1281.51,401l-5.78-18.23a1.56,1.56,0,0,0-1.45-1.09l-22.71-.5a1.55,1.55,0,0,0-1.49,1l-6.55,17.95a82,82,0,0,0-24.9,9.82l-16.84-8.76a1.55,1.55,0,0,0-1.79.26l-16.4,15.89a1.61,1.61,0,0,0-.34,1.8l7.93,17.39a83.88,83.88,0,0,0-10.77,24.75l-18,5.84a1.57,1.57,0,0,0-1.07,1.47l-.5,23a1.58,1.58,0,0,0,1,1.51l17.75,6.63a83.94,83.94,0,0,0,9.7,25.19l-8.66,17a1.59,1.59,0,0,0,.26,1.81l15.71,16.59A1.53,1.53,0,0,0,1198.38,560.67Z" transform="translate(-134.88 -146)"/><path class="ah" d="M1260.73,504.34a21.51,21.51,0,0,1-11.55-3.37,22.26,22.26,0,0,1-6.91-30.44,21.75,21.75,0,0,1,39.78,6.78,22.13,22.13,0,0,1-16.4,26.47A21.65,21.65,0,0,1,1260.73,504.34Zm0-40.81a18.47,18.47,0,0,0-15.68,8.78,18.79,18.79,0,0,0-2.35,14.13,18.57,18.57,0,0,0,8.21,11.68,18.25,18.25,0,0,0,14,2.38,18.74,18.74,0,0,0-4.14-37Z" transform="translate(-134.88 -146)"/><g class="ae"><path class="w" d="M1158.92,554a4.15,4.15,0,0,1-3.48-1.9c-1.24-1.93-2.46-3.92-3.61-5.92a4.23,4.23,0,0,1,1.51-5.74A4.13,4.13,0,0,1,1159,542c1.07,1.87,2.21,3.73,3.37,5.53a4.23,4.23,0,0,1-1.2,5.82A4.05,4.05,0,0,1,1158.92,554Z" transform="translate(-134.88 -146)"/><path class="w" d="M1146.67,529.45a4.16,4.16,0,0,1-3.9-2.74,129.33,129.33,0,0,1-3.91-12.64,4.21,4.21,0,0,1,3-5.12,4.16,4.16,0,0,1,5.06,3,122.06,122.06,0,0,0,3.65,11.8,4.22,4.22,0,0,1-2.45,5.41A4,4,0,0,1,1146.67,529.45Zm-7.24-32.73a4.17,4.17,0,0,1-4.14-3.84c-.3-3.55-.45-7.16-.45-10.74,0-.83,0-1.67,0-2.51a4.12,4.12,0,0,1,4.24-4.11,4.18,4.18,0,0,1,4.07,4.29c0,.77,0,1.55,0,2.33,0,3.34.14,6.71.42,10a4.18,4.18,0,0,1-3.78,4.54Zm1.75-33.47a4.32,4.32,0,0,1-.79-.08,4.19,4.19,0,0,1-3.29-4.92,126.18,126.18,0,0,1,3.14-12.86,4.16,4.16,0,0,1,5.18-2.81,4.22,4.22,0,0,1,2.77,5.25,117.43,117.43,0,0,0-2.93,12A4.18,4.18,0,0,1,1141.18,463.25Zm10.63-31.76a4.12,4.12,0,0,1-1.85-.44,4.24,4.24,0,0,1-1.86-5.64,129.92,129.92,0,0,1,6.44-11.53,4.15,4.15,0,0,1,5.74-1.29,4.24,4.24,0,0,1,1.28,5.81,121.78,121.78,0,0,0-6,10.76A4.13,4.13,0,0,1,1151.81,431.49Zm18.69-27.69a4.09,4.09,0,0,1-2.78-1.09,4.22,4.22,0,0,1-.3-5.93,125.7,125.7,0,0,1,9.26-9.35,4.13,4.13,0,0,1,5.87.31,4.25,4.25,0,0,1-.31,5.94,118.9,118.9,0,0,0-8.66,8.73A4.12,4.12,0,0,1,1170.5,403.8Zm25.36-21.58a4.16,4.16,0,0,1-3.52-2,4.24,4.24,0,0,1,1.3-5.8,124.71,124.71,0,0,1,11.43-6.47,4.14,4.14,0,0,1,5.56,1.92,4.23,4.23,0,0,1-1.89,5.63,114.12,114.12,0,0,0-10.67,6A4.08,4.08,0,0,1,1195.86,382.22ZM1226,368.4a4.16,4.16,0,0,1-4-3,4.21,4.21,0,0,1,2.8-5.22c2.54-.76,5.14-1.46,7.74-2.06q2.49-.57,5-1.05a4.2,4.2,0,0,1,1.54,8.26c-1.55.3-3.11.62-4.66,1-2.43.57-4.86,1.22-7.23,1.93A4.12,4.12,0,0,1,1226,368.4Zm45.42-4.67a2.3,2.3,0,0,1-.37,0,118.52,118.52,0,0,0-12.22-.43,4.13,4.13,0,0,1-4.22-4.13,4.18,4.18,0,0,1,4.08-4.28,124.3,124.3,0,0,1,13.09.47,4.21,4.21,0,0,1-.36,8.39Z" transform="translate(-134.88 -146)"/><path class="w" d="M1298.15,369.22a4.13,4.13,0,0,1-1.28-.21c-2-.66-4.1-1.28-6.15-1.83a4.2,4.2,0,0,1-3-5.13,4.16,4.16,0,0,1,5.08-3c2.2.59,4.42,1.24,6.59,2a4.21,4.21,0,0,1,2.68,5.29A4.16,4.16,0,0,1,1298.15,369.22Z" transform="translate(-134.88 -146)"/></g><g class="ae"><path class="w" d="M1370.9,433.88a4.16,4.16,0,0,1-3.77-2.42c-.91-1.95-1.88-3.9-2.89-5.79a4.23,4.23,0,0,1,1.69-5.7,4.14,4.14,0,0,1,5.63,1.7c1.08,2,2.12,4.12,3.09,6.21a4.23,4.23,0,0,1-2,5.6A4.11,4.11,0,0,1,1370.9,433.88Z" transform="translate(-134.88 -146)"/><path class="w" d="M1260.71,609.65a125.53,125.53,0,0,1-14.41-.83,4.21,4.21,0,0,1,1-8.36,115.41,115.41,0,0,0,13.4.79h.19a4.21,4.21,0,0,1,0,8.41h-.14Zm22.9-2.21a4.21,4.21,0,0,1-.78-8.33c1.42-.28,2.84-.58,4.25-.91,3-.7,6-1.52,9-2.45a4.15,4.15,0,0,1,5.21,2.76,4.22,4.22,0,0,1-2.72,5.26c-3.14,1-6.36,1.88-9.58,2.63-1.52.35-3,.67-4.55,1A3.44,3.44,0,0,1,1283.61,607.44ZM1318.36,595a4.12,4.12,0,0,1-3.66-2.22,4.22,4.22,0,0,1,1.69-5.69,119.62,119.62,0,0,0,11.6-7.19,4.12,4.12,0,0,1,5.78,1,4.25,4.25,0,0,1-1,5.86,126.32,126.32,0,0,1-12.42,7.7A4.08,4.08,0,0,1,1318.36,595Zm29.44-22.4a4.11,4.11,0,0,1-2.9-1.2,4.24,4.24,0,0,1-.07-5.94,119.52,119.52,0,0,0,8.93-10.39,4.12,4.12,0,0,1,5.82-.75,4.24,4.24,0,0,1,.75,5.9,128,128,0,0,1-9.56,11.11A4.12,4.12,0,0,1,1347.8,572.61Zm21.48-30.29a4.15,4.15,0,0,1-1.89-.46,4.24,4.24,0,0,1-1.81-5.66,121.34,121.34,0,0,0,5.47-12.6,4.14,4.14,0,0,1,5.34-2.48,4.22,4.22,0,0,1,2.45,5.41A129,129,0,0,1,1373,540,4.14,4.14,0,0,1,1369.28,542.32Zm11.58-35.4a4.17,4.17,0,0,1-4.1-4.91,120.67,120.67,0,0,0,1.48-13.68,4.14,4.14,0,0,1,4.36-4,4.18,4.18,0,0,1,3.94,4.41,126.33,126.33,0,0,1-1.59,14.66A4.17,4.17,0,0,1,1380.86,506.92Zm.52-37.29a4.16,4.16,0,0,1-4.11-3.63c-.48-3.45-1.11-6.94-1.89-10.36-.24-1.06-.49-2.11-.76-3.15a4.21,4.21,0,0,1,3-5.12,4.16,4.16,0,0,1,5.06,3c.28,1.12.55,2.24.81,3.37.83,3.65,1.51,7.39,2,11.09a4.2,4.2,0,0,1-3.55,4.74A3.64,3.64,0,0,1,1381.38,469.63Z" transform="translate(-134.88 -146)"/><path class="w" d="M1224.35,604a4.12,4.12,0,0,1-1.25-.19c-2.18-.69-4.36-1.45-6.5-2.27a4.22,4.22,0,0,1-2.43-5.41,4.15,4.15,0,0,1,5.36-2.46c2,.76,4,1.47,6.06,2.12a4.22,4.22,0,0,1,2.72,5.27A4.16,4.16,0,0,1,1224.35,604Z" transform="translate(-134.88 -146)"/></g><path class="ah" d="M1260.8,539.37h-1.25a56.66,56.66,0,0,1-11.92-1.54,1.69,1.69,0,0,1-1.28-1.64,1.74,1.74,0,0,1,.05-.39,1.66,1.66,0,0,1,2-1.24,52.78,52.78,0,0,0,49.12-13.47,53.68,53.68,0,0,0,16.38-37.67c0-.39,0-.78,0-1.17,0-29.11-23.08-53.1-52-53.73-29.31-.71-53.64,22.95-54.27,52.58,0,.39,0,.78,0,1.17a54.22,54.22,0,0,0,6.95,26.59,1.66,1.66,0,0,1,.22.83,1.7,1.7,0,0,1-.83,1.47,1.67,1.67,0,0,1-2.27-.63,57.47,57.47,0,0,1-7.39-28.26c0-.41,0-.83,0-1.24.67-31.49,26.46-56.54,57.67-55.88,30.72.68,55.25,26.17,55.24,57.1,0,.42,0,.83,0,1.25a57.06,57.06,0,0,1-17.4,40A55.72,55.72,0,0,1,1260.8,539.37Z" transform="translate(-134.88 -146)"/><g class="ae"><path class="w" d="M1417.14,584.59a4.14,4.14,0,0,1-4-3c-.64-2.19-1.24-4.43-1.78-6.66a4.2,4.2,0,0,1,3-5.09,4.15,4.15,0,0,1,5,3.07c.52,2.11,1.09,4.24,1.69,6.32a4.21,4.21,0,0,1-2.82,5.21A4,4,0,0,1,1417.14,584.59Z" transform="translate(-134.88 -146)"/><path class="w" d="M1411.73,556.73a4.17,4.17,0,0,1-4.13-3.77c-.46-4.52-.74-9.12-.82-13.69a4.16,4.16,0,1,1,8.31-.14c.08,4.32.34,8.69.77,13a4.18,4.18,0,0,1-3.7,4.61A3.17,3.17,0,0,1,1411.73,556.73Zm.3-35-.5,0a4.2,4.2,0,0,1-3.63-4.67c.54-4.53,1.27-9.08,2.18-13.53a4.14,4.14,0,0,1,4.91-3.26,4.2,4.2,0,0,1,3.23,5c-.86,4.22-1.56,8.53-2.07,12.83A4.17,4.17,0,0,1,1412,521.74Zm7.9-34.05a4.1,4.1,0,0,1-1.4-.25,4.22,4.22,0,0,1-2.51-5.37c1.52-4.3,3.24-8.57,5.1-12.7a4.13,4.13,0,0,1,5.51-2.08,4.22,4.22,0,0,1,2,5.57c-1.77,3.92-3.4,8-4.83,12A4.17,4.17,0,0,1,1419.93,487.69Zm15.23-31.43a4.05,4.05,0,0,1-2.23-.66,4.22,4.22,0,0,1-1.27-5.8c2.42-3.84,5-7.62,7.78-11.24a4.12,4.12,0,0,1,5.82-.78,4.24,4.24,0,0,1,.77,5.9c-2.59,3.42-5.07,7-7.37,10.64A4.12,4.12,0,0,1,1435.16,456.26Zm21.76-27.21a4.08,4.08,0,0,1-3-1.25,4.23,4.23,0,0,1,0-5.94c3.2-3.2,6.57-6.3,10-9.21a4.12,4.12,0,0,1,5.86.54,4.24,4.24,0,0,1-.54,5.92c-3.28,2.76-6.48,5.7-9.51,8.73A4.12,4.12,0,0,1,1456.92,429.05Zm27.15-21.66a4.15,4.15,0,0,1-3.53-2,4.23,4.23,0,0,1,1.33-5.79c3.82-2.4,7.79-4.67,11.8-6.74a4.14,4.14,0,0,1,5.59,1.84,4.22,4.22,0,0,1-1.81,5.65c-3.8,2-7.56,4.11-11.19,6.39A4.09,4.09,0,0,1,1484.07,407.39Zm145.5-9.7a4.12,4.12,0,0,1-1.71-.37c-3.89-1.78-7.9-3.41-11.92-4.84a4.21,4.21,0,0,1-2.54-5.36,4.13,4.13,0,0,1,5.3-2.57c4.25,1.51,8.48,3.23,12.58,5.11a4.21,4.21,0,0,1,2.07,5.56A4.14,4.14,0,0,1,1629.57,397.69Zm-114.3-5.35a4.15,4.15,0,0,1-3.92-2.83,4.22,4.22,0,0,1,2.57-5.35c4.26-1.48,8.62-2.8,13-3.91a4.15,4.15,0,0,1,5,3.05,4.21,4.21,0,0,1-3,5.1c-4.13,1.05-8.26,2.3-12.3,3.71A4,4,0,0,1,1515.27,392.34Zm81.38-5.39a4.76,4.76,0,0,1-.83-.08c-4.17-.86-8.45-1.54-12.69-2a4.2,4.2,0,0,1,.95-8.35c4.48.52,9,1.24,13.39,2.14a4.21,4.21,0,0,1-.82,8.33ZM1549,384.71a4.2,4.2,0,0,1-.44-8.38c4.46-.49,9-.78,13.52-.89h.1a4.21,4.21,0,0,1,.09,8.41c-4.28.1-8.59.38-12.82.84A3.39,3.39,0,0,1,1549,384.71Z" transform="translate(-134.88 -146)"/><path class="w" d="M1654.07,411.76a4.08,4.08,0,0,1-2.37-.75c-1.76-1.24-3.57-2.45-5.39-3.62a4.24,4.24,0,0,1-1.28-5.8,4.13,4.13,0,0,1,5.73-1.3c1.92,1.23,3.83,2.51,5.69,3.82a4.24,4.24,0,0,1,1,5.85A4.11,4.11,0,0,1,1654.07,411.76Z" transform="translate(-134.88 -146)"/></g><g class="ae"><path class="w" d="M1718.71,515.84a4.18,4.18,0,0,1-4.1-3.55c-.34-2.16-.72-4.33-1.15-6.44a4.21,4.21,0,0,1,3.25-5,4.16,4.16,0,0,1,4.9,3.28c.44,2.23.85,4.51,1.21,6.8a4.19,4.19,0,0,1-3.45,4.8A3.68,3.68,0,0,1,1718.71,515.84Z" transform="translate(-134.88 -146)"/><path class="w" d="M1566,697.14c-1.76,0-3.6,0-5.41-.09a4.21,4.21,0,0,1,.13-8.41h.14c1.7.06,3.4.09,5.09.09h0c2.49,0,5-.07,7.5-.19a4.14,4.14,0,0,1,4.36,4,4.19,4.19,0,0,1-3.94,4.41C1571.26,697.07,1568.6,697.14,1566,697.14Zm-26.26-2.23a4,4,0,0,1-.7-.06c-4.38-.75-8.76-1.7-13-2.81a4.21,4.21,0,0,1-3-5.12,4.16,4.16,0,0,1,5.06-3c4.06,1.06,8.22,2,12.37,2.67a4.21,4.21,0,0,1-.69,8.35Zm54.91-.48a4.21,4.21,0,0,1-.77-8.34c4.12-.79,8.27-1.76,12.31-2.9a4.15,4.15,0,0,1,5.11,2.92,4.21,4.21,0,0,1-2.89,5.18c-4.26,1.2-8.63,2.23-13,3.06A4.11,4.11,0,0,1,1594.62,694.43Zm-87.65-9a4.16,4.16,0,0,1-1.57-.32c-4.1-1.7-8.18-3.6-12.12-5.64a4.23,4.23,0,0,1-1.8-5.66,4.13,4.13,0,0,1,5.59-1.83c3.73,1.94,7.6,3.74,11.48,5.35a4.23,4.23,0,0,1,2.27,5.49A4.17,4.17,0,0,1,1507,685.45Zm120.17-1.11a4.16,4.16,0,0,1-3.82-2.54,4.23,4.23,0,0,1,2.17-5.53c3.84-1.68,7.67-3.55,11.37-5.56a4.13,4.13,0,0,1,5.63,1.72,4.24,4.24,0,0,1-1.7,5.69c-3.91,2.12-7.94,4.09-12,5.87A4.22,4.22,0,0,1,1627.14,684.34Zm29.55-17.06a4.13,4.13,0,0,1-3.36-1.73,4.23,4.23,0,0,1,.92-5.87c3.4-2.5,6.73-5.17,9.91-7.94a4.12,4.12,0,0,1,5.86.44,4.25,4.25,0,0,1-.44,5.93c-3.35,2.92-6.87,5.74-10.45,8.37A4.12,4.12,0,0,1,1656.69,667.28Zm25.19-23.15a4.14,4.14,0,0,1-2.75-1,4.25,4.25,0,0,1-.37-5.94c2.78-3.18,5.46-6.52,8-9.93a4.13,4.13,0,0,1,5.81-.86,4.23,4.23,0,0,1,.85,5.88c-2.64,3.6-5.46,7.12-8.4,10.48A4.11,4.11,0,0,1,1681.88,644.13Zm19.6-28.15a4.18,4.18,0,0,1-2-.52,4.23,4.23,0,0,1-1.63-5.71c2-3.72,3.92-7.57,5.62-11.46a4.14,4.14,0,0,1,5.49-2.12,4.22,4.22,0,0,1,2.11,5.55c-1.81,4.09-3.8,8.16-5.94,12.08A4.16,4.16,0,0,1,1701.48,616Zm13-31.83a3.82,3.82,0,0,1-1.15-.17,4.2,4.2,0,0,1-2.84-5.2c1.16-4.07,2.17-8.25,3-12.42a4.15,4.15,0,1,1,8.14,1.65c-.87,4.4-1.93,8.81-3.16,13.1A4.14,4.14,0,0,1,1714.5,584.15Zm5.81-33.92h-.26a4.19,4.19,0,0,1-3.89-4.45c.2-3.21.3-6.45.3-9.64q0-1.57,0-3.15a4.18,4.18,0,0,1,4.06-4.29h.09a4.18,4.18,0,0,1,4.16,4.11q0,1.66,0,3.33c0,3.36-.11,6.78-.31,10.16A4.18,4.18,0,0,1,1720.31,550.23Z" transform="translate(-134.88 -146)"/><path class="w" d="M1477,668.88a4.1,4.1,0,0,1-2.38-.76c-1.86-1.32-3.72-2.7-5.51-4.09a4.23,4.23,0,0,1-.76-5.89,4.12,4.12,0,0,1,5.82-.78c1.7,1.32,3.45,2.62,5.21,3.87a4.23,4.23,0,0,1,1,5.85A4.13,4.13,0,0,1,1477,668.88Z" transform="translate(-134.88 -146)"/></g><path class="ai" d="M1482.15,621.87a1.84,1.84,0,0,0,2.08.57l21.23-7.89a98.36,98.36,0,0,0,28.11,15.31l5.17,22.26a1.88,1.88,0,0,0,1.63,1.44l27,2.77a1.86,1.86,0,0,0,1.87-1.08l9.49-20.76a97.78,97.78,0,0,0,30.57-9.3l19.23,12a1.85,1.85,0,0,0,2.16-.14l21-17.36a1.9,1.9,0,0,0,.57-2.1l-7.81-21.48a100.15,100.15,0,0,0,15.14-28.43l22-5.24a1.88,1.88,0,0,0,1.42-1.64l2.74-27.31a1.89,1.89,0,0,0-1.07-1.9L1664.17,522a100.68,100.68,0,0,0-9.19-30.93l11.9-19.46a1.9,1.9,0,0,0-.14-2.18l-17.15-21.27a1.84,1.84,0,0,0-2.08-.57l-21.23,7.9a98.38,98.38,0,0,0-28.11-15.32L1593,418a1.86,1.86,0,0,0-1.62-1.44l-27-2.76a1.85,1.85,0,0,0-1.88,1.08L1553,435.59a97.52,97.52,0,0,0-30.57,9.3l-19.24-12.05a1.85,1.85,0,0,0-2.15.14l-21,17.36a1.9,1.9,0,0,0-.57,2.1l7.81,21.48a100,100,0,0,0-15.14,28.44l-22,5.23a1.89,1.89,0,0,0-1.43,1.65l-2.73,27.3a1.89,1.89,0,0,0,1.07,1.9l20.52,9.6a100.56,100.56,0,0,0,9.19,30.93l-11.91,19.45a1.92,1.92,0,0,0,.14,2.18Z" transform="translate(-134.88 -146)"/><path class="ah" d="M1565.81,564.46a28.62,28.62,0,0,1-17.28-5.81,29.63,29.63,0,0,1-6-41.16,28.85,28.85,0,0,1,40.68-6.07,29.66,29.66,0,0,1,6,41.16,28.84,28.84,0,0,1-19.1,11.56A29.84,29.84,0,0,1,1565.81,564.46Zm.1-48.76a19.35,19.35,0,0,0-2.83.21,19,19,0,0,0-12.55,7.6,19.49,19.49,0,0,0,3.94,27,18.83,18.83,0,0,0,14.18,3.61h0a18.93,18.93,0,0,0,12.55-7.59,19.48,19.48,0,0,0-3.94-27.05A18.84,18.84,0,0,0,1565.91,515.7Z" transform="translate(-134.88 -146)"/><path class="ah" d="M1566.33,602.55a65.27,65.27,0,0,1-6.81-.35h0a67,67,0,0,1-14-3,1.68,1.68,0,0,1-1.15-1.59,1.82,1.82,0,0,1,.08-.52,1.66,1.66,0,0,1,2.1-1.08,63.64,63.64,0,0,0,13.29,2.81c35,3.61,66.37-22.3,69.92-57.71a63.36,63.36,0,0,0,.32-6.57c0-32.69-24.55-60.8-57.37-64.16-35-3.59-66.37,22.3-69.92,57.72a62.31,62.31,0,0,0-.32,6.55,64.82,64.82,0,0,0,6,27.34,1.86,1.86,0,0,1,.15.72,1.68,1.68,0,0,1-1,1.52,1.66,1.66,0,0,1-2.21-.81,68.33,68.33,0,0,1-6.34-28.77c0-2.3.12-4.6.34-6.89,3.74-37.26,36.72-64.49,73.56-60.73,34.54,3.54,60.36,33.12,60.37,67.51a67.18,67.18,0,0,1-.35,6.91C1629.57,576.42,1600.33,602.55,1566.33,602.55Z" transform="translate(-134.88 -146)"/><g class="ae"><path class="w" d="M998,564a1.66,1.66,0,0,1-1.59-1.21c-.4-1.38-.77-2.78-1.08-4.16a1.66,1.66,0,1,1,3.24-.76c.3,1.32.65,2.66,1,4a1.7,1.7,0,0,1-1.13,2.09A1.91,1.91,0,0,1,998,564Z" transform="translate(-134.88 -146)"/><path class="w" d="M995.56,551.78a1.67,1.67,0,0,1-1.65-1.49,76.73,76.73,0,0,1-.5-8.43,1.67,1.67,0,0,1,1.66-1.68h0a1.66,1.66,0,0,1,1.66,1.67,78,78,0,0,0,.48,8.06,1.68,1.68,0,0,1-1.46,1.86Zm-.07-16.49h-.17a1.67,1.67,0,0,1-1.48-1.85,78.08,78.08,0,0,1,1.34-8.33,1.67,1.67,0,0,1,2-1.28,1.69,1.69,0,0,1,1.26,2,75.84,75.84,0,0,0-1.29,8A1.67,1.67,0,0,1,995.49,535.29ZM999,519.2a1.67,1.67,0,0,1-1.57-2.23,77.56,77.56,0,0,1,3.15-7.83,1.66,1.66,0,0,1,2.21-.8,1.69,1.69,0,0,1,.79,2.24,70.72,70.72,0,0,0-3,7.48A1.68,1.68,0,0,1,999,519.2Zm7-14.91a1.62,1.62,0,0,1-.87-.25,1.7,1.7,0,0,1-.54-2.32,76.56,76.56,0,0,1,4.79-6.91,1.65,1.65,0,0,1,2.34-.28,1.69,1.69,0,0,1,.27,2.36,70,70,0,0,0-4.57,6.61A1.67,1.67,0,0,1,1006,504.29Zm10.09-13a1.64,1.64,0,0,1-1.17-.48,1.71,1.71,0,0,1,0-2.38,73.73,73.73,0,0,1,6.19-5.67,1.64,1.64,0,0,1,2.33.25,1.69,1.69,0,0,1-.24,2.36,72.15,72.15,0,0,0-5.91,5.42A1.64,1.64,0,0,1,1016.08,491.33ZM1028.74,481a1.64,1.64,0,0,1-1.4-.77,1.69,1.69,0,0,1,.5-2.33,75.53,75.53,0,0,1,7.26-4.15,1.66,1.66,0,0,1,2.23.76,1.69,1.69,0,0,1-.76,2.26,70.18,70.18,0,0,0-6.94,4A1.64,1.64,0,0,1,1028.74,481Zm70.26-4.73a1.76,1.76,0,0,1-.7-.15,68.6,68.6,0,0,0-7.4-3,1.69,1.69,0,0,1-1.05-2.13,1.67,1.67,0,0,1,2.11-1.06,72.2,72.2,0,0,1,7.75,3.14,1.68,1.68,0,0,1,.8,2.23A1.64,1.64,0,0,1,1099,476.22Zm-55.66-2.56a1.66,1.66,0,0,1-1.56-1.11,1.69,1.69,0,0,1,1-2.15,72.2,72.2,0,0,1,8-2.42,1.66,1.66,0,0,1,2,1.25,1.68,1.68,0,0,1-1.23,2,70,70,0,0,0-7.64,2.31A1.63,1.63,0,0,1,1043.34,473.66Zm40.22-2.69a2,2,0,0,1-.35,0,72.19,72.19,0,0,0-7.88-1.26,1.68,1.68,0,0,1,.33-3.34,74.13,74.13,0,0,1,8.25,1.31,1.69,1.69,0,0,1,1.27,2A1.67,1.67,0,0,1,1083.56,471Zm-24.36-1.13a1.68,1.68,0,0,1-.2-3.35,74.5,74.5,0,0,1,8.32-.55h0a1.68,1.68,0,0,1,0,3.36,72.7,72.7,0,0,0-8,.53Z" transform="translate(-134.88 -146)"/><path class="w" d="M1109.74,482.48a1.66,1.66,0,0,1-.94-.3c-1.11-.78-2.25-1.53-3.4-2.25a1.69,1.69,0,0,1-.55-2.31,1.65,1.65,0,0,1,2.29-.55c1.2.74,2.4,1.53,3.55,2.35a1.69,1.69,0,0,1,.42,2.34A1.65,1.65,0,0,1,1109.74,482.48Z" transform="translate(-134.88 -146)"/></g><g class="ae"><path class="w" d="M1140.38,532.58a1.66,1.66,0,0,1-1.64-1.44c-.19-1.36-.43-2.72-.7-4a1.68,1.68,0,0,1,1.3-2,1.66,1.66,0,0,1,2,1.31c.28,1.39.53,2.82.73,4.24a1.67,1.67,0,0,1-1.41,1.9Z" transform="translate(-134.88 -146)"/><path class="w" d="M1068.17,617.06c-1.14,0-2.29,0-3.44-.08a1.68,1.68,0,0,1-1.59-1.76,1.71,1.71,0,0,1,1.74-1.6,70.78,70.78,0,0,0,7.85-.07,1.68,1.68,0,0,1,.21,3.36C1071.37,617,1069.77,617.06,1068.17,617.06Zm-11.36-.89a1.06,1.06,0,0,1-.25,0,72.72,72.72,0,0,1-8-1.72,1.69,1.69,0,0,1-1.17-2.06,1.67,1.67,0,0,1,2-1.19,70.84,70.84,0,0,0,7.68,1.65,1.68,1.68,0,0,1-.26,3.34Zm24-.22a1.68,1.68,0,0,1-.28-3.34,69.3,69.3,0,0,0,7.63-1.81,1.68,1.68,0,0,1,.94,3.23,73.17,73.17,0,0,1-8,1.89A1.43,1.43,0,0,1,1080.8,616Zm-39.47-4a1.66,1.66,0,0,1-.61-.12,74.16,74.16,0,0,1-7.46-3.47,1.69,1.69,0,0,1-.69-2.27,1.64,1.64,0,0,1,2.24-.7,73.06,73.06,0,0,0,7.13,3.31,1.69,1.69,0,0,1-.61,3.25Zm54.86-.55a1.65,1.65,0,0,1-1.53-1,1.67,1.67,0,0,1,.89-2.19,72,72,0,0,0,7.06-3.46,1.66,1.66,0,0,1,2.26.66,1.69,1.69,0,0,1-.65,2.28,75.38,75.38,0,0,1-7.39,3.62A1.63,1.63,0,0,1,1096.19,611.39Zm14-7.85a1.63,1.63,0,0,1-1.36-.72,1.69,1.69,0,0,1,.39-2.34,71,71,0,0,0,6.15-4.93,1.65,1.65,0,0,1,2.35.15,1.7,1.7,0,0,1-.14,2.37,75.76,75.76,0,0,1-6.44,5.16A1.61,1.61,0,0,1,1110.22,603.54Zm12-10.76a1.66,1.66,0,0,1-1.12-.43A1.7,1.7,0,0,1,1121,590a71.6,71.6,0,0,0,4.94-6.16,1.66,1.66,0,0,1,2.32-.38,1.69,1.69,0,0,1,.37,2.35,74.85,74.85,0,0,1-5.17,6.45A1.64,1.64,0,0,1,1122.22,592.78Zm9.4-13.13a1.63,1.63,0,0,1-.82-.22,1.71,1.71,0,0,1-.62-2.3,74.19,74.19,0,0,0,3.5-7.1,1.66,1.66,0,0,1,2.18-.89,1.7,1.7,0,0,1,.87,2.21,74.51,74.51,0,0,1-3.66,7.45A1.68,1.68,0,0,1,1131.62,579.65Zm6.34-14.91a1.71,1.71,0,0,1-.49-.07,1.69,1.69,0,0,1-1.1-2.1,72.71,72.71,0,0,0,1.86-7.71,1.66,1.66,0,0,1,1.94-1.34,1.68,1.68,0,0,1,1.33,2,77.07,77.07,0,0,1-2,8.07A1.67,1.67,0,0,1,1138,564.74Zm3-15.94h-.12a1.68,1.68,0,0,1-1.54-1.8l0-.51c.11-1.68.17-3.38.17-5.05,0-.8,0-1.59,0-2.38a1.66,1.66,0,0,1,1.6-1.74,1.69,1.69,0,0,1,1.72,1.63c0,.83,0,1.65,0,2.49,0,1.75-.06,3.53-.18,5.28l0,.53A1.68,1.68,0,0,1,1140.91,548.8Z" transform="translate(-134.88 -146)"/><path class="w" d="M1027.09,604.32a1.7,1.7,0,0,1-.94-.29c-1.17-.81-2.33-1.66-3.44-2.52a1.69,1.69,0,0,1-.31-2.36,1.66,1.66,0,0,1,2.33-.31c1.06.82,2.17,1.63,3.29,2.41a1.68,1.68,0,0,1,.44,2.33A1.65,1.65,0,0,1,1027.09,604.32Z" transform="translate(-134.88 -146)"/></g><path class="aj" d="M1028.67,581.86a.86.86,0,0,0,1,.28l10-3.73a46.16,46.16,0,0,0,13.25,7.22l2.45,10.5a.87.87,0,0,0,.76.68l12.73,1.3a.88.88,0,0,0,.89-.51l4.47-9.78a46.26,46.26,0,0,0,14.42-4.39l9.07,5.68a.86.86,0,0,0,1-.07l9.91-8.18a.89.89,0,0,0,.27-1l-3.68-10.13a47.44,47.44,0,0,0,7.14-13.41l10.38-2.47a.9.9,0,0,0,.67-.78l1.29-12.88a.9.9,0,0,0-.51-.89l-9.67-4.53a47.33,47.33,0,0,0-4.34-14.58l5.62-9.18a.89.89,0,0,0-.07-1l-8.09-10a.84.84,0,0,0-1-.27l-10,3.72a46.09,46.09,0,0,0-13.26-7.22l-2.44-10.5a.88.88,0,0,0-.76-.68l-12.73-1.3a.87.87,0,0,0-.89.51l-4.47,9.79a45.91,45.91,0,0,0-14.42,4.38l-9.07-5.68a.86.86,0,0,0-1,.07l-9.92,8.18a.9.9,0,0,0-.27,1l3.69,10.12A47.19,47.19,0,0,0,1024,525.5L1013.57,528a.9.9,0,0,0-.67.78l-1.29,12.88a.88.88,0,0,0,.5.89l9.68,4.53a47.33,47.33,0,0,0,4.34,14.58l-5.62,9.18a.89.89,0,0,0,.07,1Z" transform="translate(-134.88 -146)"/><path class="ah" d="M1068.14,554.09a13,13,0,1,1,1.91-.14A12.37,12.37,0,0,1,1068.14,554.09Zm0-23a9.8,9.8,0,1,0,1.41,19.52h0a9.82,9.82,0,0,0-1.41-19.52Z" transform="translate(-134.88 -146)"/><path class="ah" d="M1068.37,573.64a30.52,30.52,0,0,1-3.3-.17h0a32.46,32.46,0,0,1-6.78-1.43,1.66,1.66,0,0,1-1.15-1.6,1.53,1.53,0,0,1,.08-.52,1.65,1.65,0,0,1,2.09-1.08,30,30,0,0,0,6.09,1.29h0a29.09,29.09,0,0,0,27-12.7,29.7,29.7,0,0,0,4.89-13c0-.24.05-.48.08-.73.1-1,.15-2,.15-3A29.55,29.55,0,0,0,1091,522a29,29,0,0,0-41.11-4.21,29.48,29.48,0,0,0-10.59,19.92q-.15,1.5-.15,3a29.67,29.67,0,0,0,2.76,12.51,1.87,1.87,0,0,1,.16.72,1.68,1.68,0,0,1-1,1.52,1.65,1.65,0,0,1-2.21-.8,33.1,33.1,0,0,1-3.07-14c0-1.11,0-2.23.16-3.34a32.85,32.85,0,0,1,11.8-22.19,32.3,32.3,0,0,1,45.78,4.69,32.88,32.88,0,0,1,7.33,20.75c0,1.12-.05,2.25-.16,3.38A32.73,32.73,0,0,1,1068.37,573.64Z" transform="translate(-134.88 -146)"/><path class="w" d="M1025.45,407.28l26.1-13.77v5.87a2.45,2.45,0,0,1-.33,1.22,2.8,2.8,0,0,1-1.09.95l-12,6.2a12,12,0,0,1-1.6.68c-.56.19-1.16.36-1.8.52.64.15,1.24.33,1.8.51a10.87,10.87,0,0,1,1.6.69l12,6.23a2.8,2.8,0,0,1,1.09.95,2.42,2.42,0,0,1,.33,1.22v5.87l-26.1-13.81Z" transform="translate(-134.88 -146)"/><path class="w" d="M1066.27,431.52a4.89,4.89,0,0,1-.75,1.33,4.33,4.33,0,0,1-1.06.95,4.58,4.58,0,0,1-1.25.58,4.21,4.21,0,0,1-1.28.2h-3.43l19.24-49.8a4.61,4.61,0,0,1,1.62-2.15,4.27,4.27,0,0,1,2.54-.76h3.46Z" transform="translate(-134.88 -146)"/><path class="w" d="M1092.14,424.42v-5.87a2.33,2.33,0,0,1,.33-1.22,2.73,2.73,0,0,1,1.09-.95l12-6.23a15.51,15.51,0,0,1,3.4-1.2c-.64-.16-1.24-.33-1.8-.52a12,12,0,0,1-1.6-.68l-12-6.2a2.73,2.73,0,0,1-1.09-.95,2.35,2.35,0,0,1-.33-1.22v-5.87l26.1,13.77v3.33Z" transform="translate(-134.88 -146)"/><path class="ak" d="M1589.54,817.26a5,5,0,0,0-.21-7.26L1334.52,580a2.35,2.35,0,0,0-2.61-.38h0a2.42,2.42,0,0,0-.58,3.94l251.5,233.81a4.84,4.84,0,0,0,6.71-.1Z" transform="translate(-134.88 -146)"/><path class="al" d="M1738.53,1383.55a4.17,4.17,0,0,1,.12-1.1c5.45-21.88,32.52-35.51,32.52-35.51l10.73.85c6.17,19.29,5.37,31.11,4.38,36.38a3,3,0,0,1-.11.43A251.65,251.65,0,0,1,1738.53,1383.55Z" transform="translate(-134.88 -146)"/><path class="am" d="M1786.17,1384.6a4.67,4.67,0,0,1-3.4,3.48c-12.59,2.68-32.6.52-41-.59a4,4,0,0,1-3.24-3.94A251.65,251.65,0,0,0,1786.17,1384.6Z" transform="translate(-134.88 -146)"/><path class="an" d="M1828.65,996.28c6.63,7.16,16.38,13.34,23.25,17.2-10.25,12.82-24.12,25.65-42.49,38.22l-5.25,11.93-16.84-20.42S1817.53,1028,1828.65,996.28Z" transform="translate(-134.88 -146)"/><path class="ao" d="M1786.21,1331.63l-4.54,22.13a3.59,3.59,0,0,1-3.06,3,29.53,29.53,0,0,1-7-.11,4.55,4.55,0,0,1-3.56-5.34l3.16-19.65Z" transform="translate(-134.88 -146)"/><path class="ap" d="M1692.08,1384.38c11.84-.34,18-1.75,21.14-3.06,0,1.19,0,2.41,0,3.66a2.35,2.35,0,0,1-2.23,2.41l-65-.43c-2.08,0-3.29-2.45-2.39-4.37C1652,1383.3,1673.76,1384.9,1692.08,1384.38Z" transform="translate(-134.88 -146)"/><path class="aq" d="M1643.51,1382.59a2.65,2.65,0,0,1,.26-.5c5.74-8.12,20.37-24.29,49.29-31.3l13.87-.45s6.17,10.86,6.29,31c-3.17,1.31-9.3,2.72-21.14,3.06C1673.76,1384.9,1652,1383.3,1643.51,1382.59Z" transform="translate(-134.88 -146)"/><path class="ar" d="M1709.5,1329.08c-.16,1-2.06,16.94-2.79,23.1a3,3,0,0,1-2.55,2.76,31.07,31.07,0,0,1-9.53-.15,4.14,4.14,0,0,1-3.11-4.16v-25Z" transform="translate(-134.88 -146)"/><path class="as" d="M1720.63,1039s-33.46,128.62-32.85,290.48a6.25,6.25,0,0,0,4.91,6.11,71.49,71.49,0,0,0,15.51,1.82,5.76,5.76,0,0,0,5.47-4.86c4.7-27.83,31.61-184.61,46.95-210.06,0,0,10.09,139.63,6.87,212.08a3.42,3.42,0,0,0,3,3.57,56.53,56.53,0,0,0,12.45,0,4.57,4.57,0,0,0,4-3.9c3.34-23.55,22.57-163.75,21.75-264.74,0-5.7-14.88-30.46-14.88-30.46Z" transform="translate(-134.88 -146)"/><path class="at" d="M1669.32,865.72c5.86-15.15,15.74-25.52,25.68-37.5,37.24,6.83,98.29,12.92,123.74,16.17a32.28,32.28,0,0,1,20.46,11.11c20.77,24.31,66.35,90.89,12.7,158-6.87-3.86-16.62-10-23.25-17.2,5.94-16.92,6.43-38.55-6-65.08a62.46,62.46,0,0,1-1.59,6.23c-17.15,55-18.06,100.67-18,111.21a3.49,3.49,0,0,1-2.16,3.25c-22.56,9.15-66,3.71-80.57,1.51a5,5,0,0,1-4.11-5.63c7.16-52.45-29.56-138.72-39.26-160.33a14.23,14.23,0,0,0-7-7.13c-1.57-.72-3.1-1.45-4.62-2.19A129.12,129.12,0,0,1,1669.32,865.72Z" transform="translate(-134.88 -146)"/><path class="au" d="M1779.75,793.93l2.65,46.89a2.88,2.88,0,0,1-2.14,3c-5.88,1.5-22.13,4.49-36.28-3.66a4.67,4.67,0,0,1-2.11-5.33l11.83-42.13Z" transform="translate(-134.88 -146)"/><path class="av" d="M1750.75,742.7c-.6.58-25.39,49.82-25.39,49.82l28.09,13.72,30.35-43.14S1760.82,733.11,1750.75,742.7Z" transform="translate(-134.88 -146)"/><path class="aw" d="M1771.37,764.29a4.57,4.57,0,0,1-.34,4l-14,23.63a4.27,4.27,0,0,1-.77,1c-1.67,1.57-7.37,6.14-11.78-.08-3.76-5.3-7.29-10.12-11.07-12.11a4.46,4.46,0,0,0-6.05,2,170.29,170.29,0,0,0-9.59,23,4.52,4.52,0,0,0,2.6,5.53c5.69,2.33,16.93,6.55,26.91,7.94a4.45,4.45,0,0,0,4.23-1.82c4.29-6,16.39-22.57,20.52-26.74,3.84-3.86,10.92-2.4,14.11-1.48a4.42,4.42,0,0,0,3.58-.47c3.23-2,8.88-6.89,3.71-15.2a4.57,4.57,0,0,1,1.39-6.16c3.61-2.41,7.53-6.92,3.8-14.23s-10.54-8.07-15.14-7.5a4.65,4.65,0,0,1-4.88-2.74,3,3,0,0,0-2.31-1.85,4.39,4.39,0,0,1-3.52-5.16c.81-4.19.2-9.63-6.41-13.31-12.12-6.74-22.74,4.25-25.44,13.52s10.86,15.83,19.38,16.92C1766.55,753.77,1770,760.68,1771.37,764.29Z" transform="translate(-134.88 -146)"/><path class="ax" d="M1766.76,799.3s5.39-15.95,12.29-15.37,12.33,7.54,3.78,15.36C1772.19,809,1766.76,799.3,1766.76,799.3Z" transform="translate(-134.88 -146)"/><path class="ay" d="M1824.91,927.09c9.1-25.17,5.8-55.58,5.76-55.88l-2.5.29c0,.3,3.26,30.12-5.63,54.72Z" transform="translate(-134.88 -146)"/><path class="az" d="M1761.85,1119.17a1.26,1.26,0,0,0,1.22-1c2.78-10.82,23.55-22.72,23.76-22.84a1.27,1.27,0,0,0,.48-1.73,1.24,1.24,0,0,0-1.71-.49c-.9.5-21.93,12.55-25,24.42a1.29,1.29,0,0,0,.9,1.56A1.22,1.22,0,0,0,1761.85,1119.17Z" transform="translate(-134.88 -146)"/><path class="ba" d="M1584.13,842.76c35.41,13.1,110.87-14.54,110.87-14.54l5.19,62.37c-60.43,19.33-99.75,13.7-125.32-2.52C1573.28,869.63,1578.76,853.59,1584.13,842.76Z" transform="translate(-134.88 -146)"/><path class="bb" d="M1527.75,778.39l14.82-3s4,47.7,37,65.34a34.93,34.93,0,0,0,4.52,2c-5.37,10.83-10.85,26.87-9.26,45.31C1522.91,855.11,1527.75,778.39,1527.75,778.39Z" transform="translate(-134.88 -146)"/><path class="bc" d="M1541.81,779.58l.76-4.16s3.09-10.16-5.09-20.16c-11.82-14.45-20.47-9.13-20.47-9.13a32.86,32.86,0,0,1,.57,5.83,2.53,2.53,0,0,1-4.26,1.83L1494,735.86s-5.4,28.48,36,48.06Z" transform="translate(-134.88 -146)"/><path class="w" d="M1284.63,1023.52l27.69-14.44v6.16a2.43,2.43,0,0,1-.35,1.27,2.8,2.8,0,0,1-1.15,1l-12.69,6.5a11.72,11.72,0,0,1-1.7.72c-.59.2-1.23.38-1.9.54.67.16,1.31.34,1.9.54a11.72,11.72,0,0,1,1.7.72l12.69,6.54a2.86,2.86,0,0,1,1.15,1,2.46,2.46,0,0,1,.35,1.28v6.15L1284.63,1027Z" transform="translate(-134.88 -146)"/><path class="w" d="M1328,1048.94a5.19,5.19,0,0,1-.81,1.4,4.58,4.58,0,0,1-1.12,1,4.93,4.93,0,0,1-1.32.61,4.48,4.48,0,0,1-1.37.21h-3.63l20.41-52.23a5,5,0,0,1,1.72-2.25,4.57,4.57,0,0,1,2.69-.79h3.67Z" transform="translate(-134.88 -146)"/><path class="w" d="M1355.39,1041.49v-6.15a2.46,2.46,0,0,1,.35-1.28,2.86,2.86,0,0,1,1.15-1l12.69-6.54a17.19,17.19,0,0,1,3.6-1.26c-.67-.16-1.31-.34-1.9-.54a12.21,12.21,0,0,1-1.7-.72l-12.69-6.5a2.8,2.8,0,0,1-1.15-1,2.43,2.43,0,0,1-.35-1.27v-6.16l27.69,14.44v3.5Z" transform="translate(-134.88 -146)"/><rect class="bd" x="433.57" y="1255.51" width="19.65" height="212.53" transform="translate(751.91 2577.54) rotate(-180)"/><path class="be" d="M357.34,1459.34H529.46a0,0,0,0,1,0,0V1469a3.14,3.14,0,0,1-3.14,3.14H360.48a3.14,3.14,0,0,1-3.14-3.14v-9.65A0,0,0,0,1,357.34,1459.34Z" transform="translate(751.91 2785.47) rotate(-180)"/><rect class="bf" x="196.91" y="1061.89" width="216.41" height="61.38" rx="21.13"/><path class="bg" d="M588.48,1113.8s29.2,4.53,62,26.48a16.37,16.37,0,0,1,7.23,15.64c-3.94,31.14-20.1,131.94-73.4,230.38a24.81,24.81,0,0,0-2.38,17l9.26,43.1,17.17,16.1H564.16l-29.45-79.71,12.59-4a23.84,23.84,0,0,0,16.64-22.31l1.48-85.5c-1.26-38.09,23.35-64.37,23.35-64.37l-70.64-3.44Z" transform="translate(-134.88 -146)"/><path class="bh" d="M625.67,1470.28c4,5.28-43.36,12.23-67.3.7,0,0-33.19-57.74-33.19-87.47,0,0,2.63-6.06,22.12-4.69,0,0,11.14,68.37,22.91,76s32.92.77,32.92.77S619.72,1462.5,625.67,1470.28Z" transform="translate(-134.88 -146)"/><path class="bi" d="M527.07,1207.89c.37-.65,76.06-9.1,76.06-9.1s-2.48,23,5.26,54.69S727.25,1422.4,727.25,1422.4l-11.65,36.94c36,12.55,71.46,14.55,106.33,6.4l-72.2-43.34s-67.58-230.29-109-271.37l-75.86-26.25Z" transform="translate(-134.88 -146)"/><path class="bj" d="M357.34,1073.89s-43.61,64.86-47.19,94.44,12,41.61,57.7,43.59,167.89,1.95,167.89,1.95L640,1124.78s-76-27.11-95.72-34.77S357.34,1073.89,357.34,1073.89Z" transform="translate(-134.88 -146)"/><path class="bk" d="M720,1446.9s-12.55,12.15-4.07,25.67c0,0,99.36,17.61,126.34,9.62,0,0-5.6-12.79-36-27.34l2.24,1.72a3.63,3.63,0,0,1-2.39,6.51C786.13,1461.94,744.7,1458.27,720,1446.9Z" transform="translate(-134.88 -146)"/><path class="bl" d="M475.26,1065.3S526,1017,551,984.93a67.92,67.92,0,0,0,11.51-61.15c-11.41-38.45-31.69-78.27-33.54-84.47-2.84-9.5-59.77-9.1-59.77-9.1s-112,72.71-156.06,195.88l49.44,15.39s29.25-49.07,58.15-80.28c0,0-50,66.07-51.77,93.12Z" transform="translate(-134.88 -146)"/><path class="bm" d="M535.88,786.22c-.59,2-15.45,51.24-16.61,52.26s-32.59,2.71-47.39-7.4l29.68-70.63Z" transform="translate(-134.88 -146)"/><path class="bn" d="M578.71,1068.89l-37.31-36-51.61,21.81s-51.37,8-80.77,0l-29.41-8-66.44-20.69-10.44,29.49a17.78,17.78,0,0,0,6.49,20.41c5.75,4.08,12.49,8.57,16.78,10.45,8.75,3.83,215.7-2.65,215.7-2.65Z" transform="translate(-134.88 -146)"/><path class="bo" d="M437.52,1085.85h.5l216.42-.24a9.69,9.69,0,0,0,0-19.37l-216.42.24a9.69,9.69,0,0,0-.48,19.36Z" transform="translate(-134.88 -146)"/><path class="bp" d="M849,889.35H668.75a34.38,34.38,0,0,0-31.07,19.7l-83.32,176.68h224a20.88,20.88,0,0,0,19.42-13.2L862.37,909A14.4,14.4,0,0,0,849,889.35Z" transform="translate(-134.88 -146)"/><path class="a" d="M722,979.94c-3.91,12.14-1,23.92,6.44,26.33s16.69-5.49,20.59-17.63,1-23.91-6.44-26.32S725.92,967.81,722,979.94Z" transform="translate(-134.88 -146)"/><path class="e" d="M135,1093.75a8,8,0,0,1,1.88-6.92,9.22,9.22,0,0,1,6.89-3h903.1a10.49,10.49,0,0,1,8.66,4.44,9.13,9.13,0,0,1,.67,9.24l-9.79,19.85a13.78,13.78,0,0,1-12.44,7.46H150a10.23,10.23,0,0,1-10.19-7.88Z" transform="translate(-134.88 -146)"/><path class="e" d="M996.29,1512.22a7.72,7.72,0,0,0,3.13-.66,8.19,8.19,0,0,0,4.15-10.66L837.35,1105.57a7.85,7.85,0,0,0-10.41-4.25,8.18,8.18,0,0,0-4.15,10.65L989,1507.31A7.92,7.92,0,0,0,996.29,1512.22Z" transform="translate(-134.88 -146)"/><path class="e" d="M809,1512.22a7.93,7.93,0,0,0,7.29-4.91L982.54,1112a8.18,8.18,0,0,0-4.15-10.65,7.85,7.85,0,0,0-10.41,4.25L801.77,1500.9a8.18,8.18,0,0,0,4.15,10.66A7.71,7.71,0,0,0,809,1512.22Z" transform="translate(-134.88 -146)"/><path class="e" d="M341.76,1512.22a7.76,7.76,0,0,0,3.13-.66A8.2,8.2,0,0,0,349,1500.9L182.82,1105.57a7.85,7.85,0,0,0-10.41-4.25,8.18,8.18,0,0,0-4.15,10.65l166.21,395.34A7.93,7.93,0,0,0,341.76,1512.22Z" transform="translate(-134.88 -146)"/><path class="e" d="M154.51,1512.22a7.93,7.93,0,0,0,7.29-4.91L328,1112a8.18,8.18,0,0,0-4.15-10.65,7.85,7.85,0,0,0-10.41,4.25L147.24,1500.9a8.18,8.18,0,0,0,4.15,10.66A7.71,7.71,0,0,0,154.51,1512.22Z" transform="translate(-134.88 -146)"/><path class="bq" d="M519.12,688.52s26.27,11.09,44.12,49S567.77,793,551,795.44s-41.8,2-68.3-22.47S485,675.38,519.12,688.52Z" transform="translate(-134.88 -146)"/><path class="br" d="M500.53,752.7s-19.81-55.52,29.41-56.18l11.59,8.1s18.06-30.78-11.59-45.48-73.88-1.61-86.49,38.33-5.23,65.73,15.75,84.84,29.64-2.56,29.64-2.56-11.43-17.87-6.77-27.43,15.38,2,15.38,2Z" transform="translate(-134.88 -146)"/><path class="bs" d="M495,758.89s-10-28.6-23.38-17.21S482.49,768.1,492,773Z" transform="translate(-134.88 -146)"/></svg>