<?xml version="1.0" encoding="UTF-8" standalone="no"?>
<svg
   xmlns:dc="http://purl.org/dc/elements/1.1/"
   xmlns:cc="http://creativecommons.org/ns#"
   xmlns:rdf="http://www.w3.org/1999/02/22-rdf-syntax-ns#"
   xmlns:svg="http://www.w3.org/2000/svg"
   xmlns="http://www.w3.org/2000/svg"
   xmlns:sodipodi="http://sodipodi.sourceforge.net/DTD/sodipodi-0.dtd"
   xmlns:inkscape="http://www.inkscape.org/namespaces/inkscape"
   width="100%"
   height="100%"
   viewBox="0 0 512 512"
   version="1.1"
   xml:space="preserve"
   style="fill-rule:evenodd;clip-rule:evenodd;stroke-linejoin:round;stroke-miterlimit:2;"
   id="svg4"
   sodipodi:docname="mailbox.svg"
   inkscape:version="1.0.2-2 (e86c870879, 2021-01-15)"><metadata
   id="metadata10"><rdf:RDF><cc:Work
       rdf:about=""><dc:format>image/svg+xml</dc:format><dc:type
         rdf:resource="http://purl.org/dc/dcmitype/StillImage" /></cc:Work></rdf:RDF></metadata><defs
   id="defs8" /><sodipodi:namedview
   pagecolor="#ffffff"
   bordercolor="#666666"
   borderopacity="1"
   objecttolerance="10"
   gridtolerance="10"
   guidetolerance="10"
   inkscape:pageopacity="0"
   inkscape:pageshadow="2"
   inkscape:window-width="1920"
   inkscape:window-height="986"
   id="namedview6"
   showgrid="false"
   inkscape:zoom="1.5625"
   inkscape:cx="195.84"
   inkscape:cy="256"
   inkscape:window-x="-11"
   inkscape:window-y="-11"
   inkscape:window-maximized="1"
   inkscape:current-layer="svg4" />
    <path
   d="M452,48L60,48C26.916,48 0,74.916 0,108L0,157.495L220.191,321.276C230.9,329.241 243.45,333.224 256,333.224C268.55,333.224 281.1,329.242 291.809,321.276L512,157.495L512,108C512,74.916 485.084,48 452,48ZM472,137.396L267.937,289.18C260.797,294.491 251.203,294.491 244.064,289.18L40,137.396L40,108C40,96.972 48.972,88 60,88L452,88C463.028,88 472,96.972 472,108L472,137.396ZM472,237.099L512,207.347L512,404C512,437.084 485.084,464 452,464L60,464C26.916,464 0,437.084 0,404L0,207.347L40,237.099L40,404C40,415.028 48.972,424 60,424L452,424C463.028,424 472,415.028 472,404L472,237.099Z"
   style="fill:#808080;fill-rule:nonzero"
   id="path2" />
</svg>
