<?xml version="1.0" encoding="utf-8"?>
<!-- Generator: Adobe Illustrator 25.2.3, SVG Export Plug-In . SVG Version: 6.00 Build 0)  -->
<svg version="1.1"
	 id="svg3" inkscape:version="1.0.2-2 (e86c870879, 2021-01-15)" sodipodi:docname="medal.svg" xmlns:cc="http://creativecommons.org/ns#" xmlns:dc="http://purl.org/dc/elements/1.1/" xmlns:inkscape="http://www.inkscape.org/namespaces/inkscape" xmlns:rdf="http://www.w3.org/1999/02/22-rdf-syntax-ns#" xmlns:sodipodi="http://sodipodi.sourceforge.net/DTD/sodipodi-0.dtd" xmlns:svg="http://www.w3.org/2000/svg"
	 xmlns="http://www.w3.org/2000/svg" xmlns:xlink="http://www.w3.org/1999/xlink" x="0px" y="0px" viewBox="0 0 334.9 334.9"
	 style="enable-background:new 0 0 334.9 334.9;" xml:space="preserve">
<style type="text/css">
	.st0{fill:#4042E2;}
	.st1{fill-rule:evenodd;clip-rule:evenodd;fill:#FFFF00;}
</style>
<sodipodi:namedview  bordercolor="#666666" borderopacity="1" gridtolerance="10" guidetolerance="10" id="namedview5" inkscape:current-layer="svg3" inkscape:cx="-62.444245" inkscape:cy="87.404852" inkscape:pageopacity="0" inkscape:pageshadow="2" inkscape:window-height="986" inkscape:window-maximized="1" inkscape:window-width="1920" inkscape:window-x="-11" inkscape:window-y="-11" inkscape:zoom="0.525593" objecttolerance="10" pagecolor="#ffffff" showgrid="false">
	</sodipodi:namedview>
<path class="st0" d="M146.4,85.5l-45.2-75.4C97.4,3.9,90.5,0,83.2,0H10.5C4.7,0,0,4.7,0,10.5c0,2.1,0.7,4.2,1.9,6l72.8,104
	C94.5,101.9,119.5,89.7,146.4,85.5z"/>
<path class="st0" d="M324.4,0h-72.7c-7.4,0-14.2,3.9-17.9,10.2l-45.2,75.4c26.9,4.2,51.8,16.4,71.7,34.9l72.8-104
	c3.3-4.7,2.2-11.3-2.6-14.6C328.7,0.7,326.6,0,324.4,0z"/>
<path class="st0" d="M167.5,104.7c-63.6,0-115.1,51.5-115.1,115.1s51.5,115.1,115.1,115.1s115.1-51.5,115.1-115.1v0
	C282.6,156.2,231,104.7,167.5,104.7z"/>
<g id="layer1" inkscape:groupmode="layer" inkscape:label="Circle">
</g>
<g id="layer3" inkscape:groupmode="layer" inkscape:label="other">
</g>
<g id="layer2" inkscape:groupmode="layer" inkscape:label="Star">
	
		<path id="path11" inkscape:flatsided="false" inkscape:randomized="0" inkscape:rounded="0.13" inkscape:transform-center-x="0.062537682" inkscape:transform-center-y="-4.9968959" sodipodi:arg1="0.51996781" sodipodi:arg2="1.1482863" sodipodi:cx="-111.35824" sodipodi:cy="-9.6287184" sodipodi:r1="63.19384" sodipodi:r2="31.59692" sodipodi:sides="5" sodipodi:type="star" class="st1" d="
		M136.4,262.6c-3.7-2.7,7.3-30.7,5.9-35.1c-1.4-4.4-26.6-20.3-25.2-24.7s31-2.6,34.7-5.3c3.7-2.7,10.9-32,15.5-32
		c4.6,0,11.9,29.1,15.6,31.8c3.7,2.7,33.3,0.5,34.7,4.9c1.4,4.4-23.7,20.6-25.1,25c-1.4,4.4,9.7,32.3,6,35.1
		c-3.7,2.7-26.5-16.4-31.1-16.4S140.1,265.3,136.4,262.6L136.4,262.6z"/>
</g>
</svg>
