<?xml version="1.0" encoding="UTF-8" standalone="no"?>
<svg
   xmlns:dc="http://purl.org/dc/elements/1.1/"
   xmlns:cc="http://creativecommons.org/ns#"
   xmlns:rdf="http://www.w3.org/1999/02/22-rdf-syntax-ns#"
   xmlns:svg="http://www.w3.org/2000/svg"
   xmlns="http://www.w3.org/2000/svg"
   xmlns:sodipodi="http://sodipodi.sourceforge.net/DTD/sodipodi-0.dtd"
   xmlns:inkscape="http://www.inkscape.org/namespaces/inkscape"
   width="334.911"
   height="334.912"
   viewBox="0 0 334.911 334.912"
   version="1.1"
   id="svg3"
   sodipodi:docname="medal.svg"
   inkscape:version="1.0.2-2 (e86c870879, 2021-01-15)">
  <metadata
     id="metadata9">
    <rdf:RDF>
      <cc:Work
         rdf:about="">
        <dc:format>image/svg+xml</dc:format>
        <dc:type
           rdf:resource="http://purl.org/dc/dcmitype/StillImage" />
        <dc:title></dc:title>
      </cc:Work>
    </rdf:RDF>
  </metadata>
  <defs
     id="defs7" />
  <sodipodi:namedview
     pagecolor="#ffffff"
     bordercolor="#666666"
     borderopacity="1"
     objecttolerance="10"
     gridtolerance="10"
     guidetolerance="10"
     inkscape:pageopacity="0"
     inkscape:pageshadow="2"
     inkscape:window-width="1920"
     inkscape:window-height="986"
     id="namedview5"
     showgrid="false"
     inkscape:zoom="0.525593"
     inkscape:cx="-62.444245"
     inkscape:cy="95.96661"
     inkscape:window-x="-11"
     inkscape:window-y="-11"
     inkscape:window-maximized="1"
     inkscape:current-layer="svg3" />
  <path
     id="medal"
     data-name="Icon awesome-medal"
     d="M146.36,85.527,101.14,10.165A20.93,20.93,0,0,0,83.191,0H10.485A10.468,10.468,0,0,0,1.91,16.471l72.785,103.98A135.377,135.377,0,0,1,146.36,85.527ZM324.426,0H251.72a20.93,20.93,0,0,0-17.949,10.165l-45.22,75.362a135.415,135.415,0,0,1,71.666,34.917L333,16.471A10.468,10.468,0,0,0,324.426,0ZM167.456,104.66A115.126,115.126,0,1,0,282.582,219.786,115.128,115.128,0,0,0,167.456,104.66Zm60.52,102.868L203.164,231.7l5.867,34.158a7.511,7.511,0,0,1-10.891,7.908l-30.685-16.124-30.678,16.124a7.507,7.507,0,0,1-10.891-7.908l5.868-34.158-24.811-24.176a7.513,7.513,0,0,1,4.154-12.814l34.3-5,15.326-31.084a7.525,7.525,0,0,1,13.482,0l15.326,31.084,34.3,5a7.513,7.513,0,0,1,4.154,12.814Z"
     transform="translate(0)"
     inkscape:label="#medal" />
  <g
     inkscape:groupmode="layer"
     id="layer1"
     inkscape:label="Circle"
     style="display:inline" />
  <g
     inkscape:groupmode="layer"
     id="layer3"
     inkscape:label="other"
     style="display:inline" />
  <g
     inkscape:groupmode="layer"
     id="layer2"
     inkscape:label="Star"
     style="display:inline">
    <path
       sodipodi:type="star"
       style="fill:#ffff00;fill-rule:evenodd"
       id="path11"
       sodipodi:sides="5"
       sodipodi:cx="-111.35824"
       sodipodi:cy="-9.6287184"
       sodipodi:r1="63.19384"
       sodipodi:r2="31.59692"
       sodipodi:arg1="0.51996781"
       sodipodi:arg2="1.1482863"
       inkscape:flatsided="false"
       inkscape:rounded="0.13"
       inkscape:randomized="0"
       d="m -56.516401,21.76928 c -2.710542,4.734415 -36.909793,-4.816635 -41.885487,-2.57963 -4.975692,2.237005 -20.530262,34.156698 -25.870562,33.041833 -5.3403,-1.114864 -6.82486,-36.591721 -10.48995,-40.632615 -3.66509,-4.0408936 -38.82915,-8.9704389 -39.4191,-14.3938778 -0.58994,-5.4234385 32.6918,-17.7982922 35.40234,-22.5327072 2.71055,-4.734414 -3.46747,-39.700734 1.50822,-41.937739 4.9757,-2.237005 27.02951,25.591772 32.36981,26.706636 5.340296,1.114865 36.68613,-15.565964 40.351223,-11.52507 3.665092,4.040894 -15.986646,33.614877 -15.396702,39.038316 0.589944,5.4234389 26.14075,30.08044 23.430208,34.814854 z"
       inkscape:transform-center-x="0.062537682"
       inkscape:transform-center-y="-4.9968959"
       transform="matrix(-0.08883706,0.84369843,-0.83115255,-0.08751605,149.51379,312.16812)" />
  </g>
</svg>
