<svg xmlns="http://www.w3.org/2000/svg" xmlns:xlink="http://www.w3.org/1999/xlink" viewBox="0 0 2084.03 1293.12"><defs><style>.a{fill:url(#a);}.b{fill:url(#b);}.c{fill:url(#c);}.d{clip-path:url(#e);}.e{fill:url(#f);}.f{fill:#bdd0fb;}.g{fill:url(#g);}.h{fill:url(#h);}.i{fill:url(#i);}.j{fill:url(#j);}.k{fill:url(#k);}.l{fill:url(#l);}.m{fill:url(#m);}.n{clip-path:url(#o);}.o{fill:url(#p);}.bl,.p{fill:#fff;}.q{fill:url(#q);}.r{fill:url(#r);}.s{fill:url(#s);}.t{fill:url(#t);}.u{fill:url(#u);}.v{fill:url(#v);}.w{fill:url(#w);}.x{fill:url(#x);}.y{fill:url(#y);}.z{fill:url(#z);}.aa{fill:url(#aa);}.ab{fill:url(#ab);}.ac{fill:url(#ac);}.ad{fill:url(#ad);}.ae{fill:#7d97f4;}.af{fill:none;}.ag{fill:url(#ae);}.ah{fill:url(#af);}.ai{fill:url(#ag);}.aj{fill:url(#ah);}.ak{fill:url(#ai);}.al{fill:url(#aj);}.am{fill:url(#ak);}.an{fill:url(#al);}.ao{fill:url(#am);}.ap{fill:url(#an);}.aq{fill:url(#ao);}.ar{fill:url(#ap);}.as{fill:url(#aq);}.at{fill:url(#ar);}.au{fill:url(#as);}.av{fill:url(#at);}.aw{fill:url(#au);}.ax{fill:url(#av);}.ay{fill:url(#aw);}.az{fill:url(#ax);}.ba{fill:url(#ay);}.bb{fill:url(#az);}.bc{fill:url(#ba);}.bd{fill:url(#bb);}.be{fill:url(#bc);}.bf{fill:url(#bd);}.bg{fill:url(#be);}.bh{fill:url(#bf);}.bi{fill:#b1b1b1;}.bj{fill:url(#bg);}.bk{fill:url(#bh);}.bl{stroke:#fff;stroke-miterlimit:10;stroke-width:6px;opacity:0.54;}.bm{fill:#91b3fa;}.bn{fill:url(#bi);}.bo{fill:url(#bj);}</style><linearGradient id="a" x1="1009.85" y1="1001.48" x2="1474.89" y2="218.4" gradientUnits="userSpaceOnUse"><stop offset="0" stop-color="#fe7062"/><stop offset="1" stop-color="#ff928e"/></linearGradient><linearGradient id="b" x1="1197.47" y1="381.08" x2="1893.54" y2="1557.19" xlink:href="#a"/><linearGradient id="c" x1="1864.74" y1="90.98" x2="1714.73" y2="307" gradientUnits="userSpaceOnUse"><stop offset="0" stop-color="#09005d"/><stop offset="1" stop-color="#1a0f91"/></linearGradient><clipPath id="e" transform="translate(-296.97 -196.88)"><path class="a" d="M1265.12,427.78v769.56s19.78,63.72-84,62.69c0,0,6.32,100.19-112.58,93.62s-216.81-58.32-182.91-109.29c0,0-68.2-2.72-97.88-116.25s-11.42-199.72,23.49-218.28c0,0-55.55-179.87,95.38-279.78,0,0-52-119.45,93.51-203.27,0,0,6.08-55.65,82.5-97.42,71.81-39.25,117.9-19.28,126.78,13.68C1209.44,343,1265.12,327.63,1265.12,427.78Z"/></clipPath><linearGradient id="f" x1="1223.41" y1="612.76" x2="834.05" y2="1428.57" gradientUnits="userSpaceOnUse"><stop offset="0" stop-color="#4042e2"/><stop offset="1" stop-color="#4f52ff"/></linearGradient><linearGradient id="g" x1="1158.39" y1="581.72" x2="769.02" y2="1397.54" xlink:href="#f"/><linearGradient id="h" x1="1360.64" y1="678.25" x2="971.27" y2="1494.07" xlink:href="#f"/><linearGradient id="i" x1="1457.25" y1="1482.59" x2="1289.26" y2="1320.6" xlink:href="#a"/><linearGradient id="j" x1="1442.32" y1="717.24" x2="1052.95" y2="1533.05" xlink:href="#f"/><linearGradient id="k" x1="1241.8" y1="621.53" x2="852.43" y2="1437.35" xlink:href="#f"/><linearGradient id="l" x1="663.57" y1="1248.93" x2="898.02" y2="1248.93" xlink:href="#a"/><linearGradient id="m" x1="1375.17" y1="685.19" x2="985.81" y2="1501" xlink:href="#f"/><clipPath id="o" transform="translate(-296.97 -196.88)"><path class="b" d="M1309.65,427.78v769.56s-19.78,63.72,84,62.69c0,0-6.32,100.19,112.57,93.62s216.81-58.32,182.92-109.29c0,0,68.2-2.72,97.88-116.25s11.42-199.72-23.5-218.28c0,0,55.55-179.87-95.37-279.78,0,0,52-119.45-93.51-203.27,0,0-6.08-55.65-82.5-97.42-71.81-39.25-117.9-19.28-126.79,13.68C1365.32,343,1309.65,327.63,1309.65,427.78Z"/></clipPath><linearGradient id="p" x1="1375.36" y1="630.19" x2="984.14" y2="1360.72" xlink:href="#f"/><linearGradient id="q" x1="1258.61" y1="732.25" x2="1324.61" y2="516.26" xlink:href="#a"/><linearGradient id="r" x1="1143.85" y1="1571.63" x2="1466.46" y2="481.45" xlink:href="#f"/><linearGradient id="s" x1="1809.63" y1="612.09" x2="1372.06" y2="1451.39" xlink:href="#f"/><linearGradient id="t" x1="1602.94" y1="504.33" x2="1165.37" y2="1343.64" xlink:href="#f"/><linearGradient id="u" x1="1784.49" y1="849.29" x2="1393.27" y2="1579.82" xlink:href="#f"/><linearGradient id="v" x1="1326.84" y1="1625.78" x2="1649.45" y2="535.6" xlink:href="#f"/><linearGradient id="w" x1="1585.58" y1="1702.34" x2="1908.18" y2="612.17" xlink:href="#a"/><linearGradient id="x" x1="1734.98" y1="1317.87" x2="1894.04" y2="1317.87" xlink:href="#a"/><linearGradient id="y" x1="1653.02" y1="1722.3" x2="1975.62" y2="632.13" xlink:href="#f"/><linearGradient id="z" x1="1395.9" y1="1646.21" x2="1718.5" y2="556.04" xlink:href="#f"/><linearGradient id="aa" x1="1243.75" y1="1601.19" x2="1566.35" y2="511.01" xlink:href="#f"/><linearGradient id="ab" x1="1546.7" y1="1690.84" x2="1869.3" y2="600.66" xlink:href="#f"/><linearGradient id="ac" x1="1521.09" y1="708.23" x2="1129.87" y2="1438.76" xlink:href="#f"/><linearGradient id="ad" x1="1579.83" y1="739.69" x2="1188.61" y2="1470.22" xlink:href="#f"/><linearGradient id="ae" x1="1838.71" y1="469.06" x2="1870.41" y2="548.58" xlink:href="#c"/><linearGradient id="af" x1="1773.3" y1="515" x2="1831.87" y2="648.26" gradientUnits="userSpaceOnUse"><stop offset="0" stop-color="#ff928e"/><stop offset="1" stop-color="#feb3b1"/></linearGradient><linearGradient id="ag" x1="1949.67" y1="1039.58" x2="2013.67" y2="824.92" xlink:href="#f"/><linearGradient id="ah" x1="1841.01" y1="1084.19" x2="1879.69" y2="632.05" xlink:href="#af"/><linearGradient id="ai" x1="1843.79" y1="1008.02" x2="1907.79" y2="793.35" xlink:href="#f"/><linearGradient id="aj" x1="1918.83" y1="1090.92" x2="1957.52" y2="638.66" xlink:href="#af"/><linearGradient id="ak" x1="1829.66" y1="578.42" x2="1963.15" y2="1041.95" xlink:href="#a"/><linearGradient id="al" x1="2012.04" y1="577.41" x2="1952.7" y2="654.74" xlink:href="#c"/><linearGradient id="am" x1="1836.76" y1="638.52" x2="1844.03" y2="585.35" xlink:href="#af"/><linearGradient id="an" x1="1850.24" y1="492.82" x2="1832.24" y2="555.32" xlink:href="#af"/><linearGradient id="ao" x1="1832.06" y1="471.71" x2="1863.76" y2="551.23" xlink:href="#c"/><linearGradient id="ap" x1="1866.38" y1="497.47" x2="1848.38" y2="559.97" xlink:href="#af"/><linearGradient id="aq" x1="1757.55" y1="510.59" x2="1798" y2="602.62" xlink:href="#af"/><linearGradient id="ar" x1="1614.36" y1="596.43" x2="1795.14" y2="356.32" xlink:href="#f"/><linearGradient id="as" x1="1931.6" y1="684.2" x2="1810.94" y2="622.87" xlink:href="#af"/><linearGradient id="at" x1="754.74" y1="1210.18" x2="881.46" y2="1210.18" xlink:href="#af"/><linearGradient id="au" x1="183.13" y1="1276.51" x2="-683.95" y2="1348.52" gradientUnits="userSpaceOnUse"><stop offset="0" stop-color="#535353"/><stop offset="1" stop-color="#646464"/></linearGradient><linearGradient id="av" x1="1653.55" y1="-1801.91" x2="1734.14" y2="-1801.91" gradientTransform="matrix(0.07, -1, 1, 0.07, 2307.69, 3180.1)" xlink:href="#af"/><linearGradient id="aw" x1="1946.48" y1="1044.95" x2="2010.48" y2="830.28" xlink:href="#au"/><linearGradient id="ax" x1="1840.6" y1="1013.38" x2="1904.6" y2="798.71" xlink:href="#au"/><linearGradient id="ay" x1="2140.25" y1="1631.68" x2="2220.58" y2="1833.19" gradientTransform="matrix(-1.07, -0.68, -0.41, 0.65, 3844.69, 1253.32)" xlink:href="#c"/><linearGradient id="az" x1="2091.98" y1="2094.86" x2="2110.4" y2="1960.15" gradientTransform="matrix(-1.1, -0.48, -0.4, 0.92, 3808.13, 310.01)" xlink:href="#af"/><linearGradient id="ba" x1="2102.69" y1="1736.78" x2="2057.08" y2="1895.15" gradientTransform="matrix(-0.54, -0.84, -0.84, 0.54, 3425.93, 1747.51)" xlink:href="#af"/><linearGradient id="bb" x1="2056.61" y1="1683.29" x2="2136.94" y2="1884.8" gradientTransform="matrix(-0.54, -0.84, -0.84, 0.54, 3425.93, 1747.51)" xlink:href="#c"/><linearGradient id="bc" x1="2143.57" y1="1748.55" x2="2097.96" y2="1906.93" gradientTransform="matrix(-0.54, -0.84, -0.84, 0.54, 3425.93, 1747.51)" xlink:href="#af"/><linearGradient id="bd" x1="1932.68" y1="804.54" x2="2271.37" y2="383.03" xlink:href="#f"/><linearGradient id="be" x1="1934.18" y1="680.68" x2="2131.73" y2="680.68" xlink:href="#f"/><linearGradient id="bf" x1="800.03" y1="1072.97" x2="647.01" y2="1267.99" xlink:href="#f"/><linearGradient id="bg" x1="619.78" y1="524.47" x2="508.87" y2="650.18" xlink:href="#c"/><linearGradient id="bh" x1="316.82" y1="607.68" x2="390.04" y2="522.27" xlink:href="#c"/><linearGradient id="bi" x1="420.25" y1="1265.85" x2="673.97" y2="1265.85" gradientUnits="userSpaceOnUse"><stop offset="0" stop-color="#9cfffb"/><stop offset="1" stop-color="#9bfffa"/></linearGradient><linearGradient id="bj" x1="391.55" y1="1265.85" x2="645.27" y2="1265.85" xlink:href="#bi"/></defs><path class="c" d="M1812.75,915.53a70.31,70.31,0,0,1-8.64-42.59,338,338,0,0,0,1.2-68.38c-6.23-71.95-36.3-132.79-87.57-178a27.19,27.19,0,0,1-9.06-23.77,185.28,185.28,0,0,0,0-47.11c-5.41-42-28.3-101.27-105.26-150-7.88-24.71-30.62-69.78-95.47-105.22-48.13-26.31-93.76-32.62-128.49-17.79a81.23,81.23,0,0,0-34.69,27.73,70.84,70.84,0,0,0-30.26,13.3A76.24,76.24,0,0,0,1300,338.24a15.8,15.8,0,0,1-25.2,0,76,76,0,0,0-14.53-14.62,70.75,70.75,0,0,0-30.25-13.3,81.26,81.26,0,0,0-34.7-27.73c-34.73-14.84-80.35-8.52-128.48,17.79-64.85,35.44-87.59,80.51-95.47,105.22-77,48.76-99.86,108-105.27,150a184.37,184.37,0,0,0-1.36,30.55A69.1,69.1,0,0,1,845,637.85C801,681.73,775.18,738.46,769.46,804.56a338.4,338.4,0,0,0,1.26,68.92,68,68,0,0,1-8.44,41.58c-26.89,47.52-30.38,129.88-6.46,221.4,14.31,54.75,38.8,94.85,72.79,119.2l.18.13a51.53,51.53,0,0,1,19.62,27.74,74,74,0,0,0,5,12.76c28,55.81,127.29,85.59,213.33,90.34q6.55.36,12.86.36c42.32,0,75.89-12.23,99.92-36.45,18.77-18.92,27.49-41.08,31.47-59,34-4.14,58.74-16.47,73.88-36.81.9-1.21,1.71-2.42,2.5-3.63.8,1.21,1.61,2.42,2.5,3.62,15.15,20.35,39.92,32.68,73.89,36.82,4,18,12.69,40.12,31.46,59,24,24.22,57.6,36.46,99.92,36.45q6.3,0,12.86-.36c86-4.75,185.38-34.53,213.34-90.34a75.63,75.63,0,0,0,5-12.76,51.48,51.48,0,0,1,19.62-27.74l.18-.13c34-24.35,58.47-64.45,72.79-119.2C1842.79,1045.24,1839.4,963.12,1812.75,915.53Z" transform="translate(-296.97 -196.88)"/><path class="a" d="M1265.12,427.78v769.56s19.78,63.72-84,62.69c0,0,6.32,100.19-112.58,93.62s-216.81-58.32-182.91-109.29c0,0-68.2-2.72-97.88-116.25s-11.42-199.72,23.49-218.28c0,0-55.55-179.87,95.38-279.78,0,0-52-119.45,93.51-203.27,0,0,6.08-55.65,82.5-97.42,71.81-39.25,117.9-19.28,126.78,13.68C1209.44,343,1265.12,327.63,1265.12,427.78Z" transform="translate(-296.97 -196.88)"/><g class="d"><path class="e" d="M1100.82,808.63c7.83-11.37,15.48-31.58-12.94-47-14.81-8.05-33.1,4.57-35.17,26.64-1,10.92,1.45,19,4.21,24.32a5.6,5.6,0,0,1-5.05,8.09h-54.5v60.1a7.75,7.75,0,0,1-11.63,6.7c-35.72-20.64-50.88,12.66-50.26,21,.69,9.19,5.75,37.7,26.9,37.7a51.62,51.62,0,0,0,23.68-5.93,7.77,7.77,0,0,1,11.42,6.83v51.79h52.11a8.4,8.4,0,0,1,7.88,11.38c-3,7.85-6,18.94-5,30.63,1.84,22.06,32.75,27.58,48.56,14.71,11.67-9.51,3.24-27.11-3.37-40.45a8.39,8.39,0,0,1,7.59-12h63.07V938.34a6.94,6.94,0,0,1,10.58-5.93c5.76,3.55,13.22,7.39,20.68,9.15,15.63,3.68,26.74-16.55,27.62-33.1S1216.14,880,1196.83,879a27.74,27.74,0,0,0-17.59,5.18,6.93,6.93,0,0,1-10.91-5.7V817.39h-62.85A5.61,5.61,0,0,1,1100.82,808.63Z" transform="translate(-296.97 -196.88)"/><path class="f" d="M1080.37,1064.43a36.65,36.65,0,0,1-14.26-2.83c-9.16-3.9-14.86-11.4-15.62-20.58-1-12.3,2.22-23.92,5.12-31.5a6.27,6.27,0,0,0-.71-5.88,6.36,6.36,0,0,0-5.31-2.79H997.48a2,2,0,0,1-2-2V947.06a5.58,5.58,0,0,0-2.72-4.87A5.87,5.87,0,0,0,987,942a53.26,53.26,0,0,1-24.6,6.15c-20.47,0-27.79-24.86-28.89-39.55-.4-5.39,4.43-18.49,15.48-25.43,7.29-4.58,19.77-7.85,37.77,2.55a5.75,5.75,0,0,0,8.63-5v-60.1a2,2,0,0,1,2-2h54.5a3.66,3.66,0,0,0,3.14-1.77,3.39,3.39,0,0,0,.13-3.4c-2.63-5.09-5.53-13.64-4.42-25.43,1.18-12.59,7.48-23.09,16.87-28.09a22.08,22.08,0,0,1,21.24-.12c11.48,6.24,18.37,13.88,20.49,22.73,2.53,10.57-2.33,20.61-6.85,27.18a3.51,3.51,0,0,0-.22,3.68,3.59,3.59,0,0,0,3.23,1.95h62.85a2,2,0,0,1,2,2v61.13a4.93,4.93,0,0,0,7.76,4.06,29.7,29.7,0,0,1,18.83-5.54c10.53.5,19.5,4.29,25.25,10.65a28.16,28.16,0,0,1,7,20.88c-.67,12.54-6.72,25.48-14.71,31.47a18.12,18.12,0,0,1-15.37,3.47c-6.45-1.52-13.61-4.68-21.27-9.39a4.83,4.83,0,0,0-5-.11,4.91,4.91,0,0,0-2.54,4.33v64.75a2,2,0,0,1-2,2h-63.07a6.42,6.42,0,0,0-5.48,3.06,6.12,6.12,0,0,0-.31,6.08c6.34,12.83,15.93,32.21,2.83,42.89C1096.42,1061.91,1088.43,1064.43,1080.37,1064.43Zm-80.89-67.58h50.11a10.4,10.4,0,0,1,9.75,14.1c-2.75,7.19-5.83,18.19-4.87,29.74.65,7.76,5.34,13.88,13.21,17.23,10.39,4.42,23.89,2.78,32.09-3.9,9.82-8,3.76-22.55-3.89-38a10.22,10.22,0,0,1,.5-10,10.38,10.38,0,0,1,8.88-4.95h61.07V938.34a8.95,8.95,0,0,1,13.63-7.63c7.19,4.42,14.14,7.5,20.08,8.9a14,14,0,0,0,12.06-2.77c7.11-5.33,12.5-17,13.11-28.49a24.25,24.25,0,0,0-6-18c-5.11-5.65-12.88-8.88-22.48-9.33a25.74,25.74,0,0,0-16.34,4.82,8.94,8.94,0,0,1-14.06-7.34V819.39h-60.85a7.61,7.61,0,0,1-6.31-11.9l1.65,1.14-1.65-1.14c4.06-5.9,8.45-14.85,6.26-24-1.84-7.7-8.07-14.47-18.51-20.14a17.89,17.89,0,0,0-17.45.13c-8.19,4.37-13.71,13.69-14.77,24.93-1,10.83,1.61,18.61,4,23.22a7.41,7.41,0,0,1-.28,7.32,7.6,7.6,0,0,1-6.55,3.69h-52.5v58.1a9.76,9.76,0,0,1-14.64,8.43c-13.06-7.55-24.38-8.43-33.63-2.62-10.09,6.33-13.88,18.27-13.62,21.74.11,1.46,2.93,35.85,24.9,35.85a49.28,49.28,0,0,0,22.77-5.71,9.85,9.85,0,0,1,9.69.32,9.62,9.62,0,0,1,4.64,8.29Z" transform="translate(-296.97 -196.88)"/><path class="g" d="M984.71,1119.83c-16.48,7.13-46.34,15-49-20.13-3.14-41.64,26.19-43.67,50.18-30.18a7.75,7.75,0,0,0,11.59-6.72V998.85H943.41A8.44,8.44,0,0,1,936.24,986c4.61-7.72,7.31-17.65-.78-26.07-15.88-16.55-55.61-20.88-50.31,11.22a50.21,50.21,0,0,0,5.13,15,8.42,8.42,0,0,1-7.44,12.36H833.66v67a7.5,7.5,0,0,0,12.2,5.85c6-4.74,13.32-9.56,20.12-11.25,14.86-3.67,29.28,10.12,32,29.42S883.31,1130,865.84,1130c-7.88,0-15.19-2.94-20.85-6.16a7.52,7.52,0,0,0-11.33,6.45v63.15h54a7.25,7.25,0,0,1,6.71,10c-6.17,15.52-12.59,43.86,22,45.19,38.71,1.49,35.23-30.13,19.81-50.29a7.26,7.26,0,0,1,5.69-11.74h53.57V1127A7.74,7.74,0,0,0,984.71,1119.83Z" transform="translate(-296.97 -196.88)"/><path class="f" d="M919,1250.69c-.85,0-1.73,0-2.64,0-12.12-.46-20.56-4.22-25.08-11.16-6.85-10.53-3.09-25.81,1.27-36.77a5.23,5.23,0,0,0-.53-4.94,5.15,5.15,0,0,0-4.33-2.29h-54a2,2,0,0,1-2-2v-63.15a9.34,9.34,0,0,1,4.69-8.17,9.56,9.56,0,0,1,9.63,0c6.87,3.91,13.55,5.9,19.86,5.9,7.33,0,15.06-4.06,21.19-11.14,6.92-8,10.29-18.08,9-27-1.51-10.55-6.76-19.78-14.06-24.7a19,19,0,0,0-15.52-3.06c-5.38,1.33-12.07,5.09-19.36,10.86a9.5,9.5,0,0,1-15.44-7.41v-67a2,2,0,0,1,2-2h49.18a6.36,6.36,0,0,0,5.48-3.07,6.46,6.46,0,0,0,.19-6.37,52,52,0,0,1-5.34-15.62c-1.86-11.27,1.54-19.69,9.58-23.72,12-6,33-.84,44.15,10.78,7.28,7.59,7.65,17.43,1.06,28.48a6.48,6.48,0,0,0-.09,6.59,6.29,6.29,0,0,0,5.54,3.22h54.07a2,2,0,0,1,2,2v63.95a9.62,9.62,0,0,1-4.8,8.39,9.75,9.75,0,0,1-9.77.07c-14-7.87-28.06-9.35-36.69-3.85-8.07,5.14-11.71,16.25-10.51,32.14.8,10.64,4.26,17.87,10.28,21.51,10.47,6.33,27,.79,35.93-3.07a9.66,9.66,0,0,1,9.14.8,9.76,9.76,0,0,1,4.42,8.18v59.64a2,2,0,0,1-2,2H941.91a5.11,5.11,0,0,0-4.67,2.88,5.27,5.27,0,0,0,.57,5.64c8.86,11.59,15,28.69,8.71,40.8C943.46,1243.84,936.19,1250.69,919,1250.69Zm-83.31-59.21h52a9.24,9.24,0,0,1,8.57,12.7c-3.28,8.26-7.86,23.54-1.63,33.11,3.77,5.8,11.13,8.94,21.88,9.36,13.49.52,22.64-3.14,26.49-10.56,5.47-10.55-.25-25.95-8.34-36.53a9.32,9.32,0,0,1-1-9.84,9.15,9.15,0,0,1,8.26-5.11h51.57V1127a5.77,5.77,0,0,0-2.61-4.83,5.58,5.58,0,0,0-5.36-.48h0c-11.77,5.09-28.19,9.71-39.59,2.83-7.19-4.35-11.29-12.64-12.2-24.64-1.66-22,5.8-31.64,12.35-35.81,10-6.39,25.28-5,40.8,3.73a5.76,5.76,0,0,0,5.79,0,5.67,5.67,0,0,0,2.82-4.94v-61.95H943.41a10.26,10.26,0,0,1-9-5.24,10.44,10.44,0,0,1,.14-10.62c5.64-9.46,5.47-17.42-.51-23.66-9.91-10.32-29.1-15.17-39.48-10-6.43,3.22-9,10-7.42,19.48a48.06,48.06,0,0,0,4.93,14.43,10.42,10.42,0,0,1-9.21,15.29H835.66v65a5.36,5.36,0,0,0,3.09,4.94,5.44,5.44,0,0,0,5.87-.66c7.84-6.22,14.86-10.13,20.88-11.62a22.93,22.93,0,0,1,18.72,3.64c8.22,5.54,14.12,15.8,15.78,27.44,1.44,10.09-2.28,21.38-10,30.22-6.89,8-15.72,12.52-24.21,12.52-7,0-14.36-2.16-21.85-6.43a5.61,5.61,0,0,0-5.63,0,5.41,5.41,0,0,0-2.7,4.72Zm149.05-71.65h0Z" transform="translate(-296.97 -196.88)"/><path class="h" d="M1267.35,826c6.26,9.92,13.16,26.33.5,38.09-19.3,17.93-47.58,7.58-51-13.1a33.7,33.7,0,0,1,5.73-24.77,5.62,5.62,0,0,0-4.59-8.84h-49.64v61.13a6.93,6.93,0,0,0,10.91,5.7,27.74,27.74,0,0,1,17.59-5.18c19.31.92,31.26,12.87,30.38,29.42s-12,36.78-27.62,33.1c-7.46-1.76-14.92-5.6-20.68-9.15a6.94,6.94,0,0,0-10.58,5.93v64.75h46.89a8.4,8.4,0,0,0,7.27-12.65c-3.57-6.05-5.72-14.33-2.68-25,7.36-25.74,36.78-22.06,51.49-5.51,8.15,9.16,4.16,21.4-1,30.51a8.41,8.41,0,0,0,7.28,12.63h54v-64.2a6,6,0,0,0-8.61-5.37c-7.14,3.54-18,7.91-29.53,9-20.23,1.84-23.95-23.91-24.85-40.46-.81-14.95,23.88-38.16,53.4-16a6,6,0,0,0,9.6-4.75V817.39H1272.1A5.61,5.61,0,0,0,1267.35,826Z" transform="translate(-296.97 -196.88)"/><path class="f" d="M1331.51,1005.09h-54a10.42,10.42,0,0,1-9-15.62c4.69-8.24,8.71-19.82,1.27-28.19-8.32-9.36-21.43-14.23-31.9-11.84-8,1.83-13.6,7.56-16.17,16.57-2.46,8.59-1.63,16.47,2.47,23.41a10.4,10.4,0,0,1-9,15.67h-46.89a2,2,0,0,1-2-2V938.34a8.95,8.95,0,0,1,13.63-7.63c7.19,4.42,14.14,7.5,20.08,8.9a14,14,0,0,0,12.06-2.77c7.11-5.33,12.5-17,13.11-28.49a24.25,24.25,0,0,0-6-18c-5.11-5.65-12.88-8.88-22.48-9.33a25.74,25.74,0,0,0-16.34,4.82,8.94,8.94,0,0,1-14.06-7.34V817.39a2,2,0,0,1,2-2H1218a7.45,7.45,0,0,1,6.69,4,7.71,7.71,0,0,1-.44,8c-5,7.34-6.78,15.18-5.42,23.32,1.45,8.68,8,16,17,19.08,10.53,3.59,22,.93,30.66-7.12,11.26-10.45,5.76-25.1-.83-35.55h0a7.62,7.62,0,0,1,6.44-11.69h59.42a2,2,0,0,1,2,2v63.83a7.9,7.9,0,0,1-4.39,7.11,8,8,0,0,1-8.41-.76c-16.9-12.66-30.2-8.79-36.62-5.35-8.12,4.34-14,12.81-13.58,19.7,1,17.83,4.65,29.64,10.94,35.08a15,15,0,0,0,11.73,3.49c11.3-1,21.91-5.33,28.82-8.76a8,8,0,0,1,11.5,7.16v64.2A2,2,0,0,1,1331.51,1005.09Zm-88.15-60.24c10.4,0,21.79,5.17,29.44,13.77,7.14,8,6.87,19.38-.79,32.82a6.44,6.44,0,0,0,0,6.48,6.32,6.32,0,0,0,5.53,3.17h52v-62.2a4,4,0,0,0-1.89-3.39,3.85,3.85,0,0,0-3.83-.19c-7.22,3.58-18.32,8.08-30.24,9.16a19,19,0,0,1-14.71-4.45c-7.24-6.26-11.27-18.66-12.32-37.89-.46-8.47,6.14-18.33,15.69-23.44,12.36-6.61,27.27-4.54,40.91,5.68a4,4,0,0,0,4.22.39,3.9,3.9,0,0,0,2.18-3.54V819.39H1272.1a3.56,3.56,0,0,0-3.17,1.86,3.59,3.59,0,0,0,.11,3.69c10.47,16.59,10.53,31,.17,40.62-9.76,9.07-22.72,12.05-34.67,8-10.45-3.57-18-12.08-19.69-22.21a35.91,35.91,0,0,1,6.06-26.22,3.69,3.69,0,0,0,.22-3.84,3.52,3.52,0,0,0-3.16-1.88h-47.64v59.13a4.93,4.93,0,0,0,7.76,4.06,29.76,29.76,0,0,1,18.83-5.54c10.53.5,19.5,4.29,25.25,10.65a28.16,28.16,0,0,1,7,20.88c-.67,12.54-6.72,25.48-14.71,31.47a18.12,18.12,0,0,1-15.37,3.47c-6.45-1.52-13.61-4.68-21.27-9.39a4.83,4.83,0,0,0-5-.11,4.91,4.91,0,0,0-2.54,4.33v62.75h44.89a6.4,6.4,0,0,0,5.54-9.64c-4.67-7.92-5.64-16.85-2.87-26.54,3-10.35,9.75-17.23,19.13-19.37A28.85,28.85,0,0,1,1243.36,944.85Z" transform="translate(-296.97 -196.88)"/><path class="i" d="M1273.37,1197c6.14,13,5.81,34.08-2.07,40.65-11,9.19-55.58,14.46-55.16-14.71.16-11.46,3.18-19.51,6.78-25.07a7.24,7.24,0,0,0-6.07-11.2h-48.52v62.75a7,7,0,0,0,11,5.63c5.7-4.13,12.81-8.26,19.31-9.12,13.79-1.84,29.42,14.71,28.5,32.17s-8.28,37.7-26.66,35.86c-8.31-.83-15.68-4.47-21.26-8.22a7,7,0,0,0-10.92,5.72v61.88h51.48s-25.4,48.19,7.53,51.87c30,3.35,49.38-1.21,39.41-39.65a9.75,9.75,0,0,1,9.41-12.22h51.23v-61.91a6,6,0,0,0-8.25-5.53,87.19,87.19,0,0,1-23,6.22c-16.55,1.84-26.67-11.95-27.59-34-.83-20,22.5-31.68,50.15-18a6,6,0,0,0,8.7-5.25v-68.22h-47.24A7.35,7.35,0,0,0,1273.37,1197Z" transform="translate(-296.97 -196.88)"/><path class="j" d="M1270.28,990.46c5.18-9.11,9.17-21.35,1-30.51-14.71-16.55-44.13-20.23-51.49,5.51-3,10.65-.89,18.93,2.68,25a8.4,8.4,0,0,1-7.27,12.65h-46.89v62.56a7,7,0,0,0,11,5.67c31.46-21.84,47.86,3.92,47.9,15.51,0,12.87-5.56,43.21-25.78,42.29a49.88,49.88,0,0,1-22.6-6.78,7,7,0,0,0-10.5,6v58.31h48.52a7.24,7.24,0,0,1,6.07,11.2c-3.6,5.56-6.62,13.61-6.78,25.07-.42,29.17,44.13,23.9,55.16,14.71,7.88-6.57,8.21-27.62,2.07-40.65a7.35,7.35,0,0,1,6.78-10.33h47.24v-63.81a6,6,0,0,1,9-5.13c8.13,4.83,20.68,10.88,33.24,11.43,21.15.92,23.9-23,24.82-41.37.82-16.24-29.23-35.35-53.67-19.33a6,6,0,0,1-9.32-5v-60.38h-54A8.41,8.41,0,0,1,1270.28,990.46Z" transform="translate(-296.97 -196.88)"/><path class="f" d="M1244.34,1246.89c-6.26,0-12.51-1-17.72-3.51-8.3-4-12.62-11.05-12.48-20.51.14-10.29,2.53-19.09,7.1-26.13a5.24,5.24,0,0,0-4.39-8.11h-48.52a2,2,0,0,1-2-2v-58.31a8.84,8.84,0,0,1,4.44-7.73,9,9,0,0,1,9.06,0,47.5,47.5,0,0,0,21.69,6.51,15.64,15.64,0,0,0,11.9-4.6c8.7-8.34,11.82-25.91,11.79-35.69,0-5.19-4.14-15-13-19.6s-19.8-2.6-31.8,5.73a9,9,0,0,1-9.36.6,8.78,8.78,0,0,1-4.77-7.9v-62.57a2,2,0,0,1,2-2h46.89a6.4,6.4,0,0,0,5.54-9.64c-4.67-7.92-5.64-16.85-2.87-26.54,3-10.35,9.75-17.23,19.13-19.37,11.82-2.69,26.54,2.68,35.78,13.08,7.14,8,6.87,19.38-.79,32.82h0a6.44,6.44,0,0,0,0,6.48,6.32,6.32,0,0,0,5.53,3.17h54a2,2,0,0,1,2,2v60.38a3.87,3.87,0,0,0,2.06,3.47,4,4,0,0,0,4.16-.19c14.81-9.71,31.18-6.82,41.55-.88,9.64,5.52,15.61,14.15,15.22,22-.71,14.14-2.17,43.29-25.63,43.3l-1.28,0c-12.9-.56-25.7-6.68-34.17-11.71a4,4,0,0,0-6,3.41v63.81a2,2,0,0,1-2,2h-47.24a5.48,5.48,0,0,0-4.63,2.56,5,5,0,0,0-.34,4.92c6.26,13.29,6.5,35.45-2.6,43C1267.49,1243.39,1255.9,1246.89,1244.34,1246.89Zm-74-62.26h46.52a9.24,9.24,0,0,1,7.74,14.29c-4.14,6.4-6.32,14.48-6.45,24-.12,7.89,3.32,13.55,10.2,16.84,12.85,6.13,34.74,2.09,41.68-3.69s7.62-25.36,1.54-38.26a9.08,9.08,0,0,1,.58-8.77,9.45,9.45,0,0,1,8-4.42h45.24v-61.81a8,8,0,0,1,12.07-6.85c8.07,4.8,20.23,10.63,32.31,11.15,18.22.8,21.69-18.5,22.74-39.47.31-6.35-4.87-13.53-13.22-18.31-12.1-6.93-26.07-6.65-37.36.76a8.06,8.06,0,0,1-8.26.36,7.83,7.83,0,0,1-4.16-7v-58.38h-52a10.42,10.42,0,0,1-9-15.62h0c4.69-8.24,8.71-19.82,1.27-28.19-8.32-9.36-21.43-14.23-31.9-11.84-8,1.83-13.6,7.56-16.17,16.57-2.46,8.59-1.63,16.47,2.47,23.41a10.4,10.4,0,0,1-9,15.67h-44.89v60.57A4.83,4.83,0,0,0,1173,1070a4.93,4.93,0,0,0,5.21-.34c16.82-11.66,28.83-9.69,35.94-6,9.42,4.91,15.08,15.62,15.1,23.13,0,9-2.66,28.66-13,38.59a19.5,19.5,0,0,1-14.85,5.71,51.43,51.43,0,0,1-23.51-7,5,5,0,0,0-5,0,4.85,4.85,0,0,0-2.45,4.26Z" transform="translate(-296.97 -196.88)"/><path class="k" d="M1007.22,1302.47c7.06,4.19,16.18,8.68,24.11,9.61,15.63,1.84,30.34-17.47,27.59-40.45-2.35-19.54-27.94-37.08-51.38-20.45-5,3.59-12.06-.27-12.06-6.46v-58.11H941.91a7.26,7.26,0,0,0-5.69,11.74c15.42,20.16,18.9,51.78-19.81,50.29-34.63-1.33-28.21-29.67-22-45.19a7.25,7.25,0,0,0-6.71-10h-54V1251a7.49,7.49,0,0,0,11.73,6.19c6.19-4.26,13.85-8.58,20.45-9.46,13.79-1.83,32.18,9.2,32.18,27.59s-5.52,35.85-28.5,34a68.91,68.91,0,0,1-25-6.79,7.51,7.51,0,0,0-10.88,6.69v64.07h49.13a9.72,9.72,0,0,0,9-13.53,61.43,61.43,0,0,1-4.85-16.41c-1.83-14.71,19.37-24.74,36.84-23.36,13.76,1.09,29.76,21.87,22.4,40.13a9.7,9.7,0,0,0,9.12,13.17h40.2v-64.19A7.75,7.75,0,0,1,1007.22,1302.47Z" transform="translate(-296.97 -196.88)"/><path class="f" d="M995.48,1375.3h-40.2a11.83,11.83,0,0,1-9.81-5.23,11.31,11.31,0,0,1-1.17-10.69c3.05-7.56,2-16.47-3-24.45-4.56-7.36-11.51-12.44-17.73-12.93-11.3-.91-24.13,3.3-30.52,10-3.26,3.41-4.67,7.16-4.17,11.12A58.51,58.51,0,0,0,893.6,1359a11.52,11.52,0,0,1-.94,11,11.76,11.76,0,0,1-9.87,5.35H833.66a2,2,0,0,1-2-2v-64.06a9.42,9.42,0,0,1,4.46-8,9.53,9.53,0,0,1,9.31-.44,66.41,66.41,0,0,0,24.25,6.58c7.72.61,13.79-1,18-5,5.51-5.09,8.3-14.19,8.3-27a24.45,24.45,0,0,0-8.65-18.57c-5.94-5.21-14.29-8-21.27-7-5.13.68-11.9,3.83-19.57,9.11a9.49,9.49,0,0,1-14.87-7.83v-57.51a2,2,0,0,1,2-2h54a9.24,9.24,0,0,1,8.57,12.7c-3.28,8.26-7.86,23.54-1.63,33.11,3.77,5.8,11.13,8.94,21.88,9.35,13.49.55,22.64-3.13,26.49-10.55,5.47-10.55-.25-25.95-8.34-36.53a9.32,9.32,0,0,1-1-9.84,9.15,9.15,0,0,1,8.26-5.11h53.57a2,2,0,0,1,2,2v58.11a5.83,5.83,0,0,0,3.19,5.19,5.42,5.42,0,0,0,5.72-.36c10.65-7.56,23.16-9.06,34.32-4.12,11,4.86,18.88,15,20.19,26,1.61,13.41-2.57,26.93-10.9,35.29-5.54,5.55-12.25,8.17-18.9,7.39-6.84-.81-15.22-4.13-24.9-9.88a5.75,5.75,0,0,0-8.72,4.92v64.19A2,2,0,0,1,995.48,1375.3Zm-75-57.43c1.16,0,2.32.05,3.46.14,7.44.59,15.61,6.4,20.82,14.82,5.61,9.06,6.8,19.29,3.27,28a7.37,7.37,0,0,0,.77,7,7.84,7.84,0,0,0,6.5,3.47h38.2v-62.19a9.75,9.75,0,0,1,14.76-8.36h0c9.07,5.38,17.13,8.62,23.33,9.35,5.4.63,10.94-1.58,15.6-6.25,7.49-7.51,11.23-19.76,9.76-32-1.14-9.55-8.15-18.49-17.84-22.78-5.78-2.56-17.42-5.49-30.39,3.72a9.33,9.33,0,0,1-9.87.65,9.81,9.81,0,0,1-5.35-8.74v-56.11H941.91a5.11,5.11,0,0,0-4.67,2.88,5.27,5.27,0,0,0,.57,5.64c8.86,11.59,15,28.69,8.71,40.8-3.21,6.2-11.07,13.46-30.19,12.71-12.12-.46-20.56-4.22-25.08-11.16-6.85-10.53-3.09-25.81,1.27-36.77a5.23,5.23,0,0,0-.53-4.94,5.15,5.15,0,0,0-4.33-2.29h-52V1251a5.5,5.5,0,0,0,8.6,4.54c8.3-5.72,15.48-9,21.32-9.79,8.19-1.09,17.55,2,24.43,8a28.43,28.43,0,0,1,10,21.58c0,14-3.23,24.11-9.59,30-5.1,4.71-12.19,6.74-21.07,6a70.48,70.48,0,0,1-25.7-7,5.56,5.56,0,0,0-5.43.25,5.37,5.37,0,0,0-2.57,4.65v62.06h47.13a7.78,7.78,0,0,0,6.52-3.54,7.45,7.45,0,0,0,.63-7.19,62.31,62.31,0,0,1-5-17c-.64-5.15,1.17-10.12,5.25-14.39C896.79,1322.31,908.86,1317.87,920.46,1317.87Z" transform="translate(-296.97 -196.88)"/><path class="l" d="M844.54,1302.54a68.91,68.91,0,0,0,25,6.79c23,1.83,28.5-15.63,28.5-34s-18.39-29.42-32.18-27.59c-6.6.88-14.26,5.2-20.45,9.46a7.49,7.49,0,0,1-11.73-6.19v-57.51h-55a7.22,7.22,0,0,1-6.26-10.89c3.37-5.56,6.12-13.8,6.12-25.89,0-31.26-36.77-44.13-47.16-18.39-6.88,17.08-4.64,35.76-2.34,46.42a7.24,7.24,0,0,1-7.09,8.75H663.57v55.77a8.37,8.37,0,0,0,12.85,7.08c6.88-4.41,15.08-9.09,20.73-10.44,11.52-2.76,32.62,10.11,33.54,32.17s-10.12,31.27-32.18,33.1a38.44,38.44,0,0,1-22.53-5.09,8.38,8.38,0,0,0-12.41,7.4v59.83h53.34a9.74,9.74,0,0,0,9.3-12.63c-4.61-14.86-6.74-37.85,22.86-40.31,36.31-3,35,17.84,25.36,39.24a9.73,9.73,0,0,0,8.9,13.7h50.33v-64.07A7.51,7.51,0,0,1,844.54,1302.54Z" transform="translate(-296.97 -196.88)"/><path class="m" d="M1179.25,1305.7c5.58,3.75,13,7.39,21.26,8.22,18.38,1.84,25.74-18.39,26.66-35.86s-14.71-34-28.5-32.17c-6.5.86-13.61,5-19.31,9.12a7,7,0,0,1-11-5.63v-62.75h-63.48a7.24,7.24,0,0,1-6.59-10.27c5-10.82,10.58-27.27,2.78-34.37-12.13-11-44.88-11-50.4,5.52-3.09,9.26,1.11,20.41,5.4,28.43a7.24,7.24,0,0,1-6.39,10.67H995.48v58.11c0,6.19,7,10,12.06,6.46,23.44-16.63,49,.91,51.38,20.45,2.75,23-12,42.29-27.59,40.45-7.93-.93-17-5.42-24.11-9.61a7.75,7.75,0,0,0-11.74,6.64v64.19h62.4a9.73,9.73,0,0,0,8.82-13.89c-3.69-7.66-18.8-17.08-17.9-24.34,1.84-14.71,34.6-18.35,52.24-15.61,13.46,2.09,6.77,23.15-.88,40a9.74,9.74,0,0,0,8.84,13.81h59.33v-61.88A7,7,0,0,1,1179.25,1305.7Z" transform="translate(-296.97 -196.88)"/><path class="f" d="M1168.33,1375.3H1109a11.75,11.75,0,0,1-10.67-16.64c7.56-16.67,10.15-28.76,7.28-34.07a6.22,6.22,0,0,0-4.88-3.16c-14.47-2.25-36.17,0-45.43,7-2.68,2-4.2,4.33-4.51,6.87-.42,3.3,4.53,8.25,8.89,12.61,3.68,3.68,7.16,7.16,8.82,10.62a11.56,11.56,0,0,1-.65,11.23,11.73,11.73,0,0,1-10,5.52h-62.4a2,2,0,0,1-2-2v-64.19a9.75,9.75,0,0,1,14.76-8.36c9.07,5.38,17.13,8.62,23.33,9.35,5.4.63,10.94-1.58,15.6-6.25,7.49-7.51,11.23-19.76,9.76-32-1.14-9.55-8.15-18.49-17.84-22.78-5.78-2.56-17.42-5.49-30.39,3.72a9.33,9.33,0,0,1-9.87.65,9.81,9.81,0,0,1-5.35-8.74v-58.11a2,2,0,0,1,2-2h54.17a5.24,5.24,0,0,0,4.63-7.72c-4.37-8.16-8.88-20-5.54-30,2.1-6.29,7.92-11,16.39-13.18,13-3.39,29.33-.39,37.25,6.82,8.5,7.73,3.44,24.22-2.3,36.69a5.24,5.24,0,0,0,4.77,7.43h63.48a2,2,0,0,1,2,2v62.75a4.95,4.95,0,0,0,7.86,4c7.63-5.52,14.43-8.72,20.21-9.49,6.35-.85,13.39,1.8,19.31,7.26,7.57,7,12,17.34,11.46,27-.37,6.92-2.33,24-12.64,32.81a20.76,20.76,0,0,1-16.22,4.93c-7.36-.73-14.81-3.61-22.17-8.55a5,5,0,0,0-5.22-.28,4.81,4.81,0,0,0-2.59,4.34v61.88A2,2,0,0,1,1168.33,1375.3ZM1089,1316.64a82.69,82.69,0,0,1,12.3.84,10.09,10.09,0,0,1,7.79,5.21c3.57,6.62,1.17,19.27-7.15,37.63a7.75,7.75,0,0,0,.53,7.45,7.6,7.6,0,0,0,6.49,3.53h57.33v-59.88a8.78,8.78,0,0,1,4.7-7.87,9.07,9.07,0,0,1,9.34.49h0c6.8,4.57,13.64,7.22,20.34,7.89a16.94,16.94,0,0,0,13.21-4c6.34-5.45,10.55-16.66,11.25-30,.45-8.51-3.45-17.65-10.18-23.86-5-4.65-10.88-6.92-16.06-6.23s-11.41,3.7-18.39,8.76a9,9,0,0,1-14.21-7.25v-60.75h-61.48a9.23,9.23,0,0,1-8.4-13.1c4.24-9.22,10.3-25.64,3.24-32.06s-22-8.94-33.55-5.91c-7.11,1.86-12,5.62-13.6,10.58-2.89,8.67,1.27,19.39,5.26,26.86a9.23,9.23,0,0,1-8.15,13.61H997.48v56.11a5.83,5.83,0,0,0,3.19,5.19,5.42,5.42,0,0,0,5.72-.36c10.65-7.56,23.16-9.06,34.32-4.12,11,4.86,18.88,15,20.19,26,1.61,13.41-2.57,26.93-10.9,35.29-5.54,5.55-12.25,8.17-18.9,7.39-6.84-.81-15.22-4.13-24.9-9.88a5.75,5.75,0,0,0-8.72,4.92v62.19h60.4a7.76,7.76,0,0,0,6.59-3.65,7.59,7.59,0,0,0,.43-7.37c-1.37-2.84-4.77-6.24-8.05-9.52-5.5-5.5-10.69-10.69-10-15.94.45-3.65,2.5-6.87,6.07-9.56C1061.28,1318.93,1076.49,1316.64,1089,1316.64Z" transform="translate(-296.97 -196.88)"/></g><path class="b" d="M1309.65,427.78v769.56s-19.78,63.72,84,62.69c0,0-6.32,100.19,112.57,93.62s216.81-58.32,182.92-109.29c0,0,68.2-2.72,97.88-116.25s11.42-199.72-23.5-218.28c0,0,55.55-179.87-95.37-279.78,0,0,52-119.45-93.51-203.27,0,0-6.08-55.65-82.5-97.42-71.81-39.25-117.9-19.28-126.79,13.68C1365.32,343,1309.65,327.63,1309.65,427.78Z" transform="translate(-296.97 -196.88)"/><g class="n"><path class="o" d="M1291.62,842.1c-4,6.35-8.17,15.45-7.16,24.55,1.84,16.55,27.22,23.91,49.47,14.71,15.89-6.57,9.08-28.14,3.89-39.94a5.64,5.64,0,0,1,5.19-7.87h57.3V769a7.5,7.5,0,0,0-11-6.66,74.41,74.41,0,0,1-22.14,7.75c-17.47,2.76-34.94-16.55-33.1-34.94s19.31-32.18,37.7-31.26a27.56,27.56,0,0,1,15.85,6.32c4.84,3.85,12,.19,12-6V647.83h-60.61a4,4,0,0,1-3-6.47c29.25-34.71-29.47-68.44-44.19-45.94-11.28,17.25-3.07,36.89,2.37,46.49a4,4,0,0,1-3.43,5.92h-58.7v58.35a7.48,7.48,0,0,0,12,6c5.06-4,11.57-7.52,19.25-8.26,19.3-1.83,30.34,16.55,34.12,31.26s-13,35.86-30.45,33.1a181.53,181.53,0,0,1-26-6.45,7.5,7.5,0,0,0-9.76,7.2l.4,64.53h55.2A5.62,5.62,0,0,1,1291.62,842.1Z" transform="translate(-296.97 -196.88)"/><path class="p" d="M1313.87,887.38c-7.64,0-14.88-1.71-20.63-5.11-6.25-3.7-10.07-9.17-10.76-15.4-1.09-9.79,3.45-19.45,7.44-25.84l1.7,1.07-1.7-1.07a3.48,3.48,0,0,0,.09-3.58,3.63,3.63,0,0,0-3.21-1.9h-55.2a2,2,0,0,1-2-2l-.4-64.52a9.49,9.49,0,0,1,12.37-9.12,183.69,183.69,0,0,0,25.74,6.38c7.06,1.11,14.87-2.18,20.9-8.8s9-15.3,7.3-21.83c-3.81-14.77-14.45-31.44-32-29.76-6.24.59-12.37,3.23-18.21,7.83a9.23,9.23,0,0,1-9.83,1,9.49,9.49,0,0,1-5.41-8.6V647.83a2,2,0,0,1,2-2h58.7a1.95,1.95,0,0,0,1.69-2.93c-5.91-10.42-14.06-30.59-2.3-48.57,3.94-6,10.93-8.89,19.69-8,14.26,1.37,28.91,12,34.08,24.64,3,7.43,4.38,19-6.38,31.72a1.9,1.9,0,0,0-.26,2,1.93,1.93,0,0,0,1.77,1.14h60.61a2,2,0,0,1,2,2v56.41a9.51,9.51,0,0,1-5.44,8.62,9.2,9.2,0,0,1-9.8-1.06,25.49,25.49,0,0,0-14.71-5.89c-17.6-.86-33.92,12.61-35.61,29.46-.88,8.81,3.06,18.53,10.29,25.36,6.14,5.8,13.62,8.49,20.51,7.41a71,71,0,0,0,21.52-7.55,9.49,9.49,0,0,1,13.89,8.43v64.53a2,2,0,0,1-2,2H1343a3.64,3.64,0,0,0-3.07,1.67,3.53,3.53,0,0,0-.29,3.4c4.28,9.72,8.55,23.36,4.62,33.14a16.79,16.79,0,0,1-9.57,9.45A55,55,0,0,1,1313.87,887.38Zm-80.28-55.83h53.21a7.67,7.67,0,0,1,6.7,4,7.42,7.42,0,0,1-.19,7.65h0c-3.66,5.84-7.82,14.63-6.86,23.27.71,6.35,5.19,10.24,8.82,12.39,9.74,5.76,25,6,37.9.69a12.74,12.74,0,0,0,7.39-7.24c3.59-8.94-1.32-22.66-4.57-30a7.57,7.57,0,0,1,.6-7.2,7.65,7.65,0,0,1,6.42-3.48h55.3V769a5.49,5.49,0,0,0-8-4.88,75.33,75.33,0,0,1-22.76,8c-8.13,1.29-16.83-1.8-23.87-8.45-8.11-7.66-12.53-18.65-11.53-28.67,1.92-19.22,19.79-34.07,39.79-33.05a29.4,29.4,0,0,1,17,6.75,5.17,5.17,0,0,0,5.58.59,5.56,5.56,0,0,0,3.17-5V649.83h-58.61a5.94,5.94,0,0,1-4.57-9.75c7.5-8.9,9.49-18.46,5.74-27.63-4.65-11.41-17.88-20.94-30.76-22.18-4.17-.41-11.8-.12-16,6.25-10.6,16.21-3,34.78,2.44,44.41a6,6,0,0,1-5.17,8.9h-56.7v56.35a5.55,5.55,0,0,0,3.15,5,5.22,5.22,0,0,0,5.62-.58c6.45-5.09,13.28-8,20.3-8.68,20-1.9,32.06,16.45,36.25,32.76,2,7.79-1.22,17.81-8.21,25.51s-16.09,11.39-24.49,10.06a185.9,185.9,0,0,1-26.33-6.52,5.4,5.4,0,0,0-4.9.8,5.46,5.46,0,0,0-2.25,4.48Z" transform="translate(-296.97 -196.88)"/><path class="q" d="M1294.19,641.91c-5.44-9.6-13.65-29.24-2.37-46.49,14.72-22.5,73.44,11.23,44.19,45.94a4,4,0,0,0,3,6.47h60.61V582.55a7.5,7.5,0,0,1,10.74-6.77c7,3.36,16.69,7.18,26.69,8.61,19.3,2.76,30.77-19.31,28.26-37.7s-24.59-29.42-35.62-27.58c-5.12.86-11.93,5.33-17.76,9.89a7.51,7.51,0,0,1-12.14-5.9V459.35h-58.55a5.8,5.8,0,0,1-4.61-9.32c12.25-16.09,6.85-36.07-9.91-42.17-20.23-7.35-38.62-1.84-41.38,19.31a35,35,0,0,0,12.6,32.18h-64.23l2.32,64a7.5,7.5,0,0,1-11.62,6.53c-6.53-4.27-15.15-8.6-24.57-9.89-20.23-2.76-38.62,13.79-38.62,31.26s15.63,38.62,40.46,34a103.9,103.9,0,0,0,20.06-5.53,7.48,7.48,0,0,1,10.28,7v61.09h58.7A4,4,0,0,0,1294.19,641.91Z" transform="translate(-296.97 -196.88)"/><path class="f" d="M1399.66,650.33h-60.61a6.45,6.45,0,0,1-5-10.58c7.37-8.74,9.33-18.12,5.66-27.12-4.59-11.24-17.64-20.64-30.35-21.87-4.07-.39-11.48-.12-15.5,6-10.45,16-3,34.36,2.46,43.89h0a6.46,6.46,0,0,1-5.61,9.65h-58.7a2.5,2.5,0,0,1-2.5-2.5V586.74a5,5,0,0,0-2.22-4.17,4.85,4.85,0,0,0-4.62-.48,106.19,106.19,0,0,1-20.55,5.68c-14,2.58-23.72-2.57-29.46-7.35a39,39,0,0,1-14-29.13c0-9,4.39-18,12-24.63a37.26,37.26,0,0,1,29.41-9.11c8.3,1.14,16.91,4.59,25.61,10.27a5,5,0,0,0,7.75-4.34l-2.32-64a2.49,2.49,0,0,1,2.5-2.59h58a37.37,37.37,0,0,1-8.85-30c1.22-9.35,5.45-16.47,12.23-20.59,8.34-5.07,19.87-5.33,32.48-.75a27.15,27.15,0,0,1,17.09,17.92c2.72,9.25.52,19.5-6,28.11a3.3,3.3,0,0,0,2.62,5.31h58.55a2.5,2.5,0,0,1,2.5,2.5V523.1a5,5,0,0,0,8.1,3.93c7.81-6.1,14.16-9.6,18.89-10.38,6.79-1.13,16.6,2,24.42,7.73s12.94,13.65,14.08,22c1.67,12.18-2.51,25.62-10.39,33.46a23.71,23.71,0,0,1-20.7,7c-10.56-1.51-20.74-5.64-27.41-8.83a5,5,0,0,0-7.16,4.51v65.28A2.5,2.5,0,0,1,1399.66,650.33Zm-92.77-64.69q1.45,0,3,.15c14.43,1.38,29.26,12.11,34.5,25,3.08,7.54,4.46,19.26-6.46,32.22a1.38,1.38,0,0,0-.2,1.51,1.42,1.42,0,0,0,1.32.85h58.11V582.55a10,10,0,0,1,14.32-9c6.35,3,16,7,26,8.39a19,19,0,0,0,16.47-5.65c6.82-6.78,10.42-18.53,9-29.24-1-7-5.25-13.59-12.1-18.63-6.69-4.93-15.17-7.73-20.63-6.82-3.84.64-9.59,3.88-16.63,9.39a10,10,0,0,1-16.18-7.87V461.85h-56a8.29,8.29,0,0,1-6.6-13.33c5.59-7.34,7.49-16,5.22-23.68a22.2,22.2,0,0,0-14-14.63c-11-4-21.26-3.88-28.17.32-5.52,3.35-8.84,9.06-9.87,17a32.22,32.22,0,0,0,11.59,29.83,2.5,2.5,0,0,1-1.47,4.53h-61.63l2.22,61.45a10,10,0,0,1-15.49,8.71c-8.07-5.28-16-8.47-23.54-9.5a32.21,32.21,0,0,0-25.46,7.92c-6.56,5.72-10.32,13.33-10.32,20.86,0,9.23,4.77,19.15,12.15,25.29,4.92,4.09,13.31,8.5,25.35,6.27a101.85,101.85,0,0,0,19.58-5.39,10,10,0,0,1,13.72,9.28v58.59h56.2a1.46,1.46,0,0,0,1.26-2.18h0c-6-10.52-14.2-30.89-2.29-49.09C1293.31,588.57,1299.34,585.64,1306.89,585.64Z" transform="translate(-296.97 -196.88)"/><path class="r" d="M1286.85,997.44c-5.63-10-6.55-24.42,19.68-37,37.85-18.17,45.54,16,35.89,37.9a8.39,8.39,0,0,0,7.72,11.75h50.17V956a7.52,7.52,0,0,1,10.38-7,63.71,63.71,0,0,0,21.94,5c20.09.91,35.37-15.64,32.33-38.62s-22.6-28.5-32.13-25.74c-5,1.44-13.62,7-20.75,11.91a7.5,7.5,0,0,1-11.77-6.17V833.55H1343a5.64,5.64,0,0,0-5.19,7.87c5.19,11.8,12,33.37-3.89,39.94-22.25,9.2-47.63,1.84-49.47-14.71-1-9.1,3.18-18.2,7.16-24.55a5.62,5.62,0,0,0-4.82-8.55h-55.2l.35,56.17a8.39,8.39,0,0,0,13.17,6.82c5.22-3.5,11.56-6.54,18.2-6.9,16.55-.92,33.1,12,34.07,28.5s-11.09,37.69-29.48,36.77c-8.69-.43-17.58-5-24.55-9.64a8.37,8.37,0,0,0-13,7l.35,57.81h48.89A8.44,8.44,0,0,0,1286.85,997.44Z" transform="translate(-296.97 -196.88)"/><path class="f" d="M1400.31,1012.08h-50.17a10.42,10.42,0,0,1-8.75-4.74,10.28,10.28,0,0,1-.8-9.82c4.93-11.19,5.62-27.5-2.82-35.67-6.41-6.21-16.91-6.08-30.38.38-11.72,5.63-18.79,12-21,19.06-1.51,4.76-.76,9.87,2.21,15.17a10.48,10.48,0,0,1-.07,10.5,10.28,10.28,0,0,1-9,5.12h-48.89a2,2,0,0,1-2-2l-.35-57.81a10.37,10.37,0,0,1,16.15-8.67c8.58,5.75,16.72,9,23.54,9.31,7.85.39,13.56-3.65,17-7.1a38.25,38.25,0,0,0,10.39-27.57c-.87-14.81-16.11-27.51-32-26.62-5.36.3-11.15,2.51-17.2,6.57a10.55,10.55,0,0,1-10.81.59,10.16,10.16,0,0,1-5.47-9.06l-.35-56.17a2,2,0,0,1,.58-1.42,2,2,0,0,1,1.42-.59h55.2a7.67,7.67,0,0,1,6.7,4,7.42,7.42,0,0,1-.19,7.65c-3.66,5.84-7.82,14.63-6.86,23.27.71,6.35,5.19,10.24,8.82,12.39,9.74,5.76,25,6,37.9.69a12.74,12.74,0,0,0,7.39-7.24c3.59-8.94-1.32-22.66-4.57-30a7.57,7.57,0,0,1,.6-7.2,7.65,7.65,0,0,1,6.42-3.48h57.3a2,2,0,0,1,2,2v61.83a5.49,5.49,0,0,0,8.63,4.52c9.85-6.84,17-10.94,21.33-12.19,4.76-1.37,13.09-1.16,20.94,4,5.3,3.46,12,10.34,13.73,23.44,1.58,11.94-1.47,22.79-8.6,30.56a32.35,32.35,0,0,1-25.8,10.31,65.4,65.4,0,0,1-22.64-5.11,5.3,5.3,0,0,0-5.08.49,5.58,5.58,0,0,0-2.51,4.66v54.05A2,2,0,0,1,1400.31,1012.08Zm-74.76-58.8c7.14,0,11.91,2.69,15,5.7,9.74,9.43,9.17,27.73,3.69,40.15a6.27,6.27,0,0,0,.49,6,6.43,6.43,0,0,0,5.4,2.92h48.17V956a9.58,9.58,0,0,1,4.31-8,9.37,9.37,0,0,1,8.85-.83,61.5,61.5,0,0,0,21.26,4.8,28.36,28.36,0,0,0,22.66-9c6.32-6.88,9-16.59,7.59-27.34-1.54-11.59-7.35-17.61-12-20.61-6.28-4.11-13.38-4.7-17.64-3.47-3.82,1.1-10.8,5.13-20.16,11.63a9.49,9.49,0,0,1-14.91-7.81V835.55H1343a3.64,3.64,0,0,0-3.07,1.67,3.53,3.53,0,0,0-.29,3.4c4.28,9.72,8.55,23.36,4.62,33.14a16.79,16.79,0,0,1-9.57,9.45c-14.26,5.89-30.53,5.52-41.46-.94-6.25-3.7-10.07-9.17-10.76-15.4-1.09-9.79,3.45-19.45,7.44-25.84a3.48,3.48,0,0,0,.09-3.58,3.63,3.63,0,0,0-3.21-1.9h-53.19l.34,54.15a6.2,6.2,0,0,0,3.34,5.55,6.44,6.44,0,0,0,6.71-.38c6.66-4.46,13.12-6.89,19.21-7.23,18.25-1,35.16,13.18,36.17,30.38a41.89,41.89,0,0,1-11.54,30.62c-5.73,5.78-12.66,8.64-20,8.27-7.65-.38-16.25-3.74-25.56-10a6.37,6.37,0,0,0-9.93,5.33l.34,55.82h46.9a6.29,6.29,0,0,0,5.5-3.14,6.47,6.47,0,0,0,0-6.52h0c-3.53-6.31-4.39-12.48-2.53-18.34,2.56-8.11,10.33-15.33,23.09-21.45C1313.76,954.74,1320.3,953.28,1325.55,953.28Z" transform="translate(-296.97 -196.88)"/><path class="s" d="M1667.47,820.14c7.83-11.36,15.48-31.57-12.94-47-14.81-8-33.1,4.57-35.17,26.63-1,10.93,1.45,19,4.21,24.32a5.6,5.6,0,0,1-5,8.09H1564v60.11a7.76,7.76,0,0,1-11.64,6.7c-35.71-20.65-50.87,12.66-50.25,21,.69,9.19,5.75,37.69,26.9,37.69a51.74,51.74,0,0,0,23.68-5.92,7.77,7.77,0,0,1,11.42,6.83v51.78h52.11a8.41,8.41,0,0,1,7.88,11.39c-3,7.85-6,18.94-5,30.62,1.84,22.07,32.75,27.58,48.56,14.71,11.67-9.5,3.24-27.1-3.37-40.44a8.39,8.39,0,0,1,7.59-12H1735V949.86a6.94,6.94,0,0,1,10.58-5.93c5.76,3.54,13.22,7.39,20.68,9.15,15.63,3.67,26.74-16.55,27.62-33.1s-11.07-28.51-30.38-29.42a27.74,27.74,0,0,0-17.59,5.18A6.93,6.93,0,0,1,1735,890V828.9h-62.85A5.61,5.61,0,0,1,1667.47,820.14Z" transform="translate(-296.97 -196.88)"/><path class="f" d="M1647,1075.94a36.64,36.64,0,0,1-14.26-2.82c-9.16-3.9-14.86-11.4-15.62-20.58-1-12.31,2.22-23.92,5.12-31.51a6.25,6.25,0,0,0-.71-5.87,6.34,6.34,0,0,0-5.31-2.8h-52.11a2,2,0,0,1-2-2V958.58a5.59,5.59,0,0,0-2.72-4.88,5.87,5.87,0,0,0-5.78-.18,53.26,53.26,0,0,1-24.6,6.15c-20.48,0-27.8-24.86-28.89-39.55-.4-5.38,4.43-18.48,15.48-25.42,7.29-4.58,19.77-7.86,37.77,2.54a5.74,5.74,0,0,0,8.63-5V832.17a2,2,0,0,1,2-2h54.5a3.67,3.67,0,0,0,3.14-1.76,3.41,3.41,0,0,0,.13-3.41c-2.63-5.09-5.53-13.63-4.42-25.42,1.18-12.59,7.48-23.09,16.87-28.09a22.05,22.05,0,0,1,21.24-.12c11.48,6.23,18.37,13.88,20.49,22.72,2.53,10.57-2.33,20.62-6.85,27.19h0a3.47,3.47,0,0,0-.22,3.67,3.59,3.59,0,0,0,3.23,1.95H1735a2,2,0,0,1,2,2V890a4.93,4.93,0,0,0,7.76,4.06,29.7,29.7,0,0,1,18.83-5.54c10.53.5,19.5,4.28,25.25,10.65a28.14,28.14,0,0,1,7,20.87c-.67,12.54-6.72,25.49-14.71,31.47a18.08,18.08,0,0,1-15.37,3.47c-6.45-1.51-13.6-4.67-21.27-9.39a4.95,4.95,0,0,0-7.53,4.23v64.75a2,2,0,0,1-2,2h-63.07a6.4,6.4,0,0,0-5.48,3.06,6.12,6.12,0,0,0-.31,6.08c6.34,12.83,15.93,32.21,2.83,42.88C1663.07,1073.42,1655.08,1075.94,1647,1075.94Zm-80.89-67.58h50.11a10.46,10.46,0,0,1,8.61,4.53,10.36,10.36,0,0,1,1.14,9.57c-2.75,7.2-5.83,18.19-4.87,29.75.65,7.76,5.34,13.88,13.21,17.22,10.39,4.42,23.89,2.78,32.09-3.9,9.82-8,3.76-22.54-3.89-38a10.2,10.2,0,0,1,.5-10,10.38,10.38,0,0,1,8.88-4.95H1733V949.86a8.94,8.94,0,0,1,13.63-7.63c7.3,4.48,14.05,7.48,20.08,8.9a14,14,0,0,0,12.06-2.78c7.11-5.32,12.5-17,13.11-28.48a24.25,24.25,0,0,0-6-18c-5.11-5.65-12.88-8.88-22.48-9.34a25.74,25.74,0,0,0-16.34,4.82A8.93,8.93,0,0,1,1733,890V830.9h-60.85a7.61,7.61,0,0,1-6.31-11.89c4.06-5.9,8.45-14.85,6.26-24-1.84-7.69-8.07-14.47-18.51-20.14a17.92,17.92,0,0,0-17.45.14c-8.19,4.37-13.71,13.69-14.77,24.93-1,10.83,1.61,18.6,4,23.22a7.42,7.42,0,0,1-.28,7.32,7.62,7.62,0,0,1-6.55,3.68H1566v58.11a9.76,9.76,0,0,1-14.64,8.43c-13.06-7.55-24.38-8.43-33.63-2.62-10.09,6.33-13.88,18.27-13.62,21.74.11,1.46,2.93,35.84,24.9,35.84a49.39,49.39,0,0,0,22.77-5.7,9.82,9.82,0,0,1,9.69.32,9.62,9.62,0,0,1,4.64,8.29Zm101.34-188.22h0Z" transform="translate(-296.97 -196.88)"/><path class="t" d="M1457.81,825c-4-6.31-7.31-16.11-3.71-29.55,6.89-25.75,30.34-24.37,41.83-19.31,9.68,4.26,21,29.39,8.11,47.1a5.62,5.62,0,0,0,4.48,9H1564V767.1a7.72,7.72,0,0,1,11.15-7,62.63,62.63,0,0,0,22.81,6.28c22.07,1.84,32.53-17.46,31.44-36.77-1-16.75-25.28-37.64-51.52-19.5a7.74,7.74,0,0,1-12.1-6.4V646.32h-68c21.14,17.79,15.63,43.8-5.52,53.92s-40.45,1.84-42.29-21.15c-1-11.84,3.25-19.77,7.55-24.68a4,4,0,0,0-3-6.58h-54.9v56.41c0,6.18-7.16,9.84-12,6a27.56,27.56,0,0,0-15.85-6.32c-18.39-.92-35.86,12.88-37.7,31.26s15.63,37.7,33.1,34.94a74.41,74.41,0,0,0,22.14-7.75,7.5,7.5,0,0,1,11,6.66v64.53h52.75A5.6,5.6,0,0,0,1457.81,825Z" transform="translate(-296.97 -196.88)"/><path class="f" d="M1453.06,835.55h-52.75a2,2,0,0,1-2-2V769a5.49,5.49,0,0,0-8-4.88,75.33,75.33,0,0,1-22.76,8c-8.13,1.29-16.83-1.8-23.87-8.45-8.11-7.66-12.53-18.65-11.53-28.67,1.92-19.22,19.78-34.07,39.79-33.05a29.4,29.4,0,0,1,17,6.75,5.17,5.17,0,0,0,5.58.59,5.56,5.56,0,0,0,3.17-5V647.83a2,2,0,0,1,2-2h54.9a5.94,5.94,0,0,1,4.45,9.89c-3.72,4.27-8,11.75-7.06,23.21.77,9.64,4.7,16.76,11.37,20.6,7.43,4.28,17.66,3.88,28.07-1.1,9.75-4.66,16.31-13.19,17.53-22.82,1.29-10.07-3.13-19.93-12.44-27.76a2,2,0,0,1,1.29-3.53h68a2,2,0,0,1,2,2v57.44a5.67,5.67,0,0,0,3.1,5.1,5.58,5.58,0,0,0,5.86-.34c16-11.08,29.59-7.26,36.26-4,10.28,5,17.84,15.31,18.39,25,.71,12.42-3.23,24.07-10.52,31.17-6,5.81-14,8.48-23.07,7.72a64.31,64.31,0,0,1-23.54-6.5,5.68,5.68,0,0,0-5.53.26,5.74,5.74,0,0,0-2.73,4.91v65.07a2,2,0,0,1-2,2h-55.5a7.52,7.52,0,0,1-6.75-4.13,7.65,7.65,0,0,1,.65-8c7.21-9.91,5.65-21.14,4.08-26.95-2.44-9.05-7.57-15.48-11.38-17.15-6.25-2.75-16.64-4.47-25.39-.28-6.71,3.22-11.32,9.37-13.7,18.27-3.5,13.07,0,22.42,3.47,28h0a7.6,7.6,0,0,1-6.44,11.67Zm-50.75-4h50.75a3.6,3.6,0,0,0,3.06-5.53c-3.94-6.22-7.83-16.68-4-31.14,2.7-10.09,8-17.1,15.84-20.85,10-4.78,21.71-2.86,28.73.23,5.63,2.47,11.11,10.42,13.63,19.77,1.76,6.5,3.48,19.09-4.7,30.34a3.63,3.63,0,0,0-.33,3.86,3.51,3.51,0,0,0,3.19,1.94H1562V767.1a9.73,9.73,0,0,1,14-8.74,60.36,60.36,0,0,0,22.08,6.08c8,.67,14.77-1.55,19.95-6.6,6.47-6.3,10-16.79,9.32-28.07-.47-8.33-7.11-17.24-16.16-21.66-5.88-2.87-17.89-6.22-32.22,3.69a9.52,9.52,0,0,1-10,.61,9.76,9.76,0,0,1-5.24-8.65V648.32h-61c7.69,8.07,11.33,18,10.08,27.79-1.4,11-8.79,20.68-19.78,25.93-11.61,5.56-23.2,5.91-31.78,1-7.75-4.46-12.5-12.9-13.37-23.75-1-12.85,3.81-21.32,8-26.16a2,2,0,0,0,.33-2.13,1.89,1.89,0,0,0-1.77-1.13h-52.9v54.41a9.51,9.51,0,0,1-5.44,8.62,9.2,9.2,0,0,1-9.8-1.06,25.49,25.49,0,0,0-14.71-5.89c-17.6-.86-33.92,12.61-35.61,29.46-.88,8.81,3.06,18.53,10.29,25.36,6.14,5.8,13.62,8.49,20.51,7.41a71,71,0,0,0,21.52-7.55,9.49,9.49,0,0,1,13.89,8.43Z" transform="translate(-296.97 -196.88)"/><path class="u" d="M1664.32,1026.64c6.61,13.34,15,30.94,3.37,40.44-15.81,12.87-46.72,7.36-48.56-14.71-1-11.68,2-22.77,5-30.62a8.41,8.41,0,0,0-7.88-11.39h-52.11v63.95a7.75,7.75,0,0,1-11.59,6.72c-24-13.48-53.32-11.46-50.18,30.18,2.66,35.12,32.52,27.26,49,20.13a7.75,7.75,0,0,1,10.77,7.15v59.63h54.17a7.23,7.23,0,0,0,6.39-10.66c-4.29-8-8.49-19.17-5.4-28.44,5.52-16.55,38.27-16.55,50.4-5.51,7.8,7.1,2.2,23.55-2.78,34.37a7.24,7.24,0,0,0,6.59,10.27H1735v-58.31a7,7,0,0,1,10.5-6,49.88,49.88,0,0,0,22.6,6.78c20.22.92,25.82-29.43,25.78-42.3,0-11.59-16.44-37.34-47.9-15.51a7,7,0,0,1-11-5.66v-62.56h-63.07A8.39,8.39,0,0,0,1664.32,1026.64Z" transform="translate(-296.97 -196.88)"/><path class="f" d="M1735,1200.15H1671.5a9.24,9.24,0,0,1-8.4-13.11c4.24-9.21,10.3-25.63,3.24-32-6.91-6.29-21.95-8.94-33.55-5.91-7.12,1.86-12,5.61-13.6,10.58-2.89,8.67,1.27,19.39,5.26,26.85a9.23,9.23,0,0,1-8.15,13.61h-54.17a2,2,0,0,1-2-2v-59.63a5.77,5.77,0,0,0-2.61-4.83,5.55,5.55,0,0,0-5.36-.48c-11.77,5.09-28.18,9.71-39.59,2.82-7.19-4.34-11.29-12.63-12.2-24.63-1.66-22,5.8-31.65,12.35-35.82,10-6.38,25.28-5,40.8,3.74a5.76,5.76,0,0,0,5.79,0,5.65,5.65,0,0,0,2.82-4.94v-63.95a2,2,0,0,1,2-2h52.11a10.46,10.46,0,0,1,8.61,4.53,10.36,10.36,0,0,1,1.14,9.57c-2.75,7.2-5.83,18.19-4.87,29.75.65,7.76,5.34,13.88,13.21,17.22,10.39,4.42,23.89,2.78,32.09-3.9,9.82-8,3.76-22.54-3.89-38a10.2,10.2,0,0,1,.5-10,10.38,10.38,0,0,1,8.88-4.95H1735a2,2,0,0,1,2,2v62.56a4.83,4.83,0,0,0,2.63,4.36,5,5,0,0,0,5.21-.34c16.82-11.67,28.83-9.7,35.94-6,9.42,4.91,15.08,15.62,15.1,23.14,0,9-2.66,28.66-13,38.59a19.54,19.54,0,0,1-14.86,5.7,51.29,51.29,0,0,1-23.5-7,5,5,0,0,0-5,0,4.86,4.86,0,0,0-2.45,4.27v58.31A2,2,0,0,1,1735,1200.15Zm-91.83-56.33c10,0,20.17,3,25.88,8.21,8.5,7.73,3.44,24.22-2.3,36.69a5.24,5.24,0,0,0,4.77,7.43H1733v-56.31a8.84,8.84,0,0,1,4.44-7.73,9,9,0,0,1,9.06,0,47.4,47.4,0,0,0,21.69,6.52,15.67,15.67,0,0,0,11.9-4.6c8.7-8.34,11.82-25.91,11.79-35.69,0-5.19-4.14-15-12.95-19.6s-19.8-2.61-31.8,5.73a9,9,0,0,1-9.36.6,8.78,8.78,0,0,1-4.77-7.91v-60.56h-61.07a6.4,6.4,0,0,0-5.48,3.06,6.12,6.12,0,0,0-.31,6.08h0c6.34,12.83,15.93,32.21,2.83,42.88-9.44,7.69-24.32,9.53-36.19,4.49-9.16-3.9-14.86-11.4-15.62-20.58-1-12.31,2.22-23.92,5.12-31.51a6.25,6.25,0,0,0-.71-5.87,6.34,6.34,0,0,0-5.31-2.8h-50.11v61.95a9.63,9.63,0,0,1-4.8,8.4,9.75,9.75,0,0,1-9.77.07c-14-7.88-28.06-9.35-36.69-3.85-8.07,5.14-11.71,16.25-10.51,32.13.8,10.64,4.26,17.88,10.28,21.52,10.47,6.32,27,.79,35.93-3.07a9.66,9.66,0,0,1,9.14.8,9.76,9.76,0,0,1,4.42,8.18v57.63h52.17a5.24,5.24,0,0,0,4.63-7.72c-4.37-8.16-8.88-20-5.54-30,2.1-6.29,7.92-11,16.39-13.18A45.46,45.46,0,0,1,1643.15,1143.82Z" transform="translate(-296.97 -196.88)"/><path class="v" d="M1551.36,1131.34c-16.48,7.13-46.34,15-49-20.13-3.14-41.64,26.19-43.66,50.18-30.18a7.75,7.75,0,0,0,11.59-6.72v-63.95h-54.07a8.43,8.43,0,0,1-7.17-12.82c4.61-7.72,7.31-17.65-.78-26.08-15.88-16.55-55.61-20.88-50.31,11.23a50.14,50.14,0,0,0,5.13,15,8.42,8.42,0,0,1-7.44,12.37h-49.18v67a7.5,7.5,0,0,0,12.2,5.84c6-4.73,13.32-9.56,20.12-11.24,14.86-3.68,29.28,10.11,32,29.42s-14.71,40.46-32.18,40.46c-7.88,0-15.2-2.94-20.86-6.17a7.52,7.52,0,0,0-11.32,6.46V1205h54a7.24,7.24,0,0,1,6.71,10c-6.17,15.53-12.59,43.87,22,45.2,38.71,1.49,35.23-30.14,19.81-50.3a7.26,7.26,0,0,1,5.69-11.74h53.57v-59.63A7.75,7.75,0,0,0,1551.36,1131.34Z" transform="translate(-296.97 -196.88)"/><path class="f" d="M1485.62,1262.21c-.85,0-1.73,0-2.64,0-12.12-.47-20.56-4.22-25.08-11.17-6.85-10.52-3.09-25.8,1.27-36.77a5.24,5.24,0,0,0-.53-4.94,5.18,5.18,0,0,0-4.33-2.29h-54a2,2,0,0,1-2-2v-63.14a9.36,9.36,0,0,1,4.69-8.18,9.56,9.56,0,0,1,9.63,0c6.87,3.91,13.55,5.9,19.86,5.9,7.33,0,15-4.06,21.19-11.14,6.92-8,10.29-18.08,9-27-1.51-10.54-6.76-19.77-14.06-24.69a19,19,0,0,0-15.52-3.07c-5.38,1.33-12.07,5.09-19.36,10.87a9.5,9.5,0,0,1-15.44-7.41v-67a2,2,0,0,1,2-2h49.18A6.35,6.35,0,0,0,1455,1005a6.44,6.44,0,0,0,.19-6.36,52,52,0,0,1-5.34-15.63c-1.86-11.27,1.54-19.69,9.58-23.71,11.95-6,33-.85,44.15,10.78,7.28,7.58,7.65,17.43,1.06,28.48a6.48,6.48,0,0,0-.09,6.59,6.29,6.29,0,0,0,5.54,3.21h54.07a2,2,0,0,1,2,2v63.95a9.63,9.63,0,0,1-4.8,8.4,9.75,9.75,0,0,1-9.77.07c-14-7.88-28.06-9.35-36.69-3.85-8.07,5.14-11.71,16.25-10.51,32.13.8,10.64,4.26,17.88,10.28,21.52,10.47,6.32,27,.79,35.93-3.07h0a9.66,9.66,0,0,1,9.14.8,9.76,9.76,0,0,1,4.42,8.18v59.63a2,2,0,0,1-2,2h-53.57a5.09,5.09,0,0,0-4.67,2.89,5.27,5.27,0,0,0,.57,5.64c8.86,11.58,15,28.69,8.71,40.79C1510.11,1255.36,1502.84,1262.21,1485.62,1262.21ZM1402.31,1203h52a9.25,9.25,0,0,1,8.57,12.71c-3.28,8.26-7.86,23.54-1.63,33.11,3.77,5.79,11.13,8.94,21.88,9.35,13.49.53,22.64-3.13,26.49-10.56,5.47-10.54-.25-25.94-8.34-36.52a9.32,9.32,0,0,1-1-9.84,9.14,9.14,0,0,1,8.26-5.12h51.57v-57.63a5.77,5.77,0,0,0-2.61-4.83,5.55,5.55,0,0,0-5.36-.48h0c-11.77,5.09-28.18,9.71-39.59,2.82-7.19-4.34-11.29-12.63-12.2-24.63-1.66-22,5.8-31.65,12.35-35.82,10-6.38,25.28-5,40.8,3.74a5.76,5.76,0,0,0,5.79,0,5.65,5.65,0,0,0,2.82-4.94v-61.95h-52.07a10.25,10.25,0,0,1-9-5.23,10.44,10.44,0,0,1,.14-10.62c5.64-9.47,5.47-17.43-.51-23.66-9.91-10.33-29.1-15.17-39.48-10-6.43,3.21-9,10-7.42,19.48a48,48,0,0,0,4.93,14.42,10.41,10.41,0,0,1-.31,10.29,10.3,10.3,0,0,1-8.9,5h-47.18v65a5.37,5.37,0,0,0,3.09,4.94,5.46,5.46,0,0,0,5.87-.66c7.84-6.22,14.87-10.13,20.88-11.62a23,23,0,0,1,18.72,3.63c8.22,5.54,14.11,15.8,15.78,27.45,1.44,10.08-2.28,21.38-10,30.22-6.89,8-15.72,12.52-24.21,12.52-7,0-14.36-2.17-21.85-6.43a5.61,5.61,0,0,0-5.63,0,5.4,5.4,0,0,0-2.7,4.72Zm149-71.65h0Z" transform="translate(-296.97 -196.88)"/><path class="w" d="M1834,837.53c6.26,9.91,13.16,26.33.5,38.08-19.3,17.93-47.58,7.59-51-13.1a33.68,33.68,0,0,1,5.73-24.76,5.63,5.63,0,0,0-4.59-8.85H1735V890a6.93,6.93,0,0,0,10.91,5.7,27.74,27.74,0,0,1,17.59-5.18c19.31.91,31.26,12.87,30.38,29.42s-12,36.77-27.62,33.1c-7.46-1.76-14.92-5.61-20.68-9.15a6.94,6.94,0,0,0-10.58,5.93v64.75h46.89a8.41,8.41,0,0,0,7.27-12.66c-3.57-6-5.72-14.32-2.68-25,7.36-25.74,36.78-22.07,51.49-5.52,8.15,9.17,4.16,21.41-1,30.51a8.42,8.42,0,0,0,7.28,12.64h54v-64.2a6,6,0,0,0-8.61-5.37c-7.14,3.54-18,7.9-29.53,9-20.23,1.83-24-23.91-24.85-40.46-.81-14.95,23.88-38.16,53.4-16a6,6,0,0,0,9.6-4.76V828.9h-59.42A5.62,5.62,0,0,0,1834,837.53Z" transform="translate(-296.97 -196.88)"/><path class="f" d="M1898.16,1017.11h-54a10.92,10.92,0,0,1-9.46-16.37c4.61-8.1,8.58-19.46,1.33-27.62-8.2-9.22-21.12-14-31.41-11.67-7.82,1.78-13.28,7.39-15.8,16.22-2.42,8.45-1.6,16.19,2.42,23a10.91,10.91,0,0,1-9.42,16.43H1735a2.5,2.5,0,0,1-2.5-2.5V949.86a9.44,9.44,0,0,1,14.39-8.06c7.15,4.4,14,7.45,19.94,8.84a13.51,13.51,0,0,0,11.64-2.69c7-5.24,12.31-16.8,12.91-28.11a23.7,23.7,0,0,0-5.88-17.61c-4.94-5.48-12.8-8.73-22.12-9.18a25.23,25.23,0,0,0-16,4.73,9.43,9.43,0,0,1-14.85-7.74V828.9a2.5,2.5,0,0,1,2.5-2.5h49.64a8,8,0,0,1,7.14,4.28,8.24,8.24,0,0,1-.47,8.47c-4.88,7.22-6.68,15-5.35,23,1.42,8.5,7.82,15.67,16.7,18.69,10.36,3.54,21.63.92,30.16-7,11-10.22,5.58-24.63-.91-34.92h0a8.11,8.11,0,0,1,6.86-12.46h59.42a2.5,2.5,0,0,1,2.5,2.5v63.83a8.48,8.48,0,0,1-13.6,6.76c-16.68-12.49-29.77-8.69-36.08-5.31-9.07,4.85-13.63,13.52-13.32,19.23,1,17.69,4.58,29.38,10.77,34.73a14.5,14.5,0,0,0,11.35,3.37c11.23-1,21.78-5.3,28.65-8.71a8.47,8.47,0,0,1,12.22,7.61v64.2A2.5,2.5,0,0,1,1898.16,1017.11ZM1810,955.87c10.54,0,22.08,5.23,29.82,13.93,7.3,8.21,7,19.76-.72,33.41a5.93,5.93,0,0,0,0,6,5.85,5.85,0,0,0,5.1,2.93h51.45v-61.7a3.42,3.42,0,0,0-1.65-3,3.37,3.37,0,0,0-3.35-.16c-7.25,3.59-18.42,8.11-30.42,9.2a19.49,19.49,0,0,1-15.08-4.56c-7.35-6.36-11.43-18.87-12.48-38.24-.47-8.66,6.23-18.72,16-23.91,12.53-6.7,27.63-4.62,41.44,5.72a3.48,3.48,0,0,0,3.69.34,3.4,3.4,0,0,0,1.91-3.1V831.4h-56.92A3,3,0,0,0,1836,833a3.08,3.08,0,0,0,.1,3.18h0c10.6,16.81,10.63,31.46.08,41.26-9.9,9.19-23,12.21-35.17,8.08-10.63-3.63-18.3-12.29-20-22.61a36.19,36.19,0,0,1,6.13-26.57,3.18,3.18,0,0,0,.2-3.32,3,3,0,0,0-2.72-1.63h-47.14V890a4.44,4.44,0,0,0,7,3.65,30.09,30.09,0,0,1,19.14-5.63c10.66.51,19.75,4.35,25.59,10.81a28.65,28.65,0,0,1,7.17,21.24c-.68,12.68-6.81,25.77-14.91,31.84a18.6,18.6,0,0,1-15.79,3.56c-6.5-1.53-13.7-4.71-21.41-9.45a4.44,4.44,0,0,0-6.77,3.8v62.25h44.39a5.88,5.88,0,0,0,5.15-3,5.8,5.8,0,0,0,0-5.9c-4.74-8-5.73-17.1-2.92-26.93,3-10.53,9.94-17.54,19.5-19.72A29.09,29.09,0,0,1,1810,955.87Z" transform="translate(-296.97 -196.88)"/><path class="x" d="M1840,1208.48c6.14,13,5.81,34.08-2.07,40.65-11,9.19-55.58,14.46-55.16-14.71.16-11.47,3.18-19.52,6.78-25.07a7.24,7.24,0,0,0-6.07-11.2H1735v62.74a6.94,6.94,0,0,0,11,5.63c5.7-4.12,12.81-8.25,19.31-9.12,13.79-1.84,29.42,14.71,28.5,32.18s-8.28,37.7-26.66,35.86c-8.31-.83-15.68-4.48-21.26-8.22a7,7,0,0,0-10.92,5.71v61.88h51.48s-25.4,48.2,7.53,51.88c30,3.35,49.38-1.22,39.41-39.65a9.75,9.75,0,0,1,9.41-12.23H1894v-61.9a6,6,0,0,0-8.25-5.54,86.78,86.78,0,0,1-23,6.23c-16.55,1.84-26.67-11.95-27.59-34-.83-20,22.5-31.69,50.15-18a6,6,0,0,0,8.7-5.26v-68.21H1846.8A7.35,7.35,0,0,0,1840,1208.48Z" transform="translate(-296.97 -196.88)"/><path class="p" d="M1808,1440.1a130,130,0,0,1-14.31-.93c-7.92-.88-13.47-4.24-16.51-10-6.73-12.7,1.42-33.48,5.27-41.89H1735a2.5,2.5,0,0,1-2.5-2.5v-61.88a9.28,9.28,0,0,1,5-8.31,9.57,9.57,0,0,1,9.84.52c6.74,4.52,13.51,7.15,20.11,7.81a16.46,16.46,0,0,0,12.85-3.86c6.24-5.36,10.38-16.44,11.07-29.64.44-8.37-3.4-17.36-10-23.47-4.92-4.55-10.63-6.78-15.65-6.1s-11.25,3.66-18.17,8.67a9.45,9.45,0,0,1-15-7.66v-62.74a2.5,2.5,0,0,1,2.5-2.5h48.52a9.74,9.74,0,0,1,8.16,15.06c-4.09,6.32-6.24,14.31-6.37,23.74-.11,7.68,3.22,13.19,9.92,16.38,12.69,6.06,34.29,2.08,41.14-3.62,6.56-5.47,7.29-25.18,1.41-37.67h0a9.57,9.57,0,0,1,.61-9.24,10,10,0,0,1,8.43-4.65H1894a2.5,2.5,0,0,1,2.5,2.5v68.21a8.33,8.33,0,0,1-4,7.13,8.54,8.54,0,0,1-8.35.36c-14.21-7-28.32-7.61-37.74-1.49a18.76,18.76,0,0,0-8.8,17.12c.52,12.51,4.14,22.27,10.19,27.46,4,3.41,8.89,4.8,14.62,4.18a85.25,85.25,0,0,0,22.34-6.06,8.47,8.47,0,0,1,11.7,7.85v61.9a2.5,2.5,0,0,1-2.5,2.5h-51.23a7.25,7.25,0,0,0-7,9.1c4.34,16.72,3.47,28.28-2.64,35.34C1827.55,1438.24,1818.15,1440.1,1808,1440.1Zm-70.54-57.79h49a2.51,2.51,0,0,1,2.22,3.67c-.15.27-14.24,27.35-7.06,40.88,2.25,4.24,6.38,6.64,12.65,7.34,19,2.13,29.85.36,35.13-5.73,5-5.72,5.47-15.79,1.58-30.8a12.25,12.25,0,0,1,11.83-15.36h48.73v-59.4A3.45,3.45,0,0,0,1890,1320a3.38,3.38,0,0,0-3.23-.32,89.82,89.82,0,0,1-23.7,6.4,23.49,23.49,0,0,1-18.43-5.35c-7.21-6.19-11.34-16.93-11.93-31a24,24,0,0,1,11.07-21.53c10.92-7.08,26.88-6.63,42.69,1.22a3.6,3.6,0,0,0,3.5-.14,3.33,3.33,0,0,0,1.59-2.88v-65.71H1846.8a5,5,0,0,0-4.21,2.33,4.53,4.53,0,0,0-.31,4.43c6.34,13.46,6.53,35.92-2.73,43.64-8,6.62-31.49,11.45-46.49,4.3-8.5-4-12.91-11.31-12.77-21,.15-10.39,2.56-19.27,7.18-26.39a4.74,4.74,0,0,0-4-7.34h-46v60.24a4.45,4.45,0,0,0,7.07,3.61c7.7-5.57,14.57-8.8,20.44-9.58,6.5-.86,13.68,1.83,19.7,7.39,7.69,7.09,12.14,17.59,11.63,27.4-.37,7-2.36,24.19-12.82,33.17a21.28,21.28,0,0,1-16.59,5c-7.44-.75-15-3.65-22.4-8.64a4.54,4.54,0,0,0-4.71-.26,4.37,4.37,0,0,0-2.32,3.9Z" transform="translate(-296.97 -196.88)"/><path class="y" d="M1836.93,1002c5.18-9.1,9.17-21.34,1-30.51-14.71-16.55-44.13-20.22-51.49,5.52-3,10.65-.89,18.93,2.68,25a8.41,8.41,0,0,1-7.27,12.66H1735v62.56a7,7,0,0,0,11,5.66c31.46-21.83,47.86,3.92,47.9,15.51,0,12.87-5.56,43.22-25.78,42.3a49.88,49.88,0,0,1-22.6-6.78,7,7,0,0,0-10.5,6v58.31h48.52a7.24,7.24,0,0,1,6.07,11.2c-3.6,5.55-6.62,13.6-6.78,25.07-.42,29.17,44.13,23.9,55.16,14.71,7.88-6.57,8.21-27.63,2.07-40.65a7.35,7.35,0,0,1,6.78-10.33H1894v-63.81a6,6,0,0,1,9-5.14c8.13,4.83,20.68,10.89,33.24,11.44,21.14.92,23.9-23,24.82-41.38.81-16.24-29.23-35.35-53.67-19.32a6,6,0,0,1-9.32-5v-60.38h-54A8.42,8.42,0,0,1,1836.93,1002Z" transform="translate(-296.97 -196.88)"/><path class="f" d="M1811,1258.41a41.73,41.73,0,0,1-17.72-3.51c-8.3-4-12.62-11.06-12.48-20.51.14-10.3,2.53-19.09,7.1-26.13a5.24,5.24,0,0,0-4.39-8.11H1735a2,2,0,0,1-2-2v-58.31a8.84,8.84,0,0,1,4.44-7.73,9,9,0,0,1,9.06,0,47.4,47.4,0,0,0,21.69,6.52,15.67,15.67,0,0,0,11.9-4.6c8.7-8.34,11.82-25.91,11.79-35.69,0-5.19-4.14-15-12.95-19.6s-19.8-2.61-31.8,5.73a9,9,0,0,1-9.36.6,8.78,8.78,0,0,1-4.77-7.91v-62.56a2,2,0,0,1,2-2h46.89a6.37,6.37,0,0,0,5.59-3.25,6.3,6.3,0,0,0,0-6.39c-4.67-7.92-5.64-16.85-2.87-26.54,3-10.35,9.75-17.23,19.13-19.37,11.83-2.7,26.54,2.68,35.78,13.07,7.14,8,6.87,19.39-.79,32.83a6.43,6.43,0,0,0,0,6.47,6.33,6.33,0,0,0,5.53,3.18h54a2,2,0,0,1,2,2V1075a3.88,3.88,0,0,0,2.06,3.47,4,4,0,0,0,4.16-.19c14.81-9.72,31.18-6.82,41.55-.88,9.64,5.52,15.61,14.14,15.22,22-.71,14.14-2.17,43.3-25.63,43.3l-1.28,0c-12.9-.56-25.7-6.67-34.17-11.71a4,4,0,0,0-4,0,3.94,3.94,0,0,0-2,3.46v63.81a2,2,0,0,1-2,2H1846.8a5.48,5.48,0,0,0-4.63,2.56,5,5,0,0,0-.34,4.92c6.26,13.29,6.5,35.45-2.6,43C1834.14,1254.91,1822.55,1258.41,1811,1258.41Zm-74-62.26h46.52a9.24,9.24,0,0,1,7.74,14.29c-4.14,6.4-6.32,14.47-6.45,24-.12,7.89,3.32,13.56,10.2,16.85,12.85,6.12,34.74,2.08,41.68-3.7s7.62-25.35,1.54-38.26a9.06,9.06,0,0,1,.58-8.76,9.45,9.45,0,0,1,8-4.42H1892v-61.81a8,8,0,0,1,12.07-6.86c8.07,4.8,20.23,10.63,32.31,11.16,18.21.79,21.69-18.51,22.74-39.48.31-6.34-4.87-13.52-13.22-18.3-12.1-6.93-26.07-6.65-37.36.75a8.08,8.08,0,0,1-8.26.37,7.84,7.84,0,0,1-4.16-7v-58.38h-52a10.42,10.42,0,0,1-9-15.63h0c4.69-8.23,8.71-19.81,1.27-28.19-8.32-9.35-21.43-14.21-31.9-11.83-8,1.82-13.6,7.55-16.17,16.57-2.46,8.59-1.63,16.46,2.47,23.41a10.4,10.4,0,0,1-9,15.67H1737v60.56a4.83,4.83,0,0,0,2.63,4.36,5,5,0,0,0,5.21-.34c16.82-11.67,28.83-9.7,35.94-6,9.42,4.91,15.08,15.62,15.1,23.14,0,9-2.66,28.66-13,38.59a19.54,19.54,0,0,1-14.86,5.7,51.29,51.29,0,0,1-23.5-7,5,5,0,0,0-5,0,4.86,4.86,0,0,0-2.45,4.27Z" transform="translate(-296.97 -196.88)"/><path class="z" d="M1573.87,1314c7.06,4.2,16.18,8.69,24.11,9.62,15.63,1.84,30.34-17.47,27.59-40.45-2.35-19.54-27.94-37.09-51.38-20.45-5,3.58-12.06-.27-12.06-6.47v-58.11h-53.57a7.26,7.26,0,0,0-5.69,11.74c15.42,20.16,18.9,51.79-19.81,50.3-34.63-1.33-28.21-29.67-22-45.2a7.24,7.24,0,0,0-6.71-10h-54v57.5a7.49,7.49,0,0,0,11.73,6.19c6.19-4.26,13.85-8.57,20.45-9.45,13.79-1.84,32.18,9.19,32.18,27.58s-5.52,35.86-28.5,34a68.72,68.72,0,0,1-25-6.78,7.5,7.5,0,0,0-10.88,6.69v64.06h49.13a9.72,9.72,0,0,0,9-13.53,61.36,61.36,0,0,1-4.85-16.4c-1.83-14.71,19.37-24.75,36.84-23.36,13.76,1.09,29.76,21.87,22.4,40.12a9.7,9.7,0,0,0,9.12,13.17h40.2v-64.18A7.75,7.75,0,0,1,1573.87,1314Z" transform="translate(-296.97 -196.88)"/><path class="f" d="M1562.13,1386.81h-40.2a11.82,11.82,0,0,1-9.81-5.22,11.31,11.31,0,0,1-1.17-10.69c3-7.57,2-16.48-3-24.45-4.56-7.37-11.51-12.45-17.73-12.94-11.29-.89-24.13,3.31-30.52,10-3.26,3.42-4.67,7.16-4.17,11.13a58.45,58.45,0,0,0,4.69,15.85,11.54,11.54,0,0,1-.94,11,11.78,11.78,0,0,1-9.87,5.34h-49.13a2,2,0,0,1-2-2v-64.06a9.4,9.4,0,0,1,4.46-8,9.53,9.53,0,0,1,9.31-.45,66.43,66.43,0,0,0,24.25,6.59c7.72.61,13.79-1.06,18-5,5.51-5.08,8.3-14.18,8.3-27a24.47,24.47,0,0,0-8.65-18.57c-5.94-5.2-14.29-8-21.27-7-5.13.69-11.9,3.84-19.57,9.12a9.49,9.49,0,0,1-14.87-7.84V1205a2,2,0,0,1,2-2h54a9.25,9.25,0,0,1,8.57,12.71c-3.28,8.26-7.86,23.54-1.63,33.11,3.77,5.79,11.13,8.94,21.88,9.35,13.49.53,22.64-3.13,26.49-10.56,5.47-10.54-.25-25.94-8.34-36.52a9.32,9.32,0,0,1-1-9.84,9.14,9.14,0,0,1,8.26-5.12h53.57a2,2,0,0,1,2,2v58.11a5.84,5.84,0,0,0,3.19,5.2,5.4,5.4,0,0,0,5.71-.37c10.66-7.56,23.17-9,34.33-4.11,11,4.85,18.88,15,20.19,26,1.61,13.41-2.57,26.93-10.9,35.28-5.54,5.55-12.25,8.18-18.9,7.4-6.84-.81-15.22-4.14-24.9-9.89h0a5.74,5.74,0,0,0-5.83-.06,5.68,5.68,0,0,0-2.89,5v64.18A2,2,0,0,1,1562.13,1386.81Zm-75-57.42c1.16,0,2.32,0,3.46.13,7.44.59,15.61,6.41,20.82,14.82,5.61,9.07,6.8,19.29,3.27,28.05a7.37,7.37,0,0,0,.77,7,7.83,7.83,0,0,0,6.5,3.46h38.2v-62.18a9.75,9.75,0,0,1,14.76-8.37h0c9.07,5.39,17.13,8.62,23.33,9.35,5.4.64,10.94-1.58,15.6-6.24,7.49-7.51,11.23-19.76,9.76-32-1.14-9.54-8.15-18.48-17.84-22.77-5.78-2.57-17.42-5.49-30.39,3.72a9.35,9.35,0,0,1-9.87.65,9.82,9.82,0,0,1-5.35-8.75v-56.11h-51.57a5.09,5.09,0,0,0-4.67,2.89,5.27,5.27,0,0,0,.57,5.64c8.86,11.58,15,28.69,8.71,40.79-3.22,6.21-11.07,13.46-30.19,12.72-12.12-.47-20.56-4.23-25.08-11.17-6.85-10.52-3.09-25.8,1.27-36.77a5.24,5.24,0,0,0-.53-4.94,5.18,5.18,0,0,0-4.33-2.29h-52v55.51a5.49,5.49,0,0,0,8.6,4.54c8.3-5.71,15.48-9,21.31-9.78,8.21-1.1,17.56,2,24.44,8a28.44,28.44,0,0,1,10,21.58c0,14-3.23,24.12-9.59,30-5.1,4.71-12.19,6.74-21.07,6a70.48,70.48,0,0,1-25.7-7,5.58,5.58,0,0,0-5.43.25,5.38,5.38,0,0,0-2.57,4.65v62.06h47.13a7.77,7.77,0,0,0,6.52-3.53,7.47,7.47,0,0,0,.63-7.2,62.21,62.21,0,0,1-5-17c-.64-5.14,1.17-10.11,5.25-14.38C1463.44,1333.83,1475.51,1329.39,1487.11,1329.39Z" transform="translate(-296.97 -196.88)"/><path class="aa" d="M1411.19,1314.06a68.72,68.72,0,0,0,25,6.78c23,1.84,28.5-15.63,28.5-34s-18.39-29.42-32.18-27.58c-6.6.88-14.26,5.19-20.45,9.45a7.49,7.49,0,0,1-11.73-6.19V1205h-55a7.22,7.22,0,0,1-6.26-10.89c3.37-5.56,6.12-13.8,6.12-25.89,0-31.26-36.77-44.13-47.16-18.39-6.88,17.07-4.64,35.76-2.34,46.41a7.24,7.24,0,0,1-7.09,8.76h-58.33v55.76a8.36,8.36,0,0,0,12.85,7.08c6.88-4.41,15.08-9.08,20.73-10.44,11.52-2.76,32.62,10.12,33.54,32.18s-10.12,31.26-32.18,33.1a38.36,38.36,0,0,1-22.53-5.1,8.38,8.38,0,0,0-12.41,7.4v59.83h53.34a9.73,9.73,0,0,0,9.3-12.63c-4.61-14.86-6.74-37.84,22.86-40.31,36.31-3,35,17.84,25.36,39.25a9.72,9.72,0,0,0,8.9,13.69h50.33v-64.06A7.5,7.5,0,0,1,1411.19,1314.06Z" transform="translate(-296.97 -196.88)"/><path class="f" d="M1400.31,1386.81H1350a11.73,11.73,0,0,1-10.73-16.51c6.26-13.85,7.33-23.85,3.17-29.74-3.93-5.58-12.86-7.84-26.53-6.69-9.76.81-16.58,4-20.29,9.5-5.42,8.05-3.45,19.79-.83,28.22a11.73,11.73,0,0,1-11.21,15.22h-53.34a2,2,0,0,1-2-2V1325a10.41,10.41,0,0,1,5.24-9.07,10.06,10.06,0,0,1,10.16-.06,36.42,36.42,0,0,0,21.37,4.84c22.1-1.84,31.18-11.12,30.35-31a32.86,32.86,0,0,0-13.21-24.84c-6-4.5-13-6.65-17.86-5.47-4.43,1.06-11.38,4.58-20.12,10.18a10.36,10.36,0,0,1-15.93-8.77V1205a2,2,0,0,1,2-2h58.33a5.23,5.23,0,0,0,4.09-2,5.16,5.16,0,0,0,1-4.38c-2.18-10.1-4.75-29.73,2.45-47.58,4.5-11.16,14.36-16.73,25.71-14.53,12.57,2.44,25.3,14.79,25.3,33.67,0,10.85-2.15,19.91-6.41,26.92a5.05,5.05,0,0,0-.06,5.15,5.24,5.24,0,0,0,4.61,2.7h55a2,2,0,0,1,2,2v57.51a5.49,5.49,0,0,0,8.6,4.54c8.3-5.71,15.48-9,21.31-9.78,8.21-1.1,17.56,2,24.44,8a28.44,28.44,0,0,1,10,21.58c0,14-3.23,24.12-9.59,30-5.1,4.71-12.19,6.74-21.07,6a70.48,70.48,0,0,1-25.7-7h0a5.58,5.58,0,0,0-5.43.25,5.38,5.38,0,0,0-2.57,4.65v64.06A2,2,0,0,1,1400.31,1386.81Zm-78-57.22c11.5,0,19.37,2.9,23.43,8.66,5,7.13,4.09,18.47-2.79,33.7a7.52,7.52,0,0,0,.55,7.3,7.74,7.74,0,0,0,6.53,3.56h48.33v-62.06a9.4,9.4,0,0,1,4.46-8,9.53,9.53,0,0,1,9.31-.45h0a66.43,66.43,0,0,0,24.25,6.59c7.72.62,13.79-1.06,18-5,5.51-5.08,8.3-14.18,8.3-27a24.47,24.47,0,0,0-8.65-18.57c-5.94-5.2-14.29-8-21.27-7-5.13.69-11.9,3.84-19.57,9.12a9.49,9.49,0,0,1-14.87-7.84V1207h-53a9.19,9.19,0,0,1-8.1-4.74,9,9,0,0,1,.13-9.18c3.87-6.38,5.83-14.74,5.83-24.85,0-16.71-11.1-27.61-22.07-29.74-9.5-1.85-17.43,2.68-21.23,12.1-6.8,16.86-4.33,35.58-2.25,45.24a9.23,9.23,0,0,1-9,11.17h-56.33v53.77a6.31,6.31,0,0,0,3.33,5.62,6.24,6.24,0,0,0,6.44-.22c9.24-5.92,16.42-9.52,21.35-10.7,6.1-1.46,14.23.9,21.2,6.17a36.81,36.81,0,0,1,14.79,27.87c.92,22-9.89,33.16-34,35.17a40.15,40.15,0,0,1-23.68-5.35,6.11,6.11,0,0,0-6.17,0,6.42,6.42,0,0,0-3.25,5.61v57.83h51.34a7.73,7.73,0,0,0,7.39-10c-2.87-9.27-5-22.28,1.34-31.65,4.41-6.54,12.24-10.33,23.27-11.25Q1319.1,1329.6,1322.26,1329.59Z" transform="translate(-296.97 -196.88)"/><path class="ab" d="M1745.9,1317.22c5.58,3.74,12.95,7.39,21.26,8.22,18.38,1.84,25.74-18.39,26.66-35.86s-14.71-34-28.5-32.18c-6.5.87-13.61,5-19.31,9.12a6.94,6.94,0,0,1-11-5.63v-62.74H1671.5a7.24,7.24,0,0,1-6.59-10.27c5-10.82,10.58-27.27,2.78-34.37-12.13-11-44.88-11-50.4,5.51-3.09,9.27,1.11,20.42,5.4,28.44a7.23,7.23,0,0,1-6.39,10.66h-54.17v58.11c0,6.2,7,10,12.06,6.47,23.44-16.64,49,.91,51.38,20.45,2.75,23-12,42.29-27.59,40.45-7.93-.93-17-5.42-24.11-9.62a7.75,7.75,0,0,0-11.74,6.65v64.18h62.4a9.73,9.73,0,0,0,8.82-13.88c-3.69-7.67-18.81-17.08-17.9-24.35,1.84-14.71,34.6-18.35,52.24-15.61,13.46,2.09,6.77,23.16-.88,40a9.73,9.73,0,0,0,8.84,13.8H1735v-61.88A7,7,0,0,1,1745.9,1317.22Z" transform="translate(-296.97 -196.88)"/><path class="f" d="M1735,1386.81h-59.33a11.74,11.74,0,0,1-10.67-16.63c7.56-16.67,10.15-28.77,7.28-34.07a6.2,6.2,0,0,0-4.88-3.16c-14.47-2.25-36.18,0-45.43,7-2.68,2-4.2,4.33-4.51,6.86-.42,3.31,4.53,8.26,8.89,12.62,3.68,3.68,7.16,7.16,8.82,10.61a11.58,11.58,0,0,1-.65,11.24,11.72,11.72,0,0,1-10,5.51h-62.4a2,2,0,0,1-2-2v-64.18a9.75,9.75,0,0,1,14.76-8.37c9.07,5.39,17.13,8.62,23.33,9.35,5.4.64,10.94-1.58,15.6-6.24,7.49-7.51,11.23-19.76,9.76-32-1.14-9.54-8.15-18.48-17.84-22.77-5.78-2.57-17.42-5.49-30.39,3.72a9.35,9.35,0,0,1-9.87.65,9.82,9.82,0,0,1-5.35-8.75v-58.11a2,2,0,0,1,2-2h54.17a5.24,5.24,0,0,0,4.63-7.72c-4.37-8.16-8.88-20-5.54-30,2.1-6.29,7.92-11,16.39-13.18,13-3.39,29.33-.39,37.25,6.82,8.5,7.73,3.44,24.22-2.3,36.69a5.24,5.24,0,0,0,4.77,7.43H1735a2,2,0,0,1,2,2v62.74a4.94,4.94,0,0,0,7.86,4c7.63-5.52,14.43-8.71,20.21-9.48,6.36-.85,13.39,1.8,19.31,7.25,7.57,7,12,17.35,11.46,27-.37,6.91-2.33,24-12.64,32.81a20.83,20.83,0,0,1-16.22,4.93c-7.36-.74-14.82-3.61-22.17-8.55h0a5,5,0,0,0-5.22-.29,4.85,4.85,0,0,0-2.59,4.34v61.88A2,2,0,0,1,1735,1386.81Zm-79.29-58.65a82.69,82.69,0,0,1,12.3.84,10.09,10.09,0,0,1,7.79,5.21c3.57,6.61,1.17,19.27-7.15,37.62a7.75,7.75,0,0,0,.53,7.45,7.58,7.58,0,0,0,6.49,3.53H1733v-59.88a8.8,8.8,0,0,1,4.71-7.87,9.07,9.07,0,0,1,9.33.5h0c6.8,4.56,13.64,7.22,20.34,7.89a16.91,16.91,0,0,0,13.21-4c6.34-5.44,10.55-16.65,11.25-30,.45-8.51-3.45-17.66-10.18-23.87-5-4.64-10.88-6.91-16.06-6.23s-11.4,3.71-18.4,8.76a8.94,8.94,0,0,1-14.2-7.25v-60.74H1671.5a9.24,9.24,0,0,1-8.4-13.11c4.24-9.21,10.3-25.63,3.24-32-6.91-6.29-21.95-8.94-33.55-5.91-7.12,1.86-12,5.61-13.6,10.58-2.89,8.67,1.27,19.39,5.26,26.85a9.23,9.23,0,0,1-8.15,13.61h-52.17v56.11a5.84,5.84,0,0,0,3.19,5.2,5.4,5.4,0,0,0,5.71-.37c10.66-7.56,23.17-9,34.33-4.11,11,4.85,18.88,15,20.19,26,1.61,13.41-2.57,26.93-10.9,35.28-5.54,5.55-12.25,8.18-18.9,7.4-6.84-.81-15.22-4.14-24.9-9.89a5.74,5.74,0,0,0-5.83-.06,5.68,5.68,0,0,0-2.89,5v62.18h60.4a7.75,7.75,0,0,0,6.59-3.64,7.6,7.6,0,0,0,.43-7.37c-1.37-2.85-4.77-6.24-8-9.52-5.5-5.5-10.69-10.69-10-15.94.45-3.65,2.5-6.87,6.07-9.56C1627.93,1330.45,1643.14,1328.16,1655.69,1328.16Z" transform="translate(-296.97 -196.88)"/><path class="ac" d="M1295.64,1196.24c-2.3-10.65-4.54-29.34,2.34-46.41,10.39-25.74,47.16-12.87,47.16,18.39,0,12.09-2.75,20.33-6.12,25.89a7.22,7.22,0,0,0,6.26,10.89h55v-63.15a7.52,7.52,0,0,1,11.32-6.46c5.66,3.23,13,6.17,20.86,6.17,17.47,0,34.94-21.15,32.18-40.46s-17.18-33.1-32-29.42c-6.8,1.68-14.15,6.51-20.12,11.24a7.5,7.5,0,0,1-12.2-5.84v-67h-50.17a8.39,8.39,0,0,1-7.72-11.75c9.65-21.89,2-56.07-35.89-37.9-26.23,12.59-25.31,27-19.68,37a8.44,8.44,0,0,1-7.29,12.64h-48.89l.37,61.35a8.37,8.37,0,0,1-12.45,7.36,54.53,54.53,0,0,0-30.67-7.11c-26.37,1.84-36.77,19.31-37.69,38.62s18.39,39.53,41.37,34a80.63,80.63,0,0,0,25.68-11.54,8.36,8.36,0,0,1,12.94,7V1205h58.33A7.24,7.24,0,0,0,1295.64,1196.24Z" transform="translate(-296.97 -196.88)"/><path class="f" d="M1400.31,1207h-55a9.19,9.19,0,0,1-8.1-4.74,9,9,0,0,1,.13-9.18c3.87-6.38,5.83-14.74,5.83-24.85,0-16.71-11.1-27.61-22.07-29.74-9.5-1.85-17.43,2.68-21.23,12.1-6.8,16.86-4.33,35.58-2.25,45.24h0a9.23,9.23,0,0,1-9,11.17h-58.33a2,2,0,0,1-2-2v-65.2a6.33,6.33,0,0,0-3.41-5.66,6.16,6.16,0,0,0-6.42.3,82.16,82.16,0,0,1-26.32,11.83,34.18,34.18,0,0,1-30.36-7.21c-8.81-7.3-14-18.35-13.48-28.85,1.15-24.08,15.56-38.84,39.56-40.52a56.07,56.07,0,0,1,31.78,7.37,6.37,6.37,0,0,0,9.47-5.61l-.37-61.35a2,2,0,0,1,.58-1.42,2,2,0,0,1,1.42-.59h48.89a6.29,6.29,0,0,0,5.5-3.14,6.47,6.47,0,0,0,0-6.52c-3.53-6.31-4.39-12.48-2.53-18.34,2.56-8.11,10.33-15.33,23.09-21.45,19.09-9.16,29.51-4.87,34.9.35,9.74,9.43,9.17,27.73,3.69,40.15a6.27,6.27,0,0,0,.49,6,6.43,6.43,0,0,0,5.4,2.92h50.17a2,2,0,0,1,2,2v67a5.37,5.37,0,0,0,3.09,4.94,5.46,5.46,0,0,0,5.87-.66c7.84-6.22,14.87-10.13,20.88-11.62a23,23,0,0,1,18.72,3.63c8.22,5.54,14.11,15.8,15.78,27.45,1.44,10.08-2.28,21.38-10,30.22-6.89,8-15.72,12.52-24.21,12.52-7,0-14.36-2.17-21.85-6.43a5.61,5.61,0,0,0-5.63,0,5.4,5.4,0,0,0-2.7,4.72V1205A2,2,0,0,1,1400.31,1207Zm-83.3-72.91a26.15,26.15,0,0,1,4.83.47c12.57,2.44,25.3,14.79,25.3,33.67,0,10.85-2.15,19.91-6.41,26.92a5.05,5.05,0,0,0-.06,5.15,5.24,5.24,0,0,0,4.61,2.7h53v-61.14a9.36,9.36,0,0,1,4.69-8.18,9.56,9.56,0,0,1,9.63,0c6.87,3.91,13.55,5.9,19.86,5.9,7.33,0,15-4.06,21.19-11.14,6.92-8,10.29-18.08,9-27-1.51-10.54-6.76-19.77-14.06-24.69a19,19,0,0,0-15.52-3.07c-5.38,1.33-12.07,5.09-19.36,10.87a9.5,9.5,0,0,1-15.44-7.41v-65h-48.17a10.42,10.42,0,0,1-8.75-4.74,10.28,10.28,0,0,1-.8-9.82c4.93-11.19,5.62-27.5-2.82-35.67-6.41-6.21-16.91-6.08-30.38.38-11.72,5.63-18.79,12-21,19.06-1.51,4.76-.76,9.87,2.21,15.17a10.48,10.48,0,0,1-.07,10.5,10.28,10.28,0,0,1-9,5.12h-46.88l.36,59.33a10.37,10.37,0,0,1-15.42,9.13,52.16,52.16,0,0,0-29.56-6.87c-29.75,2.08-35.22,23.9-35.83,36.72-.44,9.27,4.17,19.06,12,25.57a30.27,30.27,0,0,0,26.88,6.41,77.73,77.73,0,0,0,25-11.27,10.11,10.11,0,0,1,10.53-.5,10.42,10.42,0,0,1,5.52,9.19V1203h56.33a5.23,5.23,0,0,0,4.09-2,5.15,5.15,0,0,0,1-4.38c-2.18-10.1-4.75-29.73,2.45-47.58C1300,1139.53,1307.74,1134.08,1317,1134.08Z" transform="translate(-296.97 -196.88)"/><path class="ad" d="M1456.93,997.71a50.14,50.14,0,0,1-5.13-15c-5.3-32.11,34.43-27.78,50.31-11.23,8.09,8.43,5.39,18.36.78,26.08a8.43,8.43,0,0,0,7.17,12.82h54.07V958.58a7.77,7.77,0,0,0-11.42-6.83,51.74,51.74,0,0,1-23.68,5.92c-21.15,0-26.21-28.5-26.9-37.69-.62-8.34,14.54-41.65,50.25-21a7.76,7.76,0,0,0,11.64-6.7V832.17h-55.5a5.62,5.62,0,0,1-4.48-9c12.88-17.71,1.57-42.84-8.11-47.1-11.49-5.06-34.94-6.44-41.83,19.31-3.6,13.44-.28,23.24,3.71,29.55a5.6,5.6,0,0,1-4.75,8.6h-52.75v61.83a7.5,7.5,0,0,0,11.77,6.17c7.13-4.95,15.77-10.47,20.75-11.91,9.53-2.76,29.08,2.75,32.13,25.74s-12.24,39.53-32.33,38.62a63.71,63.71,0,0,1-21.94-5,7.52,7.52,0,0,0-10.38,7v54.05h49.18A8.42,8.42,0,0,0,1456.93,997.71Z" transform="translate(-296.97 -196.88)"/><path class="f" d="M1564.13,1012.36h-54.07a10.25,10.25,0,0,1-9-5.23,10.44,10.44,0,0,1,.14-10.62c5.64-9.47,5.47-17.43-.51-23.66-9.91-10.33-29.1-15.17-39.48-10-6.43,3.21-9,10-7.42,19.48a48,48,0,0,0,4.93,14.42,10.41,10.41,0,0,1-.31,10.29,10.3,10.3,0,0,1-8.9,5h-49.18a2,2,0,0,1-2-2V956a9.58,9.58,0,0,1,4.31-8,9.37,9.37,0,0,1,8.85-.83,61.5,61.5,0,0,0,21.26,4.8,28.36,28.36,0,0,0,22.66-9c6.32-6.88,9-16.59,7.59-27.34-1.54-11.59-7.35-17.61-12-20.62-6.28-4.1-13.38-4.69-17.64-3.46-3.82,1.1-10.8,5.13-20.16,11.63a9.49,9.49,0,0,1-14.91-7.81V833.55a2,2,0,0,1,2-2h52.75a3.6,3.6,0,0,0,3.06-5.53c-3.94-6.22-7.83-16.68-4-31.14,2.7-10.09,8-17.1,15.84-20.85,10-4.78,21.71-2.86,28.73.23,5.63,2.47,11.11,10.42,13.63,19.77,1.76,6.5,3.48,19.09-4.7,30.34a3.63,3.63,0,0,0-.33,3.86,3.51,3.51,0,0,0,3.19,1.94H1564a2,2,0,0,1,2,2v60.11a9.76,9.76,0,0,1-14.64,8.43c-13.06-7.55-24.38-8.43-33.63-2.62-10.09,6.33-13.88,18.27-13.62,21.74.11,1.46,2.93,35.84,24.9,35.84a49.39,49.39,0,0,0,22.77-5.7,9.82,9.82,0,0,1,9.69.32,9.62,9.62,0,0,1,4.64,8.29v51.78A2,2,0,0,1,1564.13,1012.36Zm-92.69-55.58c11.14,0,24.15,5,32.11,13.3,7.28,7.58,7.65,17.43,1.06,28.48a6.48,6.48,0,0,0-.09,6.59,6.29,6.29,0,0,0,5.54,3.21h52.07V958.58a5.59,5.59,0,0,0-2.72-4.88,5.87,5.87,0,0,0-5.78-.18,53.26,53.26,0,0,1-24.6,6.15c-20.48,0-27.8-24.86-28.89-39.55-.4-5.38,4.43-18.48,15.48-25.42,7.29-4.58,19.77-7.86,37.77,2.54a5.74,5.74,0,0,0,8.63-5V834.17h-53.5a7.52,7.52,0,0,1-6.75-4.13,7.65,7.65,0,0,1,.65-8c7.21-9.91,5.65-21.14,4.08-26.95-2.44-9.05-7.57-15.48-11.38-17.15-6.25-2.75-16.64-4.47-25.39-.28-6.71,3.22-11.32,9.37-13.7,18.27-3.5,13.07,0,22.42,3.47,28a7.6,7.6,0,0,1-6.44,11.67h-50.75v59.83a5.49,5.49,0,0,0,8.63,4.52c9.85-6.84,17-10.94,21.33-12.19,4.76-1.37,13.09-1.16,20.94,4,5.3,3.46,12,10.34,13.73,23.44,1.58,11.94-1.47,22.79-8.6,30.56a32.35,32.35,0,0,1-25.8,10.31,65.4,65.4,0,0,1-22.64-5.11,5.3,5.3,0,0,0-5.08.49,5.58,5.58,0,0,0-2.51,4.66v52.05h47.18A6.35,6.35,0,0,0,1455,1005a6.44,6.44,0,0,0,.19-6.36,52,52,0,0,1-5.34-15.63c-1.86-11.27,1.54-19.69,9.58-23.71A27,27,0,0,1,1471.44,956.78Z" transform="translate(-296.97 -196.88)"/></g><path class="ae" d="M580.17,470.77c-133.63,69.48-289.79,248.1-122.5,214.67S522.08,784,626.3,780.72s265.53-25.47,371.09-134.85,3-135.52-39.84-131.28C816.69,528.53,955.56,275.6,580.17,470.77Z" transform="translate(-296.97 -196.88)"/><path class="f" d="M592.63,481.72c-121.23,63-262.89,225.06-111.13,194.73s58.43,89.38,153,86.44S875.35,739.78,971.1,640.56,973.78,517.62,935,521.47C807.19,534.11,933.16,304.67,592.63,481.72Z" transform="translate(-296.97 -196.88)"/><path class="ae" d="M631.7,816.73c-.22,11.94-9,31.53-28.73,31.17s-42.92-20.55-42.7-32.49,16.39-21.32,36.11-20.95S631.92,804.79,631.7,816.73Z" transform="translate(-296.97 -196.88)"/><path class="ae" d="M661.31,864.84c-.1,5.78-5.19,10.38-11.35,10.26s-18.36-6.26-18.26-12,7.76-11.56,13.92-11.44S661.42,859.06,661.31,864.84Z" transform="translate(-296.97 -196.88)"/><rect class="af" x="3.19" y="197.84" width="876.2" height="1035.74"/><path class="ag" d="M1857.51,511.84s10.68,5.19,12.65,11.17c1.58,4.79,13.39,5.4,14.56,14.83a10.8,10.8,0,0,0,9,9.5c12.07,1.85,30.67,8.12,33.65,29.08,2.27,16-5.89,22.06-14.44,24.16a12.11,12.11,0,0,0-9.19,14c1.21,6.08-.6,13.12-11.15,18.68-23.63,12.47-47.22-29.53-47.22-29.53l-4.84-73.35Z" transform="translate(-296.97 -196.88)"/><path class="ah" d="M1746.28,473.16S1776.68,556,1828.49,582c0,0-17.24,28.13-26.24,29.84,0,0-55.34-70.84-61-128.87Z" transform="translate(-296.97 -196.88)"/><path class="ai" d="M1954.63,971.73l1.53,12.57a5.2,5.2,0,0,0,4.55,4.55,80.42,80.42,0,0,0,16.83.26,4.45,4.45,0,0,0,3.73-5.77c-1.54-4.85-4.36-12.13-8.43-16.42h-13.95A4.29,4.29,0,0,0,1954.63,971.73Z" transform="translate(-296.97 -196.88)"/><path class="aj" d="M1845.42,824.48l-2.36,13.85s7.88,79.83,9.29,111.76a25,25,0,0,1-3.71,14.23l-13.7,22.25L1869.77,966l.69-4.25-5.7-7.84,7.47-89.43a27.48,27.48,0,0,0-3.12-15.18l-7.21-13.53Z" transform="translate(-296.97 -196.88)"/><path class="ak" d="M1832.65,989.8h11.11a6.69,6.69,0,0,0,5.31-2.61c3.47-4.5,10.65-13.29,14.08-13.51,4.62-.31,4,16.12,4,16.12h2.59l3.28-20.42a12.08,12.08,0,0,0-6.34-12.63h0s-1.06,7.81-6.79,11.27-23.3,15.83-23.3,15.83a15.78,15.78,0,0,0-4.52.12A2.94,2.94,0,0,0,1832.65,989.8Z" transform="translate(-296.97 -196.88)"/><path class="al" d="M1893.12,831.06s46.17,87.58,53.51,107.58,9.91,36.68,10,38.26c.16,2.47,3.23,4.84,11.69,4.84,4.37,0,6.51-1.76,7.55-3.45a4.93,4.93,0,0,0,.19-4.78c-2.67-5.4-11.15-22.68-14.29-30.51-3.74-9.36-11.81-51.75-16.23-66.49s-9.42-30.72-28.67-45.45C1916.88,831.06,1903.66,818.11,1893.12,831.06Z" transform="translate(-296.97 -196.88)"/><path class="am" d="M1864,687.55c-11.91-50.47,18.27-79,18.27-79-19-18.28-53.73-26.59-53.73-26.59s-33.1,24.19-29.17,43.13c2.3,11.11,23.26,66.5,23.26,66.5S1842,700.75,1864,687.55Z" transform="translate(-296.97 -196.88)"/><path class="an" d="M1890.36,712.53c-4.85-14.6-26.41-25-26.41-25-22,13.2-41.37,4-41.37,4s-4.34,16.62-1.34,32.06,21.82,114.69,21.82,114.69c29.67,6,75.29-6.05,75.29-6.05C1899.45,798.74,1895.21,727.14,1890.36,712.53Z" transform="translate(-296.97 -196.88)"/><path class="ao" d="M1850.13,548.59l9.68,43.5c.93,3.83-2.56,3.2-6.44,2.47-6.34-1.19-14.52-3.66-17.25-8.59a4.46,4.46,0,0,1-.49-1.64l-4.16-30.16a5.43,5.43,0,0,1,3.17-5.7l8-3.56A5.42,5.42,0,0,1,1850.13,548.59Z" transform="translate(-296.97 -196.88)"/><path class="ap" d="M1838.77,507.18s-11.47,4.84-19.27,21.41-2,24.23,5.34,25.28,18.25.89,29.83-9.82S1853.68,501.44,1838.77,507.18Z" transform="translate(-296.97 -196.88)"/><path class="aq" d="M1846.89,535.21s8.65-24.25-12.85-24.54l-5,3.54s-7.89-13.44,5-19.86,28.1-1.12,33.61,16.32,6.45,29.12-2.72,37.46S1852,547,1852,547s5-7.81,3-12-6.72.86-6.72.86Z" transform="translate(-296.97 -196.88)"/><path class="ar" d="M1849.3,537.91s4.37-12.49,10.21-7.52-4.74,11.54-8.89,13.66Z" transform="translate(-296.97 -196.88)"/><path class="as" d="M1743.36,488.24c-.46,1.48,4.91,3.72,8.07-2.31.11-2.89,1.87-15.27.14-17.63-9.2-12.54-18.91-13.35-18.91-13.35-1.81,3.27-4,6-5.05,10a12.08,12.08,0,0,0,1.21,8.93c1.52,2.73,3.59,6.29,5.55,9.07A12,12,0,0,0,1743.36,488.24Z" transform="translate(-296.97 -196.88)"/><path class="at" d="M1586.29,514.24c8-4.56,24.49-11.43,38.93-2,18.84,12.31-9.36,61.44-38.41,37a3.32,3.32,0,0,0-5.48,2.5v38.24a12.52,12.52,0,0,0,12.52,12.52H1636a6.28,6.28,0,0,1,5.67,9,80,80,0,0,0-7.21,22.35c-2.31,16.17,16.17,25.77,31.57,23.66s24.64-20.58,23.1-29.82c-.72-4.29-4.47-10-8.29-14.88a6.28,6.28,0,0,1,4.94-10.16h41.89a11.5,11.5,0,0,0,11.5-11.5V553.67a4.86,4.86,0,0,1,7.81-3.86c13.47,10.26,30.21,5.74,35.31-8.3,6.16-16.94,1.54-32.33-16.17-34.64a29.31,29.31,0,0,0-26.95,10.55v-43.3A10.11,10.11,0,0,0,1728.69,464l-43.14,1.56a6.28,6.28,0,0,1-5.47-9.73c3.57-5.47,7.2-12.69,8.28-20.58,2.31-16.94-11.55-32.34-26.18-32.34s-32.34,13.09-28.49,33.88a86.26,86.26,0,0,0,4.64,16.81,6.27,6.27,0,0,1-5.84,8.6h-38.64a12.51,12.51,0,0,0-12.52,12.51v36.65A3.31,3.31,0,0,0,1586.29,514.24Z" transform="translate(-296.97 -196.88)"/><path class="f" d="M1661.77,659.86c-8.84,0-17.83-3.37-23.42-9a19.76,19.76,0,0,1-5.87-17.26c1.26-8.84,4.71-17.35,7.38-22.93a4.26,4.26,0,0,0-3.86-6.12h-42.15a14.53,14.53,0,0,1-14.52-14.52V551.81a5.23,5.23,0,0,1,3.05-4.79,5.3,5.3,0,0,1,5.71.76c7.35,6.17,15.22,7.79,22.78,4.7,9.44-3.87,17.33-14.83,18.35-25.5.32-3.42.09-9.66-5.09-13.05-13.43-8.78-28.86-2.48-36.86,2.05h0a5.31,5.31,0,0,1-7.94-4.61V474.72a14.53,14.53,0,0,1,14.52-14.51h38.64a4.27,4.27,0,0,0,3.58-1.91,4.17,4.17,0,0,0,.41-3.93,89.17,89.17,0,0,1-4.76-17.21c-2.15-11.64,2.15-19.8,6.13-24.59a32.55,32.55,0,0,1,24.33-11.65c7.49,0,15,3.66,20.55,10.05a31.07,31.07,0,0,1,7.61,24.56c-.95,6.93-3.84,14.13-8.59,21.4a4.24,4.24,0,0,0-.15,4.48,4.18,4.18,0,0,0,3.87,2.16l43.15-1.56a12.11,12.11,0,0,1,12.55,12.11V512.4a31.23,31.23,0,0,1,25.21-7.52c7.8,1,13.74,4.55,17.18,10.2,4.22,6.95,4.44,16.58.61,27.12a22.66,22.66,0,0,1-14.94,14.25c-7.72,2.26-16.27.43-23.46-5a2.86,2.86,0,0,0-4.6,2.26v37.54a13.52,13.52,0,0,1-13.5,13.5h-41.89a4.28,4.28,0,0,0-3.36,6.93c5.1,6.53,8,11.84,8.68,15.78.94,5.66-1.65,13.85-6.46,20.38s-11.4,10.8-18.34,11.75A32.52,32.52,0,0,1,1661.77,659.86Zm-77.12-109.34a1.49,1.49,0,0,0-.58.12,1.27,1.27,0,0,0-.74,1.17v38.24a10.53,10.53,0,0,0,10.52,10.52H1636a8.27,8.27,0,0,1,7.47,11.85c-2.55,5.33-5.84,13.43-7,21.77a15.94,15.94,0,0,0,4.75,13.87c5.7,5.73,15.58,8.76,24.57,7.53,5.86-.8,11.42-4.41,15.66-10.16s6.5-12.76,5.73-17.35c-.54-3.23-3.26-8.07-7.88-14a8.28,8.28,0,0,1,6.51-13.39h41.89a9.51,9.51,0,0,0,9.5-9.5V553.67a6.86,6.86,0,0,1,11-5.45c6.17,4.7,13.42,6.3,19.91,4.39a18.68,18.68,0,0,0,12.31-11.78c3.41-9.37,3.31-17.78-.27-23.67-2.83-4.65-7.63-7.44-14.28-8.31a27.38,27.38,0,0,0-25.06,9.73,2,2,0,0,1-3.63-1.16v-43.3a8.11,8.11,0,0,0-8.41-8.11l-43.14,1.56a8.28,8.28,0,0,1-7.22-12.83c4.43-6.77,7.11-13.41,8-19.75a27,27,0,0,0-6.65-21.39c-4.81-5.52-11.21-8.68-17.54-8.68a28.83,28.83,0,0,0-21.25,10.21,25,25,0,0,0-5.27,21.31,85.27,85.27,0,0,0,4.52,16.42,8.16,8.16,0,0,1-.8,7.67,8.29,8.29,0,0,1-6.89,3.68h-38.64a10.52,10.52,0,0,0-10.52,10.51v36.65a1.27,1.27,0,0,0,.65,1.13,1.29,1.29,0,0,0,1.32,0h0c8.79-5,25.81-11.86,41-1.92,5.15,3.37,7.6,9.33,6.89,16.78-1.15,12-10.1,24.43-20.82,28.82-6.28,2.57-16.05,3.74-26.86-5.33A1.29,1.29,0,0,0,1584.65,550.52Zm1.64-36.28h0Z" transform="translate(-296.97 -196.88)"/><path class="au" d="M1887.57,622S1799,730.13,1732.82,607a15.28,15.28,0,0,1-.48-7.7c.4-2.29-1.11-10.43-1.95-14.59a2.29,2.29,0,0,1,2-2.73h0a3.15,3.15,0,0,1,2.77,1.18l12.08,15.4a6.45,6.45,0,0,1-3.42,7.66h0a3.19,3.19,0,0,0-1.18,4.81c50.33,66,134.51-6.43,136-5.58C1884.19,608.45,1890.51,611.79,1887.57,622Z" transform="translate(-296.97 -196.88)"/><path class="ae" d="M1833.9,1427.73a3.61,3.61,0,0,0,3.6-3.61V993.4a3.6,3.6,0,1,0-7.2,0v430.72A3.61,3.61,0,0,0,1833.9,1427.73Z" transform="translate(-296.97 -196.88)"/><path class="ae" d="M1931.55,1427.73a3.61,3.61,0,0,0,3.6-3.61V993.4a3.6,3.6,0,0,0-7.2,0v430.72A3.61,3.61,0,0,0,1931.55,1427.73Z" transform="translate(-296.97 -196.88)"/><path class="ae" d="M2171.47,1430.46a3.71,3.71,0,0,0,1.41-.29,3.61,3.61,0,0,0,1.9-4.73L1990.51,992a3.6,3.6,0,1,0-6.63,2.82l184.27,433.45A3.61,3.61,0,0,0,2171.47,1430.46Z" transform="translate(-296.97 -196.88)"/><path class="ae" d="M2057.65,1430.46a3.71,3.71,0,0,0,1.41-.29,3.61,3.61,0,0,0,1.9-4.73L1876.69,992a3.6,3.6,0,1,0-6.63,2.82l184.27,433.45A3.61,3.61,0,0,0,2057.65,1430.46Z" transform="translate(-296.97 -196.88)"/><path class="ae" d="M1828.3,997.36h168.8a5.07,5.07,0,0,0,5.08-5.08h0a5.07,5.07,0,0,0-5.08-5.07H1828.3a5.07,5.07,0,0,0-5.07,5.07h0A5.07,5.07,0,0,0,1828.3,997.36Z" transform="translate(-296.97 -196.88)"/><path class="ae" d="M1901.21,1063.28h114.16a3.61,3.61,0,1,0,0-7.21H1901.21a3.61,3.61,0,0,0,0,7.21Z" transform="translate(-296.97 -196.88)"/><rect class="ae" x="1639.27" y="941.18" width="114.16" height="7.21"/><rect class="ae" x="1673.18" y="1023.15" width="114.16" height="7.21"/><path class="ae" d="M2005.71,1309.21h114.16a3.6,3.6,0,1,0,0-7.2H2005.71a3.6,3.6,0,1,0,0,7.2Z" transform="translate(-296.97 -196.88)"/><path class="ae" d="M2040.09,1391.19h114.16a3.61,3.61,0,1,0,0-7.21H2040.09a3.61,3.61,0,0,0,0,7.21Z" transform="translate(-296.97 -196.88)"/><path class="av" d="M853.84,1097.59c1.28-6.73,1.76-22.45-14.46-41.62-21.7-25.65-49.55-12.57-49.55-12.57-24.67,13.81-35.09,58.92-35.09,58.92l26.09-13.92c3.95,11.48,42.47,23.85,42.47,23.85l.21-.08c.37,24.95-.23,97.71-17.92,148.33-6.94,19.82-21,56.66,25.52,119.79l25.65-1S914.24,1281.67,853.84,1097.59Z" transform="translate(-296.97 -196.88)"/><path class="aw" d="M466.59,1310.27c-.82,0-20.27-.14-26.82-12.47-4.48-8.42-1.7-20.17,8.25-34.92,30-44.48,108.26-73.65,111.57-74.87a1.85,1.85,0,0,1,1.28,3.48c-.8.3-80.45,30-109.78,73.46-9.12,13.53-11.83,24-8,31.1,5.5,10.37,23.37,10.51,23.55,10.51a1.86,1.86,0,1,1,0,3.71Z" transform="translate(-296.97 -196.88)"/><path class="ax" d="M461.54,1389.83s-21-34.77,6.67-76.31l185.94,30.79s89-15.06,93.26-14.76,62.35,36.09,62.35,36.09-2,4.15-15.78,3.38-4.75,1.68-4.75,1.68l-.5,7a19.24,19.24,0,0,1-17.34-6c-7.72-8.21-29.17-12.18-29.17-12.18s-45.61,33.69-90.41,17.39Z" transform="translate(-296.97 -196.88)"/><rect class="af" y="203.21" width="876.2" height="1035.74"/><path class="ay" d="M1951.44,977.1l1.53,12.57a5.19,5.19,0,0,0,4.56,4.54,80.31,80.31,0,0,0,16.82.26,4.43,4.43,0,0,0,3.73-5.76c-1.54-4.86-4.36-12.14-8.43-16.43h-13.94A4.3,4.3,0,0,0,1951.44,977.1Z" transform="translate(-296.97 -196.88)"/><path class="az" d="M1829.46,995.16h11.11a6.71,6.71,0,0,0,5.31-2.6c3.47-4.51,10.65-13.29,14.08-13.52,4.62-.31,4,16.12,4,16.12h2.59l3.28-20.41a12.09,12.09,0,0,0-6.34-12.64h0s-1.06,7.82-6.78,11.27-23.31,15.83-23.31,15.83a15.78,15.78,0,0,0-4.52.12A2.94,2.94,0,0,0,1829.46,995.16Z" transform="translate(-296.97 -196.88)"/><path class="ba" d="M781.45,910.6s-34.49-9.7-46-3.2c-9.26,5.22-42.07-14-55-.4-6.7,7-20.55,7.28-34.51.22-34.77-17.6-91.9-39.07-121.77-9.54-22.79,22.54-6.9,46.52,14.21,64.63,15.51,13.3,20.52,30.55,10.47,38.85-9.64,8-12,22.71,10.92,49.94,51.37,61,159.22,32,159.22,32l89.34-112.9Z" transform="translate(-296.97 -196.88)"/><path class="bb" d="M711.86,991.33l-71.34,89.07C634,1088.15,644.44,1091,656,1094c19,5,44.33,9.31,57,1.21a10.33,10.33,0,0,0,3.05-3.2l42.32-64.89c3.36-5.15,2.1-12.13-3.08-17.11l-18.83-18.1C729.23,985,717.42,984.67,711.86,991.33Z" transform="translate(-296.97 -196.88)"/><path class="bc" d="M812.1,965.28s5.43,31.08-19.16,70.44-48.88,37.46-61.16,23.32-26.95-37.65-20-77S803.86,925.65,812.1,965.28Z" transform="translate(-296.97 -196.88)"/><path class="bd" d="M741.26,986.47s39.76-51.72,69.89-6.33l-.59,15.63s39.46-1.66,35.35-38-36.19-61.37-80.9-49.16-70.87,26.23-76,57.21,20.14,26,20.14,26,9.77-21.34,21.45-22.75,7.39,15.5,7.39,15.5Z" transform="translate(-296.97 -196.88)"/><path class="be" d="M732.2,985s20.6-26.46,2-32.06-18.06,25.94-16.9,37.67Z" transform="translate(-296.97 -196.88)"/><path class="f" d="M2187.48,260.81l-8.59,34.38a8.55,8.55,0,0,1-13.52,4.71c-6.59-5.12-17.2-8-23.54-4.1-6.17,3.84-5.79,12.78-4.39,19.61,1.78,8.66,4.78,14.34,8.91,16.87,2.71,1.67,6,2,9.83,1h0a8.58,8.58,0,0,1,8.34,2.15,8.45,8.45,0,0,1,2.3,8.16l-8.36,33.5a2.63,2.63,0,0,1-3.17,1.91l-39.66-9.65a8.53,8.53,0,0,1-3.71-14.62c5.25-4.74,8.73-9.58,10.06-14a14.6,14.6,0,0,0-1.83-11.87,25.7,25.7,0,0,0-16.3-11.28c-9.68-1.82-20.32,6-22.3,16.38-.67,3.51-.17,7.64,1.5,12.27a8.64,8.64,0,0,1-1.68,8.73,8.37,8.37,0,0,1-8.32,2.57l-38.55-9.38a2.62,2.62,0,0,1-1.92-3.18l9.45-37.81a6.63,6.63,0,0,1,4.72-4.8,6.44,6.44,0,0,1,6.38,1.77c3.25,3.37,8.32,7.55,14.07,8.33,4,.53,7.07-1.65,9-3.58,5.35-5.43,8-15.4,6.62-24.82a7.87,7.87,0,0,0-3.22-5.5c-3.81-2.77-11.08-3.41-20.45-1.8a6.55,6.55,0,0,1-5.91-2,6.61,6.61,0,0,1-1.58-6.11l9.81-39.26a2.62,2.62,0,0,1,3.17-1.91L2107,238a2.64,2.64,0,0,0,2.66-.82,2.61,2.61,0,0,0,.5-2.72c-3-8-4.66-13.79-4.78-17.08-.18-4.94,2.44-10.67,6.68-14.6,3.47-3.21,9.64-6.81,19.37-5.71,8.81,1,16,5.14,20.34,11.65a24,24,0,0,1,2.8,20.45,47.33,47.33,0,0,1-7.57,15,2.57,2.57,0,0,0-.36,2.44,2.71,2.71,0,0,0,1.92,1.75l37,9.25A2.62,2.62,0,0,1,2187.48,260.81Zm-55.42,40.56a15.82,15.82,0,0,1,7-10c8.59-5.35,21.63-1.72,29.53,4.41a3.23,3.23,0,0,0,3.07.51,3.31,3.31,0,0,0,2.15-2.35l8-31.84-34.49-8.61a8,8,0,0,1-5.59-5.09,7.82,7.82,0,0,1,1.12-7.33,42.18,42.18,0,0,0,6.73-13.37,18.83,18.83,0,0,0-2.15-16.06c-3.44-5.2-9.32-8.52-16.56-9.34-7.75-.88-12.55,1.88-15.22,4.35-3.6,3.34-5.11,7.71-5,10.56.06,1.54.71,5.58,4.45,15.42a7.92,7.92,0,0,1-9.32,10.48l-39.83-9.94-9.16,36.72a1.32,1.32,0,0,0,.33,1.27,1.29,1.29,0,0,0,1.19.42c7.62-1.31,18-1.9,24.41,2.72a13,13,0,0,1,5.32,9c1.65,11.14-1.52,22.63-8.08,29.27-3.87,3.92-8.63,5.73-13.4,5.09-7.24-1-13.32-5.92-17.14-9.89a1.27,1.27,0,0,0-1.26-.34,1.36,1.36,0,0,0-1,1l-8.81,35.27,36,8.75a3.21,3.21,0,0,0,3.2-1,3.37,3.37,0,0,0,.65-3.45c-2-5.53-2.58-10.59-1.73-15,2.57-13.31,15.83-22.92,28.42-20.55a30.85,30.85,0,0,1,19.81,13.71,19.59,19.59,0,0,1,2.37,16.11c-1.64,5.39-5.53,10.9-11.56,16.36a3.29,3.29,0,0,0,1.43,5.64l37.13,9,7.74-31a3.23,3.23,0,0,0-.88-3.15,3.4,3.4,0,0,0-3.3-.84c-5.26,1.44-9.95.92-13.95-1.53-5.41-3.33-9.22-10.15-11.3-20.29C2131,310.06,2131.11,305.14,2132.06,301.37Z" transform="translate(-296.97 -196.88)"/><path class="bf" d="M2075.23,621c8.39-5,19.27-15.67,5.62-34-7.12-9.54-22.58-6.86-30.43,6.67a30.63,30.63,0,0,0-4.5,16.84,4,4,0,0,1-5.63,3.7l-35-16.13-17.79,38.54a5.47,5.47,0,0,1-9.44.85c-16.79-23.8-36.37-6.93-38.43-1.4-2.28,6.1-7.47,25.87,6.09,32.13a36.56,36.56,0,0,0,16.94,3.21,5.48,5.48,0,0,1,5.3,7.76l-15.32,33.2,33.41,15.42a6,6,0,0,1,1.69,9.64c-4.25,4.14-9.43,10.37-12.27,18.15-5.35,14.7,12.84,27.38,26.79,23.8,10.29-2.64,10.09-16.42,9.81-26.93a5.92,5.92,0,0,1,8.42-5.46L2061,765.67l19.16-41.52a4.9,4.9,0,0,1,8.54-.67,52.34,52.34,0,0,0,10.55,12c8.94,7,22.05-2.7,27.51-13.05s1.33-21.55-10.78-27.85a19.65,19.65,0,0,0-12.81-1.89,4.9,4.9,0,0,1-5.31-6.88l18.09-39.2-40.3-18.6A4,4,0,0,1,2075.23,621Z" transform="translate(-296.97 -196.88)"/><path class="bg" d="M1997.34,782.63a27.84,27.84,0,0,1-20.11-8.88c-5-5.56-6.55-12.49-4.17-19,3.06-8.41,8.7-15.05,12.9-19.14a3.23,3.23,0,0,0,.94-2.91,3.3,3.3,0,0,0-1.9-2.47l-33.41-15.42a2.61,2.61,0,0,1-1.28-3.47l15.32-33.21a2.74,2.74,0,0,0-.21-2.75,3,3,0,0,0-2.6-1.3,38.88,38.88,0,0,1-18.15-3.44c-13.93-6.43-11.23-25.29-7.45-35.43,1.43-3.81,8.81-11.25,18.43-12.49,6.36-.83,15.79.82,24.6,13.3a2.81,2.81,0,0,0,2.6,1.2,2.78,2.78,0,0,0,2.33-1.64L2003,597a2.62,2.62,0,0,1,3.48-1.28l35,16.13a1.37,1.37,0,0,0,1.35-.11,1.22,1.22,0,0,0,.56-1.09,33.49,33.49,0,0,1,4.85-18.27c4.69-8.07,12.2-13.16,20.1-13.62a16.8,16.8,0,0,1,14.7,6.69c5.73,7.68,8,14.95,6.63,21.59-1.26,6.31-5.76,11.91-13,16.21a1.24,1.24,0,0,0-.63,1.19,1.32,1.32,0,0,0,.78,1.17l40.31,18.6a2.63,2.63,0,0,1,1.28,3.48l-18.09,39.2a2.22,2.22,0,0,0,.27,2.36,2.19,2.19,0,0,0,2.19.85,22.13,22.13,0,0,1,14.49,2.13c6.89,3.59,11.73,8.92,13.64,15a21.07,21.07,0,0,1-1.76,16.39c-3.63,6.88-11.08,14.64-19.55,16.45a13.94,13.94,0,0,1-11.88-2.56,53.31,53.31,0,0,1-11.12-12.59,2.2,2.2,0,0,0-2.07-1,2.24,2.24,0,0,0-1.91,1.33l-19.16,41.51a2.63,2.63,0,0,1-3.48,1.29l-40.43-18.67a3.38,3.38,0,0,0-3.26.25,3.16,3.16,0,0,0-1.46,2.77c.29,10.49.72,26.33-11.77,29.54A22.36,22.36,0,0,1,1997.34,782.63Zm-41.18-71.52,31,14.33a8.55,8.55,0,0,1,2.41,13.88c-3.8,3.71-8.9,9.7-11.63,17.18-2.32,6.38,1,11.34,3.13,13.73,5.08,5.6,13.72,8.39,20.54,6.64,7.81-2,8.17-12.65,7.85-24.33a8.4,8.4,0,0,1,3.81-7.28,8.55,8.55,0,0,1,8.33-.63l38.06,17.56,18.06-39.14a7.52,7.52,0,0,1,13.1-1,49.2,49.2,0,0,0,10,11.37,8.79,8.79,0,0,0,7.56,1.56c5.72-1.23,12.46-7,16-13.77a15.93,15.93,0,0,0,1.39-12.38c-1.49-4.76-5.41-9-11.06-11.93a16.92,16.92,0,0,0-11.13-1.63,7.52,7.52,0,0,1-8.16-10.56l17-36.82-37.92-17.5a6.6,6.6,0,0,1-3.83-5.66,6.53,6.53,0,0,1,3.2-6h0c4.14-2.45,9.33-6.65,10.54-12.72,1-5.13-.89-11-5.69-17.44a11.47,11.47,0,0,0-10.2-4.59c-6.05.35-12.13,4.57-15.87,11a28.22,28.22,0,0,0-4.15,15.41,6.43,6.43,0,0,1-2.87,5.67,6.59,6.59,0,0,1-6.47.52l-32.57-15-16.69,36.17a8.09,8.09,0,0,1-14,1.26c-5.86-8.31-12.46-12-19.65-11.13-7.47,1-13.33,6.84-14.19,9.14-.35.93-8.35,22.79,4.74,28.83a33.58,33.58,0,0,0,15.72,3,8.1,8.1,0,0,1,7.18,3.61,8,8,0,0,1,.62,7.86Z" transform="translate(-296.97 -196.88)"/><path class="f" d="M2336.8,460.24H2292a7.73,7.73,0,0,1-7-11c4.86-10.56,5.8-18.3,2.57-21.24-4.61-4.19-14.74-5.94-22.57-3.9-2.68.7-7.37,2.5-8.77,6.69-1.91,5.71.92,12.95,3.64,18a7.74,7.74,0,0,1-6.82,11.39h-38.26a2.62,2.62,0,0,1-2.62-2.62V415.49a2.86,2.86,0,0,0-1.3-2.41,2.76,2.76,0,0,0-2.65-.23c-8.57,3.7-20.56,7-29.05,1.91-5.43-3.28-8.53-9.45-9.2-18.34-1.22-16.16,4.37-23.27,9.28-26.39,7.46-4.76,18.7-3.78,30.05,2.6a2.83,2.83,0,0,0,2.89,0,2.76,2.76,0,0,0,1.39-2.44V325a2.62,2.62,0,0,1,2.62-2.62H2253a8.56,8.56,0,0,1,8,11.59c-1.9,5-4,12.54-3.37,20.48.57,6.76,5.63,9.89,8.6,11.15,7,3,16,1.87,21.43-2.58,6.24-5.08,2.11-14.9-3.07-25.37a8.41,8.41,0,0,1,.41-8.21,8.53,8.53,0,0,1,7.3-4.06h44.53a2.61,2.61,0,0,1,2.62,2.61v44.19a2.22,2.22,0,0,0,1.21,2,2.32,2.32,0,0,0,2.44-.17c12.37-8.58,21.3-7.08,26.62-4.3,7.06,3.68,11.3,11.73,11.31,17.4,0,6.54-1.95,20.83-9.56,28.13a14.93,14.93,0,0,1-11.38,4.36,37.65,37.65,0,0,1-17.15-5.13,2.3,2.3,0,0,0-2.36,0,2.23,2.23,0,0,0-1.13,2v41.18A2.62,2.62,0,0,1,2336.8,460.24Zm-64.9-42.19c7.41,0,14.9,2.24,19.15,6.11,6.53,5.95,2.88,18.13-1.35,27.3A2.5,2.5,0,0,0,2292,455h42.2V416.44a7.43,7.43,0,0,1,3.75-6.5,7.52,7.52,0,0,1,7.6,0,32.37,32.37,0,0,0,14.77,4.44,9.71,9.71,0,0,0,7.52-2.92c5.83-5.58,8-17.88,7.95-24.32,0-3.38-2.72-9.77-8.5-12.78s-13.13-1.65-21.21,4a7.6,7.6,0,0,1-7.86.5,7.51,7.51,0,0,1-4-6.65V330.62h-41.91a3.35,3.35,0,0,0-2.85,1.59,3.16,3.16,0,0,0-.16,3.13h0c4.65,9.4,11.68,23.61,1.68,31.75-7,5.7-18,7.07-26.79,3.34-6.9-2.93-11.19-8.6-11.77-15.54-.74-8.92,1.6-17.31,3.69-22.78a3.24,3.24,0,0,0-.36-3,3.29,3.29,0,0,0-2.76-1.44h-34.18v42.54a8.09,8.09,0,0,1-12.09,7c-9.49-5.34-18.94-6.4-24.67-2.76-5.3,3.38-7.68,10.84-6.87,21.59.54,7.1,2.79,11.9,6.69,14.25,6.92,4.19,18.17.39,24.27-2.24a8,8,0,0,1,7.59.67,8.07,8.07,0,0,1,3.67,6.78V455H2253a2.49,2.49,0,0,0,2.2-3.67c-3.2-6-6.48-14.66-4-22.15,1.61-4.84,6-8.43,12.41-10.09A32.84,32.84,0,0,1,2271.9,418.05Z" transform="translate(-296.97 -196.88)"/><path class="ae" d="M2153.84,542.58a35.37,35.37,0,0,1-8.21-7.63c-14-18.19,12.12-28.79,27.53-23.81,7.85,2.53,9.49,9.61,9.21,16a6,6,0,0,0,8.75,5.58l33.63-18.09-17.32-32.21A5.49,5.49,0,0,0,2198,482a36.49,36.49,0,0,1-12.75,11.6c-13.15,7.08-25.84-8.95-29.34-14.44-3.18-5-4.89-30.76,24.23-29.87a5.47,5.47,0,0,0,5-8.06l-20.1-37.38-34.52,18.56a4,4,0,0,1-5.79-4.08c2.09-15.33-13.36-27.18-20.8-26.59-8.84.7-23.89,7.69-19.56,26,2.26,9.56,7.6,14.55,12.2,17.13a4,4,0,0,1-.08,6.94l-32.81,17.65,20.69,38.45a5.29,5.29,0,0,0,9.38-.1c2.78-5.46,6.31-11.79,8.92-14.35,5-4.9,19-8,28.59,5.27s5.62,28.68-7.18,34.82a45,45,0,0,1-15.31,4.27,5.31,5.31,0,0,0-4.11,7.82l18.08,33.61,30.59-16.45A6,6,0,0,0,2153.84,542.58Z" transform="translate(-296.97 -196.88)"/><path class="f" d="M2112.83,784a2.59,2.59,0,0,1,.35-2.66l23.68-29.94a8,8,0,0,1,6.93-3,7.85,7.85,0,0,1,6.23,4,42.25,42.25,0,0,0,9.4,11.64,18.87,18.87,0,0,0,15.53,4.65c6.15-1,11.6-5,15.33-11.24,4-6.7,3.45-12.22,2.3-15.66-1.56-4.66-4.92-7.83-7.56-8.91-1.42-.58-5.37-1.65-15.88-2.3a7.93,7.93,0,0,1-6.74-4.67l0-.09a7.88,7.88,0,0,1,1.06-8l27.08-34.25a2.61,2.61,0,0,1,3.68-.43l29.22,23.11a1.35,1.35,0,0,0,2.17-.91c.57-5.41,3.09-13.25,11.93-19.82,6.21-4.62,12.56-6.25,18.89-4.82,8,1.81,14,8.31,16.62,13.32,2.21,4.17,1.76,11.37-1.07,18-2,4.56-6.74,12.64-16.69,15.43a1.37,1.37,0,0,0-1,1.07,1.28,1.28,0,0,0,.48,1.29l30.74,24.31a2.6,2.6,0,0,1,1,1.75,2.64,2.64,0,0,1-.55,1.93l-26.33,33.29a8.09,8.09,0,0,1-13.86-2c-3.76-9.46-9.3-14.65-16.49-15.44-7.49-.81-14.57,3.53-15.94,5.56-.56.81-13.46,20.19-2.16,29.14a33.65,33.65,0,0,0,14.59,6.57,8.18,8.18,0,0,1,6.13,5.19,8,8,0,0,1-1.24,7.79l-22.69,28.69a2.6,2.6,0,0,1-1.75,1,2.64,2.64,0,0,1-1.93-.55l-29.95-23.68a8.57,8.57,0,0,1,2.34-14.75c10.11-3.85,9.51-10,9.31-12.09-.92-9.61-9-20.18-16.54-21.75-4.46-.93-8.28,1.41-11.34,6.94a32.6,32.6,0,0,0-3.46,9.79h0a8.55,8.55,0,0,1-5.44,6.47,8.45,8.45,0,0,1-8.29-1.31L2113.61,785A2.61,2.61,0,0,1,2112.83,784Zm84.07-45.52c.24.55.46,1.12.65,1.69,1.5,4.48,2.24,11.59-2.77,20-4.54,7.62-11.29,12.5-19,13.74a24.05,24.05,0,0,1-19.79-5.87A47.47,47.47,0,0,1,2145.42,755a2.55,2.55,0,0,0-2.07-1.34,2.71,2.71,0,0,0-2.38,1l-22.06,27.89,25.19,19.92a3.33,3.33,0,0,0,5.34-2,37.89,37.89,0,0,1,4-11.35c5.65-10.2,13.07-10.36,17-9.54,9.87,2.05,19.53,14.38,20.69,26.38.75,7.88-3.74,14.08-12.67,17.48a3.39,3.39,0,0,0-2.17,2.67,3.23,3.23,0,0,0,1.22,3.08l27.9,22.06,21.06-26.63a2.81,2.81,0,0,0,.44-2.73,3,3,0,0,0-2.22-1.87,38.85,38.85,0,0,1-16.84-7.6c-12-9.51-5-27.23,1.07-36.19,2.28-3.37,11.2-8.87,20.84-7.82,6.38.69,15.15,4.5,20.8,18.7a2.78,2.78,0,0,0,2.24,1.78,2.81,2.81,0,0,0,2.65-1.05l24.7-31.24-28.68-22.68a6.52,6.52,0,0,1-2.37-6.43,6.62,6.62,0,0,1,4.73-5.09c7.85-2.19,11.69-8.74,13.28-12.45,2.44-5.67,2.45-11.18,1.26-13.44-2.14-4-6.86-9.25-13.14-10.67-4.77-1.08-9.69.24-14.61,3.91-5.87,4.37-9.19,9.81-9.85,16.17a6.57,6.57,0,0,1-10.63,4.46L2193,688.87l-25.46,32.2a2.65,2.65,0,0,0-.36,2.72l0,0a2.59,2.59,0,0,0,2.27,1.58c8.59.53,14.49,1.44,17.54,2.68C2191.09,729.75,2194.85,733.74,2196.9,738.49Z" transform="translate(-296.97 -196.88)"/><path class="af" d="M758.72,1435.82H642.67a346.55,346.55,0,0,0,5.91,40.18h127Z" transform="translate(-296.97 -196.88)"/><polygon class="af" points="628.48 1279.12 645.35 1238.95 485.8 1238.95 502.67 1279.12 628.48 1279.12"/><path class="af" d="M699.75,1222.76c-40.8,49.16-54.8,107.18-57.92,155.94H823C772,1358,699.75,1222.76,699.75,1222.76Z" transform="translate(-296.97 -196.88)"/><path class="bh" d="M639.41,1476h9.17a346.55,346.55,0,0,1-5.91-40.18l-.84-57.12c3.12-48.76,17.12-106.78,57.92-155.94,0,0,72.26,135.24,123.23,155.94h23.16V1283s-19.37-119.6-141.89-208.91l-38.14-34.38s-134.13-27.05-225.34,133C375.57,1287,385.91,1413.28,397.11,1476H480C553.51,1444.31,639.41,1476,639.41,1476Z" transform="translate(-296.97 -196.88)"/><path class="bi" d="M823.3,1378.84l22.84,1.05v-1.19H823Z" transform="translate(-296.97 -196.88)"/><path class="p" d="M717.78,293.21c-20.94-.16-42.06,3.16-60.74,10.91-43.5,18.05-80.41,65.79-66,114.57,4.69,15.84,2.23,33.32,18,40.21,8.54,3.72,31.8,5.94,40.64,3,23.5-7.81,38.95-29.16,26.17-52.85-4.09-7.58-9.39-14.51-12.93-22.37s-5.14-17.19-1.54-25c7.07-15.37,30.57-20.25,45.81-19.79a53.33,53.33,0,0,1,44,24.7c12.06,19,15.12,42.16,13.35,64.23-1.89,23.63-11.85,41.67-26.78,59.8-12.85,15.6-27,30.58-35.55,48.9-7.84,16.82-10.4,35.46-10.76,53.86-.06,3.57-17.8,37.18-17.73,47.45,0,1.45,20.12,6.26,21.57,6.27l36.91.41a2.94,2.94,0,0,0,3-2.9c.56-50,15.92-97.59,54.82-131.14,14.16-12.21,29.4-22.15,40.41-37.56,15.69-22,23.43-43.58,21.19-70.69-2-24.76-10.19-49.53-26.33-68.73-17.34-20.65-42.73-33.54-69.11-39.11A194.83,194.83,0,0,0,717.78,293.21Z" transform="translate(-296.97 -196.88)"/><path class="p" d="M756.39,703.51c0,23-12.74,43.3-35.71,43.3-5,0-21.84,0-26.26-1.55-16-5.79-16.07-18.09-16.07-36.1,0-23,7.76-45.57,30.73-45.57S756.39,680.54,756.39,703.51Z" transform="translate(-296.97 -196.88)"/><path class="bj" d="M697.88,288c-20.93-.17-42,3.15-60.74,10.9-43.49,18.05-80.4,65.8-66,114.57,4.7,15.85,15.55,35.79,31.33,42.68,8.54,3.72,18.48,3.48,27.33.54,23.5-7.8,38.95-29.16,26.17-52.84-4.1-7.59-9.4-14.52-12.93-22.38s-5.15-17.19-1.54-25c7.07-15.36,30.57-20.25,45.81-19.79a53.35,53.35,0,0,1,44,24.7c12.06,19,15.11,42.16,13.35,64.24-1.89,23.63-11.85,41.67-26.78,59.79C705,501,690.88,516,682.34,534.28c-7.84,16.82-10.41,35.45-10.76,53.86-.07,3.56,1.13,40.81,1.21,51.08a2.66,2.66,0,0,0,2.63,2.64l36.9.41a2.94,2.94,0,0,0,3-2.9c.56-50,15.93-97.59,54.83-131.15,14.16-12.21,29.4-22.15,40.41-37.56,15.68-22,23.42-43.58,21.19-70.68-2-24.76-10.19-49.53-26.33-68.74-17.35-20.64-42.73-33.54-69.12-39.1A193.92,193.92,0,0,0,697.88,288Z" transform="translate(-296.97 -196.88)"/><circle class="bk" cx="403.08" cy="507.05" r="41.6"/><path class="bl" d="M585,408.5a.36.36,0,0,1-.35-.28c-2.91-13.13-3.33-33.69,11.15-57.09,14.15-22.85,34-38.14,59-45.44,26.72-7.81,58.45-6.14,94.31,5a.36.36,0,1,1-.21.69c-69-21.39-123.18-7.13-152.45,40.16-14.36,23.19-13.94,43.55-11.06,56.55a.36.36,0,0,1-.28.43Z" transform="translate(-296.97 -196.88)"/><path class="bl" d="M593.7,429.68a.35.35,0,0,1-.29-.15A54.28,54.28,0,0,1,587.52,418a.36.36,0,0,1,.68-.25,54,54,0,0,0,5.79,11.4.35.35,0,0,1-.07.5A.36.36,0,0,1,593.7,429.68Z" transform="translate(-296.97 -196.88)"/><path class="bl" d="M714,676.79a.32.32,0,0,1-.16,0,30.22,30.22,0,0,0-13.76-3.28.36.36,0,1,1,0-.72,30.82,30.82,0,0,1,14.09,3.36.36.36,0,0,1,.15.48A.35.35,0,0,1,714,676.79Z" transform="translate(-296.97 -196.88)"/><path class="bl" d="M682.83,729.83a.42.42,0,0,1-.21-.06,31.18,31.18,0,0,1,2.7-53.32.35.35,0,0,1,.48.15.36.36,0,0,1-.14.49A30.45,30.45,0,0,0,683,729.17a.37.37,0,0,1,.1.5A.35.35,0,0,1,682.83,729.83Z" transform="translate(-296.97 -196.88)"/><path class="ae" d="M1990.41,428.44c-4-7.09-4.62-17.25,13.9-26.14,26.73-12.83,32.16,11.31,25.35,26.76a5.93,5.93,0,0,0,5.45,8.3h35.43V399.19a5.31,5.31,0,0,1,7.33-4.93,45.1,45.1,0,0,0,15.5,3.49c14.18.65,25-11,22.83-27.27s-16-20.12-22.69-18.18c-3.52,1-9.62,4.92-14.65,8.42a5.3,5.3,0,0,1-8.32-4.36V312.7h-40.46a4,4,0,0,0-3.67,5.55c3.67,8.33,8.48,23.57-2.74,28.21-15.72,6.49-33.64,1.3-34.94-10.39-.71-6.43,2.25-12.85,5-17.34a4,4,0,0,0-3.4-6h-39l.24,39.66a5.94,5.94,0,0,0,9.31,4.82c3.68-2.47,8.16-4.62,12.85-4.88,11.68-.65,23.37,8.44,24.06,20.13s-7.83,26.62-20.82,26c-6.13-.3-12.42-3.51-17.34-6.81a5.9,5.9,0,0,0-9.2,5l.24,40.82h34.53A6,6,0,0,0,1990.41,428.44Z" transform="translate(-296.97 -196.88)"/><path class="ae" d="M2132.21,707.21c-3.3-12.24-5.74-33.91,19.06-32.19,29.43,2.05,27.85,22.76,16,38.14a5.47,5.47,0,0,0,3.51,8.79l44.69,6.52,5.51-37.78a6,6,0,0,1,9.7-3.71c4.93,4,11.59,6.91,18.3,2.12,13.18-9.42,20.26-36.74-2.71-36.31a35.38,35.38,0,0,0-11,2.06,6,6,0,0,1-7.88-6.46l5-34.37-46.82-6.83a5.3,5.3,0,0,0-5.32,7.93c2.7,4.65,5.32,10.28,5.8,15.21,1.06,10.75-10.05,19.43-23.82,19.38s-26.77-14.4-25-26.61a30.3,30.3,0,0,1,6.43-13.94,5.3,5.3,0,0,0-3.36-8.57l-44.12-6.44-5.51,37.73a5.12,5.12,0,0,1-7.65,3.68c-10.22-5.9-29.37-13.27-33.83,10.79-5,26.89,17.47,27.69,33.13,19a5.12,5.12,0,0,1,7.62,5.17l-5.46,37.44,41.67,6.08A5.47,5.47,0,0,0,2132.21,707.21Z" transform="translate(-296.97 -196.88)"/><path class="ae" d="M2215.45,731.09l-.38,0-44.68-6.52a8,8,0,0,1-6.32-4.95,8.06,8.06,0,0,1,1.11-8c6.65-8.62,9.06-17.82,6.28-24-2.57-5.74-9.62-9.16-20.37-9.91-7.1-.49-12.17,1-15.06,4.55-5.15,6.25-3,17.93-1.29,24.34h0A8,8,0,0,1,2133,714a8.13,8.13,0,0,1-7.25,2.65l-41.67-6.08a2.62,2.62,0,0,1-2.21-3l5.46-37.44a2.4,2.4,0,0,0-1-2.39,2.56,2.56,0,0,0-2.73-.11c-9.33,5.19-22.44,7.78-30.69,1.85-4.29-3.08-8.86-9.68-6.29-23.59,1.64-8.83,5.36-14.64,11.05-17.26,8.52-3.93,19.21.37,26.67,4.68a2.51,2.51,0,0,0,2.38.09,2.44,2.44,0,0,0,1.37-1.88l5.51-37.73a2.6,2.6,0,0,1,3-2.21l44.12,6.43a7.79,7.79,0,0,1,6.18,4.86,7.94,7.94,0,0,1-1.14,7.92,27.32,27.32,0,0,0-5.9,12.71c-.69,4.71,1.31,10.31,5.34,15,4.64,5.39,11,8.62,17.06,8.64h.09c7.16,0,13.77-2.58,17.71-6.91a12.35,12.35,0,0,0,3.42-9.61c-.37-3.72-2.26-8.61-5.47-14.15a7.92,7.92,0,0,1,8-11.83l46.82,6.83a2.63,2.63,0,0,1,2.22,3l-5,34.37a3.22,3.22,0,0,0,1.17,3,3.29,3.29,0,0,0,3.26.58,38.1,38.1,0,0,1,11.84-2.21c11.62-.25,15.5,6.13,16.76,9.94,3.17,9.57-2.67,24.11-12.48,31.12C2244,695.82,2236.42,695,2229,689a3.37,3.37,0,0,0-3.4-.55,3.24,3.24,0,0,0-2.05,2.6L2218,728.85a2.61,2.61,0,0,1-2.59,2.24Zm-66.87-58.78c.93,0,1.89,0,2.88.1,16.16,1.13,22.4,7.69,24.78,13,3.63,8.08,1,19.05-6.91,29.36a2.86,2.86,0,0,0-.41,2.86,2.81,2.81,0,0,0,2.22,1.74l42.1,6.14,5.13-35.19a8.45,8.45,0,0,1,5.34-6.72,8.57,8.57,0,0,1,8.6,1.36c8.4,6.82,13.46,3.2,15.13,2,7.85-5.61,13-17.87,10.55-25.22-1.43-4.32-5.38-6.44-11.69-6.34a32.48,32.48,0,0,0-10.21,1.91,8.57,8.57,0,0,1-11.34-9.31l4.63-31.78-44.22-6.45a2.59,2.59,0,0,0-2.6,1.14,2.68,2.68,0,0,0-.09,2.89c3.64,6.26,5.7,11.73,6.15,16.26a17.6,17.6,0,0,1-4.76,13.64c-4.91,5.4-13,8.62-21.58,8.62h-.1c-7.54,0-15.4-3.93-21-10.45-5.08-5.89-7.47-12.88-6.56-19.16a32.42,32.42,0,0,1,7-15.17,2.77,2.77,0,0,0,.4-2.75,2.59,2.59,0,0,0-2.07-1.62l-41.54-6.06-5.13,35.14a7.74,7.74,0,0,1-11.55,5.57c-5.23-3-15-7.62-21.86-4.47-4.06,1.87-6.78,6.4-8.08,13.46-1.15,6.19-1.36,14.4,4.19,18.39s15.76,3,25.08-2.18a7.8,7.8,0,0,1,8.25.38,7.65,7.65,0,0,1,3.24,7.46l-5.08,34.84,39.08,5.7a2.82,2.82,0,0,0,2.57-.93,2.79,2.79,0,0,0,.62-2.59c-2.44-9-4-21.36,2.29-29C2135.57,674.51,2141.14,672.31,2148.58,672.31Z" transform="translate(-296.97 -196.88)"/><path class="bm" d="M1096.33,1382.58c-1-2.69-2.52-4.24-4.11-4.24H553.83c-2.09,0-4,2.33-5.17,6.19a28,28,0,0,0-.4,12.87l5.84,27.66c1.33,6.34,4.23,10.4,7.41,10.4h527c3,0,5.51-4.61,6.07-11l2.85-32.26A22.88,22.88,0,0,0,1096.33,1382.58Z" transform="translate(-296.97 -196.88)"/><polygon class="bn" points="642.68 1293.12 665.58 1238.58 641.54 1238.58 618.63 1293.12 642.68 1293.12"/><polygon class="bo" points="423.99 1238.58 399.94 1238.58 422.85 1293.12 446.89 1293.12 423.99 1238.58"/></svg>