<?xml version="1.0" encoding="UTF-8" standalone="no"?>
<svg
   xmlns:dc="http://purl.org/dc/elements/1.1/"
   xmlns:cc="http://creativecommons.org/ns#"
   xmlns:rdf="http://www.w3.org/1999/02/22-rdf-syntax-ns#"
   xmlns:svg="http://www.w3.org/2000/svg"
   xmlns="http://www.w3.org/2000/svg"
   version="1.1"
   id="Capa_1"
   x="0px"
   y="0px"
   width="472.32001"
   height="124.95"
   viewBox="0 0 472.31999 124.95"
   xml:space="preserve"><metadata
   id="metadata103"><rdf:RDF><cc:Work
       rdf:about=""><dc:format>image/svg+xml</dc:format><dc:type
         rdf:resource="http://purl.org/dc/dcmitype/StillImage" /><dc:title></dc:title></cc:Work></rdf:RDF></metadata><defs
   id="defs101" />
<g
   id="g66"
   transform="matrix(0.93750006,0,0,0.9520175,-5.1303124e-4,-177.34214)">
	<g
   id="g64">
		<g
   id="g30">
			<g
   id="g4">
				<path
   d="m 160.398,239.132 c 0,1.665 0.299,3.076 0.896,4.234 0.597,1.157 1.39,2.092 2.38,2.809 0.977,0.717 2.127,1.251 3.434,1.598 1.312,0.347 2.696,0.519 4.162,0.519 0.96,0 1.994,-0.083 3.098,-0.244 1.101,-0.164 2.133,-0.474 3.099,-0.935 0.962,-0.464 1.769,-1.102 2.403,-1.911 0.643,-0.809 0.968,-1.836 0.968,-3.089 0,-1.343 -0.431,-2.43 -1.274,-3.262 -0.849,-0.829 -1.961,-1.538 -3.336,-2.118 -1.377,-0.576 -2.938,-1.064 -4.677,-1.457 -1.746,-0.394 -3.513,-0.844 -5.301,-1.354 -1.837,-0.462 -3.624,-1.03 -5.37,-1.701 -1.743,-0.668 -3.3,-1.535 -4.677,-2.603 -1.378,-1.062 -2.487,-2.383 -3.337,-3.953 -0.846,-1.572 -1.273,-3.518 -1.273,-5.833 0,-2.548 0.539,-4.754 1.615,-6.63 1.078,-1.874 2.49,-3.434 4.237,-4.685 1.739,-1.251 3.711,-2.175 5.915,-2.778 2.201,-0.599 4.404,-0.9 6.604,-0.9 2.564,0 5.035,0.286 7.398,0.866 2.365,0.58 4.462,1.515 6.292,2.812 1.839,1.296 3.294,2.952 4.372,4.963 1.078,2.011 1.617,4.455 1.617,7.321 h -10.456 c -0.098,-1.478 -0.402,-2.706 -0.936,-3.678 -0.528,-0.973 -1.223,-1.735 -2.098,-2.29 -0.871,-0.557 -1.879,-0.95 -3.025,-1.179 -1.145,-0.232 -2.365,-0.347 -3.643,-0.347 -0.874,0 -1.749,0.091 -2.62,0.275 -0.87,0.187 -1.662,0.511 -2.369,0.97 -0.716,0.465 -1.3,1.056 -1.754,1.773 -0.462,0.717 -0.688,1.586 -0.688,2.602 0,0.969 0.181,1.759 0.545,2.36 0.369,0.6 1.089,1.146 2.169,1.633 1.078,0.484 2.573,0.995 4.476,1.526 1.901,0.534 4.389,1.193 7.461,1.979 0.598,0.138 1.377,0.333 2.339,0.585 0.966,0.258 1.988,0.605 3.067,1.044 1.076,0.442 2.148,1.007 3.234,1.702 1.07,0.694 2.059,1.55 2.954,2.568 0.894,1.018 1.617,2.232 2.167,3.644 0.555,1.415 0.827,3.044 0.827,4.894 0,2.268 -0.436,4.373 -1.306,6.318 -0.877,1.945 -2.171,3.621 -3.89,5.032 -1.721,1.414 -3.853,2.523 -6.397,3.332 -2.548,0.811 -5.494,1.217 -8.838,1.217 -2.711,0 -5.334,-0.35 -7.88,-1.045 -2.548,-0.692 -4.788,-1.756 -6.71,-3.188 -1.927,-1.438 -3.475,-3.265 -4.645,-5.484 -1.167,-2.22 -1.732,-4.856 -1.688,-7.909 z"
   id="path2" />
			</g>
			<g
   id="g8">
				<path
   d="m 194.246,206.02 h 15.212 l 11.488,34.085 h 0.139 l 10.871,-34.085 h 15.202 v 49.561 h -10.112 v -35.123 h -0.135 l -12.041,35.123 h -8.327 L 204.5,220.804 h -0.134 v 34.775 h -10.12 z"
   id="path6" />
			</g>
			<g
   id="g12">
				<path
   d="m 266.632,206.02 h 11.079 l 18.366,49.561 h -11.216 l -3.715,-11.032 h -18.365 l -3.857,11.032 h -10.938 z m -1.033,30.405 h 12.729 l -6.188,-18.186 h -0.146 z"
   id="path10" />
			</g>
			<g
   id="g16">
				<path
   d="m 304.267,239.132 c 0,1.665 0.3,3.076 0.896,4.234 0.599,1.157 1.391,2.092 2.376,2.809 0.984,0.717 2.124,1.251 3.439,1.598 1.297,0.347 2.688,0.519 4.153,0.519 0.965,0 1.997,-0.083 3.1,-0.244 1.104,-0.164 2.135,-0.474 3.104,-0.935 0.964,-0.464 1.769,-1.102 2.408,-1.911 0.646,-0.809 0.965,-1.836 0.965,-3.089 0,-1.343 -0.426,-2.43 -1.271,-3.262 -0.86,-0.829 -1.962,-1.538 -3.343,-2.118 -1.377,-0.576 -2.938,-1.064 -4.684,-1.457 -1.745,-0.394 -3.5,-0.844 -5.304,-1.354 -1.823,-0.462 -3.614,-1.03 -5.357,-1.701 -1.739,-0.668 -3.301,-1.535 -4.678,-2.603 -1.379,-1.062 -2.496,-2.383 -3.339,-3.953 -0.854,-1.572 -1.272,-3.518 -1.272,-5.833 0,-2.548 0.539,-4.754 1.616,-6.63 1.078,-1.874 2.486,-3.434 4.229,-4.685 1.748,-1.251 3.719,-2.175 5.923,-2.778 2.189,-0.599 4.396,-0.9 6.6,-0.9 2.569,0 5.037,0.286 7.402,0.866 2.363,0.58 4.464,1.515 6.3,2.812 1.826,1.296 3.282,2.952 4.361,4.963 1.08,2.011 1.619,4.455 1.619,7.321 h -10.456 c -0.093,-1.478 -0.4,-2.706 -0.931,-3.678 -0.525,-0.973 -1.231,-1.735 -2.104,-2.29 -0.872,-0.557 -1.884,-0.95 -3.03,-1.179 -1.146,-0.232 -2.363,-0.347 -3.647,-0.347 -0.87,0 -1.73,0.091 -2.604,0.275 -0.885,0.187 -1.665,0.511 -2.376,0.97 -0.723,0.465 -1.311,1.056 -1.756,1.773 -0.458,0.717 -0.688,1.586 -0.688,2.602 0,0.969 0.186,1.759 0.555,2.36 0.363,0.6 1.076,1.146 2.154,1.633 1.078,0.484 2.568,0.995 4.478,1.526 1.904,0.534 4.396,1.193 7.466,1.979 0.604,0.138 1.387,0.333 2.351,0.585 0.965,0.258 1.983,0.605 3.054,1.044 1.077,0.442 2.156,1.007 3.234,1.702 1.077,0.694 2.064,1.55 2.96,2.568 0.896,1.018 1.618,2.232 2.169,3.644 0.555,1.415 0.828,3.044 0.828,4.894 0,2.268 -0.438,4.373 -1.312,6.318 -0.871,1.945 -2.169,3.621 -3.879,5.032 -1.723,1.414 -3.866,2.523 -6.414,3.332 -2.542,0.811 -5.486,1.217 -8.84,1.217 -2.707,0 -5.325,-0.35 -7.872,-1.045 -2.551,-0.692 -4.782,-1.756 -6.715,-3.188 -1.921,-1.438 -3.474,-3.265 -4.645,-5.484 -1.17,-2.22 -1.733,-4.856 -1.684,-7.909 z"
   id="path14" />
			</g>
			<g
   id="g20">
				<path
   d="m 338.123,206.02 h 10.799 v 19.02 h 19.891 v -19.02 h 10.797 v 49.561 h -10.797 v -21.378 h -19.891 v 21.378 h -10.799 z"
   id="path18" />
			</g>
			<g
   id="g24">
				<path
   d="m 385.667,206.02 h 10.8 v 49.561 h -10.8 z"
   id="path22" />
			</g>
			<g
   id="g28">
				<path
   d="m 402.511,206.02 h 10.74 l 20.509,33.25 h 0.127 v -33.25 h 10.122 v 49.561 h -10.812 l -20.429,-33.177 h -0.14 v 33.177 h -10.12 z"
   id="path26" />
			</g>
		</g>
		<g
   id="g34">
			<path
   d="m 484.976,244.845 c 0.444,-0.551 0.985,-1.65 0.985,-1.65 l -2.788,0.577 c -2.662,-1.579 -8.239,-5.147 -8.239,-5.147 l -1.31,-0.795 2.262,-0.441 c 0,0 17.926,-3.121 27.922,-4.863 -1.562,9.886 -2.997,18.978 -4.706,29.77 -2.362,-2.983 -6.188,-7.791 -6.188,-7.791 l 0.194,-3.136 -1.596,1.368 c -8.044,5.871 -17.661,8.217 -28.095,3.908 -6.666,-2.757 -11.279,-7.715 -13.966,-14.362 -5.521,-13.633 1.104,-28.947 14.779,-34.426 12.359,-4.952 27.357,0.49 32.062,11.748 -2.775,1.618 -8.391,3.921 -8.391,3.921 0,0 -2.604,-3.347 -4.325,-4.782 -7.239,-6.025 -17.567,-4.143 -23.316,3.236 -5.602,7.184 -4.485,17.818 2.361,23.66 5.485,4.657 16.433,6.951 22.355,-0.795 z"
   id="path32" />
		</g>
		<g
   id="g52">
			<path
   d="m 155.978,267.973 h 4.252 l 10.496,26.604 10.453,-26.604 h 4.254 v 30.349 h -2.893 v -26.226 h -0.083 l -10.37,26.226 h -2.72 l -10.414,-26.226 h -0.087 v 26.226 h -2.888 z"
   id="path36" />
			<path
   d="m 218.156,267.973 h 3.231 l 11.9,30.349 h -3.102 l -3.697,-9.437 h -13.814 l -3.653,9.437 h -3.105 z m -4.589,18.449 h 11.944 l -5.864,-15.557 z"
   id="path38" />
			<path
   d="m 279.789,298.321 h -2.084 l -0.382,-5.523 h -0.085 c -0.513,1.078 -1.144,2.004 -1.892,2.78 -0.753,0.781 -1.582,1.417 -2.488,1.914 -0.905,0.497 -1.876,0.864 -2.911,1.104 -1.035,0.24 -2.104,0.361 -3.207,0.361 -2.382,0 -4.471,-0.433 -6.271,-1.299 -1.801,-0.861 -3.294,-2.023 -4.484,-3.48 -1.188,-1.461 -2.083,-3.146 -2.678,-5.061 -0.594,-1.914 -0.893,-3.902 -0.893,-5.974 0,-2.068 0.299,-4.062 0.893,-5.972 0.595,-1.914 1.487,-3.603 2.678,-5.06 1.19,-1.46 2.688,-2.622 4.484,-3.485 1.802,-0.861 3.891,-1.295 6.271,-1.295 1.586,0 3.087,0.211 4.506,0.637 1.416,0.426 2.687,1.062 3.806,1.912 1.117,0.852 2.053,1.905 2.807,3.166 0.747,1.265 1.268,2.713 1.548,4.356 h -2.889 c -0.087,-0.878 -0.376,-1.765 -0.871,-2.655 -0.499,-0.894 -1.163,-1.707 -1.998,-2.445 -0.835,-0.731 -1.835,-1.336 -2.994,-1.803 -1.162,-0.47 -2.467,-0.703 -3.91,-0.703 -2.015,0 -3.739,0.381 -5.188,1.146 -1.444,0.767 -2.627,1.778 -3.55,3.038 -0.921,1.263 -1.603,2.693 -2.037,4.295 -0.438,1.602 -0.661,3.223 -0.661,4.864 0,1.674 0.223,3.303 0.661,4.89 0.438,1.587 1.116,3.01 2.037,4.271 0.923,1.263 2.104,2.272 3.55,3.039 1.445,0.769 3.174,1.146 5.188,1.146 1.669,0 3.165,-0.275 4.482,-0.83 1.315,-0.554 2.429,-1.324 3.338,-2.312 0.904,-0.992 1.586,-2.17 2.038,-3.527 0.454,-1.357 0.666,-2.852 0.64,-4.465 h -10.328 v -2.465 h 12.878 z"
   id="path40" />
			<path
   d="m 312.045,267.973 h 3.227 l 11.912,30.349 h -3.109 l -3.693,-9.437 h -13.814 l -3.65,9.437 h -3.104 z m -4.59,18.449 h 11.946 l -5.865,-15.557 z"
   id="path42" />
			<path
   d="m 346.259,267.973 h 21.849 v 2.552 l -19.979,25.333 h 20.402 v 2.464 h -23.634 v -2.55 l 19.979,-25.333 H 346.26 Z"
   id="path44" />
			<path
   d="m 390.166,267.973 h 2.894 v 30.349 h -2.894 z"
   id="path46" />
			<path
   d="m 417.148,267.973 h 3.229 l 17.68,25.673 h 0.087 v -25.673 h 2.893 v 30.349 h -3.229 l -17.686,-25.671 h -0.079 v 25.671 h -2.896 z"
   id="path48" />
			<path
   d="m 464.922,267.973 h 20.955 v 2.466 h -18.063 v 10.968 h 16.913 v 2.465 h -16.913 v 11.986 h 18.272 v 2.464 h -21.168 z"
   id="path50" />
		</g>
		<g
   id="g62">
			<g
   id="g56">
				<path
   d="m 77.376,270.978 c -2.384,-2.144 -5.282,-3.853 -8.195,-5.235 -6.99,-3.32 -14.18,-6.212 -21.18,-9.497 -19.453,-9.125 -31.895,-29.858 -17.743,-54.571 l -20.719,4.723 c -6.604,1.505 -10.734,8.078 -9.229,14.682 l 19.804,86.906 c 1.507,6.604 8.077,10.737 14.691,9.233 l 8.629,-1.973 c 0,-0.049 0.006,-0.095 0,-0.143 -5.699,-2.531 -11.059,-4.912 -16.813,-7.469 3.39,-8.056 6.599,-15.672 9.995,-23.75 2.157,1.289 3.675,2.246 5.24,3.125 9.165,5.125 18.876,7.513 29.384,5.752 4.872,-0.812 9.066,-2.592 10.455,-7.961 1.416,-5.476 -0.28,-10.184 -4.319,-13.822 z"
   id="path54" />
			</g>
			<g
   id="g60">
				<path
   d="m 96.446,186.59 -12.363,2.817 c 0.008,0.006 0.008,0.011 0.008,0.011 6.019,1.957 11.224,3.491 16.225,5.488 1.326,0.531 4.415,1.763 4.415,1.763 0,0 -6.143,15.931 -8.746,23.49 -9.827,-7.85 -19.116,-9.976 -29.832,-8.396 -4.599,0.684 -9.085,3.819 -10.432,8.599 -1.407,5.009 0.34,8.928 4.517,11.63 3.068,1.98 6.371,3.672 9.723,5.127 6.547,2.84 13.32,5.178 19.795,8.171 15.945,7.361 24.168,19.724 22.739,37.542 -0.41,5.154 -1.926,11.271 -3.283,17.29 0.035,0.041 0.062,0.075 0.087,0.112 l 12.405,-2.829 c 6.604,-1.504 10.734,-8.078 9.235,-14.681 L 111.128,195.82 c -1.508,-6.603 -8.079,-10.736 -14.682,-9.23 z"
   id="path58" />
			</g>
		</g>
	</g>
</g>
<g
   id="g68">
</g>
<g
   id="g70">
</g>
<g
   id="g72">
</g>
<g
   id="g74">
</g>
<g
   id="g76">
</g>
<g
   id="g78">
</g>
<g
   id="g80">
</g>
<g
   id="g82">
</g>
<g
   id="g84">
</g>
<g
   id="g86">
</g>
<g
   id="g88">
</g>
<g
   id="g90">
</g>
<g
   id="g92">
</g>
<g
   id="g94">
</g>
<g
   id="g96">
</g>
</svg>
