<?xml version="1.0" encoding="UTF-8" standalone="no"?>
<svg
   xmlns:dc="http://purl.org/dc/elements/1.1/"
   xmlns:cc="http://creativecommons.org/ns#"
   xmlns:rdf="http://www.w3.org/1999/02/22-rdf-syntax-ns#"
   xmlns:svg="http://www.w3.org/2000/svg"
   xmlns="http://www.w3.org/2000/svg"
   id="color-vzhurudolu"
   viewBox="0 0 100 99.996002"
   width="100"
   height="99.996002"
   version="1.1">
  <metadata
     id="metadata13">
    <rdf:RDF>
      <cc:Work
         rdf:about="">
        <dc:format>image/svg+xml</dc:format>
        <dc:type
           rdf:resource="http://purl.org/dc/dcmitype/StillImage" />
        <dc:title></dc:title>
      </cc:Work>
    </rdf:RDF>
  </metadata>
  <defs
     id="defs11" />
  <path
     fill="#302e16"
     d="m 99.996125,91.996584 a 7.9995339,7.9995339 0 0 1 -7.99954,7.999536 H 7.9995342 A 7.9975904,7.9975904 0 0 1 2.3671372e-7,91.996584 V 7.9975909 A 7.9975904,7.9975904 0 0 1 8.0014782,1.5999999e-7 H 91.998535 A 8.0014774,8.0014774 0 0 1 99.999995,7.9995345 V 91.996584 Z"
     id="path2"
     style="stroke-width:1.94352" />
  <path
     fill="#ffffff"
     d="m 83.938745,46.60953 c 0,0 -1.83663,-8.907159 -2.91139,-9.983869 l -4.10667,-4.106661 0.60638,-0.602492 0.0661,-0.06414 a 1.4556976,1.4556976 0 0 0 0,-2.050415 l -1.53927,-1.541208 -1.53538,-1.541213 c -0.62776,-0.563621 -1.30021,-0.759917 -2.0543,0 l -0.6744,0.672459 -5.879154,-5.88887 c -0.388705,-0.388704 -1.014518,-0.388704 -1.399336,0 l -6.957807,6.957806 a 0.99702646,0.99702646 0 0 0 0,1.391561 l 5.88887,5.88887 L 49.884363,49.299363 36.093135,35.500361 A 91.102564,91.102564 0 0 1 43.55237,29.31219 0.89013279,0.89013279 0 0 0 43.752554,28.072223 C 42.018933,25.681692 40.279481,23.295047 38.543916,20.90646 a 0.91539857,0.91539857 0 0 0 -0.633587,-0.338173 0.91539857,0.91539857 0 0 0 -0.68412,0.2099 101.85607,101.85607 0 0 0 -8.660331,7.200747 l -0.701612,-0.699668 -0.480049,-0.318737 c -0.55196,-0.0097 -0.268207,0 -0.85515,-0.03888 -0.307077,0.03888 -0.468389,0.180748 -0.715215,0.357608 l -1.541213,1.539269 -1.535382,1.53927 a 1.4420928,1.4420928 0 0 0 0,2.050414 l 0.699667,0.699668 a 100.76964,100.76964 0 0 0 -7.21435,8.671992 0.91928561,0.91928561 0 0 0 -0.207957,0.688007 0.91151152,0.91151152 0 0 0 0.340116,0.633587 c 2.386644,1.739453 4.777176,3.473074 7.16382,5.210581 0.396478,0.283755 0.952326,0.194352 1.239967,-0.202126 a 91.78474,91.78474 0 0 1 6.199833,-7.472839 l 13.797058,13.787341 -18.473171,18.479 a 2.9055645,2.9055645 0 0 0 0,4.106661 l 0.51309,0.509203 0.51309,0.515032 a 2.9055645,2.9055645 0 0 0 4.104716,0 L 49.886307,59.557264 68.913381,78.584338 a 2.9075079,2.9075079 0 0 0 4.104714,0 l 0.51309,-0.51309 0.51504,-0.513089 a 2.9094515,2.9094515 0 0 0 0,-4.106662 L 55.019147,54.42443 68.575209,40.868367 l 4.104716,4.104718 c 0.88819,0.89402 10.01302,2.88613 10.01302,2.88613 0.36927,0.116617 0.77741,0.06414 1.10587,-0.137991 a 1.360465,1.360465 0 0 0 0.13993,-1.111694"
     id="path4"
     style="stroke-width:1.94352" />
</svg>
