<?xml version="1.0" encoding="UTF-8" standalone="no"?>
<svg
   xmlns:dc="http://purl.org/dc/elements/1.1/"
   xmlns:cc="http://creativecommons.org/ns#"
   xmlns:rdf="http://www.w3.org/1999/02/22-rdf-syntax-ns#"
   xmlns:svg="http://www.w3.org/2000/svg"
   xmlns="http://www.w3.org/2000/svg"
   id="color-vzhurudolu"
   viewBox="0 0 134 127"
   width="100%"
   height="100%"
   version="1.1">
  <metadata
     id="metadata13">
    <rdf:RDF>
      <cc:Work
         rdf:about="">
        <dc:format>image/svg+xml</dc:format>
        <dc:type
           rdf:resource="http://purl.org/dc/dcmitype/StillImage" />
        <dc:title></dc:title>
      </cc:Work>
    </rdf:RDF>
  </metadata>
  <defs
     id="defs11" />
  <path
     fill="#302e16"
     d="M92.365 47.335a4.116 4.116 0 01-4.116 4.116H45.03a4.115 4.115 0 01-4.116-4.116V4.115A4.115 4.115 0 0145.031 0H88.25a4.117 4.117 0 014.117 4.116v43.219z"
     id="path2" />
  <path
     fill="#fff"
     d="M84.103 23.982s-.945-4.583-1.498-5.137l-2.113-2.113.312-.31.034-.033a.749.749 0 000-1.055l-.792-.793-.79-.793c-.323-.29-.669-.391-1.057 0l-.347.346-3.025-3.03c-.2-.2-.522-.2-.72 0l-3.58 3.58a.513.513 0 000 .716l3.03 3.03-6.976 6.976-7.096-7.1a46.875 46.875 0 013.838-3.184.458.458 0 00.103-.638c-.892-1.23-1.787-2.458-2.68-3.687a.471.471 0 00-.326-.174.471.471 0 00-.352.108 52.408 52.408 0 00-4.456 3.705l-.361-.36-.247-.164c-.284-.005-.138 0-.44-.02-.158.02-.241.093-.368.184l-.793.792-.79.792a.742.742 0 000 1.055l.36.36a51.849 51.849 0 00-3.712 4.462.473.473 0 00-.107.354.469.469 0 00.175.326c1.228.895 2.458 1.787 3.686 2.681.204.146.49.1.638-.104a47.226 47.226 0 013.19-3.845l7.099 7.094-9.505 9.508a1.495 1.495 0 000 2.113l.264.262.264.265a1.495 1.495 0 002.112 0l9.505-9.507 9.79 9.79a1.496 1.496 0 002.112 0l.264-.264.265-.264a1.497 1.497 0 000-2.113l-9.79-9.79 6.975-6.975 2.112 2.112c.457.46 5.152 1.485 5.152 1.485.19.06.4.033.569-.071a.7.7 0 00.072-.572"
     id="path4" />
  <path
     fill="#302e16"
     d="M13.535 96.463H8.613L2.125 79.148 0 78.914v-2.723h9.845v2.723l-3.034.234c2.57 7.295 4.03 11.52 4.382 12.67.077-.203.22-.602.425-1.191A2217.12 2217.12 0 0115.72 79.15l-3.091-.234v-2.723h9.695v2.723l-2.197.234zM41.032 96.463H23.335v-3.089c2.296-2.746 4.225-5.042 5.788-6.894a852.997 852.997 0 013.881-4.57l1.875-2.191h-7.413l-.541 3.752h-2.93c0-3.76.099-6.189.293-7.282h16.435v3.12c-2.48 2.95-4.51 5.348-6.094 7.2a425.57 425.57 0 01-3.918 4.533c-1.03 1.174-1.58 1.797-1.647 1.876h8.876l.602-3.982h2.782c0 3.982-.098 6.494-.292 7.527zM53.147 96.463h-9.786V93.74l2.973-.278V79.176l-2.973-.262V76.19h9.786v2.725l-2.609.262v5.07h8.16v-5.07l-2.635-.262V76.19h9.77v2.725l-2.96.262v14.285l2.96.278v2.724h-9.77V93.74l2.636-.278v-5.67h-8.16v5.67l2.608.278zM86.969 79.12v8.761c0 2.675-.337 4.593-1.01 5.757-.596.996-1.552 1.8-2.87 2.414-1.319.617-2.937.926-4.851.926-3.933 0-6.475-1.143-7.617-3.429-.518-1.035-.777-2.87-.777-5.507V79.12l-2.52-.206V76.19h9.422v2.723l-2.697.206v8.102c0 1.228.022 2.142.066 2.732.045.59.15 1.108.317 1.56.253.632.737 1.106 1.457 1.422.718.31 1.544.468 2.484.468.926 0 1.727-.135 2.409-.404.678-.267 1.162-.66 1.457-1.181.245-.437.411-.996.496-1.669.087-.673.134-1.599.134-2.783V79.12l-2.725-.206V76.19h9.258v2.753zm-5.99-6.708c0 .74-.247 1.382-.74 1.917-.492.537-1.117.806-1.866.806-.772 0-1.412-.258-1.92-.779-.51-.517-.763-1.146-.763-1.887 0-.773.258-1.411.776-1.92.52-.507 1.165-.76 1.935-.76.801 0 1.432.239 1.89.717.456.478.687 1.113.687 1.906zm-1.172.028c0-.48-.134-.854-.397-1.13-.262-.272-.612-.41-1.037-.41-.43 0-.786.148-1.064.44-.279.293-.418.67-.418 1.13 0 .458.134.831.404 1.12.267.289.647.431 1.134.431.43 0 .767-.146 1.01-.439.245-.291.368-.674.368-1.142zM100.96 96.463H90.87V93.74l2.972-.278V79.176l-2.973-.262v-2.725h9.754c1.963 0 3.472.166 4.526.498 1.095.341 1.957.935 2.592 1.78.634.844.954 1.893.954 3.142 0 3.026-1.478 4.973-4.438 5.83.486.234.975.723 1.464 1.465.232.323.725 1.114 1.478 2.373.411.714.846 1.207 1.304 1.48.458.275 1.05.41 1.773.41.276 0 .555-.03.85-.088l.234 3.268a22.43 22.43 0 01-3.032.203c-.762 0-1.442-.132-2.038-.403-.593-.269-1.084-.605-1.464-1.01-.382-.405-.753-.926-1.113-1.56-.302-.545-.663-1.213-1.084-1.998-.42-.786-.73-1.348-.925-1.693-.536-.927-1.098-1.502-1.684-1.728h-2.005v5.302l2.943.278v2.725h.002zm-2.944-11.617h1.745c1.57 0 2.659-.167 3.264-.498.76-.408 1.142-1.112 1.142-2.11 0-.615-.107-1.092-.322-1.435-.215-.342-.548-.62-.996-.834-.567-.264-1.509-.396-2.827-.396h-2.006zM131.092 79.12v8.761c0 2.675-.335 4.593-1.01 5.757-.597.996-1.552 1.8-2.87 2.414-1.32.617-2.935.926-4.852.926-3.933 0-6.474-1.143-7.614-3.429-.52-1.035-.777-2.87-.777-5.507V79.12l-2.52-.206V76.19h9.42v2.723l-2.697.206v8.102c0 1.228.02 2.142.068 2.732a5.59 5.59 0 00.315 1.56c.253.632.737 1.106 1.455 1.422.722.31 1.546.468 2.484.468.93 0 1.73-.135 2.411-.404.68-.267 1.164-.66 1.457-1.181.243-.437.411-.996.496-1.669.089-.673.134-1.599.134-2.783V79.12l-2.725-.206V76.19h9.257v2.753zM24.53 125.996v-2.723l2.975-.28v-14.28l-2.975-.266v-2.725h7.061c2.79 0 4.893.147 6.298.439 4.638 1.027 6.959 4.018 6.959 8.98 0 2.548-.448 4.644-1.34 6.292-.894 1.645-2.367 2.86-4.417 3.64-.995.39-2.145.642-3.45.753-1.302.115-2.908.168-4.811.168h-6.3v.002zm7.177-3.543h1.437c1.523 0 2.821-.191 3.895-.573 1.145-.4 1.97-1.137 2.484-2.211.513-1.076.77-2.475.77-4.204 0-2.557-.734-4.307-2.198-5.243-.978-.645-2.535-.968-4.674-.968h-1.714zM67.378 115.318c0 3.613-.865 6.387-2.593 8.32-1.73 1.933-4.175 2.9-7.34 2.9-2.959 0-5.27-.887-6.929-2.667-1.66-1.774-2.49-4.31-2.49-7.602 0-3.661.844-6.426 2.533-8.29 1.69-1.866 4.175-2.799 7.457-2.799 3.085 0 5.416.855 6.993 2.564 1.58 1.709 2.37 4.236 2.37 7.574zm-4.542.66c0-2.412-.379-4.222-1.135-5.428-.758-1.207-2.058-1.809-3.904-1.809-1.767 0-3.102.588-4.006 1.764-.902 1.176-1.355 2.878-1.355 5.105 0 1.377.14 2.56.418 3.547.277.985.668 1.747 1.17 2.284.503.536 1.053.926 1.65 1.164.595.24 1.264.36 2.007.36 1.61 0 2.872-.557 3.786-1.678.913-1.119 1.369-2.887 1.369-5.31zM86.789 125.996H69.824v-2.723l2.973-.28v-14.28l-2.973-.266v-2.725h10.354v2.725l-3.177.265v13.872h6.783l.41-3.311h2.858c0 3.564-.088 5.806-.263 6.723zM107.397 108.653v8.76c0 2.675-.334 4.594-1.01 5.754-.596.999-1.551 1.804-2.87 2.42-1.318.615-2.937.92-4.851.92-3.933 0-6.473-1.14-7.616-3.423-.519-1.038-.777-2.873-.777-5.51v-8.922l-2.518-.204v-2.725h9.42v2.725l-2.698.204v8.102c0 1.232.023 2.142.068 2.732.042.59.147 1.112.316 1.56.251.633.737 1.11 1.457 1.42.718.315 1.543.47 2.483.47.929 0 1.73-.132 2.41-.404.678-.267 1.164-.66 1.455-1.18.244-.438.413-.995.498-1.67.088-.673.133-1.599.133-2.782v-8.247l-2.726-.205v-2.724h9.258v2.755zm-5.992-6.709a2.74 2.74 0 01-.738 1.917c-.494.54-1.118.805-1.866.805-.774 0-1.412-.257-1.922-.774a2.607 2.607 0 01-.761-1.892c0-.77.259-1.41.777-1.918.518-.507 1.162-.763 1.934-.763.801 0 1.43.24 1.888.718.459.483.688 1.114.688 1.907zm-1.17.03c0-.48-.133-.854-.397-1.13-.262-.274-.612-.41-1.037-.41-.43 0-.785.146-1.063.438-.281.297-.42.671-.42 1.13 0 .459.134.832.404 1.12.267.29.647.432 1.135.432.43 0 .768-.146 1.01-.439.244-.293.369-.673.369-1.141z"
     id="path6" />
</svg>
