<?xml version="1.0" encoding="UTF-8" standalone="no"?>
<svg
   xmlns:dc="http://purl.org/dc/elements/1.1/"
   xmlns:cc="http://creativecommons.org/ns#"
   xmlns:rdf="http://www.w3.org/1999/02/22-rdf-syntax-ns#"
   xmlns:svg="http://www.w3.org/2000/svg"
   xmlns="http://www.w3.org/2000/svg"
   xmlns:sodipodi="http://sodipodi.sourceforge.net/DTD/sodipodi-0.dtd"
   xmlns:inkscape="http://www.inkscape.org/namespaces/inkscape"
   width="210mm"
   height="297mm"
   viewBox="0 0 210 297"
   version="1.1"
   id="svg856"
   sodipodi:docname="Vzhuru.svg"
   inkscape:version="1.0.2-2 (e86c870879, 2021-01-15)">
  <defs
     id="defs850" />
  <sodipodi:namedview
     id="base"
     pagecolor="#ffffff"
     bordercolor="#666666"
     borderopacity="1.0"
     inkscape:pageopacity="0.0"
     inkscape:pageshadow="2"
     inkscape:zoom="0.35"
     inkscape:cx="131.42857"
     inkscape:cy="560"
     inkscape:document-units="mm"
     inkscape:current-layer="layer1"
     inkscape:document-rotation="0"
     showgrid="false"
     inkscape:window-width="1920"
     inkscape:window-height="1020"
     inkscape:window-x="0"
     inkscape:window-y="0"
     inkscape:window-maximized="0" />
  <metadata
     id="metadata853">
    <rdf:RDF>
      <cc:Work
         rdf:about="">
        <dc:format>image/svg+xml</dc:format>
        <dc:type
           rdf:resource="http://purl.org/dc/dcmitype/StillImage" />
      </cc:Work>
    </rdf:RDF>
  </metadata>
  <g
     inkscape:label="Vrstva 1"
     inkscape:groupmode="layer"
     id="layer1">
    <path
       fill="#302e16"
       d="m 209.39393,223.69842 a 16.690973,16.690973 0 0 1 -16.69097,16.69096 H 17.443693 A 16.686917,16.686917 0 0 1 0.75272021,223.69842 V 48.435093 A 16.686917,16.686917 0 0 1 17.447755,31.748183 H 192.70701 a 16.695028,16.695028 0 0 1 16.69503,16.690971 V 223.69842 Z"
       id="path2"
       style="stroke-width:4.05514" />
    <path
       fill="#ffffff"
       d="m 175.89035,128.99864 c 0,0 -3.83212,-18.58472 -6.07463,-20.83127 l -8.56852,-8.568529 1.26521,-1.257075 0.13798,-0.133341 a 3.0373026,3.0373026 0 0 0 0,-4.278164 l -3.21165,-3.215733 -3.20357,-3.215722 c -1.30981,-1.17601 -2.7129,-1.585559 -4.28628,0 l -1.40714,1.402982 -12.2668,-12.287075 c -0.81108,-0.811079 -2.11679,-0.811079 -2.9197,0 l -14.51741,14.517411 a 2.0802887,2.0802887 0 0 0 0,2.903494 l 12.28707,12.287062 -28.28866,28.28871 -28.775321,-28.79154 A 190.08488,190.08488 0 0 1 91.624578,92.908286 1.857256,1.857256 0 0 0 92.042221,90.321107 C 88.424997,85.332858 84.795639,80.353145 81.174396,75.369373 A 1.9099728,1.9099728 0 0 0 79.852482,74.66374 1.9099728,1.9099728 0 0 0 78.425122,75.101618 212.52199,212.52199 0 0 0 60.355406,90.12594 l -1.463891,-1.459858 -1.001589,-0.665016 c -1.151634,-0.01991 -0.559571,0 -1.784252,-0.08117 -0.64065,0.08117 -0.977374,0.377187 -1.492345,0.746093 l -3.215719,3.211681 -3.203567,3.211668 a 3.0089166,3.0089166 0 0 0 0,4.278176 l 1.459852,1.459846 a 210.25516,210.25516 0 0 0 -15.052705,18.09405 1.9180832,1.9180832 0 0 0 -0.433893,1.43548 1.9018624,1.9018624 0 0 0 0.709618,1.32191 c 4.979711,3.62937 9.967546,7.24653 14.947257,10.87184 0.827326,0.59205 1.987023,0.40553 2.587179,-0.42179 a 191.50822,191.50822 0 0 1 12.935912,-15.59209 l 28.78747,28.76718 -38.544139,38.55632 a 6.0624401,6.0624401 0 0 0 0,8.56852 l 1.070558,1.06243 1.070559,1.07454 a 6.0624401,6.0624401 0 0 0 8.564463,0 l 38.544136,-38.55225 39.69985,39.69985 a 6.0664953,6.0664953 0 0 0 8.56447,0 l 1.07056,-1.07054 1.0747,-1.07056 a 6.0705505,6.0705505 0 0 0 0,-8.56852 l -39.69987,-39.69986 28.28464,-28.28464 8.56447,8.56447 c 1.85319,1.86538 20.89209,6.02191 20.89209,6.02191 0.77046,0.24339 1.62206,0.13342 2.30737,-0.28799 a 2.8386007,2.8386007 0 0 0 0.29198,-2.31955"
       id="path4"
       style="stroke-width:4.05514" />
  </g>
</svg>
